<svg height="316.227766" viewBox="0 0 600.00001 599.99998" width="316.227766" xmlns="http://www.w3.org/2000/svg"><circle cx="300.00001312039" cy="300.00000587961" fill="#530d34" r="300.00001312039"/><circle cx="300.00001312039" cy="300.00000587961" fill="#6a233f" r="285.50726229452"/><circle cx="300.00001312039" cy="300.00000587961" fill="#530d34" r="206.59825860858"/><g fill-rule="evenodd" transform="matrix(1.12256779984 0 0 1.12256779984 64.938286233 94.0901947434)"><path d="m277.7181 211.6184c20.459-26.677 36.2909-56.25326 45.2229-87.31526-34.119-16.692-72.225-35.006741-111.836-31.85714-.623-.007-1.247-.006-1.87-.01v176.87263c26.611-15.2972 49.2221-32.57123 68.4831-57.69023z"/><path d="m322.941 118.744c-40.35718-17.13727-77.95446-31.723295-113.706-31.86714v187.99091c60.76405-36.25367 94.56055-91.13929 113.706-156.12377z"/></g><g fill-rule="evenodd" transform="matrix(1.56012794506 0 0 1.56012794506 501.44927660944 95.26680111611)"><path d="m-68.222054 110.14395c-.992603-.16848-1.98205-.34328-2.974652-.51239-3.208131-.31804-6.075509-.73956-9.241993-1.48859-.417738-.10096 3.67509-2.21553 4.587552-2.70836 1.498685-.8664 1.51446-1.66086 1.566835-3.4353 0-1.83944 3.531847-2.494441 4.868358-2.760734.71369-.136301-.950954-.998912-1.26836-1.128904-1.19453.106644-2.390954.217073-3.584853.324347-2.746852 1.356073-5.500645 2.711511-8.244973 4.067591-.421525.1912-.846836.3824-1.265205.57107-2.231936-2.32911-5.19586-.98944-6.937489-2.81942-.305416-.320556.13567-.495981.404487-.14576.737668.99891 2.242032.55151 3.455493.55151.431621 0 .299106-1.401503.340122-1.874772.05869-.434776-3.337491-.01325-4.102924-.944013-.143243-.197511-.950955-1.450096-.696652-1.142156.194356-.106643.288378-.282068.521858.263138.12936.304785.670779.889114 1.017843.97304.276389.06815.723786.145767 1.174338.207608.379877.0549.772374.04543 1.139.06499.639228.0265.872707-.197511.824119-.330657.210762-1.012164.152077-1.761822.62219-2.546817.04922-.541419-.05174-.622822-.119895-.90489-.08393-.350219-.104119-.367256-.644907-.694758-.551516-.327502-1.887396-.382401-2.984117-.505451-.684663-.0814-1.566836-.399439-1.919579-.603891-.354005-.204452-1.98899-.29532-2.88757-.29532-1.345976.04543-1.170551-.986292-1.031095-2.144223-.817808.389342-1.628676.778685-2.445853 1.171182-2.594774 1.462716-4.301064 3.18857-7.301594 2.883785.4739.48652.94717.969885 1.41792 1.452619-.55467.681507-1.22293.765434-2.0502.681507.43793.551516.86892 1.103032 1.30685 1.654548.30226.655004-1.72522 1.26205-2.20922 1.424223.96989.651858 1.33336.687188 1.39204 1.365548.51934.55782-.66888 1.34913-1.55421 1.80978.72946.25304 1.4665.51617 2.19912.77237 1.12196.28522-.94023 2.42629-1.26773 2.76326.81024.23979 1.62426.47705 2.42882.71432.76227.15523-.70044 1.67979-.93329 2.28305-.16217.41521 3.05858 2.14422 3.05858 2.14422.0915.14577.1811.28585.26629.43099.0846.0978.17479.19183.25935.28585.65501.71369-1.84259.65501-2.25086.59001-2.13413 2.72414-5.01476 4.32063-7.99194 5.79281-.51933.25367-1.10997.41522-1.62236.67457-.40196.20761-.7099.0789-.96673.0461-1.44316-.18173-1.505-.89542-1.47534-1.01847.10033-.48652-.20382-.23348.33003-1.1939.24357-.44109.33065-.77869 1.06138-2.17325.0486-.0782.11106-.14892.16217-.22338 2.81185-3.55835 7.90422-7.50352 4.98258-12.64448-.65501-.74587-1.40466-1.46272-2.0603-2.208595-.62219-.389343-1.22545-.784995-1.78706-.998913-.55404-.213917-.97935-.249886-1.39457-.463803-1.10618-.02587-3.33812-.703593-4.90117.314881-5.75116 3.72053-3.19488 7.72628-1.82997 12.89689.1628-.11673.32182-.23978.48021-.36347 1.25195-1.42043 1.45073-1.88739 2.54366-3.61956.84999-1.62867.0909-2.33542-.0259-3.00998-.56161-.53827-1.12259-1.08032-1.68042-1.61543.45812-1.10619.85567-1.25889 1.75425-1.93283.33129-.34706 3.07246-.0682 3.93823.47012.83989.48021 1.20652.47074 1.60911.88911.87586.9762 1.52456 1.9688 1.46587 3.07183-.0587 1.1024-.58748 1.53402-.91498 2.41935-.55468.89479-1.19958 1.51194-1.95618 2.40988-3.05227 2.53041-5.17946 6.48126-4.52824 10.00049.23979 1.55043 3.25357 2.40042 4.55095 2.78282 1.32011.354 1.29739 3.21192 1.62111 4.60017.50734 2.51716-3.97925 3.19804-3.48011 6.42888.19752 1.22609 2.90335 1.71261 3.87261 2.18966 1.76497 1.06706 3.52301 2.13539 5.2842 3.19804 2.23193.0328 4.45062.0675 6.678768.10664-.194356-.51807-.388712-1.03111-.586858-1.54664-.7812-1.31065-4.52192-1.4173-5.96129-1.51509-1.41791-.96547-2.83583-1.93978-4.25248-2.90524.58623-.79194 1.17371-1.58388 1.7675-2.37203.39566-.49661 2.34552.80772 2.86738 1.11629.98882-.22339 1.97259-.44803 2.95825-.67078.56477-1.98836 3.192353-1.70629 2.59793-5.07344.0972-.0133.201295-.0322.302259-.0448 2.001611.82349 3.282592 1.8975 5.575737 1.51762.204452.1363.40638.2726.613356.40827.227169.2076.470745.2726.298475.57739-1.364907 2.45847-2.072286 3.47695-2.244556 6.36704-.07762 1.31758 2.400419.66195 3.639752.66195 3.97672-.0252 7.957226-.0549 11.933945-.0801 1.099246-.11106-1.392041-2.10573-2.057141-2.28368-2.58531-.71054-6.108322-.83359-8.732124-.33823.07825-.19373.155863-.38177.230324-.5736 1.332725-2.05273 3.853039-2.2736 5.335947-4.34335.01641-.70675.02335-1.41665.03534-2.12782-.641753-2.69826-8.196384-4.40518-10.570931-5.59908-.226538-.11674-.447397-.23032-.671411-.34706 3.571602-2.09185 8.936576-2.97403 11.236663-6.75639l2.098158-.18804c.610201-.0839 1.268991 1.00585 1.538439 1.52771.499772-.70991 1.005854-1.41792 1.508781-2.13097.08708-.17543 1.767501 1.70629 1.935984 2.18587.558457-.77175 1.106187-1.54665 1.657072-2.31902.276389.36726.548361.73641.820964 1.09988.344539-.53511.687817-1.07022 1.027939-1.60849 2.560069-.30163 4.496685-.57738 7.071898-.0517.383032.0896-.486521-1.42864-.629132-1.87667" fill="#f9a240"/><path d="m-94.291591 93.640122c-.165959-.03281-.191832.04228-.263768.259351.06815.03597.136932.07446.204452.11043.545205.08771 1.054443.227169 1.628675.201297.107275-.0063.113585-.04543.139457-.194987.05553-.278282-1.45893-.330657-1.708816-.376091" fill="#12100b"/><path d="m-91.917675 107.78897c-3.039016-3.63282-7.008795-6.598-7.107235-9.71779-.0997-.132515-.07067-.07131-.06436.113584.618404 5.014126 4.533915 6.834636 7.268777 10.441576.119895.16154.515548.62913.629763.79761.72631 1.15793 1.121331 1.42044 2.075441 3.74955-.408273-1.89118-1.400875-3.71043-2.802382-5.38453" fill="#12100b"/><path d="m-92.942459 108.86297c-3.039017-3.63597-7.012581-6.59421-7.110391-9.720941-.0965-.129991-.0675-.07131-.0618.11674.616512 5.014751 4.534546 6.831481 7.266253 10.438411.119895.16218.515548.63166.629132.80141.72631 1.16108 1.125118 1.42359 2.076073 3.74955-.41206-1.89182-1.404031-3.71169-2.799227-5.38517" fill="#181613"/><path d="m-90.376712 106.98441c-3.042171-3.63597-7.009426-6.59737-7.107866-9.720942-.0997-.132515-.07067-.07131-.06752.113584.622822 5.014758 4.541487 6.834628 7.271932 10.441568.120526.16533.512392.63292.629763.80141.723155 1.15477 1.121963 1.42043 2.072286 3.74955-.405118-1.89497-1.393934-3.71043-2.798596-5.38517" fill="#13120d"/></g><g transform="matrix(1.56012794506 0 0 1.56012794506 501.44927660944 95.26680111611)"><g fill="#fff" fill-rule="evenodd" transform="matrix(-.71953573 0 0 .71953573 21.312327 -.754173)"><path d="m277.7181 211.6184c20.459-26.677 36.2909-56.25326 45.2229-87.31526-34.119-16.692-72.225-35.006741-111.836-31.85714-.623-.007-1.247-.006-1.87-.01v176.87263c26.611-15.2972 49.2221-32.57123 68.4831-57.69023z"/><path d="m322.941 118.744c-40.35718-17.13727-77.95446-31.723295-113.706-31.86714v187.99091c60.76405-36.25367 94.56055-91.13929 113.706-156.12377z"/></g><path d="m-129.23973 64.30901h-26.53906v27.980052h26.53906zm-26.53906 27.980052h-26.65039v27.404298h26.65039zm0 27.404298v27.4043h26.53906v-27.4043zm0 27.4043h-29.74024l29.74024 30.67578zm-26.65039-27.4043h-19.92188l19.92188 33.13476zm0-27.404298v-20.070312l-26.58789 15.306641c.45949 1.59796.92896 3.177012 1.39453 4.763671zm23.45117 82.212888 29.73828 24.52149v-24.52149z" fill="#1c4586"/></g><g fill="#fff" fill-rule="evenodd" transform="matrix(1.56012794506 0 0 1.56012794506 500.74607858063 95.26680111611)"><path d="m-9.6161584 105.04698c-83.3304686-69.38011-153.5980116-68.076654-238.1133216 0l-2 14c85.5006-70.984072 156.81226-73.154239 242.1133216 0z"/><path d="m-222.01545 52.3787c4.15097 41.153652 15.16491 73.08458 32.13463 98.89563 27.65954 42.0703 71.67601 66.24969 138.2995 75.47047l10.251136-9.78181c-70.990606-6.34198-111.154996-29.30077-139.603966-70.78074-17.9886-26.22824-28.60141-57.102482-31.60127-103.542054z"/><path d="m-35.330184 52.3787c-4.15097 41.153652-15.16491 73.08458-32.13463 98.89563-27.659536 42.0703-71.676006 66.24969-138.299496 75.47047l-10.25114-9.78181c70.99061-6.34198 111.155-29.30077 139.603966-70.78074 17.9886-26.22824 28.60141-57.102482 31.60127-103.542054z"/></g><g fill="#fff" transform="matrix(1.0003507 0 0 1.0003507 -601.50745471061 -.210401)"><g><path d="m728.75195 88.304688c-3.54776.202798-7.17501 1.988823-10.89257 5.197265l-12.86133 11.101567.65429.75586 30.88086 35.78124 13.33008-11.5039c4.03507-3.48247 6.49273-7.1332 7.20313-10.96875.71007-3.83384-.44536-7.53842-3.29297-10.83789-2.16902-2.51321-4.74909-4.08171-7.65039-4.58399-1.98375-.36367-3.99613-.0264-6.00782.61914.68009-1.39934 1.12891-2.83579 1.06446-4.322261-.10426-2.404623-1.20339-4.759055-3.1543-7.019531-2.54287-2.946378-5.72635-4.421509-9.27344-4.21875zm-.88086 8.009765h.004c1.57324-.0908 2.93578.538351 4.32031 2.142578 1.39926 1.621299 1.82516 3.069139 1.50586 4.609379-.31638 1.50815-1.50058 3.27533-3.7207 5.1914l-6.25781 5.39844-7.80274-9.04102 6.25586-5.400386c2.21914-1.915231 4.14308-2.819338 5.69336-2.898438l.002-.002zm13.68163 13.732427h.006.008c1.77849-.0285 3.48323.8396 5.25 2.88671 1.75238 2.03045 2.3754 3.85772 2.10742 5.6543-.26439 1.76015-1.5174 3.73122-3.96289 5.8418l-6.8418 5.90625-9.76953-11.31641 6.84375-5.9082c2.44548-2.11086 4.57958-3.06054 6.35937-3.06445z"/><path d="m773.26953 57.375c-2.94426.303271-5.90434 1.265918-8.84765 2.876953-5.90415 3.231647-9.65976 7.915654-11.05469 13.882813-1.38737 5.942191-.21737 12.265636 3.3789 18.835937 3.59628 6.5703 8.29185 10.962247 14.04493 12.996097h.002v.002c5.76861 2.02224 11.73351 1.37371 17.63672-1.85742 5.8857-3.22156 9.62688-7.888436 11.01367-13.828127v-.002c1.3763-5.958264.20964-12.279412-3.37695-18.832031-3.59593-6.569667-8.29065-10.96199-14.04297-12.996094h-.002c-2.87952-1.025336-5.80831-1.381331-8.75195-1.078125zm.0937 7.378906c1.82333-.11086 3.63688.235127 5.48242 1.03125h.002l.002.002c3.7073 1.582654 6.93779 4.79591 9.67187 9.791016 2.72391 4.976511 3.68458 9.419729 3.01954 13.396484v.002.002c-.64807 3.967297-2.74296 6.857078-6.51172 8.919922-3.76737 2.062078-7.35399 2.280722-11.08203.707031l-.004-.002c-3.70655-1.58363-6.93136-4.786973-9.6543-9.761719-2.73408-4.995105-3.69808-9.45-3.0332-13.425781.6836-3.98843 2.79903-6.891044 6.56641-8.953125 1.88438-1.031422 3.71768-1.598125 5.54101-1.708985z"/><path d="m824.85938 37.558594c-2.16576.02981-4.55351.442009-7.15626 1.210937l-14.50976 4.28711 13.67383 46.287109 7.92187-2.339844-5.54101-18.751953 5.58007-1.648437c2.24691-.663803 4.04451-.694981 5.43946-.216797l.002.002h.004c1.37608.461318 3.32089 1.902363 5.60937 4.380859l.002.002 9.46093 10.158204 8.59766-2.539063-10.77734-11.501953-.002-.002c-2.00333-2.173856-3.86221-3.826894-5.61523-4.957031-1.00422-.658069-1.99038-1.096978-2.9668-1.408204 1.49188-1.322838 2.71153-2.812048 3.31641-4.617187v-.0039c.83927-2.453556.78898-5.195036-.0801-8.136719-1.31935-4.465866-3.7086-7.60625-7.13477-9.123047-1.71406-.758833-3.65846-1.111846-5.82421-1.082031zm-1.48423 7.476562c1.06365.0078 1.98002.211699 2.76172.587891l.006.002.006.0039c1.57455.730517 2.70919 2.159915 3.42187 4.572266s.54472 4.256247-.37695 5.769531c-.90372 1.480685-2.63372 2.671413-5.37891 3.482422l-6.58984 1.947266-4.08594-13.832032 6.58789-1.947265c1.37293-.405603 2.58479-.593705 3.64844-.585938z"/><path d="m877.88477 28.042969c-2.00377-.08927-4.14035-.04741-6.41016.123047l-13.82227 1.039062.0762.996094 3.53906 47.132812 13.82031-1.039062c9.03868-.678778 15.71049-3.073307 19.87695-7.369141 4.16819-4.297608 5.87597-10.638168 5.26563-18.765625-.60717-8.085053-3.23081-14.067805-7.9707-17.675781l-.002-.002c-3.55706-2.721309-8.36291-4.171707-14.37304-4.439453zm-.58204 7.113281c4.01474.221014 7.07106 1.284225 9.23633 3.107422l.004.002.002.002c2.9049 2.411098 4.65725 6.516517 5.10938 12.53711.4553 6.062851-.66409 10.416175-3.17578 13.253906v.002l-.002.002c-2.49158 2.834846-6.74989 4.570385-12.96484 5.037109l-6.54297.492188-2.54492-33.880859 6.54297-.492188c1.55373-.116681 2.99769-.136171 4.33593-.0625z"/><path d="m918.04688 27.365234-.12696.992188-6.04687 46.876953 31.54883 4.070313.92968-7.208985-23.35742-3.013672 1.88867-14.640625 21.85157 2.816406.92968-7.207031-21.85156-2.818359 1.49609-11.601563 22.80469 2.941407.92969-7.207032z"/><path d="m980.06836 39.632812-.43555.533204-32.22656 39.49414 8.31445 2.753906 7.73047-9.943359 18.45899 6.111328.26953 12.591797 8.22656 2.722656-2.29297-51.599609zm.84961 10.871094.70898 20.394532-13.42383-4.445313z"/><path d="m1019.4453 54.751953-.5019.865235-14.4786 24.990234c-3.1064 5.361799-4.2033 10.331216-3.0937 14.802734v.002.002c1.1282 4.480378 4.4203 8.244894 9.6309 11.263664 5.1931 3.00874 10.0809 3.98019 14.5117 2.71875 4.4475-1.25104 8.224-4.67014 11.3301-10.031242l14.9785-25.855468-7.1739-4.15625-14.5898 25.185546c-2.4237 4.183419-4.8842 6.623194-7.1895 7.488274-.0006.00022 0-.00022 0 0-.0007.00027 0 .002 0 .002-2.2991.84747-5.0046.43903-8.3144-1.47852-3.3276-1.927856-5.0348-4.078718-5.4434-6.492182-.3976-2.4305.4951-5.781301 2.9199-9.966797l14.5918-25.183594-7.1738-4.15625z"/><path d="m1066.8516 84.302734-.2637 1.851563-3.5742 25.015623-29.9512 7.66211 6.8223 6.11719 21.955-5.66016-3.3027 22.38086 6.791 6.08789 4.4141-29.67578 27.0762-6.91211-6.7969-6.0957-19.1582 4.85547 2.7851-19.533206z"/></g><g stroke="none" stroke-width="2"><g transform="matrix(-.35114676 -.93632043 .93632043 -.35114676 936.7451 1243.763)"><path d="m902.65039 26.410156-8.2793.404297 1.41993 29.070313c.23608 4.831439-.50691 8.217613-1.97461 10.195312l.004-.002c-1.47029 1.96205-3.96433 3.088589-7.78711 3.275391-3.84433.187855-6.4463-.692038-8.09961-2.5-1.65211-1.825742-2.7191-5.122163-2.95507-9.951172l-1.42188-29.072266-8.2793.40625.0488.998047 1.40821 28.845703c.30244 6.189277 2.07991 10.960653 5.43945 14.113281l.002.002c3.38003 3.149934 8.18845 4.52438 14.20313 4.230469 5.99466-.292932 10.62609-2.13072 13.66211-5.595703 3.05565-3.465302 4.37075-8.387679 4.06836-14.576172l-1.45899-29.84375z"/><path d="m925.82422 27.833984-8.16211 47.56836 7.95703 1.365234 6.03516-35.167969 12.60547 38.367188 9.88476 1.697265 8.16406-47.570312-7.95703-1.365234-6.03515 35.167968-12.60547-38.367187z"/><path d="m982.33594 40.357422-.32227.947266-15.22656 44.74414 7.81836 2.660156 15.54883-45.691406z"/><path d="m1019.0488 56.083984c-2.9555-.280572-5.8882.09886-8.7676 1.146485-5.7337 2.087926-10.3876 6.523082-13.92188 13.126953-3.53425 6.603872-4.64248 12.938322-3.19922 18.867187v.002c1.46147 5.935527 5.26392 10.574592 11.1973 13.750001 5.9158 3.166 11.8703 3.74721 17.6015 1.66016 5.7411-2.10598 10.3952-6.542808 13.9199-13.128911 3.5343-6.603871 4.6425-12.936369 3.1992-18.865234-1.4327-5.943403-5.213-10.583945-11.1289-13.75-2.9671-1.587956-5.9448-2.528021-8.9004-2.808594zm-.014 7.386719c1.8348.09821 3.6782.652382 5.5722 1.666016 3.788 2.027265 5.9103 4.896397 6.5957 8.857422v.002.002c.7023 3.96934-.2213 8.432498-2.9082 13.453125-2.6769 5.001937-5.8733 8.235627-9.5664 9.853516v.002c-3.676 1.626936-7.2414 1.453047-11.0293-.574219-3.7867-2.026516-5.9293-4.908815-6.6504-8.890625-.7025-3.970318.2156-8.423842 2.8926-13.425781 2.6863-5.01954 5.8868-8.263014 9.5781-9.88086 1.8572-.805327 3.6827-1.16266 5.5176-1.064453z"/><path d="m1064.8281 82.845703-.6582.751953-31.0879 35.601564 6.0801 5.31055 23.4707-26.876958-9.2246 39.316408 7.5547 6.59766 31.7461-36.35547-6.0801-5.3086-23.4707 26.875 9.2246-39.316404z"/></g><g transform="matrix(.25411988 .96717272 -.96717272 .25411988 961.20901 -650.14883)"><path d="m868.90625 28.472656-16.89453 1.78711.10351.99414 4.97071 47.001953 17.51172-1.851562c5.30048-.560454 9.39949-2.158235 12.16992-4.904297 2.76918-2.744835 3.93289-6.447047 3.47461-10.78125-.34911-3.301643-1.57436-6.062052-3.67188-8.128906-1.42175-1.428776-3.26766-2.299535-5.28711-2.916016 1.3561-.761819 2.54159-1.685707 3.33594-2.943359 1.28531-2.034954 1.72608-4.595076 1.41211-7.564453-.40924-3.870382-2.18514-6.898144-5.21484-8.753907-3.03029-1.85612-7.02675-2.455807-11.91016-1.939453zm.28906 7.152344c2.91508-.30823 5.01136.04634 6.33008.865234l.002.002h.004c1.34426.822374 2.10335 2.115333 2.32617 4.222656.22512 2.128969-.2491 3.561328-1.38867 4.644531-1.11958 1.059168-3.10026 1.836065-6.01758 2.144531l-8.21875.869141-1.25586-11.878906 8.21875-.869141zm2.77149 18.839844c3.21241-.339669 5.50605.09605 6.9707 1.107422l.006.0039.006.0039c1.47738.990553 2.38363 2.676132 2.66797 5.365234.28188 2.665932-.24902 4.522639-1.49219 5.845704-.00033.000352-.002-.000353-.002 0-.00039.000411.00038.0015 0 .002-1.22103 1.294389-3.37301 2.199546-6.58399 2.539062l-8.99023.951172-1.57227-14.867187 8.99024-.951172z"/><path d="m901.61914 26.628906-.0684.998047-3.24414 47.152344 31.73438 2.183594.49804-7.25-23.49414-1.617188 1.01367-14.730469 21.98047 1.513672.49805-7.251953-21.98047-1.511719.80469-11.669922 22.9375 1.580079.5-7.251953-31.17969-2.144532z"/><path d="m964.0332 34.701172c-5.06297-.463626-9.62091.494929-13.58008 2.908203-5.25742 3.205242-8.86121 8.659017-10.8164 16.148437-1.95009 7.469908-1.47179 13.98864 1.54101 19.373047v.002l.002.002c3.0383 5.367145 8.26718 9.00541 15.45117 10.880859 3.28284.857016 6.49964 1.236192 9.64062 1.128906h.004.002c3.14504-.127899 6.16229-.735504 9.03516-1.822265l.48438-.181641 5.40039-20.6875-17.82618-4.654297-1.80468 6.91211 9.89453 2.583984-2.7168 10.404297c-1.29521.309305-2.64847.509466-4.14258.460937-1.6852-.07494-3.57313-.380009-5.65625-.923828-5.29482-1.382265-8.70859-3.816662-10.51758-7.300781v-.002c-.00041-.000807-.002-.0011-.002-.002-1.78875-3.481931-2.00395-8.113831-.4668-14.001953 1.54251-5.908636 3.99619-9.852971 7.25782-12.015626l.004-.002c3.28119-2.155258 7.45129-2.610776 12.7461-1.228515 2.66703.696256 5.07176 1.813442 7.24023 3.359375 2.16964 1.546763 4.09485 3.510211 5.7793 5.910156l1.24023 1.767578 2.36914-9.068359-.37913-.402296c-1.92249-2.052113-4.15454-3.808912-6.68555-5.263672h-.002c-2.51246-1.45021-5.27032-2.565193-8.26758-3.347656-1.79623-.468923-3.54086-.782958-5.22852-.9375z"/><path d="m1001.4766 47.074219-.418.908203-19.77344 42.93164 27.96484 12.878908 3.0391-6.601564-20.46098-9.423828 17.15038-37.238281z"/><path d="m1038.0156 65.064453-.5547.832031-26.2109 39.332036 26.4707 17.64062 4.0313-6.04883-19.5977-13.05859 8.1875-12.287111 18.334 12.218751 4.0293-6.048829-18.334-12.216797 6.4863-9.734375 19.1348 12.75 4.0293-6.046875z"/><path d="m1075.4043 95.601562c-3.9883-.272874-7.5964 1.249751-10.5605 4.398438-2.5565 2.71553-3.8385 5.7399-3.6622 8.91016.1763 3.16819 1.7437 6.68755 4.5684 10.65234v.002l2.2676 3.15625c1.8159 2.56171 2.715 4.69552 2.8242 6.27735v.004.004c.1224 1.60191-.4352 3.05792-1.8516 4.5625-1.6138 1.71422-3.2989 2.34472-5.3848 2.07422-2.0879-.27075-4.4052-1.51313-6.9121-3.87305-1.6402-1.54412-3.0754-3.37067-4.3105-5.49219-1.2369-2.12441-2.2869-4.54346-3.1407-7.26172l-.5117-1.6289-6.0664 6.44336.3125.625c1.28 2.55992 2.6594 4.88786 4.1426 6.98047 1.498 2.10638 3.0694 3.9375 4.7188 5.49023 4.3235 4.0701 8.5001 6.39009 12.5781 6.78906 4.0916.41338 7.8834-1.20597 11.1094-4.63281 2.7102-2.8789 4.0949-6.11205 3.9941-9.54297v-.004c-.073-3.43981-1.6129-7.11674-4.4765-11.06446l-2.2168-3.15039-.01-.008c-2.0096-2.7507-3.0342-4.895-3.1894-6.14844-.1297-1.28122.3228-2.50008 1.5859-3.84179 1.4975-1.59073 3.0555-2.16807 5.0098-1.91016 1.9741.2723 4.1767 1.46117 6.5644 3.70898 1.36 1.2803 2.5956 2.80847 3.7071 4.59375 1.1123 1.78681 2.1378 3.88515 3.0703 6.29297l.5742 1.47852 5.7656-6.125-.3418-.63477c-1.1983-2.22603-2.4976-4.27611-3.9004-6.14844-1.4031-1.87273-2.9177-3.57339-4.541-5.10156-3.7982-3.57558-7.7157-5.586843-11.7207-5.874998z"/></g></g></g><g fill="#530d34" transform="matrix(.99856668457 -.05971682535 .05971682535 .99856668457 -615.97352618331 53.62073396063)"><path d="m797.67383 505.0918-14.22266 35.95117 7.27539 2.87891 5.54492-14.01368 3.49219 1.38086c1.58706.62789 2.55163 1.38623 3.0625 2.17188l.002.004.004.004c.49017.74274.99808 2.45023 1.20508 4.98242l.002.002.95508 11.11329 7.94531 3.14453-1.18359-13.27539c-.1867-2.31283-.53502-4.25125-1.0918-5.85547-.171-.50445-.40998-.92747-.63086-1.37305 1.22698-.21558 2.39341-.59732 3.41992-1.27539 1.81911-1.1857 3.18065-3.01531 4.0918-5.31836 1.37268-3.46964 1.44205-6.77712-.0312-9.53906-1.47482-2.76479-4.33135-4.84528-8.3164-6.42188l-11.52344-4.56054zm4.71289 9.35547 4.24805 1.68164c1.94853.77089 3.01779 1.704 3.5039 2.68945l.006.01.004.01c.49994.97838.53908 2.12522-.12305 3.79883-.66212 1.6736-1.48853 2.51136-2.54883 2.91016-1.02861.38546-2.447.33494-4.39453-.43555l-4.24609-1.67969 3.55078-8.98437z"/><path d="m835.28125 518.92773-4.81055 23.26954c-.99112 4.79509-.58981 8.9177 1.4375 12.11914l.002.002.002.002c2.04331 3.20215 5.58088 5.25131 10.25195 6.2168 4.6546.96209 8.70047.48073 11.83008-1.65234l.004-.002c3.14503-2.13111 5.15733-5.75578 6.14843-10.55078l4.8086-23.26953-7.68555-1.58984-4.68945 22.68554c-.73592 3.5604-1.91111 5.77921-3.17578 6.80469-.00045.00036-.002-.00036-.002 0-1.26749 1.01387-3.07851 1.37113-5.83789.80078-2.77353-.57328-4.30331-1.62022-5.06445-3.04883v-.002c-.75641-1.44213-.95934-3.94763-.22266-7.51172l4.68946-22.68359-7.68555-1.58985z"/><path d="m894.58008 526.29297c-5.86466-.14068-10.74824 1.51552-14.29297 5.01367-3.5331 3.48728-5.33034 8.43365-5.47656 14.5293-.14585 6.08046 1.41319 11.10668 4.77148 14.77344l.002.002.004.004c3.37415 3.64748 8.16997 5.52537 14.0332 5.66602 2.67836.0642 5.23208-.2273 7.64258-.88281l.004-.002h.006c2.40897-.67194 4.63924-1.69523 6.66797-3.0625l.64257-.43359.42188-17.58008-15.65625-.37695-.16602 6.96289 7.87891.18945-.16992 7.06641c-.7599.34514-1.52589.6846-2.44922.87109-1.21444.22933-2.63169.3337-4.24805.29492-4.08287-.0979-6.8337-1.25324-8.65039-3.36718-1.80205-2.11498-2.75825-5.35352-2.64844-9.93164.11022-4.59475 1.22279-7.78949 3.12305-9.81446l.002-.002c.00061-.00064.001-.001.002-.002 1.91585-2.02176 4.71669-3.04319 8.79687-2.94532 2.04023.0489 3.95185.44466 5.76953 1.1875 1.81967.74366 3.53737 1.82776 5.16993 3.28126l2.41992 2.15429.2207-9.19922-.68945-.45703c-1.86666-1.24071-3.91945-2.19579-6.14063-2.85937h-.002c-2.20755-.66382-4.54142-1.02141-6.98828-1.08008z"/><path d="m940.81836 523.97656c-1.62126-.18668-3.40074-.1211-5.32227.16797l-13.67187 2.05664.22461 1.48242 5.52734 36.75 14.14453-2.1289c4.16723-.62691 7.44384-2.04469 9.63282-4.41407 2.18719-2.36745 3.02046-5.5378 2.49609-9.02343-.4004-2.66154-1.51793-4.92769-3.33594-6.56836-.88435-.81292-1.90773-1.43545-3.0332-1.88867.54635-.50792 1.10597-1.00611 1.47656-1.6543 1.02011-1.78425 1.27726-3.95738.91797-6.3457-.47184-3.13641-2.09427-5.66052-4.67969-7.0918-1.29315-.71589-2.75569-1.15512-4.37695-1.3418zm-1.92969 6.99414c.73751.0733 1.31243.24679 1.72852.48047l.004.002.004.002c.85579.47315 1.34677 1.18257 1.56641 2.64258.22243 1.47855-.0411 2.31083-.7168 3.01172-.65951.67948-1.99836 1.31609-4.14258 1.63867l-5.58008.83984-1.15234-7.66406 5.57812-.83985c1.07175-.16122 1.97343-.18655 2.71094-.11328zm3.04688 14.42774c.81343.0983 1.45102.31539 1.92578.61328l.008.006.01.006c.95457.58088 1.60485 1.60176 1.89453 3.52734.28701 1.90783-.0319 3.09378-.78516 3.96875-.73267.84805-2.17907 1.57827-4.54101 1.93359l-6.16797.92774-1.49805-9.95313 6.16992-.92968c1.18177-.17779 2.17095-.19796 2.98438-.0996z"/><path d="m987.42188 510.65625-8.39844 2.65234-4.54492 15.56836-12.72266-10.11523-8.39453 2.65039 2.21094 1.75586 17.29101 13.72851 5.42774 17.1875 7.48437-2.36328-5.42773-17.1875z"/></g></svg>