<?xml version="1.0" encoding="utf-8"?>
<!-- Generator: Adobe Illustrator 27.0.0, SVG Export Plug-In . SVG Version: 6.00 Build 0)  -->
<svg version="1.1" id="Layer_1" xmlns="http://www.w3.org/2000/svg" xmlns:xlink="http://www.w3.org/1999/xlink" x="0px" y="0px"
	 viewBox="0 0 512 512" style="enable-background:new 0 0 512 512;" xml:space="preserve">
<style type="text/css">
	.st0{fill:#F5821F;}
	.st1{fill:#0CACBA;}
</style>
<g>
	<path class="st0" d="M57.77,219.45c1.21-1.08,2.48-2.12,3.79-3.08c0.28-0.2,0.34-0.59,0.13-0.87c-0.2-0.28-0.6-0.33-0.88-0.13
		c-1.34,0.99-2.65,2.05-3.89,3.16c-0.26,0.23-0.28,0.62-0.04,0.88l0.46,0.2L57.77,219.45z"/>
	<path class="st0" d="M51.19,226.64c0.97-1.3,2.02-2.56,3.12-3.76c0.23-0.25,0.21-0.65-0.04-0.88c-0.26-0.23-0.65-0.21-0.89,0.04
		c-1.12,1.22-2.2,2.52-3.19,3.85c-0.21,0.28-0.15,0.66,0.13,0.87l0.37,0.12L51.19,226.64z"/>
	<path class="st0" d="M83.99,207.16c1.61-0.23,3.25-0.39,4.88-0.47c0.35-0.02,0.61-0.31,0.59-0.65c-0.02-0.34-0.32-0.61-0.65-0.59
		c-1.67,0.08-3.35,0.24-5,0.48c-0.34,0.05-0.58,0.37-0.53,0.7c0.05,0.31,0.31,0.53,0.62,0.53L83.99,207.16z"/>
	<path class="st0" d="M74.28,209.55l0.21-0.04c1.54-0.55,3.11-1.02,4.69-1.41c0.33-0.08,0.54-0.42,0.46-0.75
		c-0.08-0.33-0.42-0.53-0.76-0.45c-1.62,0.4-3.23,0.89-4.81,1.44c-0.33,0.11-0.5,0.47-0.38,0.79
		C73.78,209.39,74.02,209.55,74.28,209.55z"/>
	<path class="st0" d="M42.07,244.57l0.15,0.02c0.28,0,0.54-0.19,0.61-0.47c0.39-1.56,0.87-3.13,1.42-4.66
		c0.12-0.32-0.05-0.68-0.38-0.79c-0.33-0.12-0.68,0.05-0.8,0.38c-0.56,1.57-1.06,3.17-1.46,4.77
		C41.53,244.15,41.73,244.49,42.07,244.57z"/>
	<path class="st0" d="M40.64,248.71c-0.24,1.6-0.4,3.24-0.49,4.85l-0.01,0.12c-0.01,0.34,0.26,0.58,0.6,0.59l0.02,0
		c0.33,0,0.61-0.31,0.63-0.64c0.08-1.58,0.24-3.18,0.48-4.74c0.05-0.34-0.19-0.66-0.53-0.71C41,248.13,40.69,248.37,40.64,248.71z"
		/>
	<path class="st0" d="M93.92,206.7c1.58,0.08,3.17,0.24,4.73,0.47l0.09,0.01c0.3,0,0.57-0.22,0.62-0.53
		c0.05-0.34-0.19-0.65-0.53-0.7c-1.59-0.23-3.22-0.39-4.84-0.48l-0.16-0.01c-0.36-0.02-0.64,0.25-0.65,0.59
		c-0.02,0.34,0.25,0.63,0.59,0.65L93.92,206.7z"/>
	<path class="st0" d="M45.57,235.32c0.23,0,0.46-0.13,0.57-0.35c0.69-1.45,1.47-2.9,2.32-4.29c0.18-0.29,0.08-0.68-0.21-0.85
		c-0.29-0.18-0.68-0.08-0.86,0.21c-0.86,1.43-1.66,2.9-2.38,4.39c-0.15,0.31-0.01,0.68,0.3,0.83L45.57,235.32z"/>
	<path class="st0" d="M91.41,212.72c24.13,0,43.76,19.47,43.79,43.4h2.5c-0.03-25.31-20.78-45.89-46.29-45.89
		c-25.51,0-46.26,20.58-46.29,45.89h2.5C47.65,232.19,67.28,212.72,91.41,212.72z"/>
	<path class="st0" d="M65.64,213.67c1.4-0.83,2.85-1.6,4.32-2.29c0.31-0.15,0.45-0.52,0.3-0.83c-0.15-0.31-0.52-0.44-0.83-0.3
		c-1.51,0.71-3,1.5-4.43,2.35c-0.3,0.18-0.39,0.56-0.21,0.85l0.54,0.3L65.64,213.67z"/>
	<path class="st0" d="M108.15,209.52l0.21,0.04c0.26,0,0.5-0.16,0.59-0.41c0.12-0.32-0.05-0.68-0.38-0.79
		c-1.57-0.56-3.19-1.04-4.81-1.44c-0.34-0.08-0.68,0.12-0.76,0.45c-0.08,0.33,0.12,0.67,0.46,0.75
		C105.04,208.5,106.62,208.97,108.15,209.52z"/>
	<path class="st0" d="M141.25,253.73c0.02,0.33,0.29,0.59,0.62,0.59l0.03,0c0.35-0.02,0.61-0.31,0.59-0.65
		c-0.08-1.66-0.25-3.33-0.49-4.96c-0.05-0.34-0.37-0.57-0.71-0.52c-0.34,0.05-0.58,0.37-0.53,0.7
		C141.01,250.49,141.17,252.11,141.25,253.73z"/>
	<path class="st0" d="M52.38,256.12h6.5c0.03-17.78,14.61-32.23,32.53-32.23c17.92,0,32.5,14.45,32.53,32.23h6.5l-4.16-3.27
		c-0.07-0.76-0.17-1.51-0.29-2.26l3.3-4.4l-5.06-2.17c-0.27-0.72-0.57-1.43-0.89-2.13l2.03-5.09l-5.45-0.79
		c-0.46-0.63-0.92-1.25-1.42-1.85l0.64-5.42l-5.44,0.63c-0.61-0.5-1.24-0.97-1.89-1.43l-0.8-5.38l-5.07,2
		c-0.73-0.33-1.47-0.64-2.23-0.93l-2.16-4.96l-4.36,3.22c-0.8-0.13-1.6-0.24-2.42-0.32l-3.37-4.23l-3.37,4.23
		c-0.81,0.08-1.62,0.19-2.42,0.32l-4.36-3.22l-2.16,4.96c-0.76,0.28-1.5,0.59-2.23,0.93l-5.07-2l-0.8,5.38
		c-0.64,0.46-1.28,0.93-1.89,1.43l-5.44-0.63l0.63,5.41c-0.5,0.6-0.96,1.22-1.42,1.85l-5.45,0.79l2.03,5.08
		c-0.32,0.7-0.62,1.41-0.89,2.14l-5.05,2.17l3.3,4.4c-0.12,0.75-0.22,1.5-0.29,2.26L52.38,256.12z"/>
	<path class="st0" d="M182.51,238.09l-0.26-1.21c-0.53-2.48-1.18-4.96-1.91-7.39l-0.36-1.19l-1.51,0.45
		c-0.51-1.6-1.07-3.17-1.67-4.73l1.48-0.58l-0.46-1.15c-0.94-2.36-1.99-4.7-3.12-6.96l-0.56-1.11l-1.44,0.71
		c-0.77-1.49-1.58-2.95-2.43-4.39l1.37-0.82l-0.64-1.06c-1.32-2.17-2.74-4.31-4.23-6.36l-0.73-1.01l-1.29,0.93
		c-1.01-1.34-2.05-2.65-3.12-3.94l1.22-1.03l-0.81-0.94c-1.66-1.93-3.42-3.81-5.23-5.59l-0.89-0.87l-1.15,1.14
		c-1.21-1.16-2.45-2.28-3.73-3.38l1.05-1.24l-0.96-0.8c-1.96-1.63-4-3.2-6.08-4.66l-1.02-0.72l-0.94,1.31
		c-1.39-0.95-2.79-1.87-4.23-2.74l0.82-1.38l-1.08-0.63c-2.2-1.29-4.48-2.5-6.77-3.61l-1.13-0.54l-0.71,1.45
		c-1.52-0.71-3.07-1.37-4.64-1.99l0.59-1.51l-1.17-0.45c-2.38-0.91-4.83-1.73-7.28-2.44l-1.2-0.35l-0.46,1.55
		c-1.62-0.45-3.25-0.85-4.9-1.21l0.32-1.58l-1.23-0.25c-2.5-0.51-5.05-0.92-7.58-1.22l-1.24-0.15l-0.19,1.58
		c-1.66-0.17-3.34-0.31-5.03-0.39l0.06-1.59l-1.25-0.05c-2.55-0.09-5.14-0.09-7.68,0.02l-1.25,0.05l0.07,1.62
		c-1.69,0.1-3.36,0.25-5.03,0.44l-0.21-1.63l-1.24,0.16c-2.53,0.32-5.08,0.75-7.57,1.28l-1.22,0.26l0.35,1.62
		c-1.65,0.37-3.27,0.79-4.88,1.25l-0.49-1.6l-1.2,0.36c-2.44,0.73-4.88,1.57-7.25,2.5l-1.16,0.46l0.62,1.56
		c-1.56,0.64-3.1,1.31-4.61,2.03l-0.75-1.5l-1.12,0.55c-2.29,1.12-4.55,2.35-6.74,3.66l-1.07,0.64l0.88,1.46
		c-1.43,0.88-2.82,1.81-4.2,2.77l-1.01-1.39l-1.02,0.73c-2.07,1.48-4.1,3.06-6.04,4.71l-0.95,0.81l1.13,1.32
		c-1.26,1.1-2.5,2.23-3.7,3.4l-1.24-1.22l-0.88,0.88c-1.81,1.8-3.55,3.7-5.19,5.63l-0.81,0.95l1.34,1.12
		c-1.06,1.29-2.08,2.62-3.07,3.96l-1.43-1.01l-0.72,1.01c-1.48,2.06-2.89,4.22-4.19,6.4l-0.64,1.07l1.52,0.9
		c-0.84,1.44-1.63,2.91-2.39,4.4l-1.59-0.77l-0.55,1.12c-1.11,2.28-2.14,4.63-3.07,7l-0.45,1.16l1.63,0.62
		c-0.58,1.56-1.12,3.14-1.62,4.73l-1.67-0.49l-0.35,1.19c-0.72,2.44-1.34,4.93-1.85,7.4L0,238.8l1.72,0.35
		c-0.9,4.65-1.42,9.43-1.57,14.3c0.12-2.53,0.33-5.03,0.65-7.5c0.18,0.71,0.69,1.92,2.08,3.28c0.44-5.48,1.37-10.81,2.77-15.97
		l7.54,5.92c-0.92,4.23-1.5,8.56-1.72,12.88L9.28,253c1.07,0.4,2.28,0.78,3.64,1.14l10.21-4.37c-0.18,1.97-0.27,3.88-0.28,5.78
		h-2.23c1.47,0.18,3.04,0.33,4.73,0.44v-0.04c0-2.6,0.16-5.22,0.5-8.01l0.03-0.26l0.11-0.82c0.05-0.32,0.12-0.65,0.17-0.97
		c0.3-0.43,0.66-0.81,1.1-1.12c0.38-0.27,0.8-0.45,1.23-0.58c-0.56,2.84-0.94,5.75-1.09,8.72c-0.06,1.07-0.08,2.13-0.08,3.19
		l0.53,0.03h0.72c0-1.05,0.02-2.1,0.08-3.15c0.16-3.07,0.57-6.07,1.17-9c0.25,0,0.51,0.01,0.77,0.06l0.53,0.15
		c-0.59,2.88-1.01,5.83-1.17,8.86c-0.05,1.03-0.08,2.06-0.08,3.09h1.25c0-1,0.02-2.01,0.08-3.02c0.15-2.86,0.53-5.66,1.07-8.4
		c1.43,0.95,2.25,2.67,1.94,4.47l0.06,0.37c-0.25,2.16-0.4,4.36-0.4,6.58h2.5c0.03-30.1,24.71-54.58,55.05-54.58
		c30.33,0,55.02,24.48,55.05,54.58h2.5c0-2.96-0.23-5.86-0.68-8.69l0.51,0.43c0.69,0.48,1.46,0.78,2.26,0.92
		c0.3,2.41,0.46,4.86,0.46,7.34h1.25c-0.01-2.46-0.15-4.88-0.45-7.27c0.24-0.01,0.48-0.02,0.73-0.06l0.57-0.16
		c0.3,2.47,0.45,4.98,0.46,7.5h0.84l0.41-0.02c-0.01-2.68-0.18-5.34-0.51-7.97c0.78-0.43,1.45-1.02,1.94-1.74l0.08,0.46l0.12,0.82
		l0.03,0.26c0.34,2.79,0.5,5.41,0.5,8.01v0.03c1.66-0.11,3.21-0.26,4.65-0.43h-2.16c-0.01-1.9-0.1-3.8-0.28-5.78l10.18,4.36
		c1.36-0.35,2.57-0.74,3.65-1.14l-2.16-0.93c-0.22-4.32-0.8-8.63-1.72-12.86l7.54-5.93c1.39,5.13,2.33,10.45,2.76,15.9
		c1.39-1.38,1.87-2.61,2.03-3.29c0.43,3.38,0.69,6.82,0.74,10.31h0.03c0-6.08-0.62-12.02-1.77-17.76L182.51,238.09z M168.12,211.81
		l-9.55,1.11c-2.37-3.62-5.03-7.04-7.92-10.19l3.54-8.86C159.58,199.21,164.25,205.25,168.12,211.81z M153.66,227.42
		c-0.78-1.69-1.6-3.26-2.47-4.79l3.02-1.73c0.3-0.17,0.4-0.55,0.23-0.85c-0.17-0.3-0.56-0.4-0.85-0.23l-3.01,1.73
		c-0.95-1.62-1.98-3.21-3.14-4.83l15.62-1.82L153.66,227.42z M160.88,221.94c1.51,3,2.82,6.11,3.92,9.3l-9.83-1.43L160.88,221.94z
		 M142.12,217.63c0.5-0.84,0.76-1.78,0.78-2.74c0.19,0.24,0.39,0.47,0.58,0.72l0.16,0.2l0.5,0.67c1.72,2.27,3.19,4.46,4.48,6.69
		c1.3,2.23,2.48,4.58,3.6,7.19l0.37,0.87l0.06,0.14c0.2,0.51,0.39,1,0.58,1.5c0.01,1.17-0.44,2.28-1.25,3.12
		C149.76,229.42,146.46,223.22,142.12,217.63z M150.94,236.78l-0.61,0.29l-0.65,0.17c-2.14-6.43-5.31-12.41-9.36-17.72l0.58-0.41
		l0.44-0.45C145.57,224.19,148.79,230.3,150.94,236.78z M142.87,205.09c-0.24-0.24-0.64-0.24-0.89,0l-2.43,2.41
		c-1.36-1.32-2.79-2.61-4.27-3.84l14.61-5.75l-5.8,14.51c-1.2-1.44-2.42-2.77-3.66-4.03l2.43-2.41
		C143.11,205.72,143.11,205.33,142.87,205.09z M115.8,197.54c0-0.99-0.26-1.95-0.74-2.8c0.37,0.14,0.74,0.28,1.11,0.43l0.37,0.14
		l0.65,0.27c2.55,1.07,4.99,2.28,7.25,3.57c2.33,1.35,4.6,2.84,6.75,4.45l0.64,0.48l0.23,0.18c0.28,0.22,0.55,0.46,0.83,0.68
		c0.74,1.06,0.97,2.38,0.66,3.6C128.24,203.9,122.26,200.19,115.8,197.54z M133.04,209.76l-0.37,0.55l-0.48,0.47
		c-4.99-4.43-10.71-8.09-16.99-10.72l0.29-0.61l0.16-0.64C121.98,201.45,127.84,205.15,133.04,209.76z M110.24,186.39
		c-0.33-0.09-0.68,0.11-0.77,0.44l-0.88,3.25c-1.79-0.46-3.62-0.86-5.53-1.19l9.75-12.25l2.28,15.45c-1.81-0.66-3.55-1.21-5.28-1.69
		l0.88-3.25C110.78,186.82,110.58,186.48,110.24,186.39z M94.65,192.81c-3.99-0.21-7.9-0.02-11.72,0.48
		c-0.42-0.72-0.97-1.36-1.68-1.85l-0.37-0.21c0.45-0.07,0.9-0.15,1.36-0.21l0.12-0.02l0.96-0.12c1.48-0.18,2.79-0.3,4.02-0.38
		c0.67-0.05,1.34-0.07,2.01-0.1c1.37-0.05,2.74-0.05,4.11,0c0.66,0.02,1.33,0.05,2.02,0.1c1.21,0.08,2.53,0.2,4.01,0.38l0.63,0.07
		l0.45,0.07c0.26,0.04,0.52,0.08,0.78,0.12c1.21,0.54,2.1,1.58,2.46,2.82C100.82,193.37,97.76,192.97,94.65,192.81z M103.99,195.25
		c0,0.23-0.01,0.46-0.05,0.69l-0.17,0.6c-3.01-0.62-6.09-1.04-9.25-1.21c-3.69-0.19-7.31-0.03-10.85,0.42l-0.05-0.65l-0.18-0.63
		c2.57-0.32,5.19-0.51,7.84-0.51c1.1,0,2.2,0.03,3.31,0.09C97.78,194.21,100.91,194.63,103.99,195.25z M72.13,187.15L73,190.4
		c-1.73,0.48-3.47,1.03-5.28,1.69L70,176.64l9.75,12.25c-1.92,0.33-3.75,0.73-5.54,1.19l-0.88-3.25c-0.09-0.33-0.43-0.53-0.77-0.44
		C72.24,186.48,72.04,186.82,72.13,187.15z M62.67,194.17c-1.76,0.81-3.46,1.68-5.1,2.59l-1.7-2.92c-0.17-0.3-0.56-0.4-0.85-0.23
		c-0.3,0.17-0.4,0.55-0.23,0.85l1.7,2.93c-1.57,0.93-3.13,1.92-4.63,2.97l-1.82-15.51L62.67,194.17z M57.24,187.07
		c2.99-1.46,6.09-2.73,9.26-3.8l-1.42,9.59L57.24,187.07z M50.76,204.26l0.09-0.08l0.78-0.58c2.15-1.61,4.42-3.11,6.74-4.45
		c2.27-1.3,4.71-2.5,7.26-3.57l0.16-0.07l0.86-0.34l0.63-0.24c0.77-0.07,1.54,0.04,2.26,0.37c0.45,0.21,0.85,0.5,1.2,0.83
		c-6.7,2.27-12.93,5.59-18.44,9.81c-0.71-0.4-1.5-0.67-2.34-0.74l-0.34,0C49.99,204.9,50.36,204.56,50.76,204.26z M76.39,180.66
		c3.26-0.64,6.57-1.07,9.89-1.28l-3.85,8.87L76.39,180.66z M96.54,179.38c3.32,0.21,6.63,0.64,9.89,1.28l-6.04,7.59L96.54,179.38z
		 M127.79,193.61c-0.3-0.17-0.68-0.07-0.85,0.23l-1.7,2.92c-1.63-0.91-3.32-1.78-5.09-2.59l12.62-9.32l-1.82,15.51
		c-1.5-1.05-3.05-2.04-4.63-2.97l1.7-2.92C128.2,194.16,128.09,193.78,127.79,193.61z M117.73,192.86l-1.42-9.59
		c3.17,1.07,6.26,2.34,9.26,3.8L117.73,192.86z M133.3,201.77l1.13-9.63c2.76,1.83,5.42,3.85,7.96,6.05L133.3,201.77z
		 M155.78,213.24l-9.78,1.14l3.62-9.06C151.83,207.8,153.89,210.46,155.78,213.24z M153.94,193.63l-8.93,3.52
		c-3.23-2.89-6.67-5.5-10.25-7.78l1.11-9.47C142.48,183.71,148.55,188.32,153.94,193.63z M135.53,179.71l-7.71,5.69
		c-3.82-1.94-7.82-3.58-11.92-4.89l-1.4-9.46C121.95,173.05,129,175.98,135.53,179.71z M114.15,170.96l-5.98,7.51
		c-4.18-0.89-8.46-1.44-12.74-1.65l-3.82-8.8C99.39,168.04,106.95,169.06,114.15,170.96z M97.64,188.18
		c-0.7-0.07-1.36-0.12-1.99-0.16c-0.7-0.05-1.41-0.08-2.1-0.1c-0.51-0.02-1.02-0.02-1.52-0.03v-3.35c0-0.34-0.28-0.62-0.63-0.62
		c-0.35,0-0.63,0.28-0.63,0.62v3.35c-0.51,0-1.01,0.01-1.52,0.03c-0.69,0.02-1.39,0.05-2.09,0.1c-0.64,0.04-1.3,0.09-2,0.16
		l6.23-14.34L97.64,188.18z M91.22,168.02l-3.82,8.8c-4.28,0.21-8.56,0.76-12.74,1.65l-5.98-7.51
		C75.87,169.06,83.43,168.04,91.22,168.02z M68.31,171.06l-1.4,9.46c-4.1,1.31-8.1,2.95-11.92,4.89l-7.71-5.69
		C53.82,175.98,60.87,173.05,68.31,171.06z M39.95,205.96l2.43,2.42c-1.24,1.26-2.46,2.59-3.66,4.03l-5.8-14.51l14.61,5.75
		c-1.48,1.23-2.91,2.52-4.27,3.85l-2.43-2.41c-0.24-0.24-0.64-0.24-0.88,0C39.7,205.33,39.7,205.72,39.95,205.96z M32.08,232.2
		c-0.8,0.01-1.59,0.18-2.33,0.52l-0.14,0.09c0.18-0.48,0.37-0.96,0.56-1.45l0.06-0.14l0.37-0.87c1.12-2.61,2.29-4.96,3.6-7.19
		c1.29-2.23,2.76-4.42,4.48-6.69l0.5-0.67l0.16-0.2l0.43-0.53c0.59-0.38,1.26-0.63,1.98-0.69c0.47-0.04,0.94,0.01,1.39,0.11
		C38.54,219.72,34.78,225.68,32.08,232.2z M44.38,214.99l0.62,0.42l0.4,0.41c-4.47,4.98-8.15,10.69-10.79,16.95l-0.5-0.24
		c-0.24-0.09-0.49-0.13-0.74-0.19C36.06,225.93,39.81,220.09,44.38,214.99z M19.78,214.9l15.62,1.82c-1.16,1.62-2.19,3.22-3.14,4.84
		l-3.02-1.73c-0.3-0.17-0.68-0.07-0.85,0.23c-0.17,0.3-0.07,0.68,0.23,0.85l3.03,1.73c-0.87,1.53-1.69,3.11-2.47,4.79L19.78,214.9z
		 M27.86,229.83l-9.85,1.43c1.1-3.19,2.42-6.31,3.93-9.32L27.86,229.83z M27.05,213.22c1.89-2.78,3.94-5.42,6.14-7.9l3.6,9.02
		L27.05,213.22z M40.43,198.18c2.54-2.2,5.2-4.22,7.96-6.04l1.13,9.62L40.43,198.18z M46.95,179.9l1.11,9.47
		c-3.58,2.28-7.02,4.9-10.24,7.78l-8.94-3.52C34.27,188.32,40.34,183.71,46.95,179.9z M28.62,193.87l3.54,8.86
		c-2.88,3.14-5.53,6.55-7.9,10.17l-9.56-1.09C18.57,205.25,23.24,199.21,28.62,193.87z M14.54,212.07l5.73,7.64
		c-2,3.82-3.69,7.83-5.04,11.95l-9.53,1.38C7.74,225.62,10.74,218.58,14.54,212.07z M14.04,250.97c0.23-3.37,0.68-6.74,1.35-10.05
		l7.82,6.14L14.04,250.97z M25.29,237.93l-3.41-0.91c-0.34-0.09-0.68,0.11-0.77,0.44c-0.09,0.33,0.11,0.67,0.44,0.76l3.42,0.91
		c-0.44,1.73-0.83,3.48-1.13,5.25l-12.34-9.68l15.56-2.27C26.38,234.29,25.79,236.11,25.29,237.93z M35.06,244.53
		c-0.09,0.41-0.15,0.82-0.23,1.23c-0.8-1.5-2.24-2.65-4.05-2.96c-1.5-0.26-3.01,0.07-4.25,0.94l-0.02,0.01
		c0.22-1.15,0.47-2.3,0.75-3.43c0.34-0.43,0.76-0.8,1.26-1.09c1.03-0.59,2.23-0.75,3.37-0.45c2.37,0.63,3.79,3.07,3.16,5.43
		L35.06,244.53z M36.35,239.39l-0.03,0.28c-0.12,0.4-0.23,0.8-0.35,1.2c-0.67-1.55-1.99-2.8-3.75-3.27c-1.47-0.39-3-0.19-4.32,0.57
		l-0.1,0.07c0.31-1.1,0.66-2.2,1.04-3.31c0.4-0.45,0.88-0.82,1.44-1.08c1.08-0.5,2.29-0.55,3.4-0.15
		C35.99,234.53,37.19,237.08,36.35,239.39z M45.56,221.66l-0.08,0.15c-3.29,4.32-5.97,9.12-7.93,14.27
		c-0.35-1.04-0.99-1.96-1.87-2.65c2.55-6.12,6.12-11.7,10.45-16.58C46.88,218.38,46.72,220.28,45.56,221.66z M48.78,217.82
		l-0.08,0.11c-0.3,0.33-0.59,0.68-0.89,1.02c0.04-1.67-0.63-3.34-2.02-4.5c-1.17-0.97-2.63-1.43-4.17-1.3l-0.32,0.06
		c0.72-0.83,1.44-1.64,2.17-2.4c0.65-0.36,1.37-0.57,2.14-0.57h0.01c1.19,0,2.3,0.46,3.14,1.29
		C50.51,213.26,50.52,216.08,48.78,217.82z M52.33,214.27l-0.11,0.14c-0.32,0.3-0.64,0.6-0.95,0.9c0.18-1.66-0.34-3.38-1.62-4.64
		c-1.08-1.07-2.51-1.66-4.03-1.66h-0.01l-0.34,0.03c0.77-0.74,1.55-1.48,2.37-2.2c0.68-0.31,1.43-0.46,2.2-0.39
		c1.19,0.1,2.26,0.66,3.03,1.56C54.45,209.88,54.21,212.69,52.33,214.27z M53.83,207.21l-0.5-0.49c5.46-4.13,11.6-7.36,18.22-9.55
		l0.31,0.64L72,198.4c-6.47,2.14-12.49,5.29-17.82,9.32L53.83,207.21z M69.35,203.43c-5.2,2.15-10.02,5.03-14.32,8.53
		c0.2-1.04,0.12-2.12-0.27-3.13c5.19-3.94,11.05-7.03,17.34-9.15C71.97,201.3,70.95,202.78,69.35,203.43z M74.25,201.65
		c-0.58,0.18-1.14,0.38-1.71,0.57c0.85-1.42,1.09-3.18,0.48-4.85c-0.52-1.43-1.58-2.57-2.96-3.2l-0.39-0.14
		c1.02-0.36,2.02-0.68,3.01-0.98c0.79-0.02,1.58,0.17,2.29,0.57c1.04,0.59,1.78,1.55,2.09,2.7
		C77.67,198.58,76.41,200.88,74.25,201.65z M78.93,200.43c-0.52,0.11-1.04,0.23-1.55,0.36c0.96-1.34,1.36-3.06,0.89-4.77
		c-0.4-1.47-1.35-2.69-2.67-3.45l-0.39-0.18c1.02-0.26,2.05-0.49,3.1-0.7c0.79,0.05,1.56,0.3,2.23,0.77
		c0.98,0.68,1.63,1.7,1.84,2.87C82.8,197.68,81.26,199.93,78.93,200.43z M98.96,199.57c-2.47-0.32-4.99-0.51-7.55-0.51
		c-3.1,0-6.14,0.25-9.11,0.72c0.68-0.79,1.13-1.74,1.3-2.78c2.52-0.32,5.07-0.51,7.67-0.51c1.05,0,2.11,0.03,3.17,0.08
		c2.99,0.15,5.9,0.55,8.75,1.13c-0.3,0.43-0.66,0.81-1.1,1.11C101.18,199.46,100.07,199.72,98.96,199.57z M104.03,200.46
		c-0.56-0.12-1.12-0.24-1.68-0.35l0.47-0.28c1.25-0.87,2.08-2.18,2.35-3.68c0.3-1.7-0.22-3.34-1.25-4.58
		c1.05,0.2,2.08,0.42,3.09,0.66c1.76,0.96,2.71,3.01,2.18,5.03c-0.31,1.15-1.05,2.11-2.08,2.71
		C106.17,200.51,105.09,200.67,104.03,200.46z M109.02,201.8c-0.58-0.19-1.17-0.36-1.76-0.52l0.48-0.24
		c1.32-0.76,2.27-1.99,2.66-3.46c0.45-1.67,0.07-3.36-0.85-4.68c1,0.28,2.01,0.59,3.04,0.94c1.66,1.11,2.43,3.23,1.72,5.19
		c-0.41,1.12-1.23,2.01-2.31,2.51C111.06,201.99,110.01,202.06,109.02,201.8z M112,202.85l0.53-0.18c0.78-0.36,1.44-0.9,1.97-1.55
		c6.13,2.55,11.72,6.07,16.61,10.35c-0.46,0.21-0.96,0.36-1.48,0.41c-1.16,0.1-2.28-0.24-3.18-0.97
		C122.09,207.58,117.23,204.85,112,202.85z M129.19,213.14l0.05,0l0.52-0.02c1.52-0.13,2.89-0.85,3.87-2.02
		c1.1-1.31,1.48-2.98,1.23-4.55c0.83,0.71,1.62,1.45,2.4,2.2c0.96,1.69,0.74,3.87-0.7,5.31c-0.84,0.84-1.96,1.3-3.15,1.31h-0.01
		c-1.15,0-2.22-0.44-3.05-1.22C129.96,213.81,129.57,213.48,129.19,213.14z M132.81,216.57l0.58,0.06h0.01
		c1.52,0,2.96-0.6,4.03-1.67c1.21-1.21,1.74-2.84,1.62-4.42c0.74,0.77,1.48,1.57,2.2,2.41c0.8,1.77,0.39,3.92-1.17,5.22
		c-0.91,0.76-2.06,1.13-3.25,1.03c-1.12-0.09-2.13-0.61-2.89-1.42C133.59,217.35,133.2,216.96,132.81,216.57z M144.62,234.43
		l-0.01-0.02c-2.13-5.11-4.99-9.85-8.45-14.09l0.58,0.11l0.49,0.02c0.67,0,1.33-0.12,1.96-0.35c3.96,5.16,7.07,10.96,9.18,17.21
		c-0.49-0.05-0.98-0.16-1.44-0.37C145.85,236.43,145.03,235.54,144.62,234.43z M146.33,239.09c-0.14-0.45-0.3-0.9-0.46-1.34
		l0.54,0.31c0.76,0.35,1.58,0.53,2.39,0.53c0.66,0,1.33-0.12,1.97-0.35c1.55-0.57,2.69-1.74,3.28-3.15
		c0.38,1.11,0.72,2.21,1.03,3.32c-0.18,1.78-1.42,3.36-3.26,3.86c-1.15,0.31-2.34,0.15-3.37-0.43c-1.04-0.59-1.78-1.55-2.09-2.7
		L146.33,239.09z M152.83,247.56c-1.17,0.21-2.35-0.05-3.32-0.72c-0.98-0.68-1.64-1.7-1.85-2.87l-0.09-0.23
		c-0.09-0.4-0.18-0.81-0.28-1.21l0.52,0.37c0.88,0.5,1.85,0.75,2.83,0.75c0.5,0,1-0.07,1.5-0.2c1.56-0.42,2.78-1.45,3.5-2.76
		c0.28,1.16,0.53,2.33,0.74,3.51C155.98,245.88,154.63,247.24,152.83,247.56z M159.66,247.05l7.78-6.12
		c0.67,3.31,1.11,6.66,1.34,10.02L159.66,247.05z M158.98,244.38c-0.3-1.76-0.69-3.52-1.13-5.25l3.42-0.91
		c0.33-0.09,0.53-0.43,0.44-0.76c-0.09-0.33-0.43-0.53-0.77-0.44l-3.41,0.91c-0.51-1.82-1.09-3.64-1.78-5.5l15.56,2.27
		L158.98,244.38z M167.58,231.65c-1.35-4.11-3.03-8.12-5.03-11.94l5.73-7.64c3.81,6.51,6.8,13.54,8.84,20.96L167.58,231.65z"/>
	<path class="st0" d="M139.56,239.05c-0.12-0.32-0.48-0.49-0.8-0.37c-0.33,0.12-0.49,0.47-0.38,0.79c0.55,1.52,1.03,3.09,1.43,4.65
		c0.07,0.28,0.33,0.47,0.61,0.47l0.15-0.02c0.33-0.08,0.54-0.42,0.45-0.75C140.62,242.22,140.13,240.61,139.56,239.05z"/>
	<path class="st0" d="M117,213.67l0.32,0.09l0.54-0.3c0.18-0.29,0.08-0.68-0.21-0.85c-1.44-0.85-2.93-1.65-4.43-2.35
		c-0.31-0.15-0.69-0.01-0.83,0.3c-0.15,0.31-0.01,0.68,0.3,0.83C114.15,212.06,115.6,212.83,117,213.67z"/>
	<path class="st0" d="M137.07,235.33l0.27-0.06c0.31-0.15,0.44-0.52,0.3-0.83c-0.72-1.49-1.52-2.97-2.38-4.39
		c-0.18-0.29-0.56-0.39-0.86-0.21c-0.3,0.18-0.39,0.56-0.21,0.85c0.84,1.39,1.62,2.83,2.32,4.29
		C136.61,235.2,136.83,235.33,137.07,235.33z"/>
	<path class="st0" d="M125.29,219.62l0.46-0.2c0.23-0.25,0.21-0.65-0.04-0.88c-1.24-1.11-2.55-2.18-3.89-3.16
		c-0.28-0.2-0.67-0.15-0.87,0.13c-0.21,0.28-0.15,0.66,0.13,0.87c1.3,0.96,2.58,2,3.79,3.09L125.29,219.62z"/>
	<path class="st0" d="M131.95,226.9l0.37-0.12c0.28-0.21,0.33-0.59,0.13-0.87c-1-1.33-2.07-2.63-3.19-3.85
		c-0.23-0.25-0.63-0.27-0.88-0.04c-0.26,0.23-0.28,0.62-0.04,0.88c1.09,1.2,2.14,2.46,3.11,3.76L131.95,226.9z"/>
	<path class="st1" d="M154.91,256.12h-38.4c-0.77,0.02-1.51,0.04-2.24,0.08l-0.06,0c-0.71,0.04-1.4,0.08-2.07,0.14l-0.07,0.01
		c-0.66,0.05-1.29,0.11-1.91,0.18l-0.11,0.01c-0.61,0.07-1.19,0.14-1.76,0.23l-0.11,0.02c-0.56,0.08-1.1,0.17-1.63,0.27l-0.11,0.02
		c-0.52,0.1-1.02,0.2-1.51,0.31l-0.11,0.02c-0.48,0.11-0.95,0.22-1.4,0.34l-0.1,0.03c-0.44,0.12-0.87,0.24-1.28,0.37l-0.1,0.03
		c-0.41,0.13-0.8,0.26-1.18,0.4l-0.09,0.03c-0.38,0.14-0.74,0.28-1.08,0.42l-0.08,0.03c-0.34,0.14-0.67,0.29-0.99,0.44l-0.07,0.03
		c-0.31,0.15-0.61,0.3-0.9,0.46l-0.07,0.04c-0.28,0.16-0.56,0.31-0.82,0.47l-0.05,0.03c-0.26,0.16-0.51,0.32-0.74,0.48l-0.05,0.03
		c-0.23,0.16-0.45,0.33-0.66,0.49l-0.04,0.03l-0.59,0.49l-0.03,0.03l-0.53,0.5l-0.02,0.02l-0.46,0.49l-0.02,0.03l-0.4,0.49
		l-0.01,0.02l-0.35,0.48l-0.01,0.02l-0.29,0.46l-0.01,0.01l-0.25,0.45l0,0.01l-0.2,0.42l0,0.01l-0.16,0.39h0
		c-0.34,0.9-0.39,1.54-0.39,1.68l0,0.03l0-0.03c-0.01-0.15-0.05-0.78-0.39-1.68h0l-0.16-0.39l-0.01-0.01l-0.2-0.42l0-0.01
		l-0.25-0.45l-0.01-0.01l-0.29-0.46l-0.01-0.02l-0.35-0.48l-0.01-0.02l-0.4-0.49l-0.02-0.03l-0.46-0.49l-0.02-0.02l-0.53-0.5
		l-0.03-0.03l-0.59-0.49l-0.04-0.03c-0.21-0.16-0.43-0.33-0.66-0.49l-0.05-0.03c-0.23-0.16-0.48-0.32-0.74-0.48l-0.05-0.03
		c-0.26-0.16-0.53-0.32-0.82-0.47l-0.07-0.04c-0.29-0.16-0.59-0.31-0.9-0.46l-0.07-0.03c-0.32-0.15-0.65-0.3-0.99-0.44l-0.08-0.03
		c-0.35-0.14-0.71-0.28-1.08-0.42l-0.09-0.03c-0.38-0.14-0.77-0.27-1.18-0.4l-0.1-0.03c-0.41-0.13-0.84-0.25-1.28-0.37l-0.1-0.03
		c-0.45-0.12-0.91-0.23-1.4-0.34l-0.11-0.02c-0.48-0.11-0.99-0.21-1.51-0.31l-0.11-0.02c-0.53-0.1-1.07-0.19-1.63-0.27l-0.11-0.02
		c-0.57-0.08-1.15-0.16-1.76-0.23l-0.1-0.01c-0.62-0.07-1.25-0.13-1.91-0.18l-0.07-0.01c-0.67-0.05-1.36-0.1-2.07-0.14l-0.05,0
		c-0.72-0.04-1.47-0.06-2.24-0.08H27.84c-22.89-1.01-26.48-8.01-27.05-10.17c-0.48,3.75-0.75,7.57-0.75,11.45
		c0,12.05,2.4,23.55,6.72,34.08l7.16,1.64l-2.49,8.07l0.1,0.17l8.29,1.89l-2.29,7.41c14.56,19.83,37.01,33.59,62.74,36.71l5.21-5.56
		l5.87,6.25l0.04,0h0.01l5.87-6.25l5.22,5.56c25.73-3.11,48.19-16.87,62.76-36.7l-2.29-7.42l8.3-1.9l0.09-0.16l-2.49-8.08l7.17-1.64
		c4.32-10.53,6.72-22.03,6.72-34.08c0-3.91-0.28-7.75-0.76-11.52C181.48,247.94,178.09,255.1,154.91,256.12z"/>
	<path class="st1" d="M311.94,273.31c5.52,0,9.36,3.23,11.08,7.17l-2.83,1.57c-1.25-2.99-3.84-5.51-8.25-5.51
		c-4.03,0-6.95,2.09-6.95,5.75c0,3.61,2.88,4.75,7.44,6.23c6.09,2,11.56,3.71,11.56,9.88c0,5.7-4.6,9.31-11.32,9.31
		c-6.19,0-10.74-3.09-12.47-8.12l2.88-1.66c1.2,3.99,4.36,6.56,9.64,6.56c5.08,0,7.91-2.42,7.91-5.99c0-3.85-3.31-5.08-8.25-6.7
		c-5.47-1.81-10.75-3.23-10.75-9.36C301.62,276.58,306.37,273.31,311.94,273.31z M227.28,273.88c6.04,0,10.56,4.47,10.56,10.45
		c0,5.94-4.51,10.45-10.56,10.45h-8.64v12.35h-3.36v-33.26H227.28z M269.54,273.88l12.91,33.26h-3.55l-3.12-8.17h-15.93l-3.12,8.17
		h-3.55l12.91-33.26H269.54z M349.16,273.88v33.26h-3.36v-33.26H349.16z M392.09,273.87v3.14H376.5v12.26h14.87v3.14H376.5v14.73
		h-3.36v-33.26H392.09z M417.51,273.88v33.26h-3.36v-33.26H417.51z M444.84,273.87v15.2l15.26-15.2h4.41l-16.12,16.15l16.6,17.1
		h-4.42l-15.74-16.11v16.11h-3.36v-33.26H444.84z M499.09,273.88L512,307.14h-3.55l-3.12-8.17H489.4l-3.12,8.17h-3.55l12.91-33.26
		H499.09z M497.37,278.01l-6.77,17.82h13.53L497.37,278.01z M267.81,278.01l-6.76,17.82h13.53L267.81,278.01z M227.28,277.01h-8.64
		v14.63h8.64c4.18,0,7.2-3.09,7.2-7.32C234.48,280.05,231.46,277.01,227.28,277.01z M312.37,204.3c17.25,0,30.92,13.12,30.92,30.2
		c0,17.08-13.67,30.2-30.92,30.2c-17.25,0-30.91-13.12-30.91-30.2C281.46,217.42,295.13,204.3,312.37,204.3z M231.05,205.62
		l13.75,23.52l13.75-23.52h16.66v57.77h-16.66v-28.14l-13,21.62h-1.5l-13-21.62v28.14h-16.67v-57.77H231.05z M380.53,205.62
		l18.58,57.77H381.2l-2-7.43h-16.83l-2,7.43h-17.92l18.58-57.77H380.53z M415.78,205.62l18.33,26.41v-26.41h16.67v57.77h-13.33
		l-18.33-26.41v26.41h-16.67v-57.77H415.78z M492.19,205.62l18.58,57.77h-17.91l-2-7.43h-16.83l-2,7.43h-17.91l18.58-57.77H492.19z
		 M312.37,220.47c-8.25,0-14.25,6.02-14.25,14.03c0,8.01,6,14.03,14.25,14.03c8.25,0,14.25-6.02,14.25-14.03
		C326.63,226.49,320.62,220.47,312.37,220.47z M370.78,225.01l-4.83,17.74h9.66L370.78,225.01z M482.44,225.01l-4.83,17.74h9.67
		L482.44,225.01z"/>
</g>
</svg>
