<svg id="svg" version="1.1" width="400" height="526.2368815592204" viewBox="0 0 400 526.2368815592204" xmlns="http://www.w3.org/2000/svg" xmlns:xlink="http://www.w3.org/1999/xlink" ><g id="svgg"><path id="path0" d="M176.199 1.199 C 176.509 1.612,177.535 2.795,178.481 3.829 C 182.895 8.655,186.807 14.099,189.411 19.040 C 191.243 22.517,191.560 22.679,189.838 19.259 C 187.413 14.443,182.272 7.401,177.641 2.549 C 176.539 1.394,175.890 0.787,176.199 1.199 M217.923 3.523 C 212.104 9.228,204.177 20.169,205.155 21.147 C 205.207 21.199,205.969 19.853,206.847 18.155 C 209.057 13.881,212.605 9.258,217.272 4.573 C 219.449 2.388,221.157 0.600,221.067 0.600 C 220.978 0.600,219.564 1.915,217.923 3.523 M196.927 3.819 C 197.792 3.880,199.209 3.880,200.075 3.819 C 200.941 3.759,200.232 3.709,198.501 3.709 C 196.769 3.709,196.061 3.759,196.927 3.819 M98.651 9.591 C 98.651 9.778,98.779 9.851,98.936 9.754 C 99.338 9.506,102.170 13.011,104.892 17.125 C 108.015 21.845,108.095 21.955,107.166 20.240 C 104.471 15.264,98.651 7.985,98.651 9.591 M295.029 11.898 C 293.200 14.200,290.995 17.379,289.660 19.640 C 288.489 21.623,289.173 20.733,291.505 17.241 C 292.717 15.427,294.488 12.965,295.442 11.769 C 296.396 10.573,297.105 9.595,297.018 9.595 C 296.930 9.595,296.035 10.631,295.029 11.898 M97.935 11.581 C 97.669 12.362,97.461 13.145,97.473 13.322 C 97.485 13.499,97.755 12.912,98.072 12.018 C 98.389 11.124,98.597 10.341,98.534 10.278 C 98.470 10.214,98.201 10.801,97.935 11.581 M161.357 18.032 C 164.922 21.988,172.205 28.048,175.262 29.604 C 176.579 30.273,176.136 29.913,173.610 28.256 C 169.836 25.782,165.449 21.955,161.223 17.452 C 158.681 14.743,158.780 15.175,161.357 18.032 M233.283 19.455 C 229.678 23.139,226.672 25.701,223.388 27.889 C 221.072 29.432,220.356 30.064,222.039 29.079 C 226.104 26.701,238.623 15.558,236.832 15.912 C 236.777 15.923,235.180 17.517,233.283 19.455 M236.909 17.718 C 236.706 18.395,236.595 19.004,236.663 19.072 C 236.730 19.139,236.951 18.641,237.154 17.964 C 237.357 17.287,237.468 16.678,237.400 16.611 C 237.333 16.543,237.112 17.042,236.909 17.718 M288.156 22.189 C 287.819 22.849,287.611 23.388,287.694 23.388 C 287.776 23.388,288.119 22.849,288.456 22.189 C 288.792 21.529,289.000 20.990,288.918 20.990 C 288.835 20.990,288.492 21.529,288.156 22.189 M204.532 22.518 C 204.348 23.046,204.207 23.626,204.219 23.808 C 204.231 23.989,204.434 23.610,204.670 22.965 C 204.906 22.319,205.047 21.739,204.983 21.675 C 204.919 21.611,204.716 21.990,204.532 22.518 M109.209 24.427 C 109.901 25.822,110.516 26.916,110.575 26.856 C 110.708 26.723,108.295 21.889,108.095 21.889 C 108.015 21.889,108.517 23.031,109.209 24.427 M285.806 26.849 C 285.303 27.952,285.399 28.187,285.943 27.185 C 286.196 26.717,286.348 26.278,286.279 26.209 C 286.210 26.141,285.998 26.429,285.806 26.849 M203.361 30.810 L 203.298 33.883 206.522 33.820 L 209.745 33.757 206.682 33.660 L 203.620 33.562 203.522 30.649 L 203.424 27.736 203.361 30.810 M111.716 29.985 C 111.826 30.397,112.042 30.937,112.195 31.184 C 112.388 31.497,112.411 31.406,112.272 30.885 C 112.162 30.472,111.946 29.933,111.793 29.685 C 111.600 29.373,111.577 29.464,111.716 29.985 M218.591 30.735 C 217.519 31.296,216.747 31.762,216.875 31.770 C 217.194 31.789,220.690 30.013,220.690 29.831 C 220.690 29.629,220.760 29.599,218.591 30.735 M176.312 30.133 C 176.312 30.335,179.347 31.847,179.482 31.713 C 179.543 31.651,178.855 31.239,177.953 30.796 C 177.050 30.354,176.312 30.055,176.312 30.133 M370.615 32.679 C 370.615 33.823,382.623 43.564,386.507 45.571 C 387.754 46.215,387.100 45.724,384.108 43.768 C 380.382 41.333,376.474 38.185,373.230 35.007 C 371.792 33.597,370.615 32.550,370.615 32.679 M23.088 35.129 C 19.773 38.275,15.697 41.545,12.063 43.975 C 8.907 46.085,8.148 46.689,10.045 45.580 C 13.793 43.390,21.023 37.691,24.278 34.361 C 26.648 31.935,26.043 32.326,23.088 35.129 M129.610 33.490 C 129.899 33.565,130.371 33.565,130.660 33.490 C 130.948 33.415,130.712 33.353,130.135 33.353 C 129.558 33.353,129.322 33.415,129.610 33.490 M265.742 33.490 C 266.031 33.565,266.503 33.565,266.792 33.490 C 267.080 33.415,266.844 33.353,266.267 33.353 C 265.690 33.353,265.454 33.415,265.742 33.490 M188.541 33.805 C 189.412 33.865,190.761 33.865,191.539 33.803 C 192.317 33.742,191.604 33.692,189.955 33.693 C 188.306 33.694,187.669 33.744,188.541 33.805 M262.149 34.349 C 259.712 35.564,254.273 41.979,254.273 43.639 C 254.273 43.791,254.900 42.839,255.666 41.523 C 257.514 38.351,260.808 35.077,263.000 34.236 C 263.890 33.894,264.408 33.607,264.152 33.599 C 263.896 33.590,262.994 33.928,262.149 34.349 M134.496 34.756 C 136.360 35.825,139.324 38.948,140.611 41.197 C 141.140 42.122,141.644 42.879,141.730 42.879 C 142.027 42.879,140.232 40.024,138.771 38.172 C 137.427 36.468,134.137 33.879,133.324 33.886 C 133.137 33.887,133.664 34.279,134.496 34.756 M25.521 35.416 C 25.336 35.946,25.237 36.432,25.301 36.496 C 25.365 36.560,25.569 36.179,25.754 35.649 C 25.939 35.119,26.037 34.633,25.973 34.569 C 25.909 34.505,25.705 34.886,25.521 35.416 M233.653 35.682 C 233.653 36.259,233.714 36.496,233.790 36.207 C 233.865 35.918,233.865 35.446,233.790 35.157 C 233.714 34.869,233.653 35.105,233.653 35.682 M121.791 36.586 C 120.613 37.414,118.399 39.318,116.871 40.818 L 114.093 43.546 116.942 40.927 C 118.508 39.486,120.667 37.694,121.739 36.943 C 123.887 35.439,124.339 35.082,124.095 35.082 C 124.005 35.082,122.968 35.759,121.791 36.586 M272.864 35.463 C 272.946 35.553,273.875 36.259,274.929 37.033 C 275.982 37.807,278.040 39.593,279.502 41.002 C 280.963 42.411,282.159 43.435,282.159 43.278 C 282.159 42.717,274.927 36.448,273.316 35.613 C 272.985 35.442,272.781 35.374,272.864 35.463 M233.653 41.679 C 233.653 42.256,233.714 42.493,233.790 42.204 C 233.865 41.915,233.865 41.443,233.790 41.154 C 233.714 40.866,233.653 41.102,233.653 41.679 M84.188 42.196 C 84.727 42.263,85.537 42.262,85.987 42.193 C 86.438 42.125,85.997 42.070,85.007 42.072 C 84.018 42.074,83.649 42.130,84.188 42.196 M310.575 42.196 C 311.114 42.263,311.924 42.262,312.374 42.193 C 312.825 42.125,312.384 42.070,311.394 42.072 C 310.405 42.074,310.036 42.130,310.575 42.196 M80.673 42.752 C 78.684 43.615,75.562 46.870,75.562 48.081 C 75.562 48.226,76.091 47.553,76.736 46.586 C 78.058 44.607,79.239 43.626,81.240 42.843 C 81.993 42.548,82.406 42.306,82.159 42.305 C 81.912 42.303,81.243 42.505,80.673 42.752 M316.525 43.463 C 318.449 44.567,319.467 45.763,320.751 48.426 C 321.307 49.580,321.672 50.187,321.562 49.775 C 320.758 46.770,317.103 42.566,315.309 42.582 C 315.135 42.583,315.682 42.980,316.525 43.463 M92.929 43.799 C 93.823 44.116,94.606 44.324,94.670 44.261 C 94.810 44.121,92.079 43.169,91.626 43.200 C 91.449 43.212,92.036 43.482,92.929 43.799 M141.850 43.328 C 141.850 43.493,142.043 43.966,142.279 44.378 C 142.515 44.790,142.707 44.993,142.707 44.828 C 142.707 44.663,142.515 44.190,142.279 43.778 C 142.043 43.366,141.850 43.163,141.850 43.328 M300.174 44.453 C 300.147 45.053,300.404 45.109,301.049 44.645 C 301.434 44.368,301.426 44.345,300.994 44.483 C 300.716 44.571,300.423 44.483,300.343 44.286 C 300.263 44.089,300.187 44.164,300.174 44.453 M203.429 51.874 C 203.429 56.079,203.471 57.800,203.522 55.697 C 203.574 53.594,203.574 50.154,203.522 48.051 C 203.471 45.948,203.429 47.669,203.429 51.874 M213.493 45.527 C 213.741 45.679,214.280 45.895,214.693 46.005 C 215.214 46.144,215.305 46.121,214.993 45.928 C 214.745 45.775,214.205 45.560,213.793 45.449 C 213.272 45.310,213.181 45.333,213.493 45.527 M387.406 46.017 C 387.406 46.099,388.081 46.509,388.906 46.927 C 389.730 47.344,390.405 47.619,390.405 47.536 C 390.405 47.454,389.730 47.045,388.906 46.627 C 388.081 46.209,387.406 45.934,387.406 46.017 M5.247 47.994 C 3.433 48.968,2.063 49.767,2.201 49.770 C 2.533 49.777,7.522 47.197,8.267 46.634 C 9.237 45.900,8.683 46.149,5.247 47.994 M216.217 46.576 C 216.656 46.923,221.681 49.479,221.439 49.231 C 221.048 48.831,216.724 46.486,216.367 46.481 C 216.216 46.479,216.148 46.521,216.217 46.576 M390.705 47.817 C 390.705 47.900,391.514 48.376,392.504 48.876 C 393.493 49.375,394.303 49.716,394.303 49.634 C 394.303 49.551,393.493 49.075,392.504 48.576 C 391.514 48.076,390.705 47.735,390.705 47.817 M176.237 48.447 C 175.116 49.056,175.184 49.309,176.312 48.726 C 176.807 48.470,177.211 48.196,177.211 48.118 C 177.211 47.925,177.179 47.936,176.237 48.447 M50.711 49.475 C 50.706 49.723,50.887 50.330,51.114 50.825 C 51.644 51.983,51.652 51.444,51.124 50.075 C 50.902 49.498,50.716 49.228,50.711 49.475 M128.261 49.387 C 128.632 49.458,129.239 49.458,129.610 49.387 C 129.981 49.316,129.678 49.257,128.936 49.257 C 128.193 49.257,127.890 49.316,128.261 49.387 M172.188 51.049 C 168.260 53.738,164.987 56.383,161.987 59.292 L 159.370 61.830 161.769 59.651 C 164.969 56.743,169.542 53.107,172.365 51.225 C 174.703 49.666,175.353 49.175,175.079 49.175 C 174.995 49.175,173.694 50.019,172.188 51.049 M266.792 49.387 C 267.163 49.458,267.770 49.458,268.141 49.387 C 268.512 49.316,268.208 49.257,267.466 49.257 C 266.724 49.257,266.421 49.316,266.792 49.387 M221.889 49.564 C 221.889 49.632,222.800 50.293,223.913 51.033 C 226.878 53.004,231.834 57.018,234.692 59.762 C 236.066 61.081,237.260 62.090,237.345 62.005 C 237.592 61.758,230.853 55.862,227.137 53.073 C 223.892 50.639,221.889 49.299,221.889 49.564 M262.669 50.225 C 261.689 50.785,262.032 50.791,263.309 50.237 C 263.864 49.996,264.115 49.798,263.868 49.797 C 263.621 49.797,263.081 49.989,262.669 50.225 M394.603 49.916 C 394.603 49.999,395.412 50.475,396.402 50.975 C 397.391 51.474,398.201 51.815,398.201 51.733 C 398.201 51.650,397.391 51.174,396.402 50.675 C 395.412 50.175,394.603 49.834,394.603 49.916 M135.711 51.527 C 137.776 52.870,139.877 55.042,141.054 57.051 C 142.082 58.806,142.426 58.939,141.473 57.214 C 140.158 54.830,135.410 50.375,134.185 50.375 C 134.050 50.375,134.737 50.893,135.711 51.527 M275.562 51.739 C 278.896 53.496,280.883 54.980,281.046 55.834 C 281.172 56.493,281.179 56.490,281.219 55.767 C 281.263 54.952,278.377 52.792,275.047 51.147 C 272.455 49.867,272.831 50.298,275.562 51.739 M119.790 52.037 C 118.471 52.786,116.919 53.812,116.342 54.317 C 115.388 55.152,115.429 55.140,116.792 54.185 C 117.616 53.607,119.303 52.582,120.540 51.908 C 121.777 51.234,122.654 50.681,122.489 50.679 C 122.324 50.677,121.109 51.288,119.790 52.037 M260.387 51.454 C 258.113 52.972,255.047 56.505,254.367 58.390 C 254.262 58.682,254.877 57.882,255.735 56.612 C 257.299 54.297,259.405 52.185,260.945 51.386 C 261.398 51.151,261.769 50.895,261.769 50.817 C 261.769 50.569,261.581 50.656,260.387 51.454 M1.385 52.455 C 4.433 55.831,9.127 62.434,13.337 69.265 C 15.150 72.209,16.010 73.387,15.195 71.814 C 13.015 67.606,4.771 55.809,2.109 53.088 C 1.032 51.987,0.706 51.702,1.385 52.455 M352.645 51.424 C 352.645 51.589,352.838 52.061,353.073 52.474 C 353.309 52.886,353.502 53.088,353.502 52.924 C 353.502 52.759,353.309 52.286,353.073 51.874 C 352.838 51.462,352.645 51.259,352.645 51.424 M41.862 55.109 C 38.880 61.137,34.920 65.903,31.109 68.051 C 29.181 69.138,28.765 69.594,30.517 68.700 C 33.678 67.087,37.084 63.722,39.654 59.670 C 40.866 57.760,43.566 52.462,43.409 52.304 C 43.350 52.246,42.654 53.508,41.862 55.109 M397.733 54.145 C 391.955 57.622,383.597 66.867,380.539 73.163 C 379.717 74.855,380.333 74.054,381.680 71.680 C 385.456 65.024,392.960 57.124,398.423 54.052 C 399.373 53.518,400.007 53.079,399.832 53.077 C 399.658 53.075,398.713 53.556,397.733 54.145 M353.823 54.097 C 353.823 54.572,356.242 58.828,357.795 61.087 C 359.314 63.295,363.108 67.146,364.369 67.760 C 364.838 67.988,364.772 67.881,364.168 67.433 C 361.050 65.123,358.031 61.419,355.401 56.672 C 354.533 55.105,353.823 53.947,353.823 54.097 M343.377 55.335 C 342.875 56.438,342.970 56.673,343.514 55.671 C 343.767 55.203,343.919 54.763,343.850 54.695 C 343.782 54.626,343.569 54.914,343.377 55.335 M53.380 56.472 C 53.304 59.195,62.679 72.251,68.703 77.811 C 69.418 78.471,68.584 77.526,66.850 75.712 C 61.662 70.284,58.372 65.745,55.114 59.520 C 54.164 57.706,53.384 56.335,53.380 56.472 M73.545 58.171 C 73.545 58.913,73.603 59.217,73.675 58.846 C 73.746 58.475,73.746 57.867,73.675 57.496 C 73.603 57.125,73.545 57.429,73.545 58.171 M309.820 57.923 C 311.421 58.792,313.360 60.585,314.627 62.369 L 315.160 63.118 314.811 62.387 C 313.953 60.593,309.643 56.961,308.396 56.982 C 308.231 56.985,308.872 57.408,309.820 57.923 M85.603 58.288 C 83.387 59.794,80.349 63.628,80.363 64.900 C 80.365 65.075,80.804 64.438,81.338 63.485 C 82.776 60.920,83.828 59.741,85.841 58.440 C 86.835 57.797,87.525 57.271,87.374 57.271 C 87.222 57.271,86.426 57.729,85.603 58.288 M341.741 58.929 C 341.298 59.831,341.000 60.570,341.078 60.570 C 341.279 60.570,342.792 57.535,342.657 57.400 C 342.596 57.338,342.183 58.026,341.741 58.929 M236.918 59.370 C 236.913 59.618,237.094 60.225,237.321 60.720 C 237.851 61.878,237.859 61.339,237.331 59.970 C 237.109 59.393,236.923 59.123,236.918 59.370 M340.143 61.844 C 339.867 62.380,339.445 63.156,339.204 63.568 C 338.785 64.287,338.788 64.293,339.272 63.718 C 339.863 63.016,341.010 60.870,340.793 60.870 C 340.712 60.870,340.419 61.308,340.143 61.844 M192.573 62.369 C 192.573 62.946,192.635 63.182,192.710 62.894 C 192.786 62.605,192.786 62.133,192.710 61.844 C 192.635 61.555,192.573 61.792,192.573 62.369 M373.073 63.778 C 372.630 65.224,372.844 65.439,373.313 64.018 C 373.511 63.419,373.615 62.870,373.543 62.799 C 373.472 62.727,373.261 63.168,373.073 63.778 M23.388 64.574 C 23.388 64.900,25.777 69.565,25.944 69.565 C 26.078 69.565,23.784 64.798,23.503 64.493 C 23.440 64.424,23.388 64.461,23.388 64.574 M337.141 66.642 C 334.751 70.075,332.232 73.086,329.196 76.137 C 327.651 77.690,326.679 78.805,327.036 78.614 C 328.553 77.804,337.111 67.720,338.526 65.076 C 339.150 63.910,338.643 64.483,337.141 66.642 M320.756 66.715 C 320.316 67.612,319.452 68.924,318.836 69.630 L 317.716 70.915 318.807 69.902 C 319.819 68.962,321.948 65.477,321.676 65.205 C 321.610 65.138,321.196 65.818,320.756 66.715 M370.915 68.366 C 370.415 69.355,370.074 70.165,370.156 70.165 C 370.239 70.165,370.715 69.355,371.214 68.366 C 371.714 67.376,372.055 66.567,371.973 66.567 C 371.890 66.567,371.414 67.376,370.915 68.366 M76.202 67.984 C 76.566 68.681,77.267 69.626,77.758 70.083 C 78.512 70.783,78.468 70.673,77.482 69.380 C 76.838 68.537,76.138 67.592,75.926 67.281 C 75.714 66.971,75.838 67.287,76.202 67.984 M365.217 68.206 C 365.217 68.288,365.892 68.698,366.717 69.115 C 367.541 69.533,368.216 69.808,368.216 69.725 C 368.216 69.643,367.541 69.233,366.717 68.816 C 365.892 68.398,365.217 68.123,365.217 68.206 M27.886 69.850 C 27.133 70.252,26.729 70.321,26.455 70.095 C 26.166 69.857,26.119 69.900,26.262 70.272 C 26.366 70.543,26.509 70.765,26.581 70.765 C 26.840 70.765,29.085 69.549,29.085 69.409 C 29.085 69.213,29.073 69.217,27.886 69.850 M190.619 72.628 C 190.346 73.482,190.172 74.230,190.233 74.291 C 190.294 74.352,190.574 73.710,190.855 72.864 C 191.136 72.018,191.309 71.269,191.240 71.200 C 191.172 71.132,190.892 71.774,190.619 72.628 M205.434 72.264 C 205.429 72.511,205.610 73.118,205.836 73.613 C 206.367 74.771,206.374 74.233,205.847 72.864 C 205.625 72.286,205.439 72.016,205.434 72.264 M16.042 73.763 C 16.298 74.258,16.575 74.663,16.657 74.663 C 16.740 74.663,16.598 74.258,16.342 73.763 C 16.086 73.268,15.809 72.864,15.727 72.864 C 15.644 72.864,15.786 73.268,16.042 73.763 M188.700 77.160 C 185.664 83.282,180.910 87.949,174.073 91.520 C 172.583 92.298,171.469 92.939,171.597 92.944 C 172.827 92.994,179.651 88.638,182.461 86.011 C 185.415 83.247,190.690 75.448,190.043 74.800 C 189.979 74.737,189.375 75.799,188.700 77.160 M17.241 75.862 C 17.497 76.357,17.774 76.762,17.856 76.762 C 17.939 76.762,17.797 76.357,17.541 75.862 C 17.285 75.367,17.009 74.963,16.926 74.963 C 16.844 74.963,16.986 75.367,17.241 75.862 M378.411 77.061 C 377.911 78.051,377.570 78.861,377.653 78.861 C 377.735 78.861,378.211 78.051,378.711 77.061 C 379.210 76.072,379.551 75.262,379.469 75.262 C 379.386 75.262,378.910 76.072,378.411 77.061 M206.901 76.319 C 206.894 76.801,209.456 81.170,210.742 82.871 C 212.914 85.742,217.326 89.736,219.634 90.917 C 220.510 91.366,219.928 90.871,217.504 89.109 C 213.699 86.342,210.539 82.679,208.106 78.215 C 207.445 77.003,206.903 76.150,206.901 76.319 M104.141 78.111 C 104.143 79.100,104.199 79.469,104.265 78.930 C 104.332 78.391,104.331 77.582,104.262 77.131 C 104.194 76.680,104.139 77.121,104.141 78.111 M358.621 77.211 C 359.990 77.739,360.528 77.731,359.370 77.201 C 358.876 76.974,358.268 76.793,358.021 76.798 C 357.774 76.803,358.043 76.989,358.621 77.211 M18.441 77.961 C 18.697 78.456,18.973 78.861,19.056 78.861 C 19.138 78.861,18.996 78.456,18.741 77.961 C 18.485 77.466,18.208 77.061,18.126 77.061 C 18.043 77.061,18.185 77.466,18.441 77.961 M153.607 77.652 C 152.542 78.302,150.825 80.492,150.825 81.202 C 150.825 81.450,151.136 81.059,151.516 80.332 C 151.941 79.521,152.765 78.634,153.649 78.036 C 155.211 76.980,155.180 76.694,153.607 77.652 M160.646 77.832 C 161.348 78.252,162.258 79.092,162.670 79.698 C 163.082 80.303,163.418 80.695,163.418 80.569 C 163.418 79.734,160.578 77.057,159.700 77.064 C 159.519 77.066,159.944 77.411,160.646 77.832 M240.564 77.652 C 239.498 78.302,237.781 80.492,237.781 81.202 C 237.781 81.450,238.092 81.059,238.473 80.332 C 238.897 79.521,239.721 78.634,240.606 78.036 C 242.168 76.980,242.136 76.694,240.564 77.652 M247.602 77.832 C 248.304 78.252,249.215 79.092,249.626 79.698 C 250.038 80.303,250.375 80.695,250.375 80.569 C 250.375 79.734,247.535 77.057,246.657 77.064 C 246.475 77.066,246.901 77.411,247.602 77.832 M34.333 78.609 C 33.178 79.294,32.184 79.894,32.123 79.943 C 31.986 80.053,35.679 86.057,35.884 86.057 C 36.026 86.057,35.201 84.602,34.183 83.058 C 33.911 82.646,33.388 81.810,33.022 81.200 L 32.355 80.092 34.687 78.727 C 35.969 77.976,36.887 77.362,36.725 77.363 C 36.564 77.364,35.487 77.925,34.333 78.609 M276.810 78.723 C 276.308 79.826,276.404 80.061,276.947 79.059 C 277.201 78.591,277.352 78.152,277.284 78.083 C 277.215 78.015,277.002 78.303,276.810 78.723 M361.019 78.101 C 361.019 78.183,361.694 78.593,362.519 79.010 C 363.343 79.428,364.018 79.703,364.018 79.620 C 364.018 79.538,363.343 79.128,362.519 78.711 C 361.694 78.293,361.019 78.018,361.019 78.101 M19.259 79.310 C 19.344 79.475,21.622 83.456,24.319 88.156 C 27.017 92.856,31.009 100.210,33.191 104.498 C 35.373 108.786,37.163 112.191,37.170 112.066 C 37.224 111.016,20.723 80.577,19.413 79.310 C 19.206 79.110,19.154 79.110,19.259 79.310 M364.381 79.900 C 364.498 80.030,364.393 80.524,364.148 80.998 C 363.903 81.471,363.770 81.859,363.853 81.859 C 364.281 81.859,364.898 80.084,364.542 79.879 C 364.336 79.761,364.264 79.770,364.381 79.900 M376.012 81.559 C 375.512 82.549,375.171 83.358,375.254 83.358 C 375.336 83.358,375.812 82.549,376.312 81.559 C 376.811 80.570,377.153 79.760,377.070 79.760 C 376.988 79.760,376.511 80.570,376.012 81.559 M120.839 81.259 C 122.605 84.741,127.387 89.542,130.960 91.420 C 132.289 92.119,131.600 91.518,129.795 90.404 C 127.200 88.802,124.085 85.762,122.302 83.090 C 120.627 80.580,120.264 80.125,120.839 81.259 M274.477 83.264 C 272.925 85.937,268.830 90.202,266.005 92.087 C 263.497 93.761,263.025 94.136,264.168 93.549 C 268.186 91.487,273.236 86.431,275.279 82.427 C 276.222 80.577,275.752 81.068,274.477 83.264 M362.519 83.958 C 362.019 84.948,361.678 85.757,361.760 85.757 C 361.843 85.757,362.319 84.948,362.819 83.958 C 363.318 82.969,363.659 82.159,363.577 82.159 C 363.494 82.159,363.018 82.969,362.519 83.958 M373.613 86.057 C 373.114 87.046,372.772 87.856,372.855 87.856 C 372.937 87.856,373.414 87.046,373.913 86.057 C 374.413 85.067,374.754 84.258,374.671 84.258 C 374.589 84.258,374.113 85.067,373.613 86.057 M163.275 86.036 C 162.994 86.920,161.655 88.442,160.582 89.097 C 160.081 89.403,159.838 89.653,160.044 89.654 C 160.956 89.657,164.106 86.045,163.618 85.557 C 163.538 85.477,163.384 85.693,163.275 86.036 M250.232 86.036 C 249.951 86.920,248.612 88.442,247.539 89.097 C 247.037 89.403,246.795 89.653,247.001 89.654 C 247.912 89.657,251.062 86.045,250.574 85.557 C 250.495 85.477,250.340 85.693,250.232 86.036 M360.570 87.556 C 360.152 88.381,359.877 89.055,359.960 89.055 C 360.042 89.055,360.452 88.381,360.870 87.556 C 361.287 86.732,361.562 86.057,361.479 86.057 C 361.397 86.057,360.988 86.732,360.570 87.556 M36.243 86.807 C 36.405 87.136,36.757 87.676,37.026 88.006 L 37.514 88.606 37.220 88.006 C 37.058 87.676,36.706 87.136,36.437 86.807 L 35.949 86.207 36.243 86.807 M151.382 86.807 C 152.169 88.229,154.323 89.962,155.289 89.948 C 155.555 89.945,155.225 89.693,154.556 89.389 C 153.887 89.086,152.825 88.245,152.195 87.522 C 151.566 86.799,151.200 86.477,151.382 86.807 M238.563 87.202 C 239.163 88.253,241.456 89.960,242.255 89.948 C 242.516 89.945,242.181 89.693,241.513 89.389 C 240.844 89.086,239.779 88.245,239.146 87.522 C 238.134 86.365,238.064 86.326,238.563 87.202 M71.015 87.996 C 69.896 88.756,68.453 90.742,68.781 91.070 C 68.883 91.172,68.966 91.102,68.966 90.915 C 68.966 90.415,70.776 88.440,71.814 87.807 C 72.309 87.505,72.576 87.258,72.408 87.257 C 72.241 87.257,71.613 87.589,71.015 87.996 M329.949 88.478 C 330.589 89.020,331.361 90.012,331.666 90.683 C 331.971 91.355,332.224 91.727,332.227 91.510 C 332.243 90.578,330.580 88.407,329.385 87.799 C 329.055 87.631,329.309 87.937,329.949 88.478 M79.357 88.361 C 79.713 88.660,80.286 89.378,80.630 89.955 C 80.975 90.532,81.258 90.885,81.258 90.740 C 81.261 90.192,79.981 88.436,79.359 88.132 L 78.711 87.816 79.357 88.361 M100.345 89.459 C 98.839 91.646,95.355 94.957,92.729 96.698 C 91.533 97.490,90.555 98.202,90.555 98.279 C 90.555 98.452,91.640 97.765,94.039 96.073 C 97.003 93.982,99.889 90.934,101.466 88.231 C 102.034 87.256,101.332 88.026,100.345 89.459 M320.934 88.831 C 319.934 89.888,319.204 91.118,319.439 91.353 C 319.519 91.433,319.679 91.205,319.793 90.844 C 319.908 90.484,320.476 89.664,321.055 89.022 C 322.328 87.613,322.232 87.460,320.934 88.831 M37.743 89.205 C 37.905 89.535,38.257 90.075,38.525 90.405 L 39.014 91.004 38.719 90.405 C 38.557 90.075,38.205 89.535,37.936 89.205 L 37.448 88.606 37.743 89.205 M371.214 90.555 C 370.715 91.544,370.374 92.354,370.456 92.354 C 370.539 92.354,371.015 91.544,371.514 90.555 C 372.014 89.565,372.355 88.756,372.273 88.756 C 372.190 88.756,371.714 89.565,371.214 90.555 M358.921 90.555 C 358.584 91.214,358.376 91.754,358.459 91.754 C 358.541 91.754,358.884 91.214,359.220 90.555 C 359.557 89.895,359.765 89.355,359.682 89.355 C 359.600 89.355,359.257 89.895,358.921 90.555 M156.750 90.167 C 157.123 90.239,157.663 90.236,157.950 90.161 C 158.236 90.086,157.931 90.027,157.271 90.031 C 156.612 90.034,156.377 90.095,156.750 90.167 M243.707 90.167 C 244.080 90.239,244.619 90.236,244.906 90.161 C 245.193 90.086,244.888 90.027,244.228 90.031 C 243.568 90.034,243.334 90.095,243.707 90.167 M294.759 90.342 C 294.681 93.082,301.184 99.901,306.363 102.509 C 309.134 103.904,309.074 103.630,306.288 102.165 C 301.179 99.479,298.324 96.704,295.740 91.910 C 295.204 90.917,294.763 90.212,294.759 90.342 M39.284 91.712 C 40.347 93.846,46.470 99.288,49.625 100.903 C 51.237 101.728,51.159 101.667,47.705 99.414 C 45.513 97.984,41.466 94.238,39.754 92.054 C 39.288 91.458,39.084 91.310,39.284 91.712 M220.390 91.303 C 220.390 91.503,225.823 94.216,225.956 94.084 C 226.015 94.025,224.787 93.343,223.227 92.568 C 221.666 91.792,220.390 91.224,220.390 91.303 M332.320 93.403 C 332.322 94.228,332.380 94.530,332.449 94.074 C 332.518 93.618,332.516 92.943,332.445 92.575 C 332.374 92.206,332.317 92.579,332.320 93.403 M356.659 94.378 C 354.926 97.125,351.408 100.738,348.842 102.406 C 345.889 104.327,345.819 104.382,347.084 103.780 C 350.712 102.052,355.774 96.921,357.986 92.729 C 358.726 91.326,358.072 92.139,356.659 94.378 M133.733 92.804 C 134.145 93.039,134.618 93.232,134.783 93.232 C 134.948 93.232,134.745 93.039,134.333 92.804 C 133.921 92.568,133.448 92.375,133.283 92.375 C 133.118 92.375,133.321 92.568,133.733 92.804 M368.816 95.052 C 368.316 96.042,367.975 96.852,368.057 96.852 C 368.140 96.852,368.616 96.042,369.115 95.052 C 369.615 94.063,369.956 93.253,369.874 93.253 C 369.791 93.253,369.315 94.063,368.816 95.052 M226.687 94.402 C 226.934 94.555,227.474 94.770,227.886 94.881 C 228.407 95.020,228.498 94.996,228.186 94.803 C 227.939 94.650,227.399 94.435,226.987 94.325 C 226.466 94.185,226.374 94.209,226.687 94.402 M260.270 95.202 C 259.858 95.438,259.655 95.631,259.820 95.631 C 259.985 95.631,260.457 95.438,260.870 95.202 C 261.282 94.967,261.484 94.774,261.319 94.774 C 261.154 94.774,260.682 94.967,260.270 95.202 M80.697 96.632 C 80.195 97.675,79.580 98.369,78.614 98.981 C 77.861 99.459,77.374 99.850,77.533 99.850 C 78.641 99.850,81.852 96.263,81.511 95.406 C 81.455 95.267,81.089 95.818,80.697 96.632 M319.354 95.747 C 319.312 96.513,321.093 98.750,322.189 99.307 C 322.519 99.475,322.279 99.181,321.657 98.654 C 321.035 98.127,320.265 97.202,319.946 96.599 C 319.628 95.996,319.361 95.612,319.354 95.747 M68.678 96.061 C 68.626 97.182,71.852 100.361,72.443 99.771 C 72.520 99.694,72.187 99.467,71.703 99.267 C 70.692 98.848,69.843 97.990,69.164 96.702 C 68.903 96.207,68.684 95.919,68.678 96.061 M151.799 96.170 C 152.418 96.235,153.430 96.235,154.048 96.170 C 154.666 96.106,154.160 96.053,152.924 96.053 C 151.687 96.053,151.181 96.106,151.799 96.170 M331.634 96.510 C 331.634 96.706,330.998 97.505,330.221 98.284 C 329.444 99.063,329.137 99.484,329.539 99.219 C 330.509 98.580,332.090 96.607,331.835 96.353 C 331.725 96.242,331.634 96.313,331.634 96.510 M363.252 105.880 C 361.016 110.350,359.232 114.054,359.288 114.111 C 359.344 114.167,361.241 110.509,363.503 105.982 C 365.764 101.455,367.548 97.751,367.467 97.751 C 367.385 97.751,365.489 101.409,363.252 105.880 M87.256 99.850 C 85.690 100.658,84.512 101.326,84.639 101.334 C 84.957 101.355,90.255 98.680,90.255 98.498 C 90.255 98.294,90.410 98.224,87.256 99.850 M52.774 102.549 C 53.351 102.865,53.958 103.123,54.123 103.123 C 54.288 103.123,53.951 102.865,53.373 102.549 C 52.796 102.233,52.189 101.974,52.024 101.974 C 51.859 101.974,52.196 102.233,52.774 102.549 M343.928 105.097 C 343.516 105.333,343.313 105.526,343.478 105.526 C 343.643 105.526,344.115 105.333,344.528 105.097 C 344.940 104.862,345.142 104.669,344.978 104.669 C 344.813 104.669,344.340 104.862,343.928 105.097 M329.010 107.865 C 329.629 107.929,330.641 107.929,331.259 107.865 C 331.878 107.800,331.372 107.747,330.135 107.747 C 328.898 107.747,328.392 107.800,329.010 107.865 M37.808 113.793 C 37.808 113.958,38.133 114.700,38.531 115.442 C 38.928 116.184,39.253 116.657,39.253 116.492 C 39.253 116.327,38.928 115.585,38.531 114.843 C 38.133 114.100,37.808 113.628,37.808 113.793 M357.481 117.706 C 356.953 118.776,356.528 119.750,356.536 119.871 C 356.545 119.991,357.026 119.165,357.605 118.035 C 358.185 116.906,358.610 115.932,358.550 115.871 C 358.489 115.811,358.008 116.637,357.481 117.706 M39.905 118.291 C 39.905 118.456,40.164 119.063,40.480 119.640 C 40.796 120.217,41.054 120.555,41.054 120.390 C 41.054 120.225,40.796 119.618,40.480 119.040 C 40.164 118.463,39.905 118.126,39.905 118.291 M41.404 121.589 C 41.404 121.754,41.663 122.361,41.979 122.939 C 42.295 123.516,42.554 123.853,42.554 123.688 C 42.554 123.523,42.295 122.916,41.979 122.339 C 41.663 121.762,41.404 121.424,41.404 121.589 M355.079 122.803 C 354.176 124.662,354.276 124.923,355.207 123.134 C 355.623 122.335,355.912 121.629,355.849 121.566 C 355.787 121.504,355.440 122.060,355.079 122.803 M42.347 137.406 L 42.415 143.478 42.503 137.557 L 42.591 131.635 198.432 131.559 L 354.273 131.484 198.276 131.409 L 42.279 131.334 42.347 137.406 M206.372 149.544 C 206.990 149.608,208.002 149.608,208.621 149.544 C 209.239 149.479,208.733 149.426,207.496 149.426 C 206.259 149.426,205.753 149.479,206.372 149.544 M262.453 149.546 C 263.241 149.608,264.456 149.607,265.151 149.544 C 265.847 149.482,265.202 149.431,263.718 149.432 C 262.234 149.433,261.664 149.484,262.453 149.546 M42.427 275.562 C 42.427 344.910,42.462 373.280,42.504 338.606 C 42.546 303.932,42.546 247.193,42.504 212.519 C 42.462 177.845,42.427 206.214,42.427 275.562 M134.388 149.850 C 137.634 149.898,143.031 149.898,146.382 149.850 C 149.732 149.801,147.076 149.762,140.480 149.762 C 133.883 149.762,131.142 149.801,134.388 149.850 M178.167 149.849 C 180.919 149.899,185.506 149.899,188.362 149.850 C 191.217 149.800,188.966 149.760,183.358 149.760 C 177.751 149.760,175.415 149.800,178.167 149.849 M278.036 149.844 C 278.654 149.908,279.666 149.908,280.285 149.844 C 280.903 149.779,280.397 149.726,279.160 149.726 C 277.924 149.726,277.418 149.779,278.036 149.844 M349.850 149.842 C 350.386 149.909,351.263 149.909,351.799 149.842 C 352.335 149.776,351.897 149.721,350.825 149.721 C 349.753 149.721,349.314 149.776,349.850 149.842 M298.140 150.148 C 299.425 150.205,301.449 150.204,302.637 150.147 C 303.826 150.091,302.774 150.045,300.300 150.045 C 297.826 150.045,296.854 150.092,298.140 150.148 M330.360 150.148 C 331.555 150.205,333.512 150.205,334.708 150.148 C 335.903 150.091,334.925 150.044,332.534 150.044 C 330.142 150.044,329.164 150.091,330.360 150.148 M204.423 157.327 L 198.801 157.435 198.801 239.737 L 198.801 322.039 272.564 322.039 L 346.327 322.039 346.327 239.917 L 346.327 157.795 325.862 157.941 C 314.332 158.023,297.935 157.931,288.306 157.730 C 271.634 157.381,215.645 157.113,204.423 157.327 M283.808 184.843 C 307.127 189.096,320.600 211.455,318.720 242.782 C 316.831 274.256,300.389 291.737,273.313 291.058 C 246.278 290.381,231.022 271.046,231.039 237.481 C 231.057 200.363,252.366 179.107,283.808 184.843 M81.859 237.778 L 81.859 289.355 92.504 289.355 L 103.148 289.355 103.148 252.024 C 103.148 231.492,103.250 214.694,103.373 214.695 C 103.497 214.697,110.277 231.495,118.441 252.025 L 133.283 289.353 147.601 289.354 L 161.919 289.355 161.919 237.781 L 161.919 186.207 151.274 186.207 L 140.630 186.207 140.612 221.964 C 140.600 246.504,140.498 257.580,140.287 257.271 C 140.118 257.024,133.331 240.967,125.206 221.589 L 110.433 186.357 96.146 186.279 L 81.859 186.201 81.859 237.778 M271.185 202.245 C 261.210 204.415,256.064 216.503,256.075 237.738 C 256.087 261.462,262.382 273.463,274.813 273.463 C 286.146 273.463,292.346 263.350,293.561 242.879 C 295.207 215.161,286.285 198.959,271.185 202.245 M50.462 365.892 C 50.583 413.283,50.511 411.118,52.329 421.543 C 57.123 449.033,70.489 467.458,92.354 476.718 C 95.225 477.934,198.096 517.841,198.359 517.841 C 198.437 517.841,198.501 473.853,198.501 420.090 L 198.501 322.339 124.426 322.339 L 50.350 322.339 50.462 365.892 M119.640 391.002 L 119.640 433.279 140.855 433.356 L 162.069 433.433 162.148 442.804 L 162.227 452.174 128.640 452.174 L 95.052 452.174 95.052 400.450 L 95.052 348.726 107.346 348.726 L 119.640 348.726 119.640 391.002 M244.085 400.225 C 234.679 428.549,226.984 451.827,226.985 451.953 C 226.986 452.078,232.212 452.146,238.599 452.102 L 250.211 452.024 252.842 443.478 C 254.289 438.778,255.881 433.617,256.381 432.009 L 257.289 429.085 273.547 429.087 L 289.805 429.089 292.954 440.629 L 296.102 452.169 308.471 452.171 C 315.274 452.173,320.840 452.093,320.840 451.994 C 320.840 451.895,313.418 428.690,304.348 400.428 C 295.277 372.166,287.856 348.971,287.856 348.884 C 287.856 348.797,281.855 348.726,274.521 348.726 L 261.187 348.726 244.085 400.225 M279.626 389.810 C 282.503 401.394,284.858 411.057,284.858 411.283 C 284.858 411.624,282.895 411.694,273.313 411.694 C 266.964 411.694,261.769 411.624,261.769 411.539 C 261.769 411.374,273.682 369.554,273.930 368.848 C 274.207 368.060,274.406 368.792,279.626 389.810 M353.913 402.099 C 353.913 403.006,353.969 403.377,354.038 402.924 C 354.107 402.470,354.107 401.728,354.038 401.274 C 353.969 400.821,353.913 401.192,353.913 402.099 M353.593 408.996 C 353.593 409.573,353.655 409.809,353.730 409.520 C 353.805 409.232,353.805 408.759,353.730 408.471 C 353.655 408.182,353.593 408.418,353.593 408.996 M47.718 436.582 C 47.718 436.829,47.834 437.301,47.976 437.631 C 48.138 438.009,48.234 438.065,48.234 437.781 C 48.234 437.534,48.118 437.061,47.976 436.732 C 47.814 436.354,47.718 436.298,47.718 436.582 M48.466 438.981 C 48.567 439.393,48.834 440.135,49.059 440.630 C 49.388 441.352,49.433 441.382,49.285 440.780 C 49.184 440.367,48.917 439.625,48.692 439.130 C 48.363 438.408,48.318 438.378,48.466 438.981 M51.296 446.327 C 51.296 446.492,51.488 446.964,51.724 447.376 C 51.960 447.789,52.153 447.991,52.153 447.826 C 52.153 447.661,51.960 447.189,51.724 446.777 C 51.488 446.364,51.296 446.162,51.296 446.327 M345.476 447.239 C 344.974 448.342,345.069 448.577,345.613 447.575 C 345.866 447.107,346.018 446.667,345.949 446.599 C 345.881 446.530,345.668 446.818,345.476 447.239 M343.542 451.436 C 342.767 452.996,342.198 454.273,342.278 454.273 C 342.477 454.273,345.191 448.839,345.058 448.706 C 344.999 448.647,344.317 449.876,343.542 451.436 M54.573 453.073 C 54.909 453.733,55.252 454.273,55.335 454.273 C 55.417 454.273,55.209 453.733,54.873 453.073 C 54.536 452.414,54.193 451.874,54.111 451.874 C 54.028 451.874,54.236 452.414,54.573 453.073 M341.066 455.997 C 335.794 465.156,325.530 474.771,315.667 479.791 C 314.719 480.273,313.943 480.736,313.943 480.819 C 313.943 481.889,325.043 474.447,329.767 470.209 C 334.264 466.174,343.359 454.573,342.025 454.573 C 341.948 454.573,341.517 455.214,341.066 455.997 M56.554 456.372 C 60.007 463.756,74.100 476.893,83.058 481.078 C 84.476 481.740,83.776 481.276,80.183 479.172 C 72.254 474.531,64.579 467.451,59.030 459.661 C 56.579 456.220,56.327 455.886,56.554 456.372 M310.045 482.609 C 309.303 483.006,308.831 483.331,308.996 483.331 C 309.160 483.331,309.903 483.006,310.645 482.609 C 311.387 482.211,311.859 481.886,311.694 481.886 C 311.529 481.886,310.787 482.211,310.045 482.609 M87.256 483.208 C 87.999 483.606,88.741 483.931,88.906 483.931 C 89.070 483.931,88.598 483.606,87.856 483.208 C 87.114 482.811,86.372 482.486,86.207 482.486 C 86.042 482.486,86.514 482.811,87.256 483.208 M307.346 483.808 C 306.934 484.044,306.732 484.237,306.897 484.237 C 307.061 484.237,307.534 484.044,307.946 483.808 C 308.358 483.572,308.561 483.380,308.396 483.380 C 308.231 483.380,307.759 483.572,307.346 483.808 M89.955 484.408 C 90.367 484.643,90.840 484.836,91.004 484.836 C 91.169 484.836,90.967 484.643,90.555 484.408 C 90.142 484.172,89.670 483.979,89.505 483.979 C 89.340 483.979,89.543 484.172,89.955 484.408 M302.099 485.918 C 301.349 486.279,301.324 486.320,301.949 486.168 C 302.799 485.960,303.754 485.473,303.298 485.480 C 303.133 485.482,302.594 485.679,302.099 485.918 M101.049 488.705 C 101.297 488.858,101.837 489.073,102.249 489.183 C 102.770 489.323,102.861 489.299,102.549 489.106 C 102.301 488.953,101.762 488.738,101.349 488.628 C 100.828 488.488,100.737 488.512,101.049 488.705 M292.804 489.516 C 292.054 489.877,292.029 489.919,292.654 489.766 C 293.503 489.558,294.458 489.071,294.003 489.078 C 293.838 489.081,293.298 489.277,292.804 489.516 M278.111 495.213 C 277.361 495.574,277.336 495.616,277.961 495.463 C 278.811 495.255,279.766 494.769,279.310 494.775 C 279.145 494.778,278.606 494.975,278.111 495.213 M125.037 498.000 C 125.285 498.153,125.825 498.369,126.237 498.479 C 126.758 498.618,126.849 498.595,126.537 498.401 C 126.289 498.249,125.750 498.033,125.337 497.923 C 124.816 497.784,124.725 497.807,125.037 498.000 M254.123 504.508 C 253.373 504.869,253.348 504.911,253.973 504.758 C 254.823 504.551,255.778 504.064,255.322 504.071 C 255.157 504.073,254.618 504.270,254.123 504.508 M149.025 507.296 C 149.273 507.449,149.813 507.664,150.225 507.774 C 150.746 507.914,150.837 507.890,150.525 507.697 C 150.277 507.544,149.738 507.329,149.325 507.218 C 148.804 507.079,148.713 507.103,149.025 507.296 M230.135 513.804 C 229.385 514.165,229.360 514.206,229.985 514.054 C 230.835 513.846,231.790 513.359,231.334 513.366 C 231.169 513.368,230.630 513.565,230.135 513.804 M173.013 516.591 C 173.261 516.744,173.801 516.959,174.213 517.070 C 174.734 517.209,174.825 517.185,174.513 516.992 C 174.265 516.839,173.726 516.624,173.313 516.514 C 172.792 516.374,172.701 516.398,173.013 516.591 M187.706 522.288 C 187.954 522.441,188.493 522.656,188.906 522.767 C 189.427 522.906,189.518 522.882,189.205 522.689 C 188.958 522.536,188.418 522.321,188.006 522.211 C 187.485 522.072,187.394 522.095,187.706 522.288 M206.147 523.099 C 205.397 523.460,205.372 523.502,205.997 523.349 C 206.847 523.141,207.802 522.655,207.346 522.661 C 207.181 522.664,206.642 522.861,206.147 523.099 " stroke="none" fill="#fbfbfb" fill-rule="evenodd"></path><path id="path1" d="M215.723 5.472 L 214.843 6.447 215.817 5.566 C 216.353 5.082,216.792 4.643,216.792 4.592 C 216.792 4.360,216.544 4.564,215.723 5.472 M302.052 32.534 C 302.053 33.853,302.106 34.356,302.169 33.650 C 302.232 32.945,302.231 31.866,302.167 31.251 C 302.103 30.637,302.051 31.214,302.052 32.534 M24.427 34.258 L 22.939 35.832 24.513 34.344 C 25.976 32.961,26.224 32.684,26.001 32.684 C 25.953 32.684,25.245 33.392,24.427 34.258 M162.927 38.681 C 162.927 40.247,162.977 40.888,163.039 40.105 C 163.101 39.322,163.101 38.040,163.039 37.256 C 162.977 36.473,162.927 37.114,162.927 38.681 M192.913 49.625 C 192.914 51.274,192.964 51.911,193.025 51.039 C 193.086 50.168,193.085 48.819,193.024 48.041 C 192.962 47.263,192.912 47.976,192.913 49.625 M252.549 52.024 C 252.553 52.684,252.614 52.918,252.686 52.545 C 252.758 52.172,252.755 51.633,252.680 51.346 C 252.605 51.059,252.546 51.364,252.549 52.024 M21.671 55.172 C 21.671 55.915,21.729 56.218,21.801 55.847 C 21.872 55.476,21.872 54.869,21.801 54.498 C 21.729 54.127,21.671 54.430,21.671 55.172 M93.184 55.989 C 93.723 56.056,94.532 56.055,94.983 55.986 C 95.433 55.918,94.993 55.863,94.003 55.865 C 93.013 55.867,92.645 55.923,93.184 55.989 M301.580 55.989 C 302.119 56.056,302.928 56.055,303.379 55.986 C 303.829 55.918,303.388 55.863,302.399 55.865 C 301.409 55.867,301.041 55.923,301.580 55.989 M292.435 77.961 C 292.435 78.703,292.494 79.007,292.565 78.636 C 292.637 78.265,292.637 77.657,292.565 77.286 C 292.494 76.915,292.435 77.219,292.435 77.961 M68.435 93.553 C 68.435 94.130,68.497 94.367,68.573 94.078 C 68.648 93.789,68.648 93.317,68.573 93.028 C 68.497 92.740,68.435 92.976,68.435 93.553 M65.742 105.766 C 66.361 105.830,67.373 105.830,67.991 105.766 C 68.609 105.701,68.103 105.648,66.867 105.648 C 65.630 105.648,65.124 105.701,65.742 105.766 M120.765 124.963 C 163.519 125.004,233.482 125.004,276.237 124.963 C 318.992 124.921,284.010 124.886,198.501 124.886 C 112.991 124.886,78.010 124.921,120.765 124.963 M216.129 149.548 C 217.166 149.606,218.785 149.606,219.727 149.547 C 220.669 149.487,219.820 149.439,217.841 149.440 C 215.862 149.440,215.091 149.489,216.129 149.548 M249.550 149.548 C 250.663 149.605,252.485 149.605,253.598 149.548 C 254.711 149.490,253.801 149.443,251.574 149.443 C 249.348 149.443,248.437 149.490,249.550 149.548 M50.750 149.849 C 53.017 149.900,56.728 149.900,58.996 149.849 C 61.263 149.798,59.408 149.757,54.873 149.757 C 50.337 149.757,48.482 149.798,50.750 149.849 M98.556 149.850 C 101.391 149.899,106.113 149.899,109.051 149.850 C 111.989 149.801,109.670 149.760,103.898 149.760 C 98.126 149.760,95.722 149.800,98.556 149.850 M200.379 149.840 C 200.835 149.909,201.509 149.907,201.878 149.836 C 202.247 149.765,201.874 149.709,201.049 149.711 C 200.225 149.713,199.923 149.771,200.379 149.840 M270.683 149.842 C 271.215 149.908,272.160 149.909,272.782 149.844 C 273.404 149.779,272.969 149.725,271.814 149.724 C 270.660 149.722,270.151 149.775,270.683 149.842 M286.282 150.145 C 286.983 150.208,288.130 150.208,288.831 150.145 C 289.531 150.081,288.958 150.030,287.556 150.030 C 286.154 150.030,285.581 150.081,286.282 150.145 M342.804 150.143 C 343.422 150.208,344.434 150.208,345.052 150.143 C 345.671 150.079,345.165 150.026,343.928 150.026 C 342.691 150.026,342.185 150.079,342.804 150.143 M228.431 157.046 C 231.947 157.094,237.614 157.094,241.025 157.046 C 244.436 156.998,241.559 156.959,234.633 156.959 C 227.706 156.959,224.915 156.998,228.431 157.046 M203.529 157.339 C 204.068 157.405,204.877 157.404,205.328 157.336 C 205.778 157.267,205.337 157.213,204.348 157.214 C 203.358 157.216,202.990 157.272,203.529 157.339 M266.485 157.338 C 267.017 157.404,267.962 157.405,268.584 157.340 C 269.206 157.275,268.771 157.221,267.616 157.220 C 266.462 157.219,265.953 157.272,266.485 157.338 M281.634 157.640 C 282.253 157.704,283.265 157.704,283.883 157.640 C 284.501 157.575,283.996 157.522,282.759 157.522 C 281.522 157.522,281.016 157.575,281.634 157.640 M309.990 157.946 C 313.671 157.994,319.608 157.993,323.184 157.946 C 326.760 157.898,323.748 157.859,316.492 157.859 C 309.235 157.859,306.310 157.898,309.990 157.946 M272.039 184.315 C 272.328 184.390,272.800 184.390,273.088 184.315 C 273.377 184.239,273.141 184.178,272.564 184.178 C 271.987 184.178,271.750 184.239,272.039 184.315 M276.537 184.315 C 276.825 184.390,277.298 184.390,277.586 184.315 C 277.875 184.239,277.639 184.178,277.061 184.178 C 276.484 184.178,276.248 184.239,276.537 184.315 M255.854 234.483 C 255.854 235.225,255.912 235.528,255.984 235.157 C 256.055 234.786,256.055 234.179,255.984 233.808 C 255.912 233.437,255.854 233.741,255.854 234.483 M255.858 240.930 C 255.860 241.754,255.918 242.056,255.987 241.600 C 256.056 241.144,256.054 240.470,255.983 240.101 C 255.912 239.732,255.856 240.105,255.858 240.930 M273.838 273.678 C 274.292 273.747,275.034 273.747,275.487 273.678 C 275.941 273.609,275.570 273.553,274.663 273.553 C 273.756 273.553,273.385 273.609,273.838 273.678 M198.649 420.090 C 198.649 473.936,198.683 495.963,198.726 469.040 C 198.768 442.118,198.768 398.062,198.726 371.139 C 198.683 344.217,198.649 366.244,198.649 420.090 M50.157 401.799 C 50.157 402.541,50.215 402.845,50.287 402.474 C 50.358 402.103,50.358 401.496,50.287 401.124 C 50.215 400.753,50.157 401.057,50.157 401.799 M353.593 405.997 C 353.593 406.574,353.655 406.810,353.730 406.522 C 353.805 406.233,353.805 405.761,353.730 405.472 C 353.655 405.184,353.593 405.420,353.593 405.997 M262.027 411.473 C 262.153 411.599,267.375 411.666,273.632 411.623 L 285.007 411.544 273.403 411.394 C 267.021 411.312,261.902 411.347,262.027 411.473 M129.910 433.508 C 135.806 433.554,145.454 433.554,151.349 433.508 C 157.245 433.463,152.421 433.425,140.630 433.425 C 128.838 433.425,124.014 433.463,129.910 433.508 M71.064 462.463 C 71.064 462.514,71.503 462.953,72.039 463.437 L 73.013 464.318 72.133 463.343 C 71.312 462.435,71.064 462.231,71.064 462.463 " stroke="none" fill="#e0c368" fill-rule="evenodd"></path><path id="path2" d="M372.401 34.858 C 373.136 35.641,373.777 36.282,373.826 36.282 C 374.051 36.282,373.813 36.013,372.489 34.770 L 371.064 33.433 372.401 34.858 M233.388 38.681 C 233.388 40.082,233.440 40.656,233.503 39.955 C 233.566 39.254,233.566 38.107,233.503 37.406 C 233.440 36.705,233.388 37.279,233.388 38.681 M115.139 42.732 C 114.614 43.292,114.371 43.388,114.192 43.107 C 114.018 42.832,113.951 42.826,113.948 43.086 C 113.938 43.817,114.476 43.730,115.303 42.868 C 115.771 42.379,116.085 41.979,116.000 41.979 C 115.916 41.979,115.528 42.318,115.139 42.732 M143.714 52.024 C 143.716 52.849,143.774 53.150,143.843 52.695 C 143.912 52.239,143.910 51.564,143.839 51.195 C 143.768 50.826,143.712 51.199,143.714 52.024 M192.925 57.121 C 192.925 59.760,192.971 60.799,193.027 59.431 C 193.083 58.063,193.082 55.904,193.026 54.633 C 192.970 53.363,192.925 54.483,192.925 57.121 M81.329 93.553 C 81.329 94.130,81.391 94.367,81.466 94.078 C 81.541 93.789,81.541 93.317,81.466 93.028 C 81.391 92.740,81.329 92.976,81.329 93.553 M120.315 143.253 C 163.152 143.295,233.250 143.295,276.087 143.253 C 318.924 143.212,283.876 143.177,198.201 143.177 C 112.526 143.177,77.478 143.212,120.315 143.253 M227.811 149.550 C 231.481 149.598,237.485 149.598,241.154 149.550 C 244.824 149.502,241.822 149.463,234.483 149.463 C 227.144 149.463,224.142 149.502,227.811 149.550 M70.540 149.850 C 74.786 149.897,81.735 149.897,85.982 149.850 C 90.229 149.803,86.754 149.765,78.261 149.765 C 69.768 149.765,66.293 149.803,70.540 149.850 M203.229 149.842 C 203.768 149.909,204.577 149.908,205.028 149.839 C 205.478 149.771,205.037 149.716,204.048 149.718 C 203.058 149.720,202.690 149.776,203.229 149.842 M266.785 149.842 C 267.317 149.908,268.262 149.909,268.884 149.844 C 269.506 149.779,269.070 149.725,267.916 149.724 C 266.762 149.722,266.253 149.775,266.785 149.842 M157.346 150.149 C 160.356 150.198,165.281 150.198,168.291 150.149 C 171.301 150.101,168.838 150.061,162.819 150.061 C 156.799 150.061,154.337 150.101,157.346 150.149 M281.934 150.143 C 282.552 150.208,283.564 150.208,284.183 150.143 C 284.801 150.079,284.295 150.026,283.058 150.026 C 281.822 150.026,281.316 150.079,281.934 150.143 M346.857 150.142 C 347.396 150.209,348.205 150.208,348.656 150.139 C 349.107 150.071,348.666 150.016,347.676 150.018 C 346.687 150.020,346.318 150.076,346.857 150.142 M310.440 150.449 C 313.873 150.498,319.405 150.498,322.734 150.449 C 326.062 150.401,323.253 150.362,316.492 150.362 C 309.730 150.362,307.007 150.401,310.440 150.449 M216.717 157.044 C 217.747 157.102,219.434 157.102,220.465 157.044 C 221.496 156.985,220.652 156.937,218.591 156.937 C 216.529 156.937,215.686 156.985,216.717 157.044 M248.951 157.044 C 250.064 157.102,251.885 157.102,252.999 157.044 C 254.112 156.986,253.201 156.939,250.975 156.939 C 248.748 156.939,247.837 156.986,248.951 157.044 M200.679 157.337 C 201.135 157.406,201.809 157.404,202.178 157.333 C 202.547 157.261,202.174 157.205,201.349 157.207 C 200.525 157.209,200.223 157.268,200.679 157.337 M270.390 157.338 C 270.926 157.405,271.803 157.405,272.339 157.338 C 272.875 157.272,272.436 157.217,271.364 157.217 C 270.292 157.217,269.854 157.272,270.390 157.338 M198.649 239.880 C 198.649 285.315,198.683 303.902,198.726 281.184 C 198.768 258.467,198.768 221.293,198.726 198.576 C 198.683 175.858,198.649 194.445,198.649 239.880 M285.982 157.641 C 286.683 157.704,287.830 157.704,288.531 157.641 C 289.232 157.578,288.658 157.526,287.256 157.526 C 285.855 157.526,285.281 157.578,285.982 157.641 M343.103 157.640 C 343.722 157.704,344.734 157.704,345.352 157.640 C 345.971 157.575,345.465 157.522,344.228 157.522 C 342.991 157.522,342.485 157.575,343.103 157.640 M274.142 184.323 C 274.598 184.392,275.273 184.390,275.641 184.319 C 276.010 184.248,275.637 184.191,274.813 184.194 C 273.988 184.196,273.686 184.254,274.142 184.323 M161.993 237.553 L 161.919 289.350 147.451 289.430 L 132.984 289.511 147.461 289.583 C 158.820 289.640,161.969 289.574,162.080 289.280 C 162.159 289.074,162.188 265.697,162.145 237.331 L 162.067 185.757 161.993 237.553 M245.113 195.577 L 243.928 196.852 245.202 195.666 C 246.388 194.564,246.615 194.303,246.388 194.303 C 246.339 194.303,245.765 194.876,245.113 195.577 M303.748 194.996 C 303.748 195.048,304.187 195.487,304.723 195.971 L 305.697 196.852 304.816 195.877 C 303.996 194.969,303.748 194.765,303.748 194.996 M103.148 252.003 L 103.148 289.348 92.579 289.432 L 82.009 289.517 92.654 289.511 L 103.298 289.505 103.448 252.220 C 103.531 231.713,103.497 214.873,103.373 214.796 C 103.250 214.720,103.148 231.463,103.148 252.003 M230.974 235.382 C 230.974 236.289,231.031 236.660,231.099 236.207 C 231.168 235.753,231.168 235.011,231.099 234.558 C 231.031 234.104,230.974 234.475,230.974 235.382 M230.974 239.880 C 230.974 240.787,231.031 241.158,231.099 240.705 C 231.168 240.251,231.168 239.509,231.099 239.055 C 231.031 238.602,230.974 238.973,230.974 239.880 M95.199 400.450 C 95.199 428.981,95.234 440.608,95.277 426.288 C 95.320 411.968,95.320 388.625,95.277 374.414 C 95.234 360.203,95.199 371.919,95.199 400.450 M42.654 402.249 C 42.658 402.909,42.719 403.143,42.791 402.770 C 42.863 402.397,42.860 401.857,42.785 401.571 C 42.710 401.284,42.651 401.589,42.654 402.249 M353.593 404.198 C 353.593 404.775,353.655 405.011,353.730 404.723 C 353.805 404.434,353.805 403.962,353.730 403.673 C 353.655 403.385,353.593 403.621,353.593 404.198 " stroke="none" fill="#dcb43c" fill-rule="evenodd"></path><path id="path3" d="M192.910 31.334 C 192.909 32.819,192.960 33.464,193.023 32.768 C 193.086 32.072,193.086 30.857,193.024 30.069 C 192.962 29.281,192.911 29.850,192.910 31.334 M94.254 32.384 C 94.254 33.621,94.307 34.127,94.371 33.508 C 94.436 32.890,94.436 31.878,94.371 31.259 C 94.307 30.641,94.254 31.147,94.254 32.384 M190.163 44.301 L 192.770 44.401 192.884 45.664 L 192.999 46.927 193.051 45.502 L 193.103 44.078 190.330 44.140 L 187.556 44.201 190.163 44.301 M204.573 44.298 C 205.356 44.360,206.638 44.360,207.421 44.298 C 208.205 44.237,207.564 44.186,205.997 44.186 C 204.430 44.186,203.789 44.237,204.573 44.298 M0.000 50.768 C 0.000 50.820,0.439 51.259,0.975 51.743 L 1.949 52.624 1.068 51.649 C 0.247 50.741,0.000 50.537,0.000 50.768 M374.603 54.873 C 374.603 55.780,374.659 56.151,374.728 55.697 C 374.796 55.244,374.796 54.501,374.728 54.048 C 374.659 53.594,374.603 53.966,374.603 54.873 M322.714 58.021 C 322.718 58.681,322.779 58.915,322.851 58.542 C 322.922 58.169,322.920 57.630,322.845 57.343 C 322.770 57.056,322.711 57.361,322.714 58.021 M390.405 59.820 C 389.676 60.562,389.148 61.169,389.230 61.169 C 389.313 61.169,389.976 60.562,390.705 59.820 C 391.433 59.078,391.961 58.471,391.879 58.471 C 391.797 58.471,391.133 59.078,390.405 59.820 M203.368 60.270 C 203.368 60.847,203.430 61.083,203.505 60.795 C 203.580 60.506,203.580 60.034,203.505 59.745 C 203.430 59.457,203.368 59.693,203.368 60.270 M159.951 60.945 L 159.070 61.919 160.045 61.038 C 160.581 60.554,161.019 60.115,161.019 60.064 C 161.019 59.832,160.772 60.036,159.951 60.945 M360.120 64.262 C 360.120 64.313,360.558 64.752,361.094 65.236 L 362.069 66.117 361.188 65.142 C 360.367 64.234,360.120 64.030,360.120 64.262 M65.367 74.756 C 65.367 74.808,65.806 75.247,66.342 75.731 L 67.316 76.612 66.436 75.637 C 65.615 74.729,65.367 74.525,65.367 74.756 M46.110 75.782 C 46.815 75.845,47.895 75.845,48.509 75.780 C 49.123 75.716,48.546 75.664,47.226 75.665 C 45.907 75.666,45.405 75.719,46.110 75.782 M348.059 75.782 C 348.764 75.845,349.844 75.845,350.458 75.780 C 351.072 75.716,350.495 75.664,349.175 75.665 C 347.856 75.666,347.354 75.719,348.059 75.782 M125.037 87.106 C 125.597 87.684,126.122 88.156,126.205 88.156 C 126.287 88.156,125.897 87.684,125.337 87.106 C 124.778 86.529,124.253 86.057,124.170 86.057 C 124.088 86.057,124.478 86.529,125.037 87.106 M42.279 95.502 C 42.838 96.079,43.364 96.552,43.446 96.552 C 43.528 96.552,43.138 96.079,42.579 95.502 C 42.019 94.925,41.494 94.453,41.412 94.453 C 41.329 94.453,41.719 94.925,42.279 95.502 M149.254 96.164 C 149.627 96.236,150.167 96.233,150.453 96.158 C 150.740 96.083,150.435 96.024,149.775 96.028 C 149.115 96.031,148.881 96.092,149.254 96.164 M155.547 96.164 C 155.918 96.235,156.525 96.235,156.897 96.164 C 157.268 96.092,156.964 96.034,156.222 96.034 C 155.480 96.034,155.176 96.092,155.547 96.164 M298.651 96.945 C 298.651 96.997,299.089 97.436,299.625 97.920 L 300.600 98.801 299.719 97.826 C 298.898 96.918,298.651 96.714,298.651 96.945 M244.311 98.271 C 245.016 98.334,246.095 98.333,246.710 98.269 C 247.324 98.205,246.747 98.153,245.427 98.154 C 244.108 98.155,243.606 98.208,244.311 98.271 M353.949 137.331 C 353.949 140.547,353.993 141.863,354.047 140.255 C 354.101 138.647,354.101 136.016,354.047 134.408 C 353.993 132.800,353.949 134.115,353.949 137.331 M210.720 149.545 C 211.421 149.608,212.567 149.608,213.268 149.545 C 213.969 149.482,213.396 149.430,211.994 149.430 C 210.592 149.430,210.019 149.482,210.720 149.545 M256.907 149.547 C 257.778 149.608,259.127 149.607,259.905 149.545 C 260.683 149.484,259.970 149.434,258.321 149.435 C 256.672 149.436,256.035 149.486,256.907 149.547 M43.553 149.844 C 44.172 149.908,45.184 149.908,45.802 149.844 C 46.421 149.779,45.915 149.726,44.678 149.726 C 43.441 149.726,42.935 149.779,43.553 149.844 M117.766 149.849 C 119.786 149.901,123.092 149.901,125.112 149.849 C 127.133 149.797,125.480 149.755,121.439 149.755 C 117.399 149.755,115.746 149.797,117.766 149.849 M194.988 149.847 C 195.943 149.907,197.427 149.906,198.287 149.846 C 199.147 149.786,198.366 149.737,196.552 149.737 C 194.738 149.738,194.034 149.787,194.988 149.847 M274.593 149.842 C 275.132 149.909,275.942 149.908,276.392 149.839 C 276.843 149.771,276.402 149.716,275.412 149.718 C 274.423 149.720,274.054 149.776,274.593 149.842 M353.148 149.822 L 353.822 149.967 353.898 275.358 L 353.974 400.750 353.974 275.262 L 353.973 149.775 353.223 149.726 C 352.563 149.683,352.554 149.694,353.148 149.822 M291.379 150.146 C 292.245 150.207,293.662 150.207,294.528 150.146 C 295.394 150.086,294.685 150.036,292.954 150.036 C 291.222 150.036,290.513 150.086,291.379 150.146 M338.015 150.146 C 338.803 150.208,340.018 150.207,340.714 150.144 C 341.410 150.081,340.765 150.031,339.280 150.031 C 337.796 150.032,337.227 150.084,338.015 150.146 M206.815 157.338 C 207.347 157.404,208.292 157.405,208.914 157.340 C 209.536 157.275,209.100 157.221,207.946 157.220 C 206.792 157.219,206.283 157.272,206.815 157.338 M261.994 157.341 C 262.695 157.404,263.842 157.404,264.543 157.341 C 265.244 157.278,264.670 157.226,263.268 157.226 C 261.867 157.226,261.293 157.278,261.994 157.341 M277.886 157.638 C 278.422 157.705,279.299 157.705,279.835 157.638 C 280.371 157.572,279.933 157.517,278.861 157.517 C 277.789 157.517,277.350 157.572,277.886 157.638 M297.526 157.943 C 298.639 158.001,300.461 158.001,301.574 157.943 C 302.687 157.886,301.777 157.839,299.550 157.839 C 297.324 157.839,296.413 157.886,297.526 157.943 M331.422 157.944 C 332.542 158.002,334.296 158.001,335.320 157.943 C 336.344 157.884,335.427 157.837,333.283 157.838 C 331.139 157.838,330.302 157.886,331.422 157.944 M86.807 186.123 C 99.861 186.332,110.575 186.336,110.449 186.132 C 110.372 186.008,103.874 185.937,96.009 185.974 C 88.144 186.012,84.003 186.079,86.807 186.123 M145.972 186.132 C 148.992 186.181,153.850 186.180,156.766 186.131 C 159.683 186.082,157.211 186.042,151.274 186.042 C 145.337 186.042,142.951 186.083,145.972 186.132 M293.629 234.033 C 293.632 234.693,293.694 234.927,293.765 234.554 C 293.837 234.181,293.834 233.642,293.759 233.355 C 293.684 233.068,293.626 233.373,293.629 234.033 M255.871 237.631 C 255.872 238.786,255.926 239.221,255.991 238.599 C 256.056 237.977,256.055 237.032,255.989 236.500 C 255.922 235.968,255.869 236.477,255.871 237.631 M318.837 237.781 C 318.837 238.853,318.891 239.292,318.958 238.756 C 319.024 238.220,319.024 237.343,318.958 236.807 C 318.891 236.271,318.837 236.709,318.837 237.781 M293.629 241.229 C 293.632 241.889,293.694 242.124,293.765 241.751 C 293.837 241.378,293.834 240.838,293.759 240.551 C 293.684 240.265,293.626 240.570,293.629 241.229 M235.607 322.264 C 255.933 322.306,289.194 322.306,309.520 322.264 C 329.846 322.221,313.216 322.187,272.564 322.187 C 231.912 322.187,215.281 322.221,235.607 322.264 M50.220 361.469 C 50.220 383.073,50.256 391.867,50.300 381.011 C 50.343 370.155,50.343 352.479,50.300 341.731 C 50.256 330.983,50.220 339.865,50.220 361.469 M119.486 391.004 C 119.486 414.340,119.522 423.887,119.565 412.219 C 119.609 400.551,119.609 381.458,119.565 369.790 C 119.522 358.122,119.486 367.669,119.486 391.004 M162.053 442.879 C 162.053 448.073,162.093 450.199,162.143 447.601 C 162.193 445.004,162.193 440.753,162.143 438.156 C 162.093 435.558,162.053 437.684,162.053 442.879 " stroke="none" fill="#ebd89a" fill-rule="evenodd"></path><path id="path4" d="M176.222 0.701 C 176.534 1.057,177.646 2.286,178.693 3.431 C 188.057 13.668,193.103 23.299,193.103 30.933 L 193.103 33.883 189.403 33.883 C 180.091 33.883,171.148 28.799,160.838 17.643 L 159.006 15.662 159.893 18.401 C 164.066 31.296,164.061 46.078,159.881 58.997 L 158.983 61.773 161.425 59.469 C 171.816 49.671,181.388 44.438,189.465 44.140 L 193.173 44.003 193.027 54.310 C 192.918 62.035,192.760 65.269,192.396 67.218 C 188.539 87.836,170.835 98.722,145.654 95.960 C 125.286 93.725,115.142 80.266,115.142 55.474 C 115.142 54.231,122.183 50.211,125.676 49.460 C 131.634 48.177,137.741 50.923,141.126 56.407 C 142.468 58.582,142.534 58.583,143.139 56.427 C 144.660 51.007,142.952 44.186,138.721 38.789 C 132.887 31.345,126.469 32.078,116.928 41.275 C 115.482 42.670,114.234 43.702,114.154 43.569 C 114.075 43.437,113.913 41.912,113.794 40.180 C 113.204 31.630,108.748 21.835,100.916 11.870 L 99.133 9.602 98.752 10.509 C 94.867 19.749,93.541 33.013,95.672 41.321 C 96.783 45.650,96.845 45.476,94.534 44.537 C 86.985 41.470,80.883 41.770,77.810 45.359 C 72.681 51.352,72.752 64.724,77.939 69.694 L 78.786 70.506 79.001 69.073 C 80.458 59.356,88.560 54.113,98.836 56.238 L 99.772 56.431 101.584 63.223 C 104.678 74.818,105.088 79.691,103.374 84.508 C 100.179 93.485,90.064 100.769,75.335 104.699 C 63.654 107.816,50.241 103.932,41.833 94.998 C 39.992 93.041,31.499 80.200,31.852 79.906 C 32.889 79.040,37.328 76.907,39.130 76.409 C 45.108 74.759,61.193 76.184,69.204 79.074 C 69.485 79.176,68.292 77.786,66.552 75.986 C 57.534 66.655,51.019 54.549,48.735 42.879 C 48.461 41.477,48.160 40.066,48.066 39.743 C 47.959 39.372,47.533 40.486,46.907 42.775 C 43.035 56.941,37.664 65.031,29.041 69.686 L 26.449 71.085 24.756 67.777 C 20.492 59.440,20.668 49.372,25.317 35.700 L 26.350 32.662 23.595 35.259 C 16.731 41.730,5.353 49.355,0.902 50.469 C 0.158 50.656,0.162 50.664,1.532 52.090 C 9.486 60.368,29.087 93.870,40.483 118.666 L 43.273 124.738 198.640 124.738 L 354.007 124.738 356.363 119.715 C 362.691 106.226,379.500 74.029,382.666 69.332 C 387.427 62.271,393.274 56.397,398.257 53.670 L 399.663 52.901 393.045 49.342 C 383.020 43.949,378.370 40.691,372.753 35.121 L 370.072 32.463 370.804 34.409 C 375.836 47.778,376.059 59.631,371.440 68.292 L 369.961 71.066 367.364 69.667 C 358.636 64.964,351.773 54.094,348.993 40.566 L 348.610 38.704 347.892 42.215 C 345.246 55.157,338.866 67.029,329.505 76.428 C 327.964 77.977,326.968 79.160,327.294 79.059 C 337.578 75.849,351.690 74.681,357.741 76.538 C 360.443 77.368,364.918 79.599,364.918 80.116 C 364.918 80.604,358.685 91.974,356.977 94.603 C 350.158 105.095,338.063 109.677,322.977 107.482 C 296.613 103.647,287.669 89.630,294.832 63.373 L 296.702 56.522 298.351 56.176 C 308.066 54.138,317.541 60.786,317.541 69.640 L 317.541 70.582 318.569 69.586 C 323.833 64.485,323.824 51.109,318.553 45.276 C 315.499 41.894,311.012 41.533,303.448 44.060 C 301.552 44.694,299.966 45.181,299.924 45.144 C 299.882 45.106,300.286 43.468,300.822 41.503 C 302.842 34.093,302.033 23.778,298.600 13.193 C 297.385 9.446,297.491 9.479,295.328 12.187 C 287.786 21.636,283.389 31.585,282.540 41.126 L 282.309 43.720 279.010 40.726 C 269.901 32.457,264.527 31.582,258.977 37.466 C 253.807 42.946,251.478 51.174,253.474 56.903 L 254.025 58.483 255.174 56.706 C 260.921 47.815,270.194 46.733,279.835 53.830 C 281.520 55.070,281.494 54.847,280.814 62.232 C 279.402 77.582,274.796 86.920,265.752 92.770 C 248.528 103.909,219.023 97.390,208.762 80.178 C 204.471 72.979,203.301 67.150,203.299 52.963 L 203.298 44.007 207.121 44.149 C 215.171 44.449,224.949 49.820,234.988 59.458 C 236.359 60.775,237.481 61.789,237.481 61.713 C 237.481 61.637,237.164 60.640,236.775 59.498 C 232.416 46.674,232.411 30.703,236.762 17.904 L 237.454 15.867 233.794 19.574 C 223.868 29.629,215.902 33.883,206.999 33.883 L 203.298 33.883 203.298 30.168 C 203.298 21.784,207.617 13.638,217.075 4.181 L 221.141 0.116 218.473 0.952 C 205.838 4.914,191.126 4.902,178.426 0.920 C 175.761 0.084,175.678 0.076,176.222 0.701 M154.416 77.736 C 151.007 79.460,149.855 83.680,151.922 86.868 C 155.734 92.746,164.869 89.029,163.460 82.173 C 162.610 78.035,158.150 75.847,154.416 77.736 M241.508 77.629 C 240.062 78.286,238.485 80.092,238.076 81.559 C 236.262 88.079,244.262 92.677,248.819 87.733 C 253.537 82.614,247.847 74.750,241.508 77.629 M71.936 87.954 C 67.634 90.226,67.512 96.975,71.735 99.080 C 77.650 102.027,83.619 96.043,80.565 90.227 C 79.119 87.473,74.935 86.371,71.936 87.954 M323.015 87.750 C 316.992 90.719,319.027 99.850,325.712 99.850 C 332.440 99.850,334.594 90.896,328.601 87.838 C 327.185 87.116,324.390 87.072,323.015 87.750 M42.579 137.331 L 42.579 143.028 198.201 143.028 L 353.823 143.028 353.823 137.331 L 353.823 131.634 198.201 131.634 L 42.579 131.634 42.579 137.331 M205.599 149.824 C 205.490 149.933,168.765 149.996,123.989 149.965 L 42.579 149.908 42.584 274.579 C 42.590 398.910,42.636 405.053,43.636 414.303 C 47.248 447.721,61.426 470.262,86.400 482.290 C 88.603 483.351,114.664 493.615,144.315 505.098 L 198.225 525.977 252.561 504.938 C 307.767 483.563,313.074 481.383,319.328 477.506 C 341.091 464.017,351.590 442.288,353.519 406.747 C 353.700 403.404,353.814 353.471,353.817 275.608 L 353.823 149.867 348.951 150.101 C 341.801 150.445,289.561 150.347,274.063 149.961 C 259.713 149.604,205.927 149.496,205.599 149.824 M282.932 157.431 C 291.521 157.617,309.299 157.724,322.438 157.670 L 346.327 157.571 346.327 239.955 L 346.327 322.339 272.564 322.339 L 198.801 322.339 198.801 420.124 L 198.801 517.909 197.976 517.774 C 196.922 517.601,95.000 478.084,91.028 476.309 C 69.473 466.673,56.594 448.220,51.898 420.240 C 50.234 410.329,50.265 411.291,50.153 365.142 L 50.050 322.339 124.275 322.339 L 198.501 322.339 198.501 239.880 C 198.501 194.528,198.534 157.399,198.576 157.372 C 199.405 156.832,257.029 156.872,282.932 157.431 M267.621 184.734 C 244.662 187.872,231.134 207.494,231.150 237.631 C 231.166 267.563,244.043 286.829,266.417 290.399 C 297.970 295.433,318.520 274.695,318.556 237.781 C 318.585 208.724,306.570 189.973,284.917 185.283 C 281.573 184.559,271.292 184.232,267.621 184.734 M125.481 221.812 L 140.480 257.568 140.556 221.737 L 140.632 185.907 151.426 185.907 L 162.221 185.907 162.145 237.706 L 162.069 289.505 147.651 289.583 L 133.234 289.661 118.416 252.426 L 103.598 215.192 103.448 252.348 L 103.298 289.505 92.579 289.584 L 81.859 289.663 81.859 237.782 L 81.859 185.901 96.171 185.979 L 110.482 186.057 125.481 221.812 M278.711 202.159 C 288.581 204.279,293.706 216.410,293.697 237.631 C 293.687 261.619,287.305 273.791,274.753 273.759 C 261.964 273.726,255.122 259.611,255.861 234.783 C 256.585 210.458,264.531 199.113,278.711 202.159 M95.352 400.450 L 95.352 452.174 128.636 452.174 L 161.919 452.174 161.919 442.879 L 161.919 433.583 140.630 433.583 L 119.340 433.583 119.340 391.154 L 119.340 348.726 107.346 348.726 L 95.352 348.726 95.352 400.450 M304.533 400.450 L 321.084 452.024 308.621 452.102 C 301.767 452.145,296.096 452.118,296.020 452.042 C 295.900 451.922,289.655 429.510,289.655 429.200 C 289.655 429.137,282.402 429.085,273.538 429.085 L 257.421 429.085 254.592 438.306 C 253.036 443.377,251.442 448.572,251.050 449.850 L 250.337 452.174 238.480 452.174 C 228.248 452.174,226.645 452.114,226.789 451.739 C 226.881 451.500,234.616 428.223,243.978 400.012 L 261.001 348.720 274.492 348.798 L 287.983 348.876 304.533 400.450 M274.015 369.265 C 273.921 369.595,271.181 379.150,267.925 390.498 C 264.670 401.847,262.067 411.192,262.141 411.267 C 262.215 411.341,267.334 411.366,273.515 411.323 L 284.754 411.244 279.470 389.955 C 276.481 377.910,274.112 368.926,274.015 369.265 " stroke="none" fill="#cc9404" fill-rule="evenodd"></path></g></svg>