<svg enable-background="new 0 0 1000 1000" height="316.227766" viewBox="0 0 1000 1000" width="316.227766" xmlns="http://www.w3.org/2000/svg"><path d="m816.012 3.003-.152 261.914c-1.397 1.996 0 5.389-.599 7.78-.4 6.388-.599 11.777-1.397 17.566-3.19 29.132-9.179 57.27-15.766 84.809l-.799 1.597c-27.734 102.175-82.018 194.569-160.637 272.196-40.515 38.319-85.816 72.446-133.113 99.181-2.994 1.593-5.586-1.392-8.378-2.2-66.654-38.704-132.107-90.393-180.204-152.458-31.326-39.309-57.669-81.216-78.225-125.923-28.736-62.659-46.899-131.303-51.086-200.753-.199-3.992.201-7.182-.4-11.18 0 0-1.124-153.685-.973-252.988l631.728.277v.182z" stroke="#f2b227" stroke-miterlimit="10" stroke-width="10.1763"/><path d="m468.43 53.383.797.998h21.153l.801-.798-.105-15.329h18.873l-.008 15.129 1.392.998 20.406.083 1.349-1.276.06-14.934 15.306-.038v30.738h-94.394l-.004-30.452h14.307z" fill="#fff"/><path d="m730.453 51.391c1.193 3.593.395 7.785-1.401 10.77-7.782 9.782-19.758 12.378-31.328 14.373-2.2-.398-5.186 0-7.386.4-11.373-.599-24.744-1.997-30.134-13.574-.594-4.783.599-9.373 3.992-12.767 15.167-12.776 39.512-15.363 57.673-7.581 3.793 1.796 6.584 4.786 8.584 8.379" fill="#fff"/><path d="m339.317 55.379c1.392 3.593 1.198 8.184-.599 11.574-11.574 13.37-31.931 11.178-47.697 8.184-8.984-2.994-20.754-7.781-21.553-19.16-.199-3.988 2.593-7.382 5.789-9.976 4.789-3.793 10.978-4.786 16.763-6.189 16.364-1.796 34.72 1.198 46.298 13.57z" fill="#fff"/><path d="m722.264 50.592c1.402 1.797 2.994 3.788 2.2 6.388-7.186 10.376-19.159 12.173-30.932 13.565-9.183-.394-18.761-.599-25.947-6.778-2.395-2.395-1.593-5.99.599-8.184 10.581-9.183 23.552-11.379 38.319-10.38 5.987.798 10.775 2.594 15.761 5.389"/><path d="m330.533 54.381c1.796 1.403 2.796 3.199 3.394 5.186.599 2.595-.999 4.202-2.395 5.993-14.968 8.98-36.717 6.584-50.887-2.199-2.195-1.796-4.592-3.992-5.189-6.779 2.195-7.985 11.577-9.386 18.559-10.779 13.171-1.198 26.142 1.595 36.518 8.578"/><path d="m545.855 72.143-5.984 5.19h-77.829s-3.789-3.394-5.387-5.19c28.537-.199 60.468-.199 89.2 0" fill="#fff"/><path d="m778.943 81.725-.999 6.379c1.597 1.198 3.989.603 5.186 2.598 2.395 5.391.4 11.574-1.792 16.364-2.994 2.192-3.593 5.59-5.789 8.377-8.18 13.374-17.363 27.547-30.334 38.518-.394-1.996-1.397-3.793-3.389-4.188-3.792-.205-7.385.199-10.779.794.599-6.379 4.79-12.368 3.193-18.755 18.162-16.569 31.332-37.919 41.708-58.871 2.995 1.797 2.792 5.989 2.995 8.784" fill="#fff"/><path d="m234.147 91.502c9.378 14.568 18.36 28.932 31.931 40.909.198 6.987 2.395 12.368 3.993 18.956-4.195-.8-9.782-1.997-13.774.599l-.594 1.996c-4.991-2.594-8.981-8.176-13.572-12.372-7.783-9.981-14.366-21.755-21.75-32.53l-1.998-.994c-1.395-5.988-3.591-11.578-.397-17.361 1.198-1.602 3.391-.201 4.389-1.997.599-4.592-3.993-11.574 1.796-15.167 3.393 5.788 6.582 12.168 9.976 17.961" fill="#fff"/><path d="m538.794 79.967.031 25.907s-6.47.038-9.265.038l-.004 28.373 9.412 9.607.104 64.947s-6.583 5.789-9.577 8.383l.351 1.906.048 28.216h-4.193v-23.082c0-7.708-2.565-21.667-24.393-21.667-20.835 0-24.032 11.816-23.998 21.68l-.034 23.07h-3.821v-29.658l-9.615-9.247.048-64.547 9.477-9.069-.057-28.772-9.469.017-.801-.997.02-25.105z" fill="#fff"/><path d="m777.945 90.704c-9.183 16.76-18.96 33.922-32.526 48.695-2.994 3.388-6.587 6.388-9.981 8.375-.599 0-.999-.594-1.198-1.198 11.574-9.373 21.351-22.149 28.537-34.722 4.991-7.381 8.978-14.767 13.565-22.348.805-.205 1.404.404 1.603 1.198"/><path d="m224.769 91.107c12.372 19.754 22.348 41.104 41.506 56.072.202.594-.4.999-.797 1.193h-.999c-19.956-14.963-29.735-37.111-41.908-56.675-.597-1.397 1.599-1.788 2.198-.59"/><path d="m504.551 102.077c.195 1.597-.201 3.195-1.602 4.388-.395 4.994-.195 10.18-.195 15.167 4.587.603 10.376.404 15.366.199 1.198-1.397 3.195-2.994 5.186-1.597 1.198 1.198 1.997 2.994 1.397 4.392-1.198 1.198-2.789 2.994-4.786 1.796l-2.196-1.997c-4.791.404-9.981-.798-14.566.201-.804 5.389-.205 9.981-.4 15.571 1.991.798 1.991 3.189 1.596 4.782-.802 1.796-2.599 1.796-4.192 1.596-1.198-.394-1.996-1.596-1.996-2.986.199-1.397.999-2.594 2.196-3.392l-.201-15.571c-4.988-.4-10.575-.594-15.568 0-.996 1.397-2.993 2.594-4.584 1.796-1.198-.599-1.801-1.997-2.001-3.195.201-1.797 1.597-2.794 2.996-3.583 1.397.589 2.994 1.188 3.792 2.391h14.968l.599-.605-.201-14.763c-1.397-.999-1.796-2.595-2.196-3.993.602-1.198 1.597-2.395 3.19-2.594 1.401.002 2.994.799 3.398 1.997"/><path d="m585.97 102.277c-.404 1.397-.404 2.795-.404 4.188-1.991-.195-3.788-2.99-5.584-.793-.994-.599.398-1.198.203-2.196 1.198-1.997 3.79-1.199 5.785-1.199" fill="#f2b227"/><path d="m420.936 103.874-.201 2.395c-.997-.599-2.394-1.6-3.392-.802-.599.404-.999.998-1.597 1.202-1.398-.599-.999-2.994-.999-4.192 2.196.199 4.592-.4 6.189 1.397" fill="#f2b227"/><path d="m636.457 107.068c2.59 2.192 5.988 2.596 8.982 4.392l5.186 6.578c2.395-.791 3.988-3.39 6.384-4.388.802 0 1.402-.798 2.395-.599.799 1.402-.394 4.196 1.796 4.786 2.799-.394 5.186-2.986 8.385-2.594 0 2.2.599 4.196 2.595 5.19 1.198.199 1.796-1.397 2.791-1.988 2.196.795-1.198 2.387.802 3.385 2.192 1.398 5.586 1.398 7.977 0 2.6 2.596-2.99 5.594 1.403 6.987 1.792.4 3.589-.599 4.586.799.404 2.794-4.586 4.391-1.796 6.786 3.195-.403 6.982-1.796 9.378 1.798-3.788.798-8.578.997-10.575 5.185l-.394 2.401c-3.594.394-6.988 6.578-10.38 2.391-.999-.998-.795-2.391-1.993-3.199-2 .999-3.593-.595-5.195-1.388-3.189-1.597 2.001-8.389-3.189-6.388-4.587 5.584-6.788 12.966-9.378 19.953-1.796-1.198-3.195-2.795-5.389-3.195 5.389-5.984 7.785-13.764 8.982-21.551-.404-.199-.404-.997-1.003-.997-2.19.599-2.19 4.391-4.985 3.991-1.597-1.796-3.793-5.189-6.388-3.591-3.593.199-1.993-6.788-5.586-3.798 0 2 .795 3.798 2.592 5.195 1.6 1.397 3.593.993 5.389 1.193-1.797 1.202-4.388 1.597-6.783 1.796-.402-.395-1.198-.395-1.602 0-.394.404-.993 1.202-.195 1.602 3.389 1.796 7.187 2.586 11.174 3.394.4-.201 1.398-.808 1.198-1.597l-.798-1.602c.999.205 1.792-.395 2.795-.195 0 6.788-5.59 12.173-9.981 16.959 1.198 2.791 2.595 5.789 1.003 8.783-1.602 3.19-4.792 3.792-7.985 3.19-1.993-.795-4.193-1.195-5.391-3.389-.398-2.596 0-5.59 1.398-7.786 2-2.192 5.19-1.597 7.186-3.593-.404-3.394-3.593-.195-5.186-.599-3.796 1.796-6.187 4.991-5.793 9.581l-.195 2.397c-6.587 9.976-11.972 20.351-18.561 30.133-.599 1.796-.404 3.394.599 4.788 1.597 2.391 4.192 2.99 6.184 4.387-.795 6.593.599 12.572 4.192 17.566.999.395 1.198-.798 1.597-1.401-.4-3.593-1.798-9.573 1.991-11.974 2.799 1.796 5.195 5.19 8.584 5.585 3.788-.594 5.789-4.987 7.785-7.776 4.791-10.181 11.773-18.761 18.157-27.94 2.994-.203 3.195-6.981 6.983-3.392 2.6 0 5.793-.404 6.787-3.199.599-4.387.203-9.373 2.395-13.165 1.996-2.995 5.186-6.787 8.779-7.981 1.602 1.593-2.192 1.392-1.198 2.99 1.402.999 3.398.999 3.793 2.994 2 13.965-11.176 23.148-12.772 36.323-2.592-1.403-2.592-4.392-5.186-5.391-1.797 1.997.594 4.189.394 6.388 2.397 8.779-.394 18.157-5.988 24.54 2.2-4.786 2.001-12.966.599-18.751l-1.189-1.198c-2.599 1.593.195 4.782-.404 7.577.404 8.584-1.991 16.369-8.383 21.351.599-2.192.203-4.591.203-7.378-.398-.4-.997-1.198-1.596-.599-1.398 1.597-.599 4.192-.799 6.384-.599 4.592-4.391 8.779-8.18 11.574-.802-1.796.599-5.59-2-6.588-.798.201-1.593.604-1.593 1.603 1.993 6.382-.199 13.17-5.389 17.96-2.395 2.596-5.59 3.389-8.779 4.792 2.395-4.198 5.39-9.183 1.596-13.575-.203-.599-.802-.798-1.401-.599-1.992 1.398.803 3.195.599 4.991-.396 5.189-3.788 10.575-8.978 12.169l-2.795.402c1.401-4.188 2.599-8.779 2.599-13.37-.402-.798-1.198-.997-1.796-.603-1.6 7.386-2.2 17.367-10.979 19.559 3.389-3.593 3.988-8.974 2.397-13.565-.6-2.196-3.394-3.394-2.994-5.79 0-2.195 1.6-3.991 2.798-5.788.196-.799-.404-1.398-1.001-1.993-1.199.196-2.397 1.593-2.795 2.791-.994 2.596-2.791 6.388-.594 8.984l2.391 3.189c-3.195.798-6.982-.603-9.577-2.99-1.597-1.397-.6-3.195-2.196-4.591 0-5.99 2.196-11.777 6.987-15.171 0-.595-.205-1.198-.804-1.797-6.183 3.202-8.576 9.586-9.173 16.168-4.193-4.192-1.198-9.78-.404-14.572 1.397-3.788 3.992-7.376 8.184-7.975.599-.603 1.992-1.597.794-2.399-1.991-.201-4.387.599-6.183 1.796-2.391 1.602-3.589 4.391-4.788 6.982-3.193-3.389-2.594-8.779-1.198-12.767 1.593-7.581 9.777-10.58 13.571-16.564.199-.594-.599-.999-.999-1.402h-.798c-3.793 3.003-7.187 7.186-11.379 8.588 8.184-10.776 8.184-27.943 22.553-33.732.599-.395 1.593-.999.993-1.788-1.991-.999-4.387.789-6.382 1.597 1.6-5.391 6.982-10.385 11.577-13.774.197-.4.396-1.392-.402-1.796-2.996 0-4.792-.999-6.982-2.596 4.192-5.385 11.174-8.18 14.367-13.965.4-3.398-5.783-2.196-3.394-5.589 1.597-3.195 2.397-8.18 6.987-8.385 1.798-.199 3.39 1.597 4.788-.199.398-3.988-1.792-8.779-.994-13.167 6.587 4.388 3.389 11.57 3.988 18.357-2.395 4.592-4.192 9.583-4.786 14.972.394 1.792 1.996 3.589 3.589 3.983 1.198-.199 2.395 1.403 3.189-.199.804-.993-.794-1.797-1.393-2.192-1.198 0-2.395-.993-2.791-2.191.599-5.391 2.994-9.981 4.79-14.773-1.001-5.59 2.192-10.381-.607-14.962-2.19-2.596-5.584-5.59-4.183-8.984 1.389.204 1.59 2 2.787 2.798" fill="#f2b227"/><path d="m597.345 110.058c-2.396-1.392-7.586.603-7.586-2.99l.798-2.594c2.994.398 5.59 2.989 6.788 5.584" fill="#f2b227"/><path d="m367.056 108.066c-2.395 4.392-7.785 8.379-4.991 14.365-.398 2.594.4 5.389 0 7.585 2.596 4.188 5.789 9.581 4.193 14.763-.799 1.403-4.792 1.007-2.996 3.398 1.398.999 2.596-.603 3.993-.803 4.591-4.586.599-10.172-.599-14.962-3.792-2.596-.997-7.985-2.395-11.174-1.597-4.397 1.796-7.191 4.192-9.976.395 3.591-1.003 8.974-1.003 12.571 1.602 1.796 3.994-.203 5.99.395 4.99.997 4.391 6.587 6.984 9.382-.996 1.592-2.994 1.796-4.39 3.193 2.196 7.179 10.975 8.984 14.369 15.163-1.796 1.402-3.992 2.795-6.787 2.397-.198.597-.796 1.596-.198 2.191 5.189 3.398 9.177 7.989 11.776 13.37-1.995-.79-4.791-2.586-6.787-1.393.6 2.795 3.594 2.2 5.386 3.792 11.176 7.782 10.779 21.755 18.959 31.332-5.587.395-7.381-6.782-12.571-8.379-.599 0-.994.798-1.198 1.193 4.192 5.589 10.777 9.378 13.37 15.766 1.198 4.391 2.395 9.782-.397 13.565-2.397-3.984-6.187-8.375-11.378-8.978-.798.403-1.596 1.401-.798 1.996 6.785 1.402 10.177 8.58 11.375 14.572 0 3.589.398 7.183-2.397 9.573-.996-.993-.196-3.189-.596-4.786-.4-4.99-3.791-9.782-8.183-11.968-.599-.205-.997.19-1.198.793-.199 2.391 3.195 2.391 3.993 4.792 2.795 3.388 3.391 7.381 2.994 11.968-1.397 1.401-.997 3.199-2.395 4.591-2.594 1.393-5.589 2.795-8.779 2.59.599-1.788 2.391-3.388 2.99-5.381.599-3.993-.794-7.387-3.792-9.782-3.789 1.398 1.596 3.793 1.401 6.189 1.193 4.991-5.19 6.788-3.796 11.974 0 3.388 1.198 6.183 2.998 8.778-8.383-1.592-8.984-11.777-10.379-18.959-.401-.594-1.198-.799-1.795-.195l-.6.599c.6 4.79 1.4 8.582 2.994 12.966-2.994 0-5.788-.999-7.982-3.189-1.596-3-3.792-5.391-4.192-8.78-.4-1.995 3.195-3.992.4-5.389-2.795.599-1.796 4.192-2.795 5.984-.199 3.199 2.395 4.995 2.994 7.79-3.792-.209-7.182-3.593-9.977-6.388-3.992-4.591-5.389-10.78-4.392-16.969-.397-.394-.997-.798-1.595-.394-.398 1.997-1.596 3.593-.999 5.984-2.792-.394-3.792-3.189-6.184-4.79-2-3.788-2.796-7.382-2.596-12.173-.599-.395-1.198-.994-1.796-.395-1.996 2.596.999 5.186-.201 8.186-2.994-2.401-4.387-5.791-6.583-8.988-1.796-5.984-3.193-11.773-.997-17.761.195-.998-.2-2.188-1.198-2.391-1.597.997-1.798 3.788-1.798 5.589-.599 4.587-.798 9.777 1.398 14.168-4.79-4.795-7.984-13.174-6.987-20.755-.799-3.793 2.795-6.783.202-10.181-2.597.803-1.001 3.997-3.795 5.194l-.598.395c-1.395-13.366-16.361-22.953-12.174-37.312.599-1.801 3.792-.603 2.793-2.998-.597-.4-1.198-.795-1.198-1.593.799-.798 1.796.195 2.596.394 4.192 3.594 8.181 7.985 8.382 13.571.4 3.198-.598 7.182 2.794 9.183 2.593 1.996 7.584-2.001 8.578 1.592 3.991 2.395 5.789 7.187 8.783 10.181 7.185 8.584 10.577 18.96 17.962 27.339 4.187 1.996 7.381-2.397 10.572-4.791 1.998-.196 1.998 2.394 2.795 3.792.599 2.994-.797 5.586-.797 8.379.201.604.999.999 1.797.804 3.992-4.791 4.59-11.379 4.391-17.363 2.394-2.399 8.181-3.992 6.584-8.18l-.199-1.597c-6.385-10.176-12.372-19.957-18.561-30.134.199-2.994-.199-7.385-2.99-9.776-2.196-1.597-5.789-3.199-8.184-1.402.4 2.6 3.593 1.402 5.186 2.397 2.2 1.996 3.796 4.192 3.796 7.186 0 2.19-1.996 4.187-3.796 4.79-2.391 1.193-5.783 1.797-7.98 0-1.397-2.196-3.593-4.392-2.195-7.386.6-1.401 1.395-2.594.997-4.387-5.187-3.597-8.381-9.786-9.978-15.77.798-.594 1.797-.196 3.193-.395-.798.599-.599 1.597-.798 2.596l1.198.798c3.593-1.407 8.379-1.003 11.375-3.992 0-.599-.398-1.198-.999-1.397-2.596.398-5.187-.599-7.981-.999.996-1.202 3.79 0 5.385-1.597 1.398-1.397 2.596-3.193 1.798-5.385-.4-.408-.6-.999-1.395-.802-1.198 1.596-1.001 3.987-3.195 4.59-1.597-.603-2.993 0-4.391.6-1.596.997-1.395 4.188-3.792 2.994-1.795-.999-2.395-4.792-4.591-3.394l-.398.4c2.595 7.576 3.993 15.561 9.979 21.35-.597.999-1.994.599-2.794 1.198l-2.595 1.997c-1.593-2.196-2.196-5.585-3.195-8.38-2.391-3.997-3.792-8.588-7.581-11.773-.795-.4-1.796-.203-1.993.599.196 2.196 2.193 3.992.196 5.98-1.597 1.796-3.791 1.796-5.987 2.196-.597 1.597-1.594 3.593-3.392 4.192-3.592-.993-8.583-2.595-9.58-6.579-1.993-3.593-6.184-3.992-9.976-4.391.597-1.398 2.394-1.997 3.792-2.795 2.596-.404 4.987 1.996 6.587-.599-.403-2.397-3.198-3.793-2.595-6.189 1.996-.199 4.587.599 5.785-1.193.398-2-1.797-4.392.203-6.189 1.792 1.394 4.584 1.193 6.78.994 1.998-.599 1.596-2.994 1.198-4.192 1.596 0 2.397 2.594 4.193 1.796 1.994-.999 1.195-3.585 1.596-4.987 2.993-.603 5.388 1.597 7.982 2.6 1.195-.205 2.196-1.606 2.393-2.6 0-.794-.196-1.801.599-2.196 3.792-.203 5.389 5.387 8.982 4.388l4.786-6.379c3.993-1.602 8.381-2.795 10.979-6.991 1.205.794.801 2.196.407 3.394" fill="#f2b227"/><path d="m410.757 108.865-.401.395-7.382 1.202c.796-2.999 9.378-9.981 7.783-1.597" fill="#f2b227"/><path d="m570.456 108.344-.043 12.892s10.969-.199 15.556.196c.794 1.198 2.192.997 3.593.997 1.796 2.996 2.405 10.676 2.405 10.676l-59.683.095v-24.536h9.113l-.048 11.651 1.117 1.117h14.966l.795-.8v-12.372z" fill="#fff"/><path d="m443.689 108.326-.02 12.42.814.685h15.367l.995-1.597v-11s6.318.178 9.709-.022l-.009 24.475-62.183-.078-.2-.599c-.196-3.593 1.199-6.788 2.794-9.777 1.397-.404 4.394-1.401 4.394-1.401h15.364l.997-1.597-.051-11.491z" fill="#fff"/><path d="m414.548 111.659-1.994-.4 1.196-2.998c1.198.204.997 2.4.798 3.398" fill="#f2b227"/><path d="m783.53 123.229c0 2.196-1.392 3.992-1.796 5.988l.404 1.193-1.198.404c-7.786 15.163-22.153 28.533-36.522 37.915.599 2.799.798 6.783-1.393 8.979-2.994 3.796-7.187 4.99-10.78 7.385 0 .799.599 1.597 1.198 1.597 5.789-1.198 12.372-5.988 13.969-11.773l.199-4.995c14.17-8.974 26.945-22.348 35.125-36.912l.599.398c.794 9.379-2.395 17.758-6.991 24.944 2.599 2.791 3.593 7.382 2.2 10.971-1.199 3.997-3.195 7.59-5.186 11.178 3.788 6.189-.205 13.371-3.997 18.561-3.789 3.588-7.183 7.183-11.375 9.976 1.198 2.196 1.597 4.392.799 6.983-2.791 5.389-8.381 10.376-13.171 14.572-.195 2.592 3.593 2.795 3.988 5.186-1.796 5.19-5.586 9.382-10.772 11.379.196 1.996 1.993 3.593 2.592 5.589-.994 2.99-4.587 4.583-7.183 5.182-.997.4-.997 1.403-.398 1.997l2.195.603c-1.596 2.595-3.392 6.183-6.587 7.182-1.992.395-3.993.599-5.584 1.796 0 2.192 2.19 3.593 3.987 4.192-1.198 3.59-5.589 5.581-9.378 5.99-.993-.209-2.395-.999-2.994.398.599 1.593 2.001 2.791 3.199 3.984-3.199 3.593-9.183 2.994-13.575 2.596-1.198.603-.599 1.796.4 2.399.999.999 2.596.999 3.593 2.192-2.195 3.193-5.19 5.788-9.577 4.59-2.001 0-4.192-1.996-5.988-.599.195 2.391 1.596 4.388 2.195 6.588-2.599 3.189-7.785 1.596-11.174.798-2 .999.396 2.192.599 2.985l.994 1.007c-2.395 1.991-6.583 2.785-9.378 1.393-1.997-.199-3.389-3.388-5.389-1.996-.201 1.796 0 4.995-2.791 4.188-2.994.404-5.59-1.393-7.581-3.585-1.398-1.198-.804-4.991-3.398-3.792-.795 1.192-.195 2.191-.599 3.392-3.19.594-5.785-2.2-7.581-4.591-2.395-5.988-3.389-12.177-3.593-19.154-.799-1.198 0-2.795 0-4.197 1.596.603 3.991 1.597 5.39-.199.199-2.391-2.791-1.003-3.989-1.991h-1.796c-3.793-5.192-9.782-12.173-5.389-19.159 4.192-6.983 12.173-7.382 19.953-6.983 6.189 1.596 13.57 0 17.763-5.194.398-1.993 2.994-2.596 3.592-4.587 6.584-6.987 8.979-15.966 7.382-25.943-.394-11.578-3.193-25.342.998-36.123 1.996-4.391 5.988-7.78 9.578-10.77 9.78-8.783 18.959-18.965 27.139-28.338 2.2-2.196 3.997-5.389 6.189-7.586-1.796 15.567-8.381 29.731-20.752 40.909-6.587 6.584-13.375 12.772-20.158 18.556-.394.804.6 1.202.999 1.602 2.395 0 3.389-3.993 5.984-2.196 2.6 2.196 3.199 5.59 2.196 8.779-.599 2.59-2.59 4.792-3.788 6.982.993 1.996 3.389 2.395 3.788 4.792.799 3.792 0 7.584-2.395 10.775.799 3.593 1.198 8.58-1.796 11.373-1.991 1.597-4.387 2.596-5.98 4.392.394.4.794 1.397 1.593 1.198.794 0 1.596-.798 2.195-.4-.997 4.592-2.59 9.583-7.186 11.974-1.991 1.202-4.192-1.597-5.785.603.8 1.796 3.193 2.391 1.198 4.187-2.994 3.593-6.983 5.984-12.177 4.786-.994 0-2.395-.997-3.39-.394-.802 1.796-.203 4.591-2.794 5.186-3.594.798-6.385-3.195-9.379-.8-1.397 1.796-3.792 2.196-5.789 1.403-.997-.404-2.195-1.801-3.392-.999-.994.794.203 1.593.802 2.192 1.991 1.397 5.186 2.395 7.78 1.202 1.597-1.003 3.394-2.6 5.391-.804 2.791.999 5.584.395 7.776-1.397 1.003-.798 1.402-1.996 1.602-3.193 4.791.798 10.176 0 13.769-3.195l3.789-5.785c7.186-2.391 9.977-10.181 10.774-17.162 6.388-4.188 2.001-13.167 5.789-18.556.4-4.193.599-8.783-2.59-11.773 1.593-3.398 3.988-6.588 3.39-10.585 14.767-10.571 31.929-19.754 39.711-37.111 17.363-12.168 28.137-32.131 38.918-48.894 2.392 3.598 1.589 9.978.791 14.17" fill="#fff"/><path d="m257.698 159.751c7.382 16.364 25.539 26.536 39.312 36.514.198 3.796.997 7.389 3.389 10.184-3.192 2.795-3.988 7.981-2.791 11.974 3.192 2.99 1.596 7.186 1.994 10.58-.798 4.981 6.186 6.384 4.789 11.569 1.397 5.589 4.392 11.574 9.976 13.57 2.596 3.788 6.587 8.779 11.776 8.779l5.388-.199c.6 3.193 4.391 4.795 7.385 4.99 1.792-.4 3.789-.4 5.186-1.397 2.596 1.397 5.789 3.394 8.779 1.597 1.001-.6 2.397-.6 2.795-1.997-.797-4.192-3.391.999-5.584.201-2.996 0-4.392-3.789-7.187-2.397-2.196.799-4.786 2.397-6.983.799-1.397-1.392-.999-3.389-2.395-4.79-4.391.997-8.779 1.198-12.572-1.597-.997-1.597-3.193-2.391-3.392-4.583.599-.404 1.397-1.198 1.796-1.797.199-.603-.599-.998-.999-1.198-1.796.999-3.394.199-5.186 0-3.593-2.596-5.988-6.792-6.388-10.979l.4-.798c.798 0 1.397.997 2.192.398l1.001-1.193c-3.193-2.399-7.783-4.795-8.184-9.386-.795-2.196.599-4.388.202-6.982-1.798-2.59-3.193-5.385-2.795-8.779 0-3.589 4.789-3.792 3.993-7.182-2.996-3.199-5.19-7.387-3.593-11.574.798-1.198 1.996-2.994 3.593-3.794 1.994 0 3.591 4.991 5.587 1.593-14.77-14.168-34.326-27.735-38.716-48.096-1.394-3.784-1.394-7.78-2.792-11.568l.397-.4c12.176 15.366 26.341 30.933 41.307 43.499 5.394 8.385 3.796 17.168 3.991 27.14-1.198 2.2 0 5.389-.599 8.184.404 4.587-1.792 9.183-.195 13.774-.404 10.77 8.779 18.552 16.36 25.143 8.383 3.993 19.159-2 27.539 3.195 4.991 2.191 6.189 7.581 5.99 12.372-1.795 4.187-3.593 8.18-6.788 11.773-1.794 0-4.389-.4-5.785.999-.199 1.193 1.198 1.587 1.994 1.796l3.593-.799c.796 4.583-.599 9.773-.996 14.36-.801 5.394-2.395 11.178-8.184 13.574-2.595.804-1.198-4.591-4.188-3.389-.603 3.594-3.593 6.184-6.788 7.183-1.994-.203-3.792.404-5.587-.603-.4-1.394.598-3.19-1.198-3.988-3.195 2.2-7.185 4.791-11.177 2.594l-1.996-1.192c.798-1.198 2.395-1.997 1.996-3.398l-.599-.799c-3.589.203-8.18 3-10.975-.195 0-2.395 3.59-5.394.999-7.786-3.394 1.593-8.981 2.592-11.972-.199l-2.596-2.994c1.198-1.398 3.791-1.597 4.589-3.593-.596-1.193-1.594-1.597-2.592-.8-4.193.404-8.381.201-11.574-2.594.798-.999 2.789-2.391 2.99-3.988-.994-2.192-2.395.205-3.789-.603-3.392-.595-6.987-2.586-8.584-5.781 1.199-.798 3.793-2.395 3.594-4.192-1.596-1.198-3.594-1.397-5.189-1.996-3.392-.994-5.187-4.792-6.385-7.382.996 0 1.794 0 2.395-1.003-.202-2.196-2.994-1.592-4.392-2.391-1.397-2.2-5.385-3.997-2.195-6.792.798-.794 1.397-1.788 1.198-2.986-4.791-2.199-9.578-6.187-10.575-11.578-.201-2.988 5.385-2.794 2.395-5.785-4.591-5.794-13.77-9.979-12.572-18.559 1.198-.999.996-2.791-.4-3.593-8.777-5.99-16.763-15.363-14.568-25.943l.4-1.198c-2.994-6.588-8.981-14.964-2.595-22.149.599-1.602-1.597-1.996-1.796-3.394-3.79-5.785-5.587-12.971-5.388-19.953l.6-1.796c8.58 13.764 21.152 27.538 35.121 36.317.599 3.189.398 6.388 2.395 8.98 2.594 4.59 7.78 6.587 12.372 8.183l.798-1.397c-4.192-3.195-11.174-5.19-12.77-11.379 2.195-7.98-7.386-8.775-10.777-13.764-10.974-7.581-18.36-19.155-26.344-29.536-1.595-5.589-2.794-13.773-1.993-20.152l1.198-1.796c10.774 18.157 22.551 37.312 39.914 50.287" fill="#fff"/><path d="m410.159 112.258c-.798.999-2.795.594-4.19.4 1.195-.6 2.992-.804 4.19-.4" fill="#f2b227"/><path d="m584.369 117.249c-1.593.59-4.183-.999-5.381 1.589-.404-1.198-1.003-2.99.599-3.984l4.183-1.597z" fill="#f2b227"/><path d="m422.329 116.841c.4.798.203 1.996-.595 2.399-.603-1.401-1.996-1.401-2.795-1.991-.798.39-1.596.59-2.595.59l.798-4.189c1.797.595 4.393.804 5.187 3.191" fill="#f2b227"/><path d="m411.955 114.649c-.201 1.602-.401 3.593.198 5.186-1.594.203-4.188-1.996-5.587-.191-.198 1.189 1.198 1.593 1.796 2.391-1.796 3.593-2.196 7.78-2.794 11.574 1.199 6.587 2.993 13.166 4.788 19.354-.597.404-1.395.404-1.795 1.198 1.198 5.988 3.394 11.178 5.59 16.768-3.992-.808-1.799 4.782-3.196 6.982 1 3.189.401 6.983.599 10.372l-1.795 4.594c-3.193-6.388-5.786-13.972-10.777-20.161-1.596-3.793.4-8.375.4-12.767.199-9.382-2.196-17.957-1.394-26.741.396-5.589 1.593-10.58 2.192-15.96 3.194-2.396 8.182-1.196 11.775-2.599" fill="#f2b227"/><path d="m599.935 116.446c2.994 12.772 3.997 27.145 1.198 40.909.203 3.594 0 7.581 1.602 10.581 1.198 5.779-4.791 8.18-6.189 12.966-2.195 3.593-2.994 8.584-5.186 11.578-4.596-6.788.395-14.773-2.994-21.751-.402-.403-1.003-.607-1.796-.403 1.796-5.585 5.186-10.575 5.39-16.565.196-.999-.802-.798-1.401-.999 2.196-9.378 6.587-20.751 1.796-30.932.599-.595 1.597-1.996.802-2.994-1.6-.999-2.799 1.202-4.395.808v-4.995c3.393.595 7.784.204 11.173 1.797" fill="#f2b227"/><path d="m591.603 135.532s-.647 1.87-.243 3.263l-2.599 1.997h-48.691l-6.041-5.308z" fill="#fff"/><path d="m462.244 140.995-48.374.078c-2.001-1.198-5.31-5.074-5.31-5.074h59.071z" fill="#fff"/><path d="m700.913 139.793c.2 4.795-4.388 8.578-8.375 10.376-1.402-.6-3.199 1.602-3.593-.994-.804-3.198 5.381-.804 3.788-4.397-.999-.997-2.196.2-3.394 0 1.597-3.585 5.99-3.987 9.777-3.784.798-.403.599-1.996 1.797-1.201" fill="#f2b227"/><path d="m310.181 143.59 1.198 1.593c-1.198.603-3.193-.994-3.793.999 0 1.592 1.597.997 2.397 1.995.798 0 1.592-.2 1.792.595-.2 1.003.603 2.594-.795 2.594-4.591-.398-8.184-3.991-10.579-7.776.401-1.003-.999-2.001 0-2.799 2.992 1.997 6.985.204 9.78 2.799" fill="#f2b227"/><path d="m669.585 147.179c-1.796.999-4.192-1.202-5.988.595 1.593 3.997 5.785 6.587 8.583 9.581.396-.199 1.593-.802 1.198-1.796-2.594-1.397-1.001-4.99-1.401-7.381 1.401-.404 1.597 1.797 2.994 2.595l2.395 1.392c-3.593 4.388-5.389 9.384-4.586 15.567-.205 1.193-.6 2.795-2.2 2.998-1.796.201-3.789 0-4.388-2-.199-2.391.599-4.991-1.002-6.588-2.987.799-.795 5.391-1.789 7.782 0 2.004-2.394 3.398-3.593 4.591-1.796.403-4.596.798-6.388-.4-2.795-1.991-4.387-5.19-3.593-8.176 1.198-4.192 6.987-2.795 7.78-6.987 2.994-2.994 2.799-7.785 4.991-11.178l2.395-4.782c.795 1.987 2.796 2.794 4.592 4.187" fill="#f2b227"/><path d="m587.828 143.164-.061 17.784s-5.186 9.981-5.186 15.561c1.189 1.199 2.387 0 3.586-.394.203-.199.203-.999.802-.804.395 5.391-.802 11.579.994 16.77-.795 3.193 1.6 8.179-1.993 9.573-1.397.599-2.994.798-3.792 2 0 1.393 1.592 2.192 2.594 2.391 1.198.2 3.593-.394 2.994 1.398 0 0-.047.599-.226.919l-45.643-.017-.118-65.233z" fill="#fff"/><path d="m461.016 143.651v65.059s-31.9-.07-45.87-.07c-1.596-3.988 4.193-1.198 3.993-4.591-.999-1.193-4.259-1.714-4.259-1.714l.067-25.621s3.394 1.393 3.992-.798c-.799-3.199-4.059-9.56-4.059-9.56l.016-22.714z" fill="#fff"/><path d="m341.908 158.353c1.597.798 1.198 1.796 1.995 2.99 2.795 2.001 8.184 2.395 7.384 6.991-.196 3.195-2.792 5.585-5.387 6.978-2.592.4-4.987 0-6.788-1.796-2.395-2.99-.994-7.78-3.389-10.77-.798-.4-1.198.599-1.596.993.798 1.801.398 4.197.398 6.184-.999 1.797-3.394 1.007-4.788 1.198-3.195-2.786-1.198-7.382-2.593-10.775-.404-2.796-2.199-5.186-3.594-7.382 1.795-.999 3.991-1.997 4.59-4.392h.599c-.599 2.395 1.395 5.789-1.198 7.186-.201.4-.397 1.199.199 1.597 2.792.4 5.189-2.994 6.785-5.19.799-1.198 3.389-2.391 2.192-3.987-1.593-1.997-2.99.798-4.987-.404 1.6-1.198 3.195-2.592 4.193-4.183 2.794 4.587 4.592 9.572 5.985 14.762" fill="#f2b227"/><path d="m742.425 153.367c-4.391 18.755-24.944 27.733-38.719 38.913-1.792-.798-1.792-3.793-4.391-4.392v-.603c11.378-9.373 24.146-21.551 30.537-34.521 1.993.798 4.189 0 5.785-.798 2.193.997 5.187-1.194 6.788 1.401" fill="#fff"/><path d="m271.066 153.562c5.985 13.574 19.357 24.545 30.333 34.525l-3.99 5.19c-6.189-2.994-11.574-8.384-17.562-12.376l-11.577-9.972c-4.589-4.791-8.581-10.78-9.775-16.968 3.99-2.994 8.579.799 12.571-.399" fill="#fff"/><path d="m654.418 159.152-4.591 2.192-.398-4.987c1.796.399 3.593 1.193 4.989 2.795" fill="#f2b227"/><path d="m350.891 161.547-4.192-1.796c.398-1.997 3.193-1.797 4.589-2.994.598 1.796-.397 3.193-.397 4.79" fill="#f2b227"/><path d="m567.41 159.95c.4 1.393-.798 2.395-1.398 2.99v9.382c2.994 1.193 7.183 0 10.581.395.993-.789 2.59-1.987 3.788-.789 1.398 1.193 1.003 2.988.404 4.187-1.003.993-2.799.993-3.593 0-.404-1.792-2.395-.998-3.398-1.199-2.592.795-9.378-2.399-7.981 3.389.799 2.795-1.193 6.588 1.597 8.584.199 1.597 0 3.19-1.597 3.593-1.397.201-2.795-.402-3.195-1.796-.798-1.401.6-2.399 1.199-3.593-.201-3.394.203-6.987-.395-9.976l-9.378-.201c-1.003 1.394-3.199 2.791-4.791 1.199-.599-1.199-1.398-2.795 0-3.992 1.592-1.796 2.994.394 4.587.794 3.392-.989 10.375 2.596 9.976-2.994-.201-3.189.802-6.983-1.398-9.174-.599-1.198.599-1.796 1.003-2.794 1.594-1.403 3.589.398 3.989 1.995"/><path d="m440.49 160.15c-.4 1.193-.198 2.196-1.395 2.791-.798 3.589.201 6.192-.2 9.577 3.593.999 6.985.604 10.774.4 1.397-1.198 2.998-1.388 4.592 0 .599 1.597-.199 3.394-1.398 3.997-1.393.195-2.99-.404-3.392-1.796l-10.174.195c-.599 3.593-.401 6.987-.201 10.38 1.395.4 1.198 1.996 1.198 2.795-.202 1.198-.801 1.796-1.596 2.391-1.798 0-3.192-1.393-3.392-2.99 2.593-3.195 1.198-9.179 1.395-12.377-3.193-1.189-6.586.2-9.979-.199-.599 1.401-2.391 2.196-3.991 1.401-.994-.402-.795-1.796-1.394-2.794.2-.798 1.198-1.993 2.192-1.993.999.195 2.395.195 2.998 1.195l9.776-.205c.398-3.992 1.596-8.576-.997-11.969.2-1.397 1.198-2.395 2.195-3.398 1.393.403 2.393 1.202 2.989 2.599"/><path d="m771.158 164.741c-6.783 9.179-16.959 15.96-26.741 21.95.599 1.198 3.193 1.796 2.192 3.593-3.389 5.98-9.574 10.372-14.963 14.369 2.594 1.796 5.586 3.388 7.785 5.783v1.198c-1.995 1.597-4.192 2.795-5.988 4.388 2.196 1.202 5.789-.195 8.779.603 2.395-.798 4.987-.798 7.382-1.996s4.596-3.394 7.186-4.392c.798.599.798 1.796 0 2.596-2.395 2.594-6.183 3.189-8.982 4.99-6.185 1.398-13.366.599-19.955.798-.199-.398-.798-.599-.598-1.397 2.794-2.395 6.187-3.593 8.982-6.187-1.597-1.792-4.591-3.195-5.59-5.586-6.782 4.591-14.363 7.382-21.55 11.369-.997.2-1.797-.394-2.195-.993l.199-.799c12.971-6.587 27.739-12.171 36.717-25.148l-3.19-2.99c3.789-3.789 9.379-5.789 13.167-9.183 4.991-4.99 11.777-7.975 15.97-14.363.998-.2 1.592.593 1.393 1.397"/><path d="m239.537 172.917c6.585 5.389 13.77 9.382 20.556 14.369-.203 2-2.395 2-3.394 3.397 9.777 12.972 24.146 18.156 37.316 25.543.201.594-.599.999-.799 1.198-8.382-2.395-15.565-7.586-23.348-11.578.4 2.994-3.791 3.793-5.386 5.789 2.991 2.596 6.186 3.993 8.981 6.189.599.599 0 1.397-.599 1.597-10.379 0-22.552 1.193-29.338-6.991-.198-.594.2-1.193.801-1.193 1.796-.4 2.195 1.596 3.593 2.195 5.587 3.59 12.969 4.591 19.553 3.389-1.993-2.191-4.788-2.791-6.385-4.985 1.796-2.996 5.389-4.392 7.985-6.384-5.59-4.591-12.373-8.984-15.367-15.372.201-1.393 1.997-1.393 2.795-2.191-9.581-6.988-19.758-12.577-27.14-22.748.196-.599 1.199-1.203 1.796-.599z"/><path d="m632.065 167.935c-5.389 7.981-8.978 16.559-15.366 24.146-.799 1.397-.396 2.59-.2 4.183.404 1.596 2.395 2.798 3.793 3.003l-.201.794c-2.395-.794-4.791-2.391-5.783-4.591 1.592-5.59 6.782-9.577 8.978-14.767 2.795-4.991 5.589-10.177 8.978-14.364z" fill="#f2b227"/><path d="m385.812 193.278c.199 1.392 1.198 2.986-.198 4.187-1.597.603-2.997 3.189-4.791 2.596 1.397-1.203 3.593-1.993 4.19-4.189-.799-5.589-5.586-8.982-7.782-13.773-2.994-5.186-6.583-10.173-8.583-15.571 5.789 8.389 10.78 17.967 17.164 26.75" fill="#f2b227"/><path d="m648.829 177.708c-4.587 6.987-9.577 13.973-16.36 19.358-3.593 4.188-9.183 7.586-10.78 12.572-1.792-7.187 3.195-13.171 6.783-18.956 2.994-4.397 6.788-8.583 6.788-14.173.599-2.795 2-6.184 4.79-7.186.794.407 1.797.203 2.791.203-5.385 3.792-1.997 10.575-5.984 14.767-.998.999-3.394 2.196-2.795 3.793.398.798 1.597 1.198 2.195.4 7.985-3.994 2.397-13.975 9.578-18.162-.799-1.401 0-1.991 1.198-2.795-.798 4 5.19 6.39 1.796 10.179" fill="#e32b45"/><path d="m355.48 169.324c-1.796 2.395 2.593 3.798 3.192 5.794 1.597 4.985.599 12.168 6.987 14.168 2.391-2.395-1.997-3.394-2.395-5.389-2.795-3.589.398-9.573-3.993-12.368l-1.198-1.606c1.796 0 4.79-.789 5.389 1.796 3.593 4.196 1.597 10.18 5.59 14.373 3.987 5.589 7.981 11.174 10.575 17.357.198 2.2.198 4.193 0 6.788l-2.395-3.991c-9.379-9.777-20.555-18.757-26.142-30.534.999-2.391 2.99-4.782 2.792-7.577.4.594 1.197.594 1.598 1.189" fill="#e32b45"/><path d="m632.066 180.307c-1.993 4.387-5.39 7.78-8.18 11.974.199-.999.798-3.394-1.198-3.793l9.183-14.972c1.392 1.796.394 4.591.195 6.791" fill="#f2b227"/><path d="m378.23 188.887c-1.799.195-1.4 2.594-1.198 3.788-3.394-5.389-10.58-11.574-8.184-18.755 3.993 4.387 5.588 10.176 9.382 14.967" fill="#f2b227"/><path d="m657.01 177.508c-7.183 9.981-12.971 20.757-19.75 30.736-1.796 2.393-3.798 1.195-5.389-.403 0-.4-.404-.798-.799-.998 1.398.799 3.389.998 4.788.404l2.195-1.597c6.384-9.386 10.776-18.959 17.758-28.142z" fill="#f2b227"/><path d="m345.501 178.107c6.587 8.383 10.975 18.565 17.162 27.14 1.597 2.196 3.992 3.392 6.388 2.395l.994-.599c-1.198 1.796-3.193 3.193-4.987 2.998-8.184-9.782-12.574-21.954-21.155-31.531.001-.598.999-.801 1.598-.403" fill="#f2b227"/><path d="m772.16 183.102v1.193c-8.383 6.987-16.764 14.17-26.944 17.562-.798 0-1.198-.404-1.593-.998l.195-.597c9.782-4.189 18.761-10.577 27.145-17.763.598-.2.994.199 1.197.603"/><path d="m230.558 183.696c8.379 6.987 16.36 12.976 25.941 17.164.594.794-.203 1.592-.997 1.592-10.178-2.994-18.561-10.969-26.944-17.757l.402-1.398z"/><path d="m660.004 189.486c.599 6.587-2.395 12.168-3.988 18.157-2 3.792-5.988 6.987-9.782 8.184-2.395 4.192-6.982 7.186-11.572 7.985-.201-.603-.799-1.198 0-1.796 3.991-2.401 9.977-4.591 10.779-9.981 1.593-1.597-1.003-5.99 2.192-5.789.997 1.797.802 4.192.203 5.789 1.991.199 3.788-2.596 4.987-4.193 3.392-5.984 5.385-12.372 5.189-19.953-.403-.4-.597-.997-.199-1.796 0-.599.799-.798 1.398-.398.992.796-.001 2.792.793 3.791"/><path d="m343.309 187.286c-.603 9.981 1.593 19.962 9.573 25.547 1.799-1.997-2.19-5.789 1.602-5.99.996 3.793 1.594 8.184 4.988 11.379 2.195 2.196 4.988 3.189 7.184 4.985-.4.604-.599 1.203-1.401.999-4.987-1.593-8.179-5.185-11.969-8.779-10.979-5.19-12.771-18.36-11.976-28.937.598-.597 2.194-.398 1.999.796"/><path d="m644.841 189.082c-1.796 3.997-4.596 8.184-6.788 11.18.201-.994.404-2.996-.398-3.997 3.189-2.787 5.389-6.779 8.578-9.978.201 1.202-1.595 1.601-1.392 2.795" fill="#f2b227"/><path d="m363.662 196.871c-2.196.989 0 2.395-.4 3.989-3.392-4.188-5.789-9.179-8.382-13.969 2.994 3.593 5.789 6.783 8.782 9.98" fill="#f2b227"/><path d="m730.249 189.486c0 1.796-1.996 3.189-3.39 3.992-6.392 3.989-13.17 7.581-19.957 10.77-.599 0-1.398-.199-1.398-.999v-.598c7.981-4.189 16.161-7.981 23.347-13.965.6-.199 1.002.396 1.398.8"/><path d="m295.413 203.45c.4.798-.4 1.202-.798 1.398l-3.195-.8c-6.587-3.987-13.77-6.982-19.757-11.769-.199-.798-1.993-2.399 0-2.795 6.986 5.79 15.769 9.375 23.75 13.966"/><path d="m609.912 195.673c-2.791 4.183-5.98 9.373-3.19 14.369 1.402 2.387 4.593 3.988 5.586 6.384-.599.798-2.192.394-2.789.394-1.394 2.401 5.589 6.193 0 5.59-1.597-1.593-1.993-3.593-2.592-5.59 1.796-3.388-3.997-5.385-2.994-9.177-.599-4.991.994-9.782 4.587-13.366.998-.199 1.595.599 1.392 1.396"/><path d="m394.989 198.265c1.801 4.188 4.392 10.376.603 14.568-2.596 2.994-.802 8.375-4.991 10.376-.599.199-1.196-.395-1.596-.994.599-1.796 3.193-2.6 2.794-4.99-.997-.205-2.794.597-3.193-.8 2.395-2.594 5.988-4.79 6.783-8.584.404-4.592-2.592-8.779-4.987-12.169 1.397-2.793 3.593 1.395 4.587 2.593"/><path d="m522.703 224.276v23.07h-4.139c.199-7.585 0-23.07 0-23.07 0-6.145-2.397-15.393-17.255-15.393-13.535 0-17.211 7.101-17.211 15.393v23.07h-4.145l-.013-23.07c0-14.542 10.228-18.96 21.368-18.969 11.154-.004 21.395 5.29 21.395 18.969" fill="#fff"/><path d="m586.166 211.036-1.602 5.095-49.484.095 5.988-5.19z" fill="#fff"/><path d="m468.168 216.56-52.024-.134-.598-5.19h46.698z" fill="#fff"/><path d="m629.874 218.422c.199 1.193-.203 2.786-1.198 3.793-.599.398-1.198.798-1.796.398-1.398-1.796 2.395-2.998.993-5.389 1.002-.998 2.001.199 2.001 1.198"/><path d="m372.64 218.422c-.199 1.996 3.593 3.19 1.395 4.786-1.795-.595-3.192-2.791-3.388-4.786-.203-1.198 2.193-1.797 1.993 0"/><path d="m584.773 219.22c-.599 5.381 4.192 8.974 2.791 14.168-.595 3.988-.395 8.18 2.395 10.776.998 1.397 2.598.999 3.394 2.391l-1.358.789h-59.575v-28.216c-.001.001 35.588.092 52.353.092" fill="#fff"/><path d="m470.963 219.246v28.099h-63.789s4.581-3.779 5.98-5.776c1.794-4.791-1.796-10.381 1.794-14.771.799-2.196 1.28-7.534 1.28-7.534z" fill="#fff"/><path d="m731.047 225.205c.798.798.199 1.996-.798 2.595-7.985 6.388-17.559 9.978-27.938 9.578-.395-.4-.599-.799-.599-1.397 1.996-1.398 4.99-.4 7.186-1 7.182-1.397 14.369-3.792 19.159-9.181-2.001-1.39-4.791-1.788-6.189-3.784.994-2.401 3.589.199 5.386.394z"/><path d="m278.649 223.812c-1.995.79-4.192 1.597-5.389 3.19 6.787 6.388 15.766 8.978 25.347 8.978.597.398 1.395 1.397.198 2-9.381.999-18.359-2.595-25.941-7.789-.999-1.597-2.794-2.391-2.996-3.984 2.397-2.395 5.19-3.394 8.183-4.391.798.199 1.197 1.393.598 1.996"/><path d="m716.284 222.613c.195 1.198-1.401 1.398-2 1.988-3.988.199-7.581 2.196-11.375 1.401-.396-.203-.199-.798-.199-1.202 4.391-.79 8.783-2.188 12.975-2.786z"/><path d="m298.203 225.409c.602.798-.198 1.792-1.193 1.987-3.795-1.392-8.383-.999-11.974-2.985-.602-.203-.602-1.397.2-1.597 4.388 1.197 8.581 1.393 12.967 2.595"/><path d="m621.689 227.8c-.999 1.792-2.196 3.793-1.198 5.785.799.603.799 1.597.4 2.196-.4.404-.994.798-1.398.404-1.393-1.997-1.796-4.392-1.198-6.992.599-.799 2.197-3.785 3.394-1.393"/><path d="m383.021 230.39c-.801 2.2.794 4.591-1.602 5.99l-1.395-.196c.202-1.796 1.395-3.997.4-5.993-.797-.799-2.395-2.196-.797-2.795 1.594 0 2.794 1.606 3.394 2.994"/><path d="m658.011 236.184c-.798 3.389-.599 7.78 0 10.975-7.585.798-15.766.798-20.162 7.78-2.191 4.591-2.191 9.777 0 14.168l5.196 8.182c.394 11.572-.205 23.95 9.577 30.937 1.991.394 4.591 1.392 5.988 0 3.19 3.388 7.778 5.381 12.568 4.187 1.198 0 2.594-1.392 2.799-2.592 3.388-.203 4.387 3.785 5.584 5.98 3.793 7.985 4.991 17.164 5.19 26.542.999 3.993 0 9.382.999 13.175.994 10.371.199 20.552 1.995 30.533.599 7.382 3.593 15.962 11.37 19.555 3.997 2.196 9.182 1.996 13.375.199 4.786-3.792 4.99-9.777 4.786-15.366-.994-5.59-1.796-11.18-4.187-16.165-6.587-13.57-11.578-28.338-10.979-44.299 1.596-8.983 6.587-17.767 14.173-23.347 16.36-11.578 40.91-8.788 51.281-28.937 1.003-1.995 2.2-4.391 1.796-6.991 1.602.404 4.192 2.2 4.991 4.397 3.189 10.171-.199 20.751-8.379 27.335-5.391 3.997-11.578 6.583-17.164 9.981 2.196 6.983.599 14.369-1.997 20.357-1.393 2.985-4.192 5.18-7.186 5.98.599-8.58-.394-18.95-8.379-23.546-5.19-2.196-10.181-.196-14.568 1.801-11.773 9.572-8.779 28.533-4.788 41.104 4.991 12.173 10.776 24.349 10.776 38.115-.404 6.388-2.791 12.776-8.978 15.569-3.798 1.195-7.387 2.387-11.379.994-6.583-.404-11.773-5.186-15.961-9.977-2.795.403-.804 3.195-1.796 4.791-2.196 4.782-5.391 9.183-5.59 14.773-1.198-1.403-1.198-4.198 0-5.793 1.997-5.785 4.991-11.775 4.188-18.362-.794-1.996.404-5.59-2.391-5.785-1.397.603-.199 2.596-1.198 3.593-.999 9.978-9.777 16.165-11.773 25.748-.205 3.583.199 8.379 1.796 11.972 3.589 6.185 10.177 8.576 17.16 8.371.199 1.606-.994 3.402 1.198 4.198 3.995.798 7.984 4.596 8.982 8.578 1.397 1.202 3.589-.394 4.786 1.402 1.402 3.788 2.596 8.982 7.386 9.977-.799 1.597-3.593 1.193-4.991.789-2.595-.59-3.988-3.189-6.587-3.189 0 2-1.792 3.792-.396 5.794-.402 2.791 1.993 4.99 4.193 6.578l4.985 2.005c-.999 1.393-2.395 3.189-4.192 3.388-3.394-.603-6.783-2.599-8.984-5.186-.794.196-1.592.99-1.788 1.798.396 8.174 11.37 7.377 11.969 15.357-1.796-1.392-3.992-3.189-6.184-2.391-.599 2.594 2.994 4.188 3.789 6.778 0 1.003.404 2.799-.4 3.593-1.995-3.784-6.384-7.173-10.971-6.981-.802 0-1.6.798-1.6 1.592-.6 6.392 6.382 7.79 8.582 12.577.196 4.791-.404 9.981-.798 14.972.199.394.798.989.199 1.592-2.395-1.796-3.193-4.587-5.39-6.583-1.996-.203-1.593 2.196-2.594 3.195-.196 1.192.199 2.785-.4 3.593-1.593-.808-2.596-4.388-4.587-2.795 2.196 6.587 5.186 13.764 3.189 21.147-2.59 2.001-5.584-.191-8.379-.794-2.592-1.392-5.586-3.19-5.988-6.588-.599-2.594 1.198-7.177-1.796-7.78-1.394 1.796-.396 4.198-.994 6.184-1.198 3.792-.599 8.384-4.192 10.979-1.597.798-3.394.203-4.987-.396-1.397-1.198-2.395-2.399-2.395-4.196-.599-2.994 5.988-4.792 2.395-7.386-1.995 1.202-4.79 2.795-7.386 1.402-1.796-1.997-4.192-3.199-3.388-6.189 1.193-1.996 6.384-2.196 4.387-5.385-3.193.594-7.381 1.193-9.382-1.796-.599-1.602-.599-3.398-.396-4.991l1.796-.799c7.183.205 15.763 8.98 21.351.604 8.383-10.381 9.179-24.15 12.572-36.527.4-3.992-.4-7.577-2.994-10.372-6.987-3.992-14.968-9.183-16.965-17.566-3.189-6.184-5.184-12.966-10.176-18.357-1.796 0-1.198 1.993-2.196 2.799-1.593 8.18 5.389 14.963 2.995 23.343.199 3.398-.6 7.187-2.397 10.177-1.397-.999-.798-3.199-1.592-4.786-1.198-1.602-1.798-4.196-3.997-4.792-.599 0-1.198.404-1.593 1.003 1.796 5.377 3.193 12.763-.999 17.354-2.994 3.199-5.988 6.193-9.976 7.385 5.391-7.78 10.173-17.562 6.982-27.938-1.592-10.978-4.587-20.755-4.192-32.723.802-1.798-.396-4.589.998-6.193 1.002-25.943 21.555-44.499 25.347-69.642.794-1.996-.599-3.792-.798-5.789-.599-.195-1.403-.195-1.796.4-1.597 5.988-4.392 11.377-7.581 16.569-2.2-3.394-5.594-7.786-2.996-11.978 4.189-7.183-2.394-14.572-6.391-20.553-5.586-8.183-15.562-13.773-18.956-22.748l-4.388-10.18c4.788-5.586 4.388-13.574 4.388-20.752l5.19-6.987c.199-.802-.599-1.397-1.198-1.796-3.992 2.596-8.184 6.189-10.58 10.78-1.198 5.182 3.193 11.769-3.19 15.163h-.404c0-2.596 1.602-4.786 0-7.187-1.786-1.991-3.388 1.403-3.987 2.401l-2.192 3.987c-.599-.199-.998-.993-1.796-.798l-6.388 5.988c-.199-2.789-2.391-4.99-2.196-7.984-.599-.6-.997-.994-1.796-.799-1.198.799-.195 1.796-.794 2.795-1.198 3.993-2.799 8.783-7.386 10.38.994-2.795-.599-6.388 1.198-8.783l-.203-1.993c7.785-2.793 15.969-4.795 22.556-10.18-.203-.404-.599-1.392-1.198-1.392-16.369 8.176-33.927 12.766-51.289 18.351-.394.404-.993.798-.599 1.403.803 1.796 2.994.597 4.192.398.196-.199.4-.199.6-.199-5.186 3.593-2.2 11.378-7.985 14.164-.195-4.192-3.593-7.78-1.593-12.173 0-1.593.199-3.989-.802-4.985-2.592.398-5.389 2.19-6.184 4.79-.599 1.397-.199 3.788-2.395 3.788-1.792-.394-4.786-.993-5.59 1.403-1.796-.404-2.789-2.395-3.589-3.997-.203-1.393 1.398-2.391 2.391-2.99 2.196-1.398 6.388 0 6.987-3.195-.997-2 0-3.992-1.992-5.589-2.2.798-3.593 3.997-6.587 3.193-2.2-.798-4.587-1.991-6.189.999-1.991.599-2.395-1.796-3.189-2.99-.6-2.2 1.796-4.196 3.189-5.19 4.587-1.796 9.577-3.19 14.568-2.795 16.76.594 30.134-8.978 44.099-16.165 5.793-4.591 10.978-9.382 16.164-14.363 2.397.794 4.397.989 6.991.989.395 2.6-.403 5.59-2.595 7.586-1.402 2.395-6.189-.199-5.988 3.199 3.193 1.593 6.384 1.593 9.782.794 4.586 0 5.98-6.587 10.575-5.584 9.378-2.799 19.953-5.389 24.54-15.367l1.602-4.592c5.385-2.795 7.78-8.578 13.17-11.377.201 2.794.006 4.985.006 8.184" fill="#f2b227"/><path d="m356.476 239.972c1.597 7.985 9.581 14.968 17.363 17.158 4.391.201 8.182 2.996 12.772 3.199 2.395 3.593 6.587 5.984 11.174 5.586 1.597-.795 4.192.199 5.19-1.792-.798-2.6-4.592-.804-6.185-2.799-2-1.993-2.395-4.792-2.794-7.183 2.39-.403 4.985-.802 7.182-1.592 6.586 5.58 11.776 11.373 18.561 15.96 13.37 6.388 25.941 15.366 41.907 14.369 5.985.195 11.574 1.193 16.559 3.788.999 1.401 1.597 3.793.802 5.389-.599.603-1.001 1.602-1.796 1.796-1.401-.398-2.599-.997-3.593-2.195-1.796.798-3.992 2-5.987 1.001-1.596-.603-2.795-2.798-4.391-2.594-.799 1.792-1.398 4.188-1.595 5.98 2.99 1.796 6.983 1.597 9.177 4.796-.199 1.796-1.597 3.792-3.394 4.782-.996-4.583-4.988.607-7.182-2.392-.4-3.591-3.193-6.388-6.587-7.78-3.19 2.596.4 6.982-.994 10.78-1.401 1.792-.802 4.587-2 6.578-5.385-2.795-2.592-10.171-7.382-13.764.999-.2 3.394 1.393 4.392-.799l-.8-.999c-17.363-5.589-35.123-10.38-51.285-18.356-.603 0-1.198.59-1.397.993 3.792 4.592 10.176 4.592 14.766 7.981-1.994 1.796-.997 4.591-2.993 6.588l-.199 1.796c-2.596-.999-4.392-3.394-6.584-5.387l-1.801.395c-1.792-1.991-2.19-6.783-5.385-6.189-2.196 1.796-.603 5.194-.799 7.59-2.394-1.401-3.193-4.196-4.192-6.388 1.198-5.189.799-10.978-3.193-14.572-2.593-1.393-4.786-6.183-7.78-4.387l.199 1.597c2.196 3.392 6.586 5.584 5.186 10.176-1.193 6.185.6 11.974 3.992 16.565-.797 4.59-2.593 8.379-4.988 12.372-3.791 5.984-7.783 11.777-13.972 15.766-4.387 5.385-8.779 11.178-11.375 17.562-2.99 5.785 4.591 9.179 1.398 14.964l-2.993 5.793c-3.99-4.995-5.985-10.979-7.982-16.769-.4-.594-1.597-1.198-1.796-.199-1.593 19.953 12.572 35.319 19.758 52.686 5.186 13.165 7.186 29.93 5.186 42.902-1.392 8.388-3.589 17.558-3.988 26.739.4 7.386 3.593 13.372 7.581 19.36-5.789-2.791-12.572-7.786-12.769-14.972.196-3.389 1.395-6.574 1.793-9.773-.596-.802-1.397-1.193-2.195-.802-2.394 2.998-3.994 6.187-4.391 9.981-3.392-4.985-2.991-10.975-2.991-17.562 1.193-5.988 5.587-11.375 2.391-18.152-.598-.599-1.395-1.403-1.993-.599-8.779 10.167-7.785 26.332-21.953 32.52-3.991 1.997-7.581 5.994-7.581 10.977 0 4.994 1.994 9.386 2.99 13.773 1.998 10.376 4.99 21.555 13.969 28.537 6.189.2 11.776-2.799 17.564-4.192 1.395.802 2.593 2.594 1.596 4.192 0 1.796-1.395 2.994-2.794 3.793-2.195 0-4.59 1.198-6.385-.404-.401.404-1.198.199-1.397.999-.202 3.388 4.589 1.996 5.189 5.184.198 2.202-1.997 4.198-3.593 5.196-1.198.993-3.193 1.192-4.591.599-.997-.799-1.996-1.997-3.392-1.403-1.193.603-.4 1.602 0 2.2 1.397 1.393 2.994 3.385 3.392 5.385-.798 2.395-2.794 3.199-4.586 4.591-2.795.595-4.193-1.796-5.391-3.593-2.395-4.198-.398-10.372-2.991-14.168-3.593.802 0 4.391-1 6.782-.799 4.987-5.788 7.79-10.177 9.183-1.397.199-4.192 1.003-4.79-.795-1.997-7.186.798-13.773 3.193-19.961 0-.595-.398-1.401-.999-1.592-1.795.595-2.595 3.185-3.991 3.784-.999-1.987.798-6.983-2.99-6.782-1.597 2.199-2.596 4.985-4.991 6.183 2.196-7.577-5.789-18.357 4.991-21.946 1.796-2.196 3.189-4.586 2.59-7.789-3.189-1.593-6.983.408-9.777 2.604l-2.193 3.788h-.596c-1.599-3.788 1.594-6.783 3.99-9.179.2-.798-.398-1.602-1.198-1.991-1.995.191-3.391 1.991-5.387 2.791.596-8.18 12.373-6.987 11.575-15.77-.599-.4-1.003-1.593-1.997-1.199-1.796 3.398-5.389 4.792-8.78 5.194-1.597-.603-2.994-1.6-3.79-3.398 3.391-1.596 9.577-2.99 9.378-8.578-.397-1.792 1.198-4.987-1.594-5.984-3.196 1.996-7.185 5.389-11.177 2.794 4.991-1.397 6.386-5.993 7.981-10.18 1.599-1.792 6.388-.201 5.591-4.388 1.795-3.995 6.182-4.79 9.375-7.182l-.398-2.594c7.186-.205 14.168-2.996 17.761-9.384.999-4.985 2.795-11.769-.199-16.369-5.385-7.177-10.177-14.564-11.174-23.546-.4-.59-.801-.59-1.398-.59-2.195 3.988-1.198 8.176-1.597 12.363 1.199 6.587 6.786 11.178 4.193 17.761 0-5.18-2.795-9.972-5.385-14.563-.804-1.794.394-3.992-1.802-5.186-5.385 6.583-12.769 12.372-22.348 10.766-5.19-1.593-10.376-3.784-12.572-9.17-4.589-16.563 3.789-32.733 9.578-47.496 1.198-6.987 3.792-12.771 2.994-19.957-.199-6.388-1.996-13.171-6.388-18.162-4.388-3.992-10.975-5.184-16.559-3.593-7.985 5.19-8.984 15.167-8.184 23.946-6.784-1.597-9.179-9.577-9.978-15.561.201-3.195-.798-7.183.4-10.581l-.199-.798c-9.378-5.59-21.156-8.779-25.143-20.552-1.597-6.783-2.795-15.761 3.987-20.558l.4-.394c.8.599.205 2.191.8 2.795 2.395 13.37 16.963 19.753 28.536 23.146 13.972 4.189 30.733 9.972 36.323 25.543 1.994 4.791 3.192 9.583 2.593 14.968-.996 1.193 0 2.99-.599 4.392-.999 17.562-12.375 30.732-14.366 47.886-.205 4.392-1.199 10.385 2.19 14.373 3.195 4.193 9.181 3.993 13.571 2.994 12.177-4.188 13.969-17.962 14.568-28.935 0-4.987.199-10.78.398-16.36.4-5.19.201-8.385.799-13.375.199-10.177.798-16.764 3.394-26.142.996-3.993 2.794-7.581 4.988-10.975 1.796-1.202 2.597-.798 3.79.994 4.391 1.397 9.981.802 13.17-2.397.2-2.586 2.395-.39 3.992-.798 3.195.408 5.59-2.387 7.382-4.782 4.592-7.387 4.791-17.363 5.19-26.546 5.389-5.984 8.982-14.767 5.19-22.752-4.192-7.177-12.572-6.782-19.758-7.577.199-6.786.199-12.372-.8-19.164 5.588 2.799 8.384 8.588 13.769 11.383" fill="#f2b227"/><path d="m745.42 232.786c-2.799 3.195-7.186 3.398-11.179 4.192-4.591.599-9.378 1.003-13.969 1.198 1.393 2.994 3.788 6.583 2.794 10.581-2.794 2.39-6.987.593-10.779 1.392-.994-1.193-2.994 0-3.988-.994-3.593-.802-7.581-.999-10.575-3.193-.203-.599.195-.999.794-1.203 7.187 1.203 13.973 4.198 22.153 3 1.797-3.793-4.387-7.186-1.596-10.181-.201-.599-.201-1.392.398-1.596 8.779-.999 17.562-.595 25.143-3.993z"/><path d="m274.659 236.379h6.586c.794.398.599 1.198.599 1.796-4.192 1.198-8.584-.195-12.972-.195-4.391-1.203-9.976-.404-13.37-4.198.795-2.19 2.996-.597 4.189 0 4.79 1.399 9.778 2.796 14.968 2.597"/><path d="m282.842 239.972c-.804 2.795-2.994 5.19-3.195 8.379 8.381 1.602 15.167-1.193 22.751-2.99.397.201.596.395.996.799-2.593 3.189-7.783 2.595-11.574 4.188-4.192.594-9.976 1.202-14.168-.603-.599-3.988 1.397-7.778 3.992-10.767.599-.203.998.594 1.198.994"/><path d="m737.435 247.358c.599.4.599.994.599 1.597l-.999.599-11.179-.205c-.599-.594-.794-1.392.199-1.991z"/><path d="m275.258 248.352c.397.201.599.999.198 1.393l-.599.604h-11.174c-.599-.2-1.398-1.193-.599-1.593 3.99-.999 8.381-.599 12.174-.404"/><path d="m714.683 261.127c-8.18 1.593-16.764 1.198-23.548-3.197-.597-.6-1.796-1.398-1.198-2.192.6-1.403 1.597 0 2.397.199 5.389 3.989 12.372 4.189 19.558 3.789.994-1.993-1.198-4.193-.999-6.584.599-.593 1.199-.593 1.796 0 1.2 2.391 1.994 5.391 1.994 7.985"/><path d="m290.223 254.336c-.199 2.196-.999 3.993-1.397 5.789 7.586 1.597 15.565-.199 21.953-4.188.6.404.795 1.193.6 1.991-6.586 4.397-14.571 5.59-22.754 4.397-.997.195-2.19-.203-2.391-1.003 1.593-2.395.994-5.385 2.592-7.776.599.001 1.198.396 1.397.79"/><path d="m731.446 258.129c.4.404.798 1.202.201 1.597-4.189.997-9.777.199-14.369.199-.396-.394-.798-.798-.599-1.392l.997-.603z"/><path d="m284.039 258.927c.195.404.395.999.195 1.402-4.786.993-9.776.593-14.366.394-.599-.394-.797-.999-.4-1.392l.8-.603z"/><path d="m701.711 269.308c1.403-1.597-.798-5.186 1.996-4.991.999 1.597.4 3.992.599 5.99-1.996 2.195-6.187.798-8.578 1.193-4.791-1.597-9.179-3.984-12.772-7.577 0-2.001 1.991-.404 2.994-.205 4.791 2.795 9.976 6.982 15.761 5.59"/><path d="m318.361 264.717c-2.196 2.994-6.187 3.793-8.982 5.984-3.387 1.202-7.183 1.801-10.772 1.602-2.996-.804-1.4-4.786-1.596-6.987.398-.4.996-.599 1.596-.195 1.395 1.987-1.4 6.183 3.19 5.58 5.788-.994 10.579-4.188 15.37-7.381.794 0 .995.802 1.194 1.397"/><path d="m721.066 268.709c.404.599-.396 1.194-.794 1.397l-10.979-3.593c-.794-.798-1.193-1.996 0-2.391 3.997 1.392 8.189 2.391 11.773 4.587"/><path d="m684.154 275.895c1.991 1.597 4.791 1.597 7.581 1.597 1.198-1.597-1.198-5.793 1.991-5.59 1.003 1.997.203 4.79.404 7.378l-1.003 1.198c2.395 2.399 5.59 3.995 8.787 4.994.599.201.396 1.193.196 1.394-4.193.404-8.181-2.192-10.975-5.381l.599-1.602c-5.385 0-9.977-1.993-13.77-5.785-2.395-2.196-5.389-5.389-7.182-8.385l.798-1.397c4.789 3.395 7.383 8.784 12.574 11.579"/><path d="m292.619 265.914c-2.994 3.193-7.786 3.394-11.773 4.786l-.999-.993c3.389-2.397 7.78-2.795 11.574-4.792.599.001.999.4 1.198.999"/><path d="m330.334 265.715c-2.593 5.59-7.384 9.981-12.772 13.175-2.594 1.198-5.389 1.397-8.184 1.788.603.607.802 1.805.404 2.595-3.394 1.597-6.388 5.19-10.578 4.591-.4-.395-.798-.999-.199-1.393 3.192-1.602 6.385-2.795 9.18-5.186-3.593-1.806.199-5.389-.998-8.184.2-.404.599-.599 1.198-.599 1.398 1.397.4 3.593.799 5.19 8.779 1.787 14.766-6.992 19.953-12.776.399.001.998.204 1.197.799"/><path d="m671.582 280.287c2.59 1.788 5.785 3.185 8.58 2.785.997-.997-.599-4.382 1.996-3.384l.599.789-.398 4.592c-5.192 1.402-9.982-.595-13.575-3.988-3.189-4.188-6.183-7.98-7.981-12.772.4-.794 1.597-1.202 1.798-.203 2.392 4.591 5.388 8.388 8.981 12.181"/><path d="m340.111 270.701c-3.789 6.792-9.378 14.972-17.957 15.571-1.198-.404-3.593.793-3.993-1.403.199-1.596-.798-3.788.8-4.782 2.792.201-.4 5.586 3.792 3.984 8.381-1.193 12.372-9.972 16.76-15.965 1.002.204 1.4 1.6.598 2.595"/><path d="m660.602 282.678c1.796 1.198 3.997 1.393 6.189 1.198.794-.403 1.198-1.801 2.196-1.198 1.198.595.394 1.593 0 2.192-2.795 2.6-6.783.603-9.777 0-.599 2.196-2.799.603-4.392 1.401.396 3.993 2.192 7.782 2.791 11.774-.394.398-.994.599-1.593.599l-4.192-12.972c-1.597-1.401-4.587-2.599-4.587-4.59 2.391-1.199 3.59 2.19 5.785 2.391 1.397.597 3.193.597 4.587 0-3.19-3.992-5.984-8.181-6.982-13.167.798-1.597 1.997 0 2.595.798 1.196 4.591 3.787 8.376 7.38 11.574"/><path d="m350.289 271.499c-1.198 4.596-3.79 8.588-6.585 12.572 3.593 1.996 6.787-.999 9.38-2.99.599.203 1.198.794.996 1.596-1.198 2.592-5.586 2.391-5.385 5.984-1.198 3.594-1.198 7.985-3.593 10.581-.799.395-.999-.4-1.398-.799l3.195-11.578c-1.796-.997-4.192.799-5.19-1.596-2.99.798-6.983 2.395-9.575 0-.401-.4-.602-1.593 0-2.196 1.395-.999 1.395 1.401 2.593 1.401 2.395 0 4.591 0 6.388-1.401 3.988-3.593 5.385-8.376 7.581-12.767.797-.404 1.593.395 1.593 1.193"/><path d="m712.886 276.494c.203.795-.195 1.198-.794 1.593-2.996-.595-5.789-2.192-8.385-3.988l.798-1.401c2.996.603 5.59 2.399 8.381 3.796"/><path d="m297.41 274.494c-2.196 2.2-5.59 4.395-8.984 3.997-.398-.404-.398-.999 0-1.407l7.584-3.385c.599 0 1.599 0 1.4.795"/><path d="m536.681 277.692c-.203.999-1.796 1.198-2.799 1.393-2.395 0-4.985 0-6.184-2.191.4-.999-.993-1.602 0-2.596 3.19-.399 7.382-.199 8.983 3.394" fill="#f2b227"/><path d="m473.618 274.298c-.199 1.597-.199 3.788-2.196 4.392-1.996.997-4.789.59-6.586-.404.797-3.792 5.191-4.791 8.782-3.988" fill="#f2b227"/><path d="m482.597 277.492-.199 1.987c-.999-.989-2.196-1.193-3.589-1.788-.603.594-1.403.594-2.196.594-.201-1.393.599-2.794.794-4.188 1.796 1 4.392 1 5.19 3.395" fill="#f2b227"/><path d="m524.105 278.087c-1.796-1.392-3.988.201-4.786 1.393-.804-1.393-.4-2.785.599-3.784l4.188-1.597c-.6 1.597 1.197 3.19-.001 3.988" fill="#f2b227"/><path d="m692.733 293.453c.199.599-.4.999-.794 1.397-4.193-.798-6.189-4.99-7.985-8.379 1.397-2.2 2.791 1.193 3.792 1.991 1.593 1.803 3.19 3.394 4.987 4.991"/><path d="m315.566 290.459c-1.198 2.395-3.992 4.592-6.384 4.991-.997-.201-.798-1.398-.199-1.792 3.394-1.602 4.791-5.395 7.581-7.187 2.197 1.193-.797 2.794-.998 3.988"/><path d="m678.165 293.852c0 2.596 5.584 3.988 2.594 6.189-4.791-2.795-6.183-8.184-7.98-12.771 0-.799 1.393-1.203 1.797-.603 1.792 2.194 1.593 5.19 3.589 7.185"/><path d="m328.54 288.463c-1.395 4.392-3.993 8.783-7.185 12.177-.599-.205-1.397.199-1.796-.599v-.798c3.593-3.394 5.19-7.985 7.586-12.378.995-.199 1.193.8 1.395 1.598"/><path d="m664.794 291.857c.994 2.594 1.593 5.19 3.793 7.386.398.798 0 1.596-.799 1.796-3.993-2.596-5.39-7.79-6.388-12.377 2.002-3.987 2.197 1.997 3.394 3.195"/><path d="m340.111 288.662c-.999 4.587-2.391 8.783-5.186 12.378-.798.597-2.196.997-2.196-.4 2.395-3.993 4.392-8.184 5.789-12.572.595-.204 1.398 0 1.593.594"/><path d="m417.143 290.459c-1.996 2.2 2.594 4.392.2 7.182 0 1.202 1.196 1.997.398 3.199-4.788-1.597-6.587-7.785-7.386-12.577 2.397.599 4.592 1.398 6.788 2.196" fill="#f2b227"/><path d="m489.382 291.457c0 .798.4 1.997-.596 2.2-.799-1.402-2.196-.999-3.195-1.602-.599.798-1.397.4-1.997.603l.201-3.997c1.994.604 4.591.405 5.587 2.796" fill="#f2b227"/><path d="m517.917 292.455c-1.993-.599-3.789-.4-5.385 1.202-.999-.999-.4-2.399 0-3.394 1.397-.997 3.193-1.602 4.786-1.602z" fill="#f2b227"/><path d="m573.598 302.835c.599-2.596.998-5.194 2.994-7.186-.199-.799-.199-1.398-1.001-1.798-8.979 1.597-5.586 14.373-15.363 14.564-.599-3.388-.203-6.981 2.594-9.374l.196-1.995c5.789-2.395 11.972-3.593 17.765-5.59-5.588 1.997-1.197 10.182-7.185 11.379" fill="#f2b227"/><path d="m438.097 297.246c.199 1.796 2.196 2.994 2.593 4.791l.801 6.783c-9.979-.404-6.987-13.171-15.968-14.768-1.997 1.796 1.003 3.789 1.597 5.586l.603 3.593c-1.802-.195-2.799-1.593-3.394-2.99-.599-3.195 0-6.189-3.394-8.184 5.591 2.195 11.773 2.595 17.162 5.189" fill="#f2b227"/><path d="m625.083 300.041c3.193 0 5.785-1.796 8.18-4.192.798-.2 1.003.398 1.398.798-1.398 3.394-5.386 5.19-8.98 5.585-.798-.596-1.796 0-2.395.199.599 2.2 2.795 4.196 4.791 5.194 4.188.599 7.782.395 11.974 0 .599.195.599 1.193.195 1.589l-.994.798h-10.975c-.598 1.996 1.796 3.792 3.19 4.592 3.195.798 6.788 1.796 10.18.599.2.199.994.599.799 1.003-3.398 3.189-8.584.999-12.776 0-5.385-1.602-2.395-7.981-7.382-10.376-2.196-2.795-2.795-6.388-3.792-9.786l.997-1.193c2.196.998 2.795 4.392 5.59 5.19"/><path d="m380.626 303.434c-1.198 2.994-4.791 4.792-4.791 7.981-.799 2.795-2.795 4.79-5.186 5.789-3.798 1.393-8.782 1.792-11.777-.199 0-2.795 2.195 0 3.593-.8 3.987-.802 9.382-.199 10.975-4.79v-.599c-4.193-.804-9.578.994-12.77-1.602-.202-.594.597-1.193.996-1.193 3.589.798 7.386.395 10.776.205 2.594-.799 4.988-2.996 5.587-5.59-4.39.199-9.575-1.202-11.577-5.389 2.001-1.796 4.392 2.195 6.988 2.794.997.599 2.794.599 3.99 0 1.397-1.198 2.595-3.593 3.99-4.791 2.794 2.391-.198 5.59-.794 8.184"/><path d="m480.202 305.027-.4 2.399c-.993.201-1.198-1.596-2.395-1.805h-2.99l1.597-3.784c1.598.799 3.589 1.199 4.188 3.19" fill="#f2b227"/><path d="m527.304 305.83c-1.796-.209-4.396-.599-5.794 1.388-.4-1.193-.599-2.391.199-3.384 1.597-.4 2.6-1.997 4.192-1.997z" fill="#f2b227"/><path d="m742.425 320.194c.195 1.198.794 3.199-.599 3.993-2.395 0-.798-2.994-1.796-4.192-1.602-5.785-8.184-7.581-12.776-9.981.999-3.385 3.993.398 6.189.199 4.192 1.796 7.785 5.588 8.982 9.981"/><path d="m273.659 310.412c-1.395 2.395-4.786 2.196-6.982 3.798-3.195 2.39-6.189 5.984-5.988 10.371-.4.404-.799.603-1.398.404-1.592-2.196.4-3.993.4-6.185 2.395-5.589 8.184-8.787 13.771-8.978z"/><path d="m561.625 333.568c-7.785 6.179-17.763 9.773-27.543 5.984-1.198-4.395.203-8.779 2.195-12.571 2.795-3.997 7.985-3.997 12.177-5.391l9.578.599c3.593-1.198 6.982-2.195 10.176-3.991.599 5.788-2.594 11.174-6.583 15.37" fill="#006342"/><path d="m453.262 321.591c4.591.999 9.979 1.801 12.971 5.785 1.6 3.792 2.395 7.78 2.597 12.177-2.996.798-6.186 1.193-9.183 1.797-9.774-.603-18.558-5.385-24.142-13.371-.403-1.995-1.398-3.992-1.199-5.789 3.791 5.186 10.376 9.777 16.96 9.183 4.192-1.597 7.586.798 11.176 2.785 2.597.209 2.597 7.79 5.19 2.795-1.597-4.581-5.789-6.179-9.58-8.176-5.789-.199-12.571.999-16.963-2.994-2.196-1.796-3.99-5.984-6.783-4.591v-2.595c5.784 2.196 11.973 4.99 18.956 2.994" fill="#006342"/><path d="m567.41 321.591c-3.593 5.59-9.977 10.376-17.16 9.378-6.388-1.393-10.58 2.795-14.372 7.386-.395-.205-.994-.404-1.198-.999.997-4.985 6.187-6.189 9.976-8.58 8.189.799 16.369-.403 20.757-7.984.799-.199 1.796.001 1.997.799"/><path d="m596.147 336.354c-1.997 2.2-5.984 1.597-7.985 4.392-2.192 5.19-6.179 10.58-12.168 11.378-3.997.395-8.783.395-11.578-2.794-2.395-1.199-2.789-3.992-4.587-5.59 6.384-2.59 10.376-7.776 16.764-10.776 2.791 0 5.99-1.592 9.179-.593 3.792.594 7.779.798 10.375 3.983" fill="#006342"/><path d="m433.506 338.355c2.593 2.391 5.59 3.989 8.78 5.385-1.198 2.395-2.991 4.792-4.99 6.388-3.991 3.594-10.176 2.996-14.568 1.394-5.186-1.988-5.984-7.577-9.378-11.17l-6.785-3.398c.202-2.795 3.593-1.988 5.189-3.584 7.784-1.797 16.165-1.2 21.752 4.985" fill="#006342"/><path d="m508.34 335.157c-3.19.599-6.185 1.796-9.578.599-1.596.408-3.392-.79-4.987-.4.996-1.198 4.189-.989 5.985-1.987 2.995.594 5.785.789 8.58 1.788" fill="#e32b45"/><path d="m590.358 335.356c-1.597 2.399-5.785.607-7.981 2.399-3.593 3.594-7.385 12.373-14.168 9.179-.999.199-2.196-.4-2.99-.999 0-3.593 3.988.4 6.384-.599 5.984-1.393 5.785-9.581 12.168-10.18 2.198.001 5.389-1.588 6.587.2"/><path d="m421.934 336.953c2.395 2.994 4.786 6.587 8.18 8.584 2.593.798 5.389-1.593 7.182 0-1.395 2.196-5.186 2.196-7.78 2.196-6.787-2.99-8.385-13.366-17.164-10.78-.397-.599-.596-1.987.4-1.987 3.393 0 6.588.39 9.182 1.987"/><path d="m514.727 344.942c-.199 2.99-2.196 5.186-3.394 7.78l.999.795c2.595-1.794 4.985-3.984 7.98-5.387 3.195-.199 6.588.205 8.78 2.196 4.192 3.988 6.187 8.984 5.988 14.968-1.198 3.593-3.789 7.182-7.776 7.979-2.799.4-5.99.999-8.584-.394-.4 0-.802.599-.998.794 3.389 3.195 8.58 6.189 9.179 11.779-.795 5.58-6.588 10.375-11.773 11.573 1.996-6.183 12.971-3.988 10.38-12.975-1.003-.395-.205-1.992-1.602-2.192-.795 2.596-.998 5.988-4.388 5.988-5.589-.203-6.189 9.978-12.571 5.781-1.402 1.199.599 2.2 1.198 2.795l1.593 1.198c-1.593.4-3.195-1.198-4.788-2.391-2.795-2.794-2.795-6.782-4.192-9.976-1.397-.203-.798 1.398-1.397 1.997-.599 3.593-2.196 6.578-5.19 8.974-5.987 2.599-12.373.199-16.959-4.382-2.795-2.2-2.795-5.19-3.394-8.186 0-3.593 2.994-6.187 5.584-7.984 1.398-1.193 3.992-.395 4.392-2.791-2.196-1.003-4.392-.203-6.983-.603-3.394-1.392-7.982-2.596-8.783-6.982-.198-1.403-.999-2.99 0-4.188-.198-3.593 1.397-7.386 3.991-9.587-.199 3.997-1.795 7.79-3.19 11.383-.4 3.185 1.594 5.385 3.99 7.181.599.195 1.597 0 1.397-.802-1.198-1.398-1.796-2.795-1.796-4.587.799-1.997 2.596-3.199 3.19-4.987 3.198 2.791 6.788 4.583 9.981 6.978-1.198 1.997-1.198 5.19 0 7.187l2.993 3.193c-.797 3.993-2.195 7.386-3.591 10.979-2.395-1.606-5.984-1.397-7.382-4.392-.798-.997.798-2.594-.798-2.794-1.597 1.198-1.996 3.593-1.597 5.58 3.593 4.2 8.98 6.388 12.572 10.18 2.593.404 4.988-.794 6.186-2.794-.599-1.792-2.395.203-3.394-.395-1.996-.802-3.791-2.399-4.589-4.387l9.18-6.792c2.196 1.202 4.988 2.2 8.182 1.602l2.791-1.398c3.394 1.797 6.388 4.388 9.782 5.99l.4-.6-2.996-9.981c3.195-1.995 4.193-5.389 3.988-8.978l-.599-2.2c2.799-2.99 6.788-3.593 8.584-7.177l-.599-.603c-3.792-.594-10.975 2.795-11.574-2.99-1.796-2.399-4.387-3.593-7.785-2.994-1.393-4.193-2.791-7.786-4.192-11.773-1.792 3.591-2.589 7.381-3.988 10.974-2.593.395-5.388.599-7.183 2.795-.398 1.392-1.995 2.192-1.995 3.788-3.993.804-7.981.404-11.972.404-.404-2.998-.404-6.388 2.19-8.388.603-.196 1.597.404 1.997-.594-.799-2.395-3.589-.4-5.59-.999 2.2-1.995 5.988-1.796 8.783-.794 2.795.994 3.793 4.183 6.788 4.985l.595-.599c-2.593-4.387-3.389-10.979 0-14.966-.595 1.392-.595 2.789 0 4.391 1.602.195 1.602-2.2 3.196-2.594 2.792-.404 5.188 1.193 7.779 1.393 2.799-.4 5.988-2.795 8.582-.4.4.804.999 1.997 1.997 1.403 0-1.597-.4-3.594-.999-4.995 2.197 2.195 3.195 4.994 3.394 7.988" fill="#e32b45"/><path d="m483.994 343.146c-.999-.203-2.395.594-2.994-.603l.203-1.797c.995.798 2.99.604 2.791 2.4" fill="#006342"/><path d="m483.994 343.146c-.999-.203-2.395.594-2.994-.603l.203-1.797c.995.798 2.99.604 2.791 2.4z" fill="none" stroke="#006342" stroke-miterlimit="3.864" stroke-width="2.5802"/><path d="m520.516 343.944-1.401.195c-.6-.195-.395-1.597-.196-2.192l1.394-1.202c.599.605.798 2.197.203 3.199" fill="#006342"/><path d="m520.516 343.944-1.401.195c-.6-.195-.395-1.597-.196-2.192l1.394-1.202c.599.605.798 2.197.203 3.199z" fill="none" stroke="#006342" stroke-miterlimit="3.864" stroke-width="2.5802"/><path d="m464.438 348.931c.398 10.78-8.382 19.555-17.36 24.345-3.394 0-6.189 2.795-9.782.999-1.792.403-3.392-.795-5.186-1.394v-.603l6.784-7.386c2.395-5.58 3.593-11.968 8.783-15.96 4.386-4.189 11.971-2.796 16.761-.001" fill="#006342"/><path d="m560.024 354.919c1.602 6.579 4.79 12.966 10.58 17.558-2.196 2.001-5.984 1.198-8.783 2.2-7.382-1.402-14.365-5.194-18.959-11.978-3.19-3.992-4.189-9.577-4.788-14.363 5.19-2.2 12.572-3.394 17.16.794z" fill="#006342"/><path d="m554.239 359.111c.599 6.587 8.18 10.571 13.569 12.572 0 .993-.798 1.393-1.597 1.393-6.786-2.192-13.365-7.186-14.562-14.564-1.798-5.19-7.591-6.388-11.779-8.584 1.198-2.395 4.392 0 6.388.2 2.994 2.392 7.188 4.791 7.981 8.983"/><path d="m462.442 349.729c-1.198 2.196-4.39 1.398-5.987 3.195-7.182 2.795-5.789 11.773-11.773 15.761-2.596 2.594-6.189 3.992-9.777 4.59-.599-.199-.599-.798-.599-1.397 2.99-1.597 6.384-2.594 9.179-4.587 6.184-4.791 4.192-14.168 12.971-16.963 1.795-.4 4.59-2.196 5.986-.599"/><path d="m530.094 352.324c0 4.591 1.597 8.584 3.389 12.173.802 2.795-1.198 4.786-3.195 5.984-.599 0-.993.404-1.393 0 3.593-3.584-1.003-7.177-1.996-10.575-.999-2.99.597-8.385-4.193-8.779 1.198-1.593 3.997-1.198 5.99-.404z"/><path d="m622.687 350.926c4.587 3.195 9.378 7.586 9.977 13.366.2 6.388.599 11.978 3.195 17.566-.395 1.193-1.593.395-2.596.799-8.379 1.596-16.165 4.592-23.941 7.177l-1.401 1.007c-1.398 9.972 0 20.353 2.994 29.331-.599 2.791-.199 5.984-2.395 7.78-1.593-1.596-3.195-2.794-4.991-3.987-1.392 2.191 1.198 4.188-.195 6.384-.798 4.786-4.791 8.379-9.183 9.581-.599-1.996-2.192-3.793-3.39-5.789.795-2.395 5.984-2.395 4.987-5.785-3.593-.999-6.783.798-10.376.395-7.581 1.198-13.77 5.19-22.154 4.391-2.192-1.602.4-3.593-.395-5.389-3.398.199-6.587 1.401-8.582 4.392-1.798 6.987-9.978 4.786-14.369 8.379-2.196-1.987-2.795-5.186-3.789-7.981.395-2.994 3.988-2.994 6.185-3.987 1.995-2.795 6.583-4.792 6.187-8.789-4.99-.798-8.184 4.995-13.373 5.19-2.196 0-4.193.803-5.99-.398.599-2.787-.993-5.59.599-8.182 8.584-.798 17.168-.402 25.748-1.001 2.994 1.001 5.785 2.998 8.978 4.192 5.389 1.606 11.773 3.593 17.962 1.796 3.993-1.388 8.18-2.586 11.974-4.583-6.787-11.572-14.764-25.347-9.982-38.918 1.003-5.189 2.395-11.378 7.985-14.367v-1.394c-2.994-.997-5.785.596-9.183 0 2.994-.997 6.189-.607 8.984-2.199 0-2.192-2.996-1.796-4.192-3.389 11.775-.596 23.144-3.791 34.722-5.588" fill="#f2b227"/><path d="m414.151 356.716-4.791 2.795c1.996 2.192 5.587 2.391 8.581 2.595-2.395 1.987-7.586-2.395-8.981 1.788 8.981 4.591 7.783 14.972 9.979 23.355-.599 10.971-6.787 20.553-11.974 29.925 5.987 2.805 12.372 5.2 19.754 5.2 6.785-1.606 13.371-2.995 19.159-6.995 8.18 1.202 17.558-.192 26.142 1.202 1.996 2.391-.798 4.985.4 7.98-2.394 2.2-4.991-.398-7.584 0l-9.18-4.99c-1.198 0-2.596.199-2.395 1.606 1.996 4.782 7.186 8.375 12.174 9.772.599 3.793-1.198 6.987-3.192 9.777-2.795-1.193-3.795-2.994-7.186-2.59-8.381.794-7.183-11.375-16.165-10.181-.996 1.403 1.996 2.994.202 4.592-4.392 1.997-8.981-.4-13.572-.595-5.59-3.593-12.772-2.594-18.957-3.394-.996.195-.996 1.597-.4 1.993l5.19 3.392c-1 2.596-3.795 3.789-3.993 6.584-4.189-1.392-8.382-5.186-8.981-9.976-1.198-1.993.999-4.192.201-5.99-2.196 0-3.389 2.596-5.186 3.798-3.992-4.796-1.796-11.574-.4-17.164 2.196-5.189.4-12.177.999-17.566.199-2.395-1.796-3.987-3.793-4.187-7.982-2.791-15.766-5.389-24.345-6.583 2.596-6.987 2.991-14.373 3.988-21.95 1.796-3.992 5.388-6.787 8.782-9.782l27.142 5.391z" fill="#f2b227"/><path d="m501.556 354.72c-.599-.201-1.003-.798-.599-1.397.794 0 .4.798.599 1.397" fill="#e32b45"/><path d="m501.556 354.72c-.599-.201-1.003-.798-.599-1.397.794 0 .4.798.599 1.397z" fill="none" stroke="#e32b45" stroke-miterlimit="3.864" stroke-width="1.2885"/><path d="m500.359 360.11c3.19-.4 3.992-4.991 7.785-3.394 1.198.599 2.192 1.393 2.592 2.795.4 2.391-2.196 3.792-3.19 5.785 1.993 1.193 4.587 1.6 6.185 3.988 0 1.801 0 3.193-1.198 4.391-2.196 2.596-4.791-.999-6.987 1.397-.395 1.997-.994 4.392-3.195 4.991-1.392.799-2.789.199-3.987-.599-.997-1.597-1.597-3.793-1.597-5.389-2.395-.8-4.988.997-7.183-.999-1-1.393-1.796-3.792 0-5.389.997-1.987 7.183-1.392 3.791-4.591-1.596-.79-2.193-2.586-1.596-4.388 1.395-1.392 3.394-3.788 5.589-1.991 1.394.393 2.392 1.99 2.991 3.393" fill="#f2b227"/><path d="m505.944 365.295c.599 1.602.404 4.387 0 5.789-1.797 1.593-4.388 1.991-6.983 1.593-2.196-1.398-3.593-3.195-3.394-5.781.602-2.2 2.596-4.397 4.987-4.791 2 .395 4.791.799 5.39 3.19"/><path d="m488.785 363.303c-.4.395-.999.195-1.397-.209l-.402-.394c.602-.395 1.597-.2 1.799.603" fill="#e32b45"/><path d="m488.785 363.303c-.4.395-.999.195-1.397-.209l-.402-.394c.602-.395 1.597-.2 1.799.603z" fill="none" stroke="#e32b45" stroke-miterlimit="3.864" stroke-width="1.2885"/><path d="m515.326 362.7c-.2.603-.999 1.193-1.597 1.193-.199-.989.799-1.393 1.597-1.193" fill="#e32b45"/><path d="m515.326 362.7c-.2.603-.999 1.193-1.597 1.193-.199-.989.799-1.393 1.597-1.193z" fill="none" stroke="#e32b45" stroke-miterlimit="3.864" stroke-width="1.2885"/><path d="m606.926 363.893c-1.198 2.596-4.596 1.602-6.587 2.795-5.59 2.2-9.382 7.989-9.981 13.574-.998 5.19 0 9.773 2.595 13.969 0 .594-.599 1.193-1.198 1.597-4.391-4.985-5.186-13.969-2.594-20.552 1.796-7.391 9.981-10.984 16.364-12.372.599.001 1.198.399 1.401.989"/><path d="m410.955 372.277c2.795 5.59 3.793 13.974 1.198 20.158-.797 1.193-.999 3.392-2.99 3.788l-.801-.993c3.99-5.395 4.591-15.566.801-21.556-3.195-5.385-8.982-7.186-14.174-8.582-.794-.595-.394-1.593.4-1.788 5.988.789 12.374 3.184 15.566 8.973"/><path d="m503.154 368.09c-.599.798-.803 1.193-1.597 1.392-1.003-.199-2.395-.594-2.395-1.796.199-.789.799-1.987 1.991-1.987 1.197-.205 2.001 1.198 2.001 2.391" fill="#f2b227"/><path d="m656.016 380.861c-2.196 10.372-12.372 16.76-13.77 27.539.799 2.2 1.593 4.991 4.189 5.781.802-3.19 1.198-6.578 3.193-8.97.599-.404.999.394 1.198.794-.4 3.394-2.99 6.379-1.597 9.972 1.997 2.604 4.392 4.6 7.183 4.791.203.408.403.799.203 1.203-2 1.392-4.192-.196-5.789-.999-2.795-1.403-3.193-5.984-6.987-5.186-2.395-2.205-3.39-4.991-3.789-7.985 1.993-12.376 14.968-20.353 15.164-33.527l.802-.599c2.595 1.601 0 4.986 0 7.186"/><path d="m347.297 379.663c1.397 11.773 15.167 18.357 13.969 30.937-.799 2.387-1.997 4.388-3.793 5.781-3.99.404-5.187 5.59-8.978 6.783-1.398-.199-2.395.398-3.394-.599-.199-2.196 2.395-.999 3.394-1.796 1.198-1.593 3.791-2.592 4.19-4.792.997-3.784-2.195-6.179-2.395-9.573.201-.599.799-.599 1.398-.599 1.795 2.594 2.993 5.186 2.993 8.375.799 1.007 1.397-.191 2.193 0 1.597-2.19 3.195-4.581 2.395-7.173-3.593-11.179-14.568-18.165-14.568-30.537-.798-.6-.398-1.792.599-1.993 1.797.595 1.598 3.39 1.997 5.186"/><path d="m472.021 375.671c-.398.798-.398 2.795-1.994 2.4-.401 0-.801 0-1-.408.599-1.194 1.996-1.992 2.994-1.992" fill="#006342"/><path d="m472.021 375.671c-.398.798-.398 2.795-1.994 2.4-.401 0-.801 0-1-.408.599-1.194 1.996-1.992 2.994-1.992z" fill="none" stroke="#006342" stroke-miterlimit="3.864" stroke-width="2.5802"/><path d="m532.884 379.26c-1.397-.195-3.193 0-3.793-1.392 1.402-1.598 3.594-.4 3.793 1.392" fill="#006342"/><path d="m532.884 379.26c-1.397-.195-3.193 0-3.793-1.392 1.402-1.598 3.594-.4 3.793 1.392z" fill="none" stroke="#006342" stroke-miterlimit="3.864" stroke-width="2.5802"/><path d="m493.774 378.071c-.202.795-1.198 1.189-1.799 1.593-.397-.599.202-1.198.602-1.796.396-.001.797-.206 1.197.203" fill="#e32b45"/><path d="m493.774 378.071c-.202.795-1.198 1.189-1.799 1.593-.397-.599.202-1.198.602-1.796.396-.001.797-.206 1.197.203z" fill="none" stroke="#e32b45" stroke-miterlimit="3.864" stroke-width="1.2885"/><path d="m509.941 379.663v.201c-.804.199-1.602-.605-1.198-1.597.994-.4.994.797 1.198 1.396" fill="#e32b45"/><path d="m509.941 379.663v.201c-.804.199-1.602-.605-1.198-1.597.994-.4.994.797 1.198 1.396z" fill="none" stroke="#e32b45" stroke-miterlimit="3.864" stroke-width="1.2885"/><path d="m598.143 386.251c-.4 2.59 2.99 4.983 1.193 7.577-2.791-.999-2.791-4.188-3.39-6.578.201-2.2 0-5.19 2.196-6.388 2.197 1.197.001 3.593.001 5.389"/><path d="m405.37 389.046c-.798 1.987-1.198 4.583-3.394 5.186-2.791-1.602 1.398-3.59 1.198-5.59.4-2.391-.199-4.592-.798-6.782.599-.605 1.796-.8 2.196.199 1.594 1.797.598 4.786.798 6.987"/><path d="m501.153 398.619-.794 2c-.4-.802-1.997-2.399-.599-3.796.4.398 1.393 1.002 1.393 1.796" fill="#006342"/><path d="m501.153 398.619-.794 2c-.4-.802-1.997-2.399-.599-3.796.4.398 1.393 1.002 1.393 1.796z" fill="none" stroke="#006342" stroke-miterlimit="3.864" stroke-width="2.5802"/><path d="m470.824 405.605-.199.999c-1.597-1.393-3.593.599-5.189 1.198-.397-.599-.997-2.399-.801-3.793 1.998-.999 5.59-1.199 6.189 1.596" fill="#f2b227"/><path d="m537.28 404.009c-.804 1.202 0 3.193-.804 4.192-.993-1.393-2.19-1.991-3.792-2.196-.599.4-.994.804-1.796 1.003-.994-2.399 1.796-2.998 2.994-3.593 1.398-.604 1.997.994 3.398.594" fill="#f2b227"/><path d="m551.648 411.195-.599.599h-10.38c-.998-.599-.4-2.195-1.198-2.99.999-1.602.199-3.402 1.796-4.596 4.393.4 7.187 4.192 10.381 6.987" fill="#f2b227"/><path d="m462.244 407.203-.599 4.786c-3.793-.195-7.985.205-11.773-.394 2.391-2.996 5.783-5.387 8.779-7.187 2.594-.993 2.594 1.597 3.593 2.795" fill="#f2b227"/><path d="m482.797 417.583v1.593c-1.797-1.796-4.192.999-5.586-.205.4-1.592-1.003-3.591.599-4.187 1.792.595 4.189.799 4.987 2.799" fill="#f2b227"/><path d="m525.103 414.988c-.4 1.393-.195 3.189-.195 4.583-1.798-.192-4.392-2.587-5.793 0-.196-.99-.6-2.192.402-3.19 1.594-1.002 3.79-1.194 5.586-1.393" fill="#f2b227"/><path d="m475.61 434.143c-.195.804.404 1.792-.395 2.196-.603-.404-1.597-1.392-2.795-1.597l-2.595.599c0-1.397.599-3.193 1.198-4.391 1.198 1.595 4.587.398 4.587 3.193" fill="#f2b227"/><path d="m532.285 434.946c-1.792.191-3.988-.603-5.385 1.193-1.198-1.193-.4-2.391.403-3.793 1.394-.394 2.592-1.193 4.185-1.397z" fill="#f2b227"/><path d="m588.965 433.943c.394 3.19-2.201 5.988-4.791 7.985-.404-1.593-1.198-3.993-3.389-4.591-1.003.199-2.6.394-2.799 1.995-.599 1.997-.794 4.987-3.389 5.381-.4.4-.999.209-1.597.209.599-2.399-1.196-3.793-1.397-5.789 5.983-.998 11.173-4.591 17.362-5.19" fill="#f2b227"/><path d="m430.114 439.333c.199 1.995-2.595 3.988-.999 6.189-1.393-.205-3.193-.808-4.391-2.2-1.198-1.796-.201-4.782-2.791-5.785-1.796.398-2.994 1.597-3.793 3.189-.199.603.4 1.393-.398 1.798-2.394-1.997-4.991-4.589-4.59-7.981 5.189 0 9.575 3.392 14.766 4.188z" fill="#f2b227"/><path d="m566.013 438.93c-.599 3.792-1.992 8.388-5.988 9.981-1.993.203-3.988 0-4.987-1.796-.394-4.591 2.196-7.981 3.993-11.569 2.39.993 3.987 4.789 6.982 3.384" fill="#f2b227"/><path d="m447.078 446.51c-.599 1.198-1.398 2.994-2.795 2.795-2.792.603-4.791-1.394-5.987-3.19-1.397-2.2-2.198-4.591-2.395-6.981 3.195 1.202 4.392-1.796 6.586-3.4 2.594 2.806 4.191 6.989 4.591 10.776" fill="#f2b227"/><path d="m445.68 492.015c9.179 13.167 16.162 27.735 24.347 41.508 1.196 1.797 0 3.793-.401 5.391-1.397 1.796-3.394 3.185-5.785 3.389-2.395.398-3.792-1.593-4.791-3.389-.4-2.401-1.796-4.792-3.394-6.588-.599-.203-1.198.603-1.397.999.798 3.593 3.394 6.183 3.992 9.777-.599 1.597-1.796 3.193-3.394 3.388-1.997.604-3.793-.39-5.19-1.393-1.392-2.794-.199-6.786-2.59-8.779-.6-.199-1.199.195-1.398.8-.599 3.593 3.593 7.979-1.397 9.976-1.198 1.397-3.195.997-4.591.802-1.395-1.003-4.388-2.599-3.391-4.391.201-2.2.798-4.197.996-6.388-.398-.404-.795-1.202-1.596-.8-1.797.599-.196 2.787-1.198 3.789-.795 2.399-.198 5.584-3.192 6.587-2.195.199-3.991-.4-5.389-1.597-1.996-4.387 2.395-7.586 2.596-11.773-.4-.395-.795-1.202-1.597-.798-3.593 2.994-1.997 11.777-8.98 9.777-1.996-.799-4.788-2.392-5.189-4.792v-3.988c7.785-13.37 15.165-27.335 23.549-40.306 1.797-2.597 6.985-4.994 9.38-1.201" fill="#f2b227"/><path d="m452.667 512.772c0 .594-.404 1.198-.999 1.388-2-.794-2-3.589-3.394-5.184-2.395-2.787-3.394-6.385-6.987-8.385-3.589 2.604-4.189 7.387-6.785 10.58-.599.201-1.198 0-1.395-.599 1.796-4.382 3.394-9.173 7.382-12.168 6.389 1.198 9.18 8.978 12.178 14.368"/><path d="m465.833 498.803c-1.795 1.788-4.187 4.188-6.783 5.186l-2.195-3.789c2.595-1.002 5.986-1.002 8.978-1.397" fill="#f2b227"/><path d="m425.523 499.792c.199 1.202-1.193 2.594-1.792 3.997-2.6-.199-4.791-2.994-6.788-4.985z" fill="#f2b227"/><path d="m638.254 514.764c-.2 1.193-.2 3.394 0 4.392-1.397-.4-3.195-1.997-4.791-.8l-.799.8c-.599-1.593-.195-3.794 1.796-4.189 1.399.396 2.596-.806 3.794-.203" fill="#f2b227"/><path d="m369.647 517.563-.4 1.796c-1.392-2.2-3.389.191-5.19 0 0-1.405-.594-3.199-.195-4.391 1.796 1.192 5.19-.205 5.785 2.595" fill="#f2b227"/><path d="m644.841 532.122c-2.001-.989-4.792-1.593-6.384.203-.802-1.796.59-3.392 1.991-4.186 1.398.794 2.596-.408 3.988-.408z" fill="#f2b227"/><path d="m362.863 529.731c.599 1.198.199 1.797.4 2.994-.999-.994-2.795-1.593-3.992-.802l-1.198.603c-.4-1.394-.4-2.795-.599-4.198 1.797.405 3.991-.393 5.389 1.403" fill="#f2b227"/><path d="m477.407 552.674c-1.198 2-3.389 2.803-5.385 3.402l-4.789-1.202c-2.193-2.994-3.193-6.384-4.589-9.577v-.4c4.188.199 7.98-1.796 9.776-5.59l.4-.798c1.997 4.593 7.382 8.585 4.587 14.165" fill="#f2b227"/><path d="m420.736 545.098-4.192 9.373c-1.796 1.007-3.793 2.2-5.987 1.606-2.795-.404-5.187-2.596-5.987-5.39-.199-4.792 4.188-7.786 5.589-11.978 1.596 4.193 6.186 6.188 10.577 6.389" fill="#f2b227"/><path d="m652.822 544.303c-1.597-.407-3.993-1.796-5.789-.203 0-1.198.203-2.994 1.796-3.389 1.198.395 2.395-.798 3.794-.408z" fill="#f2b227"/><path d="m355.078 542.507-.198 2.391c-.801-1.193-2.595-1.193-3.791-.594-.398.195-.801.794-1.397.594l-.4-3.997c1.995.603 4.591-.191 5.786 1.606" fill="#f2b227"/><path d="m464.238 555.673c0 1.796-1.397 3.398-2.994 3.997-2.593.594-5.987 2.188-8.382 0-1.996-3.202-1.394-7.387-2.795-10.779 3.394.997 7.187 0 9.782-2.791z" fill="#f2b227"/><path d="m432.707 548.89c-.796 3.988-.796 8.984-4.19 11.769-2.395.798-4.99 0-7.182-.798-6.388-3.785 1.198-8.984 1.796-13.565 2.197 2.594 6.384 3.396 9.576 2.594" fill="#f2b227"/><path d="m568.807 495.404c7.786 12.372 14.769 24.944 21.751 37.525.398 1.987.203 4.782-.799 6.579-2.196 1.796-4.587 2.998-7.382 2.399-3.388-2.399-3.593-6.388-6.187-9.583-.795-.594-1.198.201-1.796.604 1.198 3.987 4.596 7.78 2.994 11.968-1.394 1.202-3.593 2.196-5.586 1.202-1.996-.408-1.397-2.998-1.996-4.391-.799-2.001-.599-4.591-2.395-5.793-1.796 1.596-.2 5.19.199 7.59-.199 2.186-2.795 3.589-4.786 4.188-2.994 1.198-4.192-1.796-5.794-2.994-.994-3.195 2.799-6.388 0-8.783l-1.198.599c-1.991 3.193.802 7.789-3.789 9.585-1.198.595-3.388.795-4.587-.203-4.391-4.392 1.796-8.385 1.993-12.966-.599-.808-1.394-1.007-2.192-.205-2.994 2.99-1.796 11.974-8.779 8.984-1.796-.808-3.798-1.602-4.596-3.593l-.4-5.186c8.186-13.975 15.172-28.941 25.547-41.916 3.989-3.187 7.582 1.401 9.778 4.39" fill="#f2b227"/><path d="m570.005 510.376c-.599.599-1.198.994-1.796.599-1.796-3.398-2.99-7.386-5.59-10.385-4.188.603-4.99 5.389-7.387 8.184-1.188 1.796-1.786 4.995-4.183 4.995l-.599-.603c2.592-5.391 5.186-12.373 11.37-15.173 4.791 2.206 6.588 7.792 8.185 12.383"/><path d="m586.166 498.594c-1.993 1.796-3.584 3.997-6.185 5.194-1.592-.798-1.397-2.795-2.395-3.997 3.199-.19 5.389-1.197 8.58-1.197" fill="#f2b227"/><path d="m546.454 499.601c-.994 1.593-1.796 4.388-3.389 3.784l-5.389-4.581z" fill="#f2b227"/><path d="m598.143 552.674c-1.796 1.797-4.192 3.593-7.382 3.199-5.195-1.199-5.589-7.182-7.984-10.975 4.391 0 8.779-2.799 10.379-6.783 2.192 4.587 7.782 8.779 4.987 14.559" fill="#f2b227"/><path d="m537.475 544.303c1.003.595 2.595.195 3.993.395-2.795 3.993-2.196 12.575-9.382 11.378-2.592-.203-4.782-1.796-6.185-3.792-2.395-5.793 2.994-9.583 4.987-14.168.802 3.189 3.792 4.985 6.587 6.187" fill="#f2b227"/><path d="m584.968 556.267c-1.392 3.593-5.381 4.392-8.574 4.392-1.199-.396-2.996-.599-3.199-1.993 0-.793 0-1.602-.599-2.199-.196-2.591-.994-4.987-1.392-7.577 3.392.597 6.587-.4 8.779-3.199 2.395 3.2 3.787 6.983 4.985 10.576" fill="#f2b227"/><path d="m553.241 548.491c-.798 3.195-.599 7.182-2.192 10.372-.599 1.796-2.595 1.401-3.997 1.995-2.19-.798-5.186-.594-6.782-2.985l-.799-1.796 4.392-9.782c2.396 2.595 6.183 3.398 9.378 2.196" fill="#f2b227"/><path d="m568.408 548.491c.599 3.992 1.198 7.776 1.996 11.569-1.996 4.795-8.18 3.593-11.972 3.394-2.001-.395-3.593-1.796-4.591-3.785.203-3.593 1.991-7.385 1.991-11.178 2.395.4 4.596 2.99 7.786 1.792 1.6-.199 2.795-1.792 4.192-2.59z" fill="#f2b227"/><path d="m448.275 551.685c.798 3.19 1.597 6.379.798 9.578-2.794 3.388-8.584 3.189-12.571 1.996-1.4-.603-3.196-2.2-3.593-3.589.397-3.798 1.794-7.187 2.395-10.979 1.594-.599 2.792 1.593 4.387 1.996 2.596.191 5.389-.199 7.386-2.399 1.198.403.599 2.398 1.198 3.397" fill="#f2b227"/><path d="m512.532 593.788c5.984 10.575 12.173 21.155 17.962 31.726-.999.808.199 1.796 0 2.6.199 2.789-1.796 4.786-3.993 5.785-1.593 1.393-3.389.404-4.991.199-2.395-2.99-2.59-7.177-5.385-9.772-.798 0-1.397.798-1.597 1.392l3.195 7.182c-.201 1.602.599 3.398-.799 4.987-1.397 1.198-3.593 2.004-5.189.807-3.394-2.2-1.398-7.387-4.591-9.977l-1.199 1.198c.201 2.985 2.996 6.578-.398 8.779-1.398 1.39-3.389 2.188-5.385 1.593l-3.594-3.39c0-2.594 2.596-5.59.4-7.985-.797-.195-1.397.4-1.596.799-.797 3.392 0 8.176-4.389 9.373-.997.599-2.795.599-3.792-.201-3.792-4.581 1.395-8.779 1.994-13.165-.198-.4-.397-1.193-.997-1.392l-.797.39-4.392 9.183c-1.397 1.202-3.792.798-5.186.404-1.797-.999-4.192-2.592-4.59-4.792v-3.792c6.786-13.167 14.367-26.542 22.348-39.313 1.996-1.198 2.795-3.997 5.19-4.387 6.185.199 8.777 7.381 11.771 11.769" fill="#f2b227"/><path d="m509.737 601.573c-.201.595-.201 1.397-.994 1.597l-.802-.4c-1.593-3.398-2.99-7.382-5.984-9.976-3.594 1.392-4.991 5.389-7.187 8.18-1.198 1.796-1.597 5.186-3.993 4.985l-.594-.798c2.593-5.584 5.586-11.978 11.57-14.962 4.789 1.797 5.792 7.385 7.984 11.374"/><path d="m485.789 591.591c.202 1.403-.996 2.595-1.994 3.993-2.196-.798-4.591-3.195-6.388-5.19z" fill="#f2b227"/><path d="m525.901 590.394c-1.397 2.399-3.988 3.792-6.187 5.19-1.394-.603-1.394-2.59-2.192-3.789 2.595-.798 5.589-.798 8.379-1.401" fill="#f2b227"/><path d="m538.274 644.079c-1.397 3.189-4.791 4.587-7.985 4.387-4.782-1.397-4.985-7.182-7.177-10.775.599-.794 2.59-.404 3.789-.994 2.395-1.202 5.385-3.394 5.783-6.183 2.397 4.183 6.787 8.18 5.59 13.565" fill="#f2b227"/><path d="m480.8 637.288h.404l-.404 2.2-4.188 7.984c-2.795 1.593-6.788 1.593-9.183-.798-1.796-1.402-2.593-3.199-2.193-5.59 1.198-3.796 3.193-6.987 5.388-10.375 1.198 4.192 5.989 6.188 10.176 6.579" fill="#f2b227"/><path d="m524.704 648.666c-.199 1.996-2.595 3.597-4.188 4.192-2.395.205-4.591 1.202-6.588-.398-2.394-2.99-1.397-7.382-2.994-10.376.8-.999 1.997.394 3.195 0 2.196-.395 4.387-1.593 5.586-3.793 2.394 2.794 3.396 6.786 4.989 10.375" fill="#f2b227"/><path d="m489.182 642.287 3.791-1.202c0 2.19-.397 4.187-.999 5.984 0 1.597-.397 3.593-1.395 4.991-2.193 1.596-4.791 1.397-7.184 1.003-1.596-.799-3.193-1.607-3.792-3.404.199-3.784 2.795-7.182 3.992-10.965 1.198 2.186 3.593 2.59 5.587 3.593" fill="#f2b227"/><path d="m508.34 640.49c-.195 4.782 5.389 12.164-1.393 15.362-3.997.804-9.183 1.193-12.375-1.401-2.395-2.188.4-5.387-.202-7.577.602-1.602 1.397-3.597 1.397-5.395 1.6-1.397 2.798 1.602 4.591 1.602 3.191.998 5.391-1.602 7.982-2.591" fill="#f2b227"/><g fill="#010000"><path d="m184.572 791.241c.349.18.748.546 1.195 1.1l34.812 44.803c-.084-.719-.14-1.417-.168-2.095-.028-.677-.042-1.334-.042-1.971v-42.107h7.13v59.448h-4.11c-.644 0-1.181-.11-1.615-.332-.434-.221-.86-.595-1.279-1.121l-34.77-44.762c.056.691.098 1.369.126 2.033.028.663.042 1.272.042 1.825v42.356h-7.13v-59.448h4.194c.727.001 1.265.091 1.615.271z"/><path d="m298.002 820.716c0 4.452-.713 8.539-2.139 12.258-1.426 3.72-3.439 6.922-6.039 9.603-2.6 2.684-5.725 4.764-9.374 6.244s-7.682 2.219-12.1 2.219c-4.419 0-8.445-.739-12.079-2.219-3.635-1.479-6.753-3.56-9.353-6.244-2.601-2.682-4.614-5.883-6.04-9.603-1.426-3.719-2.139-7.806-2.139-12.258 0-4.453.713-8.539 2.139-12.259 1.426-3.719 3.439-6.928 6.04-9.624 2.6-2.697 5.718-4.792 9.353-6.285 3.634-1.494 7.661-2.24 12.079-2.24s8.451.746 12.1 2.24c3.649 1.493 6.774 3.588 9.374 6.285 2.6 2.696 4.613 5.905 6.039 9.624 1.426 3.72 2.139 7.806 2.139 12.259zm-8.346 0c0-3.651-.503-6.929-1.51-9.832s-2.433-5.358-4.278-7.363c-1.846-2.005-4.083-3.547-6.711-4.625-2.628-1.079-5.564-1.618-8.807-1.618-3.216 0-6.138.539-8.766 1.618-2.629 1.078-4.872 2.621-6.732 4.625-1.86 2.005-3.292 4.46-4.299 7.363-1.007 2.904-1.51 6.181-1.51 9.832 0 3.65.503 6.921 1.51 9.811 1.006 2.89 2.439 5.338 4.299 7.342 1.859 2.006 4.103 3.541 6.732 4.605 2.628 1.066 5.55 1.597 8.766 1.597 3.243 0 6.179-.532 8.807-1.597 2.628-1.064 4.865-2.599 6.711-4.605 1.845-2.005 3.271-4.452 4.278-7.342s1.51-6.161 1.51-9.811z"/><path d="m318.049 825.611v24.808h-8.095v-59.448h16.986c3.802 0 7.088.38 9.856 1.141s5.054 1.86 6.857 3.298c1.804 1.439 3.138 3.173 4.006 5.206.866 2.033 1.3 4.308 1.3 6.825 0 2.101-.335 4.065-1.007 5.89s-1.643 3.464-2.915 4.916-2.824 2.69-4.656 3.713c-1.831 1.023-3.907 1.798-6.228 2.323 1.007.581 1.901 1.425 2.685 2.53l17.531 23.605h-7.214c-1.482 0-2.573-.566-3.271-1.701l-15.602-21.24c-.476-.664-.993-1.141-1.552-1.432-.559-.29-1.398-.435-2.516-.435h-6.165zm0-5.85h8.514c2.376 0 4.467-.283 6.27-.85s3.313-1.369 4.53-2.406c1.216-1.038 2.132-2.275 2.747-3.713.614-1.438.923-3.028.923-4.771 0-3.54-1.182-6.208-3.544-8.007-2.363-1.798-5.879-2.696-10.548-2.696h-8.892z"/><path d="m401.891 790.971v6.762h-19.419v52.686h-8.137v-52.686h-19.503v-6.762z"/><path d="m459.183 850.419h-8.179v-27.048h-32.379v27.048h-8.179v-59.448h8.179v26.509h32.379v-26.509h8.179z"/><path d="m523.31 850.419h-6.291c-.727 0-1.314-.179-1.761-.539s-.783-.816-1.007-1.369l-5.62-14.353h-26.968l-5.62 14.353c-.196.498-.532.94-1.007 1.328-.476.388-1.063.581-1.761.581h-6.291l24.032-59.448h8.262zm-39.382-22.07h22.439l-9.437-24.186c-.615-1.494-1.216-3.36-1.803-5.601-.308 1.135-.608 2.178-.901 3.133-.294.954-.581 1.791-.86 2.51z"/><path d="m561.498 831.025c.293.733.58 1.473.86 2.219.279-.773.572-1.514.881-2.219.307-.705.656-1.417 1.048-2.137l20.342-36.548c.362-.636.74-1.023 1.132-1.162.391-.138.95-.207 1.678-.207h5.997v59.448h-7.13v-43.684c0-.581.013-1.203.041-1.867.028-.663.069-1.34.126-2.033l-20.593 37.17c-.7 1.245-1.678 1.867-2.936 1.867h-1.175c-1.258 0-2.237-.622-2.936-1.867l-21.054-37.295c.084.72.146 1.425.188 2.116.042.692.063 1.328.063 1.908v43.684h-7.131v-59.448h5.998c.727 0 1.286.069 1.678.207.391.139.768.526 1.132 1.162l20.761 36.589c.393.666.736 1.365 1.03 2.097z"/><path d="m617.007 828.183v22.236h-8.094v-59.448h17.741c3.802 0 7.109.435 9.92 1.307 2.81.871 5.138 2.109 6.983 3.712 1.845 1.605 3.222 3.541 4.131 5.808.908 2.268 1.363 4.799 1.363 7.591 0 2.767-.49 5.297-1.469 7.592-.979 2.296-2.411 4.273-4.298 5.933-1.888 1.659-4.23 2.952-7.025 3.878-2.796.928-5.998 1.39-9.605 1.39h-9.647zm0-6.389h9.647c2.32 0 4.369-.304 6.144-.912 1.776-.608 3.264-1.459 4.467-2.552 1.202-1.092 2.111-2.399 2.726-3.92s.923-3.195.923-5.02c0-3.788-1.182-6.748-3.545-8.878-2.363-2.129-5.934-3.194-10.716-3.194h-9.647v24.476z"/><path d="m700.26 790.971v6.762h-19.419v52.686h-8.137v-52.686h-19.503v-6.762z"/><path d="m760.53 820.716c0 4.452-.713 8.539-2.139 12.258-1.426 3.72-3.439 6.922-6.04 9.603-2.6 2.684-5.724 4.764-9.374 6.244-3.649 1.48-7.682 2.219-12.1 2.219s-8.444-.739-12.079-2.219c-3.635-1.479-6.753-3.56-9.353-6.244-2.601-2.682-4.614-5.883-6.04-9.603-1.426-3.719-2.139-7.806-2.139-12.258 0-4.453.713-8.539 2.139-12.259 1.426-3.719 3.439-6.928 6.04-9.624 2.6-2.697 5.718-4.792 9.353-6.285 3.635-1.494 7.661-2.24 12.079-2.24s8.451.746 12.1 2.24c3.649 1.493 6.774 3.588 9.374 6.285 2.601 2.696 4.614 5.905 6.04 9.624 1.426 3.72 2.139 7.806 2.139 12.259zm-8.346 0c0-3.651-.503-6.929-1.51-9.832-1.006-2.904-2.432-5.358-4.278-7.363s-4.083-3.547-6.711-4.625c-2.629-1.079-5.565-1.618-8.808-1.618-3.216 0-6.137.539-8.765 1.618-2.629 1.078-4.872 2.621-6.732 4.625s-3.292 4.46-4.299 7.363c-1.006 2.904-1.51 6.181-1.51 9.832 0 3.65.504 6.921 1.51 9.811 1.007 2.89 2.439 5.338 4.299 7.342 1.86 2.006 4.104 3.541 6.732 4.605 2.628 1.066 5.549 1.597 8.765 1.597 3.243 0 6.18-.532 8.808-1.597 2.628-1.064 4.865-2.599 6.711-4.605 1.845-2.005 3.271-4.452 4.278-7.342s1.51-6.161 1.51-9.811z"/><path d="m777.453 791.241c.35.18.748.546 1.195 1.1l34.811 44.803c-.084-.719-.14-1.417-.168-2.095-.028-.677-.042-1.334-.042-1.971v-42.107h7.13v59.448h-4.11c-.644 0-1.182-.11-1.615-.332-.434-.221-.859-.595-1.279-1.121l-34.769-44.762c.055.691.097 1.369.125 2.033.028.663.042 1.272.042 1.825v42.356h-7.131v-59.448h4.195c.728.001 1.266.091 1.616.271z"/><path d="m262.077 890.351c-.695 1.373-1.499 2.339-2.412 2.901-.915.562-2.003.842-3.264.842-1.263 0-2.681-.482-4.257-1.45-1.577-.966-3.438-2.043-5.581-3.228-2.145-1.185-4.652-2.26-7.521-3.228-2.871-.966-6.26-1.451-10.17-1.451-3.532 0-6.607.421-9.223 1.263-2.618.842-4.825 2.012-6.622 3.509-1.798 1.497-3.138 3.291-4.021 5.38-.884 2.091-1.325 4.384-1.325 6.878 0 3.181.899 5.833 2.696 7.953 1.798 2.122 4.177 3.93 7.142 5.428 2.964 1.497 6.339 2.84 10.123 4.023 3.784 1.186 7.647 2.449 11.589 3.79 3.941 1.342 7.805 2.901 11.589 4.679s7.157 4.024 10.123 6.738c2.964 2.713 5.345 6.035 7.142 9.965 1.798 3.93 2.696 8.703 2.696 14.317 0 6.114-1.057 11.836-3.17 17.17s-5.203 9.981-9.271 13.942c-4.068 3.962-9.035 7.081-14.9 9.357s-12.582 3.416-20.151 3.416c-4.351 0-8.641-.421-12.866-1.264-4.226-.842-8.278-2.042-12.156-3.602-3.879-1.559-7.506-3.43-10.879-5.614-3.375-2.182-6.386-4.616-9.035-7.298l7.379-12.071c.693-.874 1.528-1.606 2.507-2.2.977-.591 2.065-.889 3.264-.889 1.576 0 3.279.641 5.109 1.918 1.828 1.279 3.988 2.699 6.48 4.258 2.491 1.56 5.423 2.979 8.798 4.258 3.373 1.279 7.426 1.918 12.156 1.918 7.252 0 12.866-1.699 16.84-5.1 3.973-3.399 5.96-8.281 5.96-14.644 0-3.555-.899-6.456-2.696-8.702-1.798-2.246-4.179-4.132-7.142-5.661-2.965-1.528-6.339-2.822-10.123-3.884-3.784-1.06-7.632-2.213-11.542-3.462-3.911-1.248-7.758-2.745-11.542-4.492-3.784-1.745-7.159-4.023-10.123-6.83-2.965-2.807-5.345-6.317-7.142-10.527-1.798-4.211-2.696-9.404-2.696-15.579 0-4.927.993-9.731 2.98-14.41 1.986-4.679 4.886-8.827 8.703-12.446 3.815-3.617 8.498-6.518 14.049-8.702 5.549-2.183 11.887-3.275 19.015-3.275 8.072 0 15.515 1.249 22.326 3.743 6.811 2.495 12.613 5.989 17.407 10.48z"/><path d="m410.508 1001.048h-19.677c-2.208 0-4.021-.545-5.439-1.637-1.419-1.091-2.445-2.448-3.075-4.071l-10.217-27.604h-56.667l-10.217 27.604c-.506 1.436-1.499 2.746-2.98 3.93-1.483 1.185-3.297 1.778-5.44 1.778h-19.772l53.735-135.306h26.016zm-88.548-51.091h43.612l-16.65-45.008c-.757-1.996-1.593-4.351-2.507-7.065-.915-2.713-1.814-5.661-2.696-8.843-.884 3.181-1.75 6.144-2.602 8.889-.851 2.746-1.688 5.147-2.507 7.205z"/><path d="m453.267 1001.048h-25.543v-135.306h25.543z"/><path d="m500.189 865.882c.756.094 1.433.281 2.034.562.599.281 1.183.687 1.75 1.217.568.53 1.198 1.232 1.892 2.105l71.804 90.485c-.253-2.182-.426-4.319-.52-6.409-.095-2.09-.142-4.039-.142-5.848v-82.25h22.421v135.306h-13.151c-2.018 0-3.689-.311-5.013-.936-1.325-.623-2.618-1.746-3.879-3.369l-71.52-90.11c.189 1.998.332 3.977.426 5.942.095 1.965.142 3.759.142 5.381v83.092h-22.421v-135.308h13.34c1.135 0 2.08.047 2.837.14z"/><path d="m723.451 865.742v20.679h-41.152v114.627h-25.448v-114.627h-41.342v-20.679z"/><path d="m812.943 890.351c-.695 1.373-1.499 2.339-2.412 2.901-.915.562-2.003.842-3.263.842-1.263 0-2.682-.482-4.258-1.45-1.577-.966-3.438-2.043-5.581-3.228-2.146-1.185-4.653-2.26-7.521-3.228-2.871-.966-6.261-1.451-10.17-1.451-3.533 0-6.607.421-9.224 1.263-2.618.842-4.825 2.012-6.622 3.509-1.798 1.497-3.138 3.291-4.021 5.38-.883 2.091-1.324 4.384-1.324 6.878 0 3.181.899 5.833 2.696 7.953 1.798 2.122 4.177 3.93 7.142 5.428 2.964 1.497 6.338 2.84 10.123 4.023 3.784 1.186 7.646 2.449 11.588 3.79 3.941 1.342 7.805 2.901 11.589 4.679s7.157 4.024 10.123 6.738c2.963 2.713 5.345 6.035 7.142 9.965 1.798 3.93 2.696 8.703 2.696 14.317 0 6.114-1.057 11.836-3.17 17.17-2.114 5.334-5.203 9.981-9.271 13.942-4.068 3.962-9.035 7.081-14.9 9.357s-12.582 3.416-20.15 3.416c-4.352 0-8.642-.421-12.867-1.264-4.226-.842-8.277-2.042-12.156-3.602-3.878-1.559-7.506-3.43-10.879-5.614-3.375-2.182-6.386-4.616-9.035-7.298l7.379-12.071c.693-.874 1.529-1.606 2.507-2.2.977-.591 2.065-.889 3.264-.889 1.576 0 3.279.641 5.109 1.918 1.828 1.279 3.988 2.699 6.48 4.258 2.491 1.56 5.424 2.979 8.798 4.258 3.373 1.279 7.426 1.918 12.156 1.918 7.252 0 12.866-1.699 16.84-5.1 3.974-3.399 5.96-8.281 5.96-14.644 0-3.555-.899-6.456-2.696-8.702s-4.178-4.132-7.142-5.661c-2.965-1.528-6.338-2.822-10.123-3.884-3.784-1.06-7.631-2.213-11.542-3.462-3.911-1.248-7.757-2.745-11.542-4.492-3.784-1.745-7.159-4.023-10.122-6.83-2.966-2.807-5.346-6.317-7.143-10.527-1.797-4.211-2.695-9.404-2.695-15.579 0-4.927.992-9.731 2.979-14.41s4.887-8.827 8.704-12.446c3.815-3.617 8.498-6.518 14.049-8.702 5.549-2.183 11.888-3.275 19.015-3.275 8.073 0 15.515 1.249 22.327 3.743 6.812 2.495 12.613 5.989 17.407 10.48z"/></g></svg>