<?xml version="1.0" encoding="UTF-8"?>
<svg xmlns="http://www.w3.org/2000/svg" width="566" height="566" viewBox="0 0 566 566" fill="none">
  <g clip-path="url(#clip0_0_2111)">
    <path d="M282.991 477.199C274.875 477.199 265.814 477.066 251.966 475.366L251.228 475.272C206.772 468.867 161.635 437.126 138.897 396.298L138.443 395.485L138.045 394.654C130.346 378.821 127.981 368.865 127.981 352.031V118.075H438V352.012C438 368.865 435.654 378.821 427.936 394.654L427.539 395.485L427.085 396.298C404.346 437.126 359.209 468.867 314.753 475.272L314.015 475.366C300.168 477.048 291.106 477.199 282.991 477.199Z" fill="#EA0029"></path>
    <path d="M334.73 394.484V188.755H364.582C364.582 188.755 364.582 354.6 364.582 357.359C364.582 360.117 364.487 365.218 360.439 370.527C353.099 379.653 344.397 387.739 334.73 394.465M301.492 442.907C337.946 441.453 378.713 413.963 397.555 380.144C403.003 368.959 404.214 363.971 404.214 352.276V152.102H295.117V443.191L301.511 442.926L301.492 442.907ZM231.252 394.465C221.585 387.758 212.883 379.653 205.543 370.527C201.494 365.218 201.4 360.117 201.4 357.359V327.677L161.768 301.416V352.276C161.768 363.971 162.979 368.959 168.427 380.144C187.269 413.982 228.036 441.453 264.489 442.907L270.884 443.172V298.166L201.419 252.104V188.736H231.252V239.276L270.884 265.67V152.102H161.787V269.184L231.252 315.227V394.484V394.465Z" fill="white"></path>
    <path d="M128 48.9636H143.342V76.4722H160.141V85.3331H128V48.9636Z" fill="#EA0029"></path>
    <path d="M175.521 48.9636H210.423V56.6153H190.352V63.3225H209.175V70.9742H190.352V77.6814H210.631V85.3331H175.521V48.9636Z" fill="#EA0029"></path>
    <path d="M258.549 60.035C258.341 59.0715 257.736 57.9757 256.639 57.1066C255.522 56.2564 253.858 55.6518 251.436 55.6518C244.872 55.6518 241.24 60.035 241.24 66.591C241.24 73.6004 244.475 78.626 252.079 78.626C255.409 78.626 257.83 78.1159 259.192 77.3602V71.8244H250.32V64.1726H274.534V83.3682C267.365 85.0308 257.887 86.2967 249.866 86.2967C231.554 86.2967 225.898 78.3426 225.898 67.6112C225.898 53.9514 235.527 48.0189 251.569 48.0189C264.792 48.0189 274.27 50.8907 274.516 60.0539H258.53L258.549 60.035Z" fill="#EA0029"></path>
    <path d="M292.601 48.9636H307.943V85.3331H292.601V48.9636Z" fill="#EA0029"></path>
    <path d="M368.63 79.9863C364.695 83.765 358.395 86.2778 349.012 86.2778C331.211 86.2778 324.647 78.0214 324.647 67.1389C324.647 60.0917 327.465 54.9905 331.665 52.0243C335.146 49.5492 339.629 48 349.012 48C366.814 48 373.378 56.2564 373.378 67.1389C373.378 72.7313 371.657 77.1146 368.63 79.9863ZM349.012 56.2564C343.961 56.2564 340.291 59.676 340.291 67.1389C340.291 74.6017 343.98 78.0214 349.012 78.0214C354.044 78.0214 357.733 74.6017 357.733 67.1389C357.733 59.676 354.044 56.2564 349.012 56.2564Z" fill="#EA0029"></path>
    <path d="M389.817 48.9636H412.272L424.531 73.3548H424.682V48.9636H438V85.3331H416.264L403.249 59.4304H403.154V85.3331H389.836V48.9636H389.817Z" fill="#EA0029"></path>
    <path d="M137.364 509.941H163.3C173.231 509.941 179.399 511.906 179.399 519.973C179.399 524.753 176.069 527.776 171.529 528.588V529.099C175.066 529.193 177.98 530.459 178.585 534.143L180.553 546.348H165.21L163.943 538.243C163.243 533.765 162.581 533.161 157.341 533.161H152.706V546.367H137.364V509.979V509.941ZM152.706 526.076H158.552C161.824 526.076 164.359 525.074 164.359 521.636C164.359 518.405 162.032 517.309 158.306 517.309H152.706V526.076Z" fill="white"></path>
    <path d="M196.594 509.941H211.426V529.892C211.426 536.845 213.847 539.018 218.482 539.018C223.117 539.018 225.538 536.845 225.538 529.892V509.941H240.067V531.215C240.067 536.958 238.951 539.377 236.586 541.852C232.897 545.687 226.541 547.293 218.312 547.293C210.083 547.293 203.726 545.687 200.037 541.852C197.673 539.377 196.557 536.958 196.557 531.215V509.941H196.594Z" fill="white"></path>
    <path d="M289.025 521.012C288.817 520.049 288.212 518.953 287.114 518.084C285.998 517.234 284.334 516.629 281.912 516.629C275.348 516.629 271.716 521.012 271.716 527.568C271.716 534.578 274.95 539.603 282.555 539.603C285.885 539.603 288.306 539.093 289.668 538.337V532.802H280.796V525.15H305.01V544.345C297.841 546.008 288.363 547.274 280.342 547.274C262.03 547.274 256.374 539.32 256.374 528.57C256.374 514.91 266.003 508.958 282.063 508.958C295.287 508.958 304.764 511.83 305.029 521.012H289.025Z" fill="white"></path>
    <path d="M323.379 509.941H348.255C359.303 509.941 363.938 513.266 363.938 519.406C363.938 524.337 360.211 526.661 355.406 527.814V527.908C360.552 528.211 365.489 530.686 365.489 536.92C365.489 539.735 364.43 542.116 362.822 543.476C360.457 545.498 358.074 546.291 350.204 546.291H323.36V509.903L323.379 509.941ZM338.721 524.659H343.261C347.707 524.659 349.107 523.09 349.107 520.672C349.107 518.103 347.991 516.686 343.205 516.686H338.721V524.64V524.659ZM338.721 539.887H343.261C348.558 539.887 350.469 538.526 350.469 535.503C350.469 532.48 348.558 531.12 343.261 531.12H338.721V539.887Z" fill="white"></path>
    <path d="M395.417 535.428L377.559 509.922H396.684L404.251 524.942L412.272 509.922H428.617L410.759 535.428V546.31H395.417V535.428Z" fill="white"></path>
  </g>
  <defs>
    <clipPath id="clip0_0_2111">
      <rect width="310" height="499.274" fill="white" transform="translate(128 48)"></rect>
    </clipPath>
  </defs>
</svg>
