<?xml version="1.0" encoding="UTF-8" standalone="no"?>
<!-- Generator: Adobe Illustrator 13.0.2, SVG Export Plug-In . SVG Version: 6.00 Build 14948)  -->
<svg
   xmlns:ns="http://creativecommons.org/ns#"
   xmlns:dc="http://purl.org/dc/elements/1.1/"
   xmlns:cc="http://web.resource.org/cc/"
   xmlns:rdf="http://www.w3.org/1999/02/22-rdf-syntax-ns#"
   xmlns:svg="http://www.w3.org/2000/svg"
   xmlns="http://www.w3.org/2000/svg"
   xmlns:sodipodi="http://sodipodi.sourceforge.net/DTD/sodipodi-0.dtd"
   xmlns:inkscape="http://www.inkscape.org/namespaces/inkscape"
   version="1.0"
   id="Ebene_1"
   x="0px"
   y="0px"
   width="210"
   height="270"
   viewBox="0 0 420.00001 550.00002"
   xml:space="preserve"
   inkscape:version="0.45.1"
   sodipodi:docname="stade_français_PR_2018.svg"
   sodipodi:version="0.32"
   inkscape:output_extension="org.inkscape.output.svg.inkscape"
   sodipodi:docbase="C:\Users\Fernando\Documents\+backup!\!!!!comiccovers!"><metadata
     id="metadata17"><rdf:RDF><ns:Work
         rdf:about=""><dc:format>image/svg+xml</dc:format><dc:type
           rdf:resource="http://purl.org/dc/dcmitype/StillImage" /><dc:title /></ns:Work><cc:Work
         rdf:about=""><dc:format>image/svg+xml</dc:format><dc:type
           rdf:resource="http://purl.org/dc/dcmitype/StillImage" /></cc:Work></rdf:RDF></metadata><defs
     id="defs15" /><sodipodi:namedview
     pagecolor="#ffffff"
     bordercolor="#666666"
     borderopacity="1"
     objecttolerance="10"
     gridtolerance="10"
     guidetolerance="10"
     inkscape:pageopacity="0"
     inkscape:pageshadow="2"
     inkscape:window-width="1366"
     inkscape:window-height="706"
     id="namedview13"
     showgrid="false"
     inkscape:zoom="1.504367"
     inkscape:cx="146.00253"
     inkscape:cy="104.38415"
     inkscape:window-x="-8"
     inkscape:window-y="-8"
     inkscape:window-maximized="1"
     inkscape:current-layer="Ebene_1"
     width="210px"
     height="270px" /><g
     id="g2201"
     transform="matrix(0.9660808,0,0,0.9660808,9.091104,8.630142)"><path
       sodipodi:nodetypes="cssccscccsccssccc"
       inkscape:connector-curvature="0"
       id="path3"
       d="M 353.34813,404.17162 C 388.22146,362.82329 397.31188,334.55065 397.31188,288.49479 C 397.31188,242.44091 365.18268,218.4944 365.53339,183.13215 C 366.03714,132.33485 410.39359,103.05989 410.39359,103.05989 C 388.66373,80.717323 366.10299,59.704673 339.74299,44.770312 C 339.74299,44.770312 333.82463,50.973285 315.39008,50.973285 C 280.30094,50.973285 268.92248,18.0073 268.92248,18.0073 C 253.0764,15.440126 237.42582,11.702317 209.58409,11.51332 C 181.74235,11.702317 166.09178,15.440126 150.2457,18.0073 C 150.2457,18.0073 138.86723,50.973285 103.7781,50.973285 C 85.34355,50.973285 79.425181,44.770312 79.425181,44.770312 C 53.065176,59.704673 30.50445,80.717323 8.7745767,103.05989 C 8.7745767,103.05989 53.131033,132.33485 53.634801,183.13215 C 53.985493,218.4944 21.856285,242.44091 21.856285,288.49479 C 21.856285,334.55065 30.946717,362.82329 65.820046,404.17162 C 101.03906,440.95495 209.58409,538.48669 209.58409,538.48669 C 209.58409,538.48669 318.12911,440.95495 353.34813,404.17162 L 353.34813,404.17162 z "
       style="fill:#eb5296;fill-opacity:1;stroke:none" /><path
       sodipodi:nodetypes="ccccccccccc"
       inkscape:connector-curvature="0"
       id="path4483"
       d="M 223.63723,293.42193 L 163.97624,350.15479 L 176.78688,345.76256 L 142.01513,379.43625 L 158.85198,372.84792 L 120.78606,422.2604 L 182.64317,363.33144 L 169.10048,368.08968 L 204.23825,334.04997 L 186.30336,339.90626 L 223.63723,293.42193 z "
       style="fill:#ffffff;fill-rule:evenodd;stroke:none;stroke-width:1px;stroke-linecap:butt;stroke-linejoin:miter;stroke-opacity:1" /><g
       transform="matrix(1.0021313,0,0,1.0021313,-0.7796672,-0.5000137)"
       id="g4445"><g
         id="g4590"
         transform="matrix(1.0414507,0,0,1.0414507,-8.3529914,-3.1522295)"><path
           sodipodi:nodetypes="ccccccccccc"
           inkscape:connector-curvature="0"
           id="path4441"
           d="M 224.674,200.28269 L 245.67587,200.28306 L 245.67587,156.30296 L 289.90233,156.30296 L 306.4565,137.77263 L 245.67587,137.77263 L 245.67587,112.076 L 312.13927,112.076 L 329.18759,93.545061 L 224.674,93.545061 L 224.674,200.28269 z "
           style="fill:#ffffff;fill-rule:evenodd;stroke:none;stroke-width:1px;stroke-linecap:butt;stroke-linejoin:miter;stroke-opacity:1" /><path
           sodipodi:nodetypes="sssscccccssssccccccss"
           inkscape:connector-curvature="0"
           id="rect4447"
           d="M 124.73633,93.544922 C 113.88304,93.544922 105.14453,102.28148 105.14453,113.13477 L 105.14453,136.69336 C 105.14453,147.54665 113.88304,156.28495 124.73633,156.28498 L 189.59,156.28498 L 189.59,183.17383 L 124.36914,183.17383 L 124.36914,166.55859 C 124.36914,166.55859 105.06707,182.14681 105.14453,182.85742 C 106.21529,192.68452 114.49579,200.2832 124.61719,200.2832 L 189.09375,200.2832 C 199.94704,200.2832 208.68555,191.54665 208.68555,180.69336 L 208.68555,157.13477 C 208.68555,146.28148 199.94704,137.56098 189.09375,137.56098 L 124.24023,137.56098 L 124.24023,110.6543 L 189.46094,110.6543 L 189.46094,127.26953 C 189.46094,127.26953 208.76301,111.68131 208.68555,110.9707 C 207.61479,101.1436 199.33429,93.544922 189.21289,93.544922 L 124.73633,93.544922 z "
           style="opacity:1;fill:#ffffff;fill-opacity:1;fill-rule:nonzero;stroke:none;stroke-width:2;stroke-linecap:round;stroke-linejoin:round;stroke-miterlimit:4;stroke-dasharray:none;stroke-dashoffset:0;stroke-opacity:1" /></g><g
         id="g4571"
         transform="matrix(1.0414507,0,0,1.0414507,-8.3529914,-3.1522295)"><path
           inkscape:connector-curvature="0"
           id="path4460"
           d="M 198.43945,219.69468 L 198.43945,272.69468 L 208.86719,272.69468 L 208.86719,252.85679 L 222.77734,252.85679 L 243.4082,272.69468 L 257.83594,272.69468 L 237.19531,252.84702 L 241.04297,252.84702 C 246.43208,252.84702 250.77148,248.50959 250.77148,243.12046 L 250.77148,229.42124 C 250.77148,224.03212 246.43208,219.69468 241.04297,219.69468 L 240.33398,219.69468 L 209.02734,219.69468 L 198.43945,219.69468 L 198.43945,219.69468 z M 208.86719,228.89585 L 208.90629,228.89585 L 208.90429,228.98955 L 237.28905,228.98955 C 242.21522,229.06015 241.96024,243.51251 237.28905,243.55009 L 209.08788,243.55009 L 209.08588,243.65556 L 208.86713,243.65556 L 208.86713,228.8958 L 208.86719,228.89585 z "
           style="fill:#ffffff;fill-rule:evenodd;stroke:none;stroke-width:1px;stroke-linecap:butt;stroke-linejoin:miter;stroke-opacity:1" /><path
           style="opacity:1;fill:#ffffff;fill-opacity:1;fill-rule:nonzero;stroke:none;stroke-width:2;stroke-linecap:round;stroke-linejoin:round;stroke-miterlimit:4;stroke-dasharray:none;stroke-dashoffset:0;stroke-opacity:1"
           d="M 309.08698,219.69468 C 303.69787,219.69468 299.35884,224.03274 299.35884,229.42186 L 299.35884,241.11967 C 299.35884,246.5088 303.69787,250.84771 309.08698,250.84772 L 341.28952,250.84772 L 341.28952,264.19916 L 308.90466,264.19916 L 308.90466,255.94901 C 308.90466,255.94901 299.32037,263.6892 299.35884,264.04205 C 299.89051,268.92162 304.00212,272.69468 309.02782,272.69468 L 341.04311,272.69468 C 346.43222,272.69468 350.77126,268.35662 350.77126,262.9675 L 350.77126,251.26969 C 350.77126,245.88058 346.43222,241.55049 341.04311,241.55049 L 308.84064,241.55049 L 308.84064,228.1902 L 341.22544,228.1902 L 341.22544,236.44035 C 341.22544,236.44035 350.80972,228.70016 350.77126,228.3473 C 350.23958,223.46774 346.12797,219.69468 341.10227,219.69468 L 309.08698,219.69468 z "
           id="path4462"
           inkscape:connector-curvature="0"
           sodipodi:nodetypes="sssscccccssssccccccss" /><path
           sodipodi:nodetypes="ccccc"
           inkscape:connector-curvature="0"
           id="path4464"
           d="M 270.43888,272.69442 L 280.8672,272.69461 L 280.867,219.69475 L 270.43888,219.69475 L 270.43888,272.69442 z "
           style="fill:#ffffff;fill-rule:evenodd;stroke:none;stroke-width:1px;stroke-linecap:butt;stroke-linejoin:miter;stroke-opacity:1" /><path
           inkscape:connector-curvature="0"
           style="fill:#ffffff;fill-rule:evenodd;stroke:none;stroke-width:1px;stroke-linecap:butt;stroke-linejoin:miter;stroke-opacity:1"
           d="M 66.43945,219.69479 L 66.43945,272.69479 L 76.86719,272.69479 L 76.86719,252.8569 L 98.82812,252.8569 L 98.83612,252.8469 L 109.04315,252.8469 C 114.43226,252.8469 118.77166,248.50947 118.77166,243.12034 L 118.77166,229.42112 C 118.77166,224.032 114.43226,219.69456 109.04315,219.69456 L 108.33416,219.69456 L 77.02752,219.69456 L 66.43963,219.69456 L 66.43945,219.69479 z M 76.86719,228.89596 L 76.90629,228.89596 L 76.90429,228.98966 L 105.28905,228.98966 C 110.21522,229.06026 109.96024,243.51261 105.28905,243.5502 L 77.08788,243.5502 L 77.08588,243.65567 L 76.86713,243.65567 L 76.86713,228.89591 L 76.86719,228.89596 z "
           id="path4472" /><path
           sodipodi:nodetypes="ccccccccccccc"
           inkscape:connector-curvature="0"
           id="path4475"
           d="M 147.2757,219.69468 L 119.08594,272.69468 L 133.28655,272.69468 L 139.38242,260.42605 L 169.16391,260.42605 L 175.25978,272.69468 L 189.4604,272.69468 L 161.27063,219.69468 L 147.2757,219.69468 z M 154.27317,230.46 L 164.50022,251.041 L 144.04611,251.041 L 154.27317,230.46 z "
           style="fill:#ffffff;fill-rule:evenodd;stroke:none;stroke-width:1px;stroke-linecap:butt;stroke-linejoin:miter;stroke-opacity:1" /></g><path
         sodipodi:nodetypes="ccccccccccc"
         inkscape:connector-curvature="0"
         id="path4485"
         d="M 269.76345,293.29998 L 197.44594,360.86938 L 216.80365,352.8341 L 173.70535,394.83669 L 193.4283,387.89714 L 148.13855,444.87456 L 221.18652,376.93994 L 203.28978,382.0533 L 247.84905,340.78118 L 226.29989,349.1817 L 269.76345,293.29998 z "
         style="fill:#ffffff;fill-rule:evenodd;stroke:none;stroke-width:1px;stroke-linecap:butt;stroke-linejoin:miter;stroke-opacity:1" /></g><path
       sodipodi:nodetypes="ccccccccccc"
       inkscape:connector-curvature="0"
       id="path4489"
       d="M 318.50725,293.42507 L 234.32303,372.11902 L 256.28412,363.7006 L 203.57749,412.38104 L 228.83276,404.32864 L 177.59018,469.1139 L 261.40838,391.88403 L 240.54534,398.10633 L 291.05587,350.52395 L 267.26468,359.67441 L 318.50725,293.42507 z "
       style="fill:#ffffff;fill-rule:evenodd;stroke:none;stroke-width:1px;stroke-linecap:butt;stroke-linejoin:miter;stroke-opacity:1" /><g
       transform="matrix(1.0021313,0,0,1.0021313,-0.7796672,-0.5000137)"
       id="g4440"><path
         inkscape:connector-curvature="0"
         style="fill:#ffffff;fill-opacity:1;fill-rule:evenodd;stroke:none;stroke-width:1px;stroke-linecap:butt;stroke-linejoin:miter;stroke-opacity:1"
         d="M 73.066406,42.580078 L 13.193359,96.431641 L 60.3125,163.27148 C 57.79233,143.85152 63.373941,128.63138 36.207031,96.431641 C 45.874555,80.035473 58.592343,66.980624 73.066406,54.429688 L 73.066406,42.580078 z "
         id="path4498" /><path
         sodipodi:nodetypes="cccccc"
         inkscape:connector-curvature="0"
         id="path4502"
         d="M 347.25764,40.225187 L 347.25764,55.1604 C 360.16086,67.038114 369.82753,77.947829 384.36826,96.432515 C 357.20135,128.63225 362.7826,143.85147 360.26242,163.27143 L 408.15501,92.356664 L 347.25764,40.225187 z "
         style="fill:#ffffff;fill-opacity:1;fill-rule:evenodd;stroke:none;stroke-width:1px;stroke-linecap:butt;stroke-linejoin:miter;stroke-opacity:1" /><path
         style="fill:#ffffff;fill-opacity:1;fill-rule:evenodd;stroke:none;stroke-width:1px;stroke-linecap:butt;stroke-linejoin:miter;stroke-opacity:1"
         d="M 286.30078,473.98047 C 324.10414,441.22292 357.05244,406.03895 383.17578,367.44141 L 399.47266,317.26172 L 390.48047,312.6543 C 372.29102,364.38107 336.75313,401.28247 298.66797,435.22266 C 268.66369,461.96146 237.34323,492.34149 210.4209,515.72852 C 183.49856,492.34149 152.17812,461.96146 122.17383,435.22266 C 84.088672,401.28247 48.552734,364.38107 30.363281,312.6543 L 21.371094,317.26172 L 37.667969,367.44141 C 63.791318,406.03895 96.737654,441.22292 134.54102,473.98047 L 210.4209,544.58203 L 286.30078,473.98047 z "
         id="path4504"
         inkscape:connector-curvature="0"
         sodipodi:nodetypes="ccccscscccccc" /></g><path
       sodipodi:nodetypes="ccsccsscccssccsccccsccsscccssccscc"
       inkscape:connector-curvature="0"
       id="path4514"
       d="M 209.58409,0 C 180.52576,0.19725546 164.19133,4.0983937 147.65286,6.7777418 C 147.65286,6.7777418 135.77718,41.18421 99.154799,41.18421 C 79.914731,41.18421 73.737755,34.710192 73.737755,34.710192 C 46.225923,50.297125 22.679381,72.227943 0,95.546796 C 0,95.546796 46.294657,126.10093 46.820437,179.11789 C 47.186456,216.02534 13.653327,241.01821 13.653327,289.08445 C 13.653327,337.15278 23.140976,366.66082 59.53813,409.81591 C 96.296081,448.20651 209.58409,550 209.58409,550 C 209.58409,550 322.87209,448.20651 359.63004,409.81591 C 396.0272,366.66082 405.51485,337.15278 405.51485,289.08445 C 405.51485,241.01821 371.98172,216.02534 372.34774,179.11789 C 372.87353,126.10093 419.16817,95.546795 419.16817,95.546796 C 396.48879,72.227944 372.94225,50.297125 345.43042,34.710192 C 345.43042,34.710192 339.25345,41.18421 320.01337,41.18421 C 283.391,41.18421 271.51533,6.7777418 271.51533,6.7777418 C 254.97684,4.0983937 238.64241,0.19725546 209.58409,0 z M 209.8287,16.24212 C 237.41689,16.427727 244.50562,16.992638 260.06756,19.513782 C 260.06756,19.513782 287.80584,60.170778 322.26583,54.994496 C 340.16901,52.305237 347.21808,50.456975 347.21808,50.456975 C 372.58783,68.746967 375.59081,72.30023 396.93106,94.242209 C 396.93106,94.242209 359.0648,129.20487 358.57006,179.09139 C 358.22567,213.81962 390.29601,245.61751 390.29601,290.84564 C 390.29601,336.07575 381.36833,362.80627 347.12028,403.41324 C 312.53271,439.53703 209.8287,531.68073 209.8287,531.68073 C 209.8287,531.68073 107.12672,439.53703 72.539164,403.41324 C 38.291103,362.80627 29.363421,336.07575 29.363421,290.84564 C 29.363421,245.61751 61.433774,213.81962 61.089367,179.09139 C 60.594632,129.20487 22.728367,94.242209 22.728367,94.242209 C 44.068631,72.300228 47.071848,68.746966 72.441598,50.456975 C 72.441598,50.456975 79.490422,52.305237 97.393605,54.994496 C 131.8536,60.170778 159.59187,19.513782 159.59187,19.513782 C 175.15383,16.992638 182.24052,16.427727 209.8287,16.24212 L 209.8287,16.24212 z "
       style="fill:#eb5296;fill-opacity:1;stroke:none" /></g></svg>