<?xml version="1.0"?>
<svg xmlns="http://www.w3.org/2000/svg" xmlns:xlink="http://www.w3.org/1999/xlink" width="309.158443168" height="323.458738423" viewBox="0 0 321.129 335.983" overflow="visible" enable-background="new 0 0 321.129 335.983">
					<path stroke="#000000" stroke-width="10" d="M306.975,255.366c5.068,0,9.18,4.11,9.18,9.18

						s-4.111,9.181-9.18,9.181H14.154c-5.069,0-9.18-4.111-9.18-9.181s4.11-9.18,9.18-9.18H306.975z"/>

					<path fill="#E30000" d="M306.975,255.366c5.068,0,9.18,4.11,9.18,9.18s-4.111,9.181-9.18,9.181H14.154

						c-5.069,0-9.18-4.111-9.18-9.181s4.11-9.18,9.18-9.18H306.975z"/>

					<path fill="#FDD812" d="M60.83,273.72l-46.675,0.006c-5.069,0-9.18-4.111-9.18-9.181s4.11-9.18,9.18-9.18

						l34.75-0.014L60.83,273.72z"/>

					<path fill="#FDD812" d="M160.83,273.72h-50l-11.885-18.354h50L160.83,273.72z"/>

					<path fill="#FDD812" d="M260.83,273.72l-49.96,0.013l-11.963-18.379l50.039,0.013L260.83,273.72z"/>

					<path stroke="#000000" stroke-width="10" d="M194.481,49.934l11.928,11.521

						c5.952,5.691,13.756,8.493,22,8.564l7.17-0.755c12.009-2.053,24.096,0.924,32.805,9.252l9.394,8.837

						c-0.575,0.48-1.144,0.985-1.676,1.541c-6.869,7.185-7.288,17.936-0.937,24.01c6.354,6.075,17.075,5.176,23.945-2.009

						c1.449-1.516,2.52-3.288,3.393-5.044c13.265,15.444,11.256,40.366-5.227,57.604c-16.482,17.238-41.289,20.359-57.313,7.798

						c1.716-0.949,3.438-2.099,4.888-3.615c6.87-7.185,7.289-17.936,0.936-24.011c-6.353-6.074-17.074-5.175-23.943,2.01

						c-0.532,0.557-1.011,1.147-1.465,1.742l-9.249-8.988c-8.709-8.327-12.225-20.269-10.711-32.357l0.434-7.196

						c-0.439-8.233-3.588-15.903-9.539-21.595l-12.043-11.4L194.481,49.934z"/>

					<path fill="#E30000" d="M187.044,57.71l110.343,105.627c-16.482,17.237-41.4,20.475-57.424,7.915

						c1.716-0.949,3.438-2.099,4.888-3.615c6.87-7.185,7.289-17.936,0.936-24.011c-6.353-6.074-17.074-5.175-23.943,2.01

						c-0.532,0.557-1.011,1.147-1.465,1.742l-9.249-8.988c-8.709-8.327-12.225-20.269-10.711-32.357l0.434-7.196

						c-0.439-8.233-3.588-15.903-9.539-21.595l-12.043-11.4L187.044,57.71z"/>

					<path fill="#FDD812" d="M186.706,58.065L297.165,163.57c16.482-17.237,18.603-42.275,5.338-57.72

						c-0.873,1.756-1.943,3.528-3.393,5.044c-6.87,7.185-17.591,8.084-23.945,2.009c-6.352-6.074-5.933-16.825,0.937-24.01

						c0.532-0.556,1.101-1.061,1.676-1.541l-9.394-8.837c-8.709-8.328-20.796-11.305-32.805-9.252l-7.17,0.755

						c-8.244-0.071-16.048-2.873-22-8.564l-11.928-11.521L186.706,58.065z"/>

					<path stroke="#000000" stroke-width="10" d="M224.654,250.045h22.667c0,0-14-22-36.5-31.5s-35-6.5-43-14

						s-17.5-21-35-30.5s-16.5-8.5-57.5-15c0,0,18.5-9,28.5-25s28.5-39.5,35.5-41.5s4.5,0,17-8c0,0,12.5,4,26-9s14-17,16.5-23.5

						c2.188-5.688,3.227-15.586-3.247-12.947l-10.74-7.282c0.659-1.068,0.8-2.333,0.237-4.021c-0.699-2.097-2.755-2.402-5.283-1.903

						l-6.102-3.661c0.408-0.731,0.583-1.544,0.385-2.437c-0.475-2.136-2.864-2.3-5.244-1.884l-6.715-2.212

						c0.479-1.3,0.25-2.633-0.791-3.154c-1.194-0.597-3.102-0.659-5.031-0.346l-7.812-2.496c3.02-3.61-3.293-5.581-9.157-4.408

						c-8.75,1.75-10,9.5-11.25,15.75c-0.925,4.626,0.067,9.801,2.167,12.076c0,0,3.75,8.924-3.917,18.591s-26.5,25.333-26.5,25.333

						c-13,9.5-85.5,50-83,74s16.5,28,35,40s9,14.5,34.5,33s35,26,35,26h58.833H224.654z"/>

					<path fill="#E30000" d="M127.821,80.045c0,0-15-12.5-28-3s-85.5,50-83,74s16.5,28,35,40s9,14.5,34.5,33

						s35,26,35,26h80.5l-146-96.5L127.821,80.045z"/>

					<path fill="#FDD812" d="M64.321,169.045c-25-16.5-8-27-8-27l69-63.5c18,13.5,20.5,2.5,20.5,2.5l-10-9.5

						c0,0-11.5-11.5-3.5-19s9-9,17.5,2.5s24,9.5,24,9.5l10.5-9.5c0,0-2-6.5,8-14s9,4.5,6.5,11s-3,10.5-16.5,23.5s-26,9-26,9

						c-12.5,8-10,6-17,8s-25.5,25.5-35.5,41.5s-28.5,25-28.5,25c41,6.5,40,5.5,57.5,15s27,23,35,30.5s20.5,4.5,43,14

						s36.5,31.5,36.5,31.5h-51L64.321,169.045z"/>

					<path fill="#FDD812" d="M157.821,44.045c0,0-3.25,6.5,0.25,9.25s6,3,8.25-4s6.75-10,11.75-12.75

						s8.5-4.25,7-8.75s-9.25-0.75-14.5,1.5s-8.25,3.5-10,7.75S157.821,44.045,157.821,44.045z"/>

					<path fill="#FDD812" d="M150.071,32.045c0,0-3,7.25-0.75,9.5s4.25-0.5,7-6s10.25-8.75,10.25-8.75

						s8.5-2.5,7.5-7s-10.5-0.25-10.5-0.25S150.571,26.795,150.071,32.045z"/>

					<path fill="#FDD812" d="M141.571,24.295c0,0-1.75,5.5,0.5,7.25s4-2.75,5.5-5.5s8.25-6.5,11.5-7.5

						s4.25-5,2.25-6s-6-0.5-8.75,0.75S143.321,16.545,141.571,24.295z"/>

					<path fill="#FDD812" d="M136.071,16.045c0,0-5.75,5-5,9s5.5,9,1.75,9.25s-6-7-4.75-13.25s2.5-14,11.25-15.75

						S157.821,8.795,136.071,16.045z"/>

					<path fill="#FDD812" d="M182.963,45.366c0,0,6.579-8.4-1.879-5.833c-8.459,2.566-12.219,11.9-11.514,15.167

						s4.935,6.533,9.868-2.8C184.374,42.566,182.963,45.366,182.963,45.366z"/>

					<path d="M48.591,335.545h18.867l10.903-33.573l10.356,33.573h19.038l19.346-46.625H112.61L98.63,324.433L86.975,288.92H69.817

						l-12.065,35.513L44.182,288.92H29.758L48.591,335.545z M125.67,322.545v13h13.938v-13H125.67z M161.748,335.545v-11.813h21.855

						c1.436,0,2.382,0.023,2.839,0.068c1.391,0.068,2.462,0.354,3.215,0.856c1.186,0.845,1.778,2.534,1.778,5.067v5.82h14.375

						v-7.396c0-2.488-0.262-4.417-0.785-5.786s-1.389-2.42-2.595-3.15c-1.048-0.685-3.268-1.118-6.658-1.302

						c-0.365,0-1.139-0.045-2.322-0.137c1.067-0.158,2.011-0.307,2.829-0.443c2.794-0.432,4.861-1.114,6.203-2.047

						c2.635-1.863,3.953-5.547,3.953-11.05c0-3.547-0.409-6.39-1.228-8.527c-0.934-2.387-2.503-4.093-4.708-5.116

						c-2.41-1.113-6.606-1.671-12.587-1.671h-40.29v46.625H161.748z M161.748,300.358h22.744c2.283,0,3.854,0.125,4.714,0.374

						c1.537,0.432,2.442,1.451,2.714,3.061c0.135,0.816,0.203,1.939,0.203,3.367c0,2.404-0.747,3.889-2.239,4.455

						c-1.177,0.454-3.145,0.681-5.904,0.681h-22.231V300.358z M214.013,322.545v13h13.938v-13H214.013z M235.75,313.992

						c-0.023,4.896,0.251,8.699,0.822,11.409c1.369,5.989,5.856,9.371,13.462,10.145c2.937,0.242,7.854,0.389,14.752,0.438

						c6.92-0.046,11.542-0.114,13.864-0.205c2.617-0.092,4.939-0.457,6.967-1.097c5.008-1.62,8.081-4.736,9.22-9.349

						c0.548-2.572,0.811-6.569,0.788-11.989V288.92h-14.25v21.383l0.063,4.223c0,1.305-0.046,2.482-0.137,3.535

						c-0.183,2.563-0.945,4.314-2.289,5.252c-1.07,0.801-3.018,1.259-5.842,1.373c-1.049,0.047-4.066,0.104-9.054,0.172

						l-4.476-0.103c-2.688-0.046-4.693-0.354-6.014-0.927c-1.845-0.801-2.972-2.253-3.382-4.358

						c-0.205-1.12-0.308-2.984-0.308-5.593c0-0.938,0.021-2.517,0.063-4.735V288.92h-14.25V313.992z"/>
</svg>