<?xml version="1.0" encoding="utf-8" ?>
<svg id="Layer_1" data-name="Layer 1" xmlns="http://www.w3.org/2000/svg" xmlns:xlink="http://www.w3.org/1999/xlink" viewBox="0 0 1000 389.1978">
  <defs>
    <clipPath id="clip-path">
      <path d="M779.7259,194.2474l-.82,3.2359c-6.88,33.6748,6.4658,93.14,36.4541,98.8077.9707.1844.9647-.242.85-.6261.0362.109.0755.2208.109.3328.1663.381.517.5443,1.258.6381,28.1042,3.5412,72.3062-40.694,81.8145-80.1722,8.6945-33.9894,2.5222-61.1529-10.9872-77.774-.4054-.49-.81-.98-1.2279-1.4547-.0969-.109-.19-.2239-.2874-.3358-.6107-.68-1.2371-1.3336-1.8749-1.9778-.1906-.1905-.381-.381-.5747-.5715q-.8116-.7941-1.6511-1.5512c-.124-.109-.2451-.2269-.369-.3388-.6654-.5868-1.3428-1.1433-2.0293-1.6877q-.2949-.2358-.5988-.4627-.8437-.6531-1.7116-1.264c-.1694-.115-.3358-.2389-.502-.3539-.7138-.49-1.44-.9556-2.1744-1.4032-.1875-.118-.3812-.2269-.5717-.3387-.6018-.3568-1.2127-.6987-1.827-1.0251-.1966-.1026-.39-.2088-.5866-.3117q-1.1431-.59-2.3106-1.116c-.1663-.0693-.3327-.136-.496-.2085-.6562-.2843-1.3125-.5505-1.9778-.8013-.2147-.0816-.4295-.1634-.644-.242-.8077-.2933-1.6181-.5685-2.4376-.8134-.1119-.0333-.2268-.0577-.3357-.0907-.7317-.2115-1.4635-.4022-2.2015-.5807-.2239-.0513-.4507-.1059-.6806-.1543-.8437-.1873-1.69-.3568-2.5432-.496-.968-.1512-1.936-.2692-2.9095-.3478a2.2008,2.2008,0,0,0-1.7358.4961l-.233.1784.106-.0877a.3115.3115,0,0,0,.13-.2179c-.0484.0393-.1058.0664-.1512.109l-.124.0906c.2813-.2116.1119-.5805-.3356-.6833-29.7436,2.1017-64.2255,37.6787-73.8124,73.6005" fill="none"/>
    </clipPath>
    <radialGradient id="radial-gradient" cx="-1381.3982" cy="99.9027" r="3.225" gradientTransform="matrix(26.7212, -8.8425, 7.6943, 24.7682, 37075.8423, -14522.026)" gradientUnits="userSpaceOnUse">
      <stop offset="0" stop-color="#fff"/>
      <stop offset="1" stop-color="#c3c3c3"/>
    </radialGradient>
    <clipPath id="clip-path-2">
      <path d="M778.7974,197.6315c-2.93,20.2412-6.9434,82.4254,38.7555,98.78-8.1774-9.3145-6.5171-39.838-1.4061-88.5128,2.1351-35.1293,20.8429-74.6982,37.8511-86.6591-46.1074,16.6211-68.32,38.8825-75.2,76.392" fill="none"/>
    </clipPath>
    <radialGradient id="radial-gradient-2" cx="-1398.7762" cy="82.4223" r="3.225" gradientTransform="matrix(41.4303, -7.3741, 7.3119, 41.7825, 58185.1302, -13612.8943)" gradientUnits="userSpaceOnUse">
      <stop offset="0" stop-color="#fff"/>
      <stop offset="0.0899" stop-color="#fff"/>
      <stop offset="0.1101" stop-color="#fcfcfd"/>
      <stop offset="0.2634" stop-color="#ededf2"/>
      <stop offset="0.3876" stop-color="#e8e8ee"/>
      <stop offset="0.4656" stop-color="#dcdfe8"/>
      <stop offset="0.6069" stop-color="#bcc9d8"/>
      <stop offset="0.7955" stop-color="#88a4bf"/>
      <stop offset="1" stop-color="#48779f"/>
    </radialGradient>
    <clipPath id="clip-path-3">
      <path d="M816.1468,207.8987c-.9616,24.2756-9.6111,70.5884,1.4667,88.8974,20.51-.8256,69.9291-30.1334,81.6934-79.9936,16.3731-66.5149-23.8763-95.23-45.309-95.5626-28.7482,27.8774-34.0437,64.3313-37.8512,86.6591" fill="none"/>
    </clipPath>
    <radialGradient id="radial-gradient-3" cx="-1381.0107" cy="89.3805" r="3.225" gradientTransform="matrix(28.1224, -5.0054, 4.9633, 28.3615, 39257.1057, -9260.155)" xlink:href="#radial-gradient-2"/>
    <clipPath id="clip-path-4">
      <path d="M816.3553,296.1607c.1634.3841.5263.493,1.2582.6351,26.6163,4.8238,71.65-35.6767,81.6934-79.9936-12.4326,49.1649-58.7213,76.0169-74.6137,39.4722a119.9359,119.9359,0,0,1-8.5464-48.3756c-3.2088,39.6356-7.4185,66.1429.2085,88.262" fill="none"/>
    </clipPath>
    <radialGradient id="radial-gradient-4" cx="-1383.6636" cy="93.3239" r="3.225" gradientTransform="matrix(27.4903, -6.2037, 7.281, 27.419, 38172.3066, -10895.5252)" gradientUnits="userSpaceOnUse">
      <stop offset="0" stop-color="#afd4f1"/>
      <stop offset="0.1067" stop-color="#afd4f1"/>
      <stop offset="0.1092" stop-color="#aed3f0"/>
      <stop offset="0.2699" stop-color="#6497bc"/>
      <stop offset="0.403" stop-color="#2e6b96"/>
      <stop offset="0.5022" stop-color="#0d4f7f"/>
      <stop offset="0.5562" stop-color="#004576"/>
      <stop offset="1" stop-color="#004576"/>
    </radialGradient>
    <clipPath id="clip-path-5">
      <path d="M815.3936,296.4571c1.3.245.856-.5988.7258-.9829-7.2853-22.107-3.148-48.3512.0273-87.5755-4.4728,13.6908-4.0342,27.46-10.9114,49.1588-3.69,11.64-9.1453,6.5234-12.5476,3.7107-9.1332-7.5577-19.0525-29.84-13.7753-63.8718-9.0092,45.043,6.3718,93.869,36.4812,99.5606" fill="none"/>
    </clipPath>
    <radialGradient id="radial-gradient-5" cx="-1348.3765" cy="101.051" r="3.225" gradientTransform="matrix(17.0187, -1.8505, 2.794, 15.8999, 23446.0668, -3834.0462)" gradientUnits="userSpaceOnUse">
      <stop offset="0" stop-color="#35a748"/>
      <stop offset="1" stop-color="#00421b"/>
    </radialGradient>
    <clipPath id="clip-path-6">
      <path d="M853.9979,121.24c-19.0256,14.241-35.1233,52.93-37.8512,86.6591,5.979-28.8843,21.5718-55.7817,49.8573-59.0691,18.8923-2.19,43.688,29.2564,33.3028,67.9725,14.492-53.8461-9.6988-90.7419-40.5187-95.6927q-1.5243-.24-3.0577-.3688a2.81,2.81,0,0,0-.2813-.0121,2.0732,2.0732,0,0,0-1.4516.5111" fill="none"/>
    </clipPath>
    <radialGradient id="radial-gradient-6" cx="-1300.2526" cy="123.6394" r="3.225" gradientTransform="matrix(10.7469, -2.4252, 2.8464, 10.719, 14457.3609, -4334.3353)" gradientUnits="userSpaceOnUse">
      <stop offset="0" stop-color="#fff"/>
      <stop offset="0.0169" stop-color="#fff"/>
      <stop offset="0.019" stop-color="#fffefe"/>
      <stop offset="0.1071" stop-color="#fce8e2"/>
      <stop offset="0.1843" stop-color="#fadbd1"/>
      <stop offset="0.2416" stop-color="#f9d6cb"/>
      <stop offset="0.353" stop-color="#f3a09f"/>
      <stop offset="0.465" stop-color="#ed7179"/>
      <stop offset="0.5772" stop-color="#e94959"/>
      <stop offset="0.6873" stop-color="#e52b41"/>
      <stop offset="0.7948" stop-color="#e3152f"/>
      <stop offset="0.8986" stop-color="#e20825"/>
      <stop offset="0.9944" stop-color="#e10421"/>
      <stop offset="1" stop-color="#e10421"/>
    </radialGradient>
    <clipPath id="clip-path-7">
      <path d="M778.9124,196.8965h0M900.39,75.9426C800.33,81.6131,782.0031,178.5275,778.9124,196.8965c0,0,.0786-.3538.2358-.9919-.0816.33-.16.6593-.2358.9919a150.1869,150.1869,0,0,1,4.4184-14.6825,55.1081,55.1081,0,0,1,28.4942-32.5407c12.0273-5.0988,2.9547,27.2243,4.3217,58.2254,2.7248-33.6536,18.7563-72.2518,37.7271-86.5685.2994-.2267.1059-.6381-.4113-.7075a63.26,63.26,0,0,0-32.6889,13.6181c5.5647-15.8017,35.8674-44.4079,74.9556-53.8373,8.4767-2.0445,8.1109-4.485,5.1987-4.485-.1694,0-.3508.009-.5384.0241" fill="none"/>
    </clipPath>
    <radialGradient id="radial-gradient-7" cx="-1381.366" cy="88.301" r="3.225" gradientTransform="matrix(28.055, -4.9934, 4.9513, 28.2934, 39152.4645, -9251.3784)" gradientUnits="userSpaceOnUse">
      <stop offset="0" stop-color="#dcedf9"/>
      <stop offset="0.1067" stop-color="#00a8e2"/>
      <stop offset="0.3258" stop-color="#004576"/>
      <stop offset="0.6011" stop-color="#00497a"/>
      <stop offset="0.8202" stop-color="#004285"/>
      <stop offset="1" stop-color="#004285"/>
    </radialGradient>
    <clipPath id="clip-path-8">
      <path d="M200.8269,89.7454A67.9868,67.9868,0,0,0,190.4827,69.75c-8.82,8.3283-29.1049,16.19-64.3961,3.6917S81.6987,80.913,81.6987,88.1453a12.1058,12.1058,0,0,0,13.4185,13.053,12.4381,12.4381,0,0,0,12.1456-11.2262,22.2918,22.2918,0,0,0-3.3013-9.374A34.3838,34.3838,0,0,1,120.9457,84.29l-7.3329,16.7952L114.4443,103l7.9251-18.0426c1.1466.4914,2.4065,1.0332,3.78,1.6379l-9.4623,21.5577.8316,1.9152,10.08-22.8429,3.78,1.7009-11.5412,26.2952.8316,1.9151,12.0956-27.5678,3.78,1.7262-13.7457,30.9065.8316,1.9151L137.779,91.8874l3.78,1.7009L125.91,129.2449l.8316,1.9025,16.2155-36.9418c1.26.5292,2.52,1.0709,3.78,1.6127l-17.74,40.4319.8441,1.89,18.32-41.7548c1.26.4914,2.52.9828,3.8554,1.4364L132.1093,143.18l.8441,1.8773L153.4781,98.3c1.26.4284,2.6081.8317,3.9562,1.26l-22.1877,50.5619.8567,1.84,22.8178-52.0108q2.016.5164,4.0948.8945l-24.569,55.9794.8567,1.8522,25.199-57.5546c1.4112.2268,2.835.3905,4.2713.5039L141.66,163.4525q.441.8442.92,1.701l27.8576-63.489a44.7635,44.7635,0,0,0,4.5106,0l-29.76,67.8233q.4411.6551.9072,1.26l.1638.0756,30.4278-69.2973A39.4625,39.4625,0,0,0,200.8269,89.7454ZM95.117,94.382a4.4351,4.4351,0,1,1,4.435-4.4351h0A4.4349,4.4349,0,0,1,95.1549,94.42h-.05Z" fill="none"/>
    </clipPath>
    <clipPath id="clip-path-9">
      <path d="M191.6042,96.7381a118.8643,118.8643,0,0,1-26.711,95.7564c-8.5425,11.1127-9.1474,16.0392-6.1108,20.8141a38.6283,38.6283,0,0,1-24.8589,1.3985,26.1163,26.1163,0,0,1-3.44-7.03,104.9306,104.9306,0,0,0,26.6987-30.6294,123.7547,123.7547,0,0,0,19.6424-75.6727A41.413,41.413,0,0,0,191.6042,96.7381Z" fill="none"/>
    </clipPath>
    <clipPath id="clip-path-10">
      <path d="M200.8269,89.7454A67.9868,67.9868,0,0,0,190.4827,69.75c-8.82,8.3283-29.1049,16.19-64.3961,3.6917S81.6987,80.913,81.6987,88.1453a11.891,11.891,0,0,0,10.7757,12.91q.2.018.4.0292h.2016c.9324.1008,2.2553.5292,3.2381,4.3091,10.634,41.3141,18.32,81.8968,28.5757,105.42a.4537.4537,0,0,0,.7436.2268,97.1976,97.1976,0,0,0,31.4984-34.019c-8.1267-3.8555-16.53-23.4981-16.53-23.4981-5.33-10.9994-28.6388-63.3756-28.6388-63.3756-3.6538-7.8873-6.3753-8.82-8.0512-9.626,8.0007,0,9.689,0,33.59,11.1632C152.6465,98.6406,178.9669,111.1645,200.8269,89.7454ZM90.6819,89.96a4.4351,4.4351,0,1,1,4.4351,4.435h0a4.4351,4.4351,0,0,1-4.435-4.41Z" fill="none"/>
    </clipPath>
  </defs>
  <g>
    <path d="M21.0045,1.7156h957.99A19.2886,19.2886,0,0,1,998.283,21.0041h0v347.19a19.2885,19.2885,0,0,1-19.2885,19.2884H21.0045A19.2885,19.2885,0,0,1,1.716,368.1945V21.0043A19.2886,19.2886,0,0,1,21.0043,1.7156Z"/>
    <path d="M21.0045,1.7156h957.99A19.2886,19.2886,0,0,1,998.283,21.0041h0v347.19a19.2885,19.2885,0,0,1-19.2885,19.2884H21.0045A19.2885,19.2885,0,0,1,1.716,368.1945V21.0043A19.2886,19.2886,0,0,1,21.0043,1.7156Z"/>
    <path d="M978.9958,389.1978H21.0042A21.03,21.03,0,0,1,0,368.1937V21.0042A21.03,21.03,0,0,1,21.0042,0H978.9959A21.03,21.03,0,0,1,1000,21.0042V368.1937A21.03,21.03,0,0,1,978.9958,389.1978ZM21.0042,3.4318A17.5916,17.5916,0,0,0,3.4318,21.0042V368.1937A17.5916,17.5916,0,0,0,21.0042,385.766H978.9959a17.5915,17.5915,0,0,0,17.5723-17.5723V21.0042A17.5916,17.5916,0,0,0,978.9958,3.4318Z" fill="#fff"/>
    <path d="M408.322,181.0854c0,9.8952,8.3317,9.4779,8.3317,9.4779v1.5484H386.9921v-1.5484s8.3347.4173,8.3347-9.4779v-54.793c0-9.8952-8.3347-9.4808-8.3347-9.4808v-1.5332h29.6618v1.5333s-8.3317-.4144-8.3317,9.4808Zm31.2039.0011V135.7837L434.2,128.25v52.8361c0,8.3863-9.9285,9.4962-9.9285,9.4962v1.5453h25.3218v-1.5453s-10.0676-.8226-10.0676-9.4962m34.227-65.8141v1.5485s10.07.9072,10.07,9.5868l.006,38.91L447.9439,115.3H423.8773v1.512a19.9156,19.9156,0,0,1,13.0889,9.8107c.42.614,47.5106,65.5047,47.5106,65.5047l4.6452-.0152V126.4078c0-8.38,9.8862-9.5868,9.8862-9.5868v-1.5485Zm43.6777,65.8141V135.7837l-5.3257-7.5333v52.8361c0,8.3863-9.9256,9.4962-9.9256,9.4962v1.5453h25.3158v-1.5453s-10.0645-.8226-10.0645-9.4962m34.2272-65.8141v1.5485s10.0676.9072,10.0676,9.5868l.009,38.91L525.843,115.3H501.7821v1.512a19.9224,19.9224,0,0,1,13.0891,9.8108c.42.6139,47.5075,65.5047,47.5075,65.5047l4.6511-.0152V126.4078c0-8.38,9.8832-9.5868,9.8832-9.5868v-1.5485Zm-195.4774.0145v1.5484a9.6268,9.6268,0,0,1,9.8827,9.3638q.003.1114.0034.2229v41.0449c0,8.5283-4.0192,22.0165-17.8247,22.0165a17.9788,17.9788,0,0,1-19.1373-19.2674v-.1026h.012v-43.718a8.7555,8.7555,0,0,1,9.118-9.5837v-1.5485H305.7786v1.5485a8.7562,8.7562,0,0,1,9.1181,9.5837v43.718H314.9v.9949c0,6.0909,2.5072,23.4983,29.3411,23.4983,26.6163,0,27.109-21.0335,27.1154-29.6435l.0121,1.1644V126.4224c0-8.3831,8.7793-9.5868,10.0677-9.5868v-1.5484Zm279.2974,56.8956h-1.9567a19.7729,19.7729,0,0,1-4.0465,8.6947,18.4027,18.4027,0,0,1-14.3468,5.8247c-3.484,0-11.1594-.0212-12.95-.0212V153.6985h6.0758a27.29,27.29,0,0,1,12.3238,2.09,9.8394,9.8394,0,0,1,3.82,6.4807h1.1613V139.255H624.397a9.6817,9.6817,0,0,1-3.82,6.6714,30.1552,30.1552,0,0,1-12.3238,1.8326h-6.0758V120.1931c2.6523,0,5.7281-.0029,8.0294-.0029a33.0519,33.0519,0,0,1,16.2672,2.5128,10.8811,10.8811,0,0,1,4.8661,7.3549l1.1341-.0031V115.2875H581.6194v1.5243s8.3317-.4688,8.3317,9.42v54.8686c0,9.8922-8.3317,9.4749-8.3317,9.4749v1.5363H631.9Zm36.3758-26.5048c-5.8157-2.1592-20.1292-4.6148-20.1292-15.7349a14.0527,14.0527,0,0,1,14.8125-13.092,19.2981,19.2981,0,0,1,15.3846,7.0465,26.6427,26.6427,0,0,1,4.9234,9.3541h1.3729l-.0937-18.076H686.74a4.21,4.21,0,0,1-3.3963,1.4849c-4.1218,0-5.5706-4.0192-17.3288-4.0192a24.1038,24.1038,0,0,0-23.4015,23.3077c0,12.9226,11.9184,19.1161,21.8562,22.41,10.8751,3.6079,19.2733,8.1745,19.2733,16.4911a13.013,13.013,0,0,1-14.4769,13.0737,21.1249,21.1249,0,0,1-17.6887-8.6252,30.15,30.15,0,0,1-6.218-13.1859h-1.748v26h1.6906a5.4016,5.4016,0,0,1,4.37-2.9907c4.8357-.3539,9.8255,4.0069,19.7329,4.0069a23.0982,23.0982,0,0,0,23.3735-22.82q.0042-.35-.0022-.7c0-15.8348-14.38-21.4871-20.9215-23.9307m55.6516,0c-5.8157-2.1593-20.1263-4.6148-20.1263-15.7349a14.0472,14.0472,0,0,1,14.8066-13.092,19.2931,19.2931,0,0,1,15.3841,7.0465,26.6653,26.6653,0,0,1,4.9295,9.354h1.3791l-.1058-18.0759h-1.382a4.208,4.208,0,0,1-3.3932,1.4849c-4.1191,0-5.5706-4.0192-17.332-4.0192A24.0984,24.0984,0,0,0,698.27,135.949c0,12.9225,11.9125,19.1161,21.85,22.41,10.8751,3.6078,19.2733,8.1745,19.2733,16.4911a13.0126,13.0126,0,0,1-14.48,13.0737,21.1193,21.1193,0,0,1-17.6856-8.6252,30.1288,30.1288,0,0,1-6.2147-13.1859h-1.7541v25.9994h1.6936a5.4014,5.4014,0,0,1,4.37-2.9907c4.8326-.3539,9.8255,4.0069,19.736,4.0069a23.1,23.1,0,0,0,23.3734-22.8232q.0041-.348-.0022-.6961c0-15.8348-14.3893-21.4871-20.9245-23.9307m-455.7138,2.8846v1.5243a8.6177,8.6177,0,0,1,8.97,9.4295v20.456a10.7628,10.7628,0,0,1-.003,1.1189l-.0064,2.41a38.5375,38.5375,0,0,1-18.98,4.8628c-6.3055,0-26.4136-1.4213-26.4136-41.7343,0-40.3189,22.8874-42.5418,26.6978-42.9379a28.5149,28.5149,0,0,1,19.9808,6.16,29.9093,29.9093,0,0,1,9.0849,17.084h2.3317V101.9108h-1.2127a6.1311,6.1311,0,0,1-4.9689,1.9173c-4.497,0-11.743-5.8216-24.9166-5.4012-26.74.8741-45.557,20.8974-45.557,50.1355a44.34,44.34,0,0,0,43.1957,45.455q.6.0153,1.2.0143a75.3573,75.3573,0,0,0,9.1422-.5443h.1391c1.3671-.233,2.8428-.327,4.4366-.7016.1-.0183.2087-.0364.3115-.0606v.003l.0635-.0149c1.9446-.3751,3.753-.8106,5.4194-1.2855a24.4952,24.4952,0,0,1,14.4377,1.05V179.4247h-.0121V177.716h.0242v-18.2a8.6182,8.6182,0,0,1,8.97-9.4295v-1.5243Z" fill="#fff"/>
    <rect x="654.8617" y="212.804" width="86.1028" height="3.3842" fill="#df0514"/>
    <rect x="396.5444" y="212.804" width="86.1028" height="3.3842" fill="#32a966"/>
    <rect x="568.7529" y="212.804" width="86.1057" height="3.3842" fill="#312782"/>
    <rect x="310.4386" y="212.804" width="86.1057" height="3.3842" fill="#1b71b5"/>
    <rect x="482.6472" y="212.804" width="86.1057" height="3.3842" fill="#38a7de"/>
    <rect x="224.3328" y="212.804" width="86.1058" height="3.3842" fill="#fff"/>
    <path d="M271.9713,238.04h11.967v54.3974h-11.967ZM216.4842,284.51l7.0705-8.47a24.9664,24.9664,0,0,0,16.2436,6.6066c4.8936,0,7.847-1.9433,7.847-5.13V277.36c0-3.03-1.8636-4.5833-10.9569-6.9138-10.9576-2.8-18.0281-5.83-18.0281-16.63V253.66c0-9.87,7.9268-16.3969,19.0372-16.3969a31.4958,31.4958,0,0,1,20.2068,6.9166l-6.2168,9.0136a25.54,25.54,0,0,0-14.1435-5.36c-4.5866,0-6.9936,2.0969-6.9936,4.74v.1539c0,3.5764,2.33,4.74,11.7336,7.15,11.0337,2.8766,17.25,6.84,17.25,16.32v.1539c0,10.8033-8.2372,16.8636-19.97,16.8636a34.6077,34.6077,0,0,1-23.08-8.7039ZM346.1859,238.04l-18.1838,26.5769,18.9605,27.82H332.9755l-12.2-18.65-12.28,18.65H294.8982l18.9608-27.664L295.6753,238.04h13.9872l11.3467,17.64,11.5769-17.64Zm32.8737,0h11.0366l25.4871,33.4936V238.04h11.8142v54.3974H417.2169l-26.3438-34.5807v34.5807H379.06Zm81.5212-.3869h11.0366l23.3108,54.7846h-12.51l-4.9735-12.2H454.4439l-4.9735,12.2h-12.2Zm12.59,32.0142L465.944,252.03l-7.2266,17.6374Zm38.08-20.5907h-16.55V238.04h45.071v11.0367H523.2184v43.361H511.2515ZM552.5155,238.04h11.97v54.3974h-11.97Zm23.0833,27.3538V265.24a28.92,28.92,0,0,1,57.8147-.1565v.1565a28.92,28.92,0,0,1-57.8147.1539Zm45.3043,0V265.24a16.527,16.527,0,0,0-15.9473-17.0871q-.2631-.0092-.5264-.01a16.2676,16.2676,0,0,0-16.3343,16.2007q-.0015.37.0138.74v.1565a16.5245,16.5245,0,0,0,15.9451,17.0843q.2642.009.5286.01a16.2677,16.2677,0,0,0,16.3345-16.2007q.0015-.37-.0138-.74ZM645.54,238.04h11.0369l25.4872,33.4935V238.04h11.8134v54.3974h-10.18l-26.3439-34.5808v34.5808H645.54ZM704.6807,284.51l7.0733-8.47a24.9528,24.9528,0,0,0,16.24,6.6065c4.8967,0,7.85-1.9432,7.85-5.13V277.36c0-3.03-1.8664-4.5834-10.96-6.9138-10.957-2.8-18.0272-5.83-18.0272-16.63V253.66c0-9.87,7.9267-16.397,19.04-16.397a31.4873,31.4873,0,0,1,20.2038,6.9167l-6.2168,9.0136a25.54,25.54,0,0,0-14.1435-5.36c-4.5833,0-6.9936,2.0969-6.9936,4.74v.1538c0,3.5765,2.33,4.74,11.7336,7.15,11.0337,2.8765,17.25,6.84,17.25,16.32v.1538c0,10.8034-8.2372,16.8637-19.97,16.8637a34.6133,34.6133,0,0,1-23.08-8.7039Z" fill="#fff"/>
    <path d="M813.704,297.3945c-14.2987-3.3782-25.9208-16.3126-32.7372-36.4178a128.27,128.27,0,0,1-3.33-64.3131A176.9347,176.9347,0,0,1,802.2028,130.95a118.5681,118.5681,0,0,1,98.1177-56.3081,6.1951,6.1951,0,0,1,.6474-.0333c2.0535,0,2.9488.9951,3.1,1.9265.3328,2.0414-2.371,3.7682-8.0384,5.1381-32.87,7.93-61.3526,30.454-71.4625,47.62l.4325.42a60.6589,60.6589,0,0,1,28.3823-10.3943s.8951-.0181.9768.1936l.1.0454.1059-.03a3.9,3.9,0,0,1,.4506-.0726c.0907-.0122.1634-.0212.2359-.0242l.218-.0061c.1329,0,.2659.0061.39.0181.5324.0423,1.0828.1026,1.6361.1695.5444.0634,1.0949.139,1.6421.2267.8831.1421,1.7541.3176,2.6252.5081l.6923.16c.756.1786,1.5121.3752,2.2589.5927l.3539.1c.8347.2481,1.6667.5324,2.4951.8286l.5414.2056c.7893.2995,1.4667.5746,2.1381.865l.5081.218c.7955.3568,1.5878.738,2.3681,1.1431l.5746.3085c.6382.3387,1.2641.6923,1.8841,1.0586l.5807.3446c.7469.4567,1.4909.9375,2.2258,1.4427l.46.3295c.6079.4266,1.2066.8711,1.7964,1.3277l.5836.4537c.7017.5624,1.4,1.1431,2.0834,1.748l.2842.2628q.9029.8121,1.7722,1.6755l.5414.5412c.6442.6563,1.282,1.3277,1.9022,2.0232l.1542.1755c.623.7045,1.2007,1.391,1.7663,2.0926l.4715.59q.88,1.12,1.7269,2.3012l.124.1786c.5776.8286,1.0705,1.57,1.5513,2.3226l.4143.6532q.7757,1.2476,1.5092,2.5554l.2266.4173c.4265.78.8379,1.57,1.2371,2.3741l.3477.7016c.4384.9134.8679,1.8479,1.2763,2.8006l.2208.5384q.5215,1.252,1.0039,2.5434l.2723.7287c.36.992.7016,2.0081,1.0252,3.0394l.1937.6474c.272.8982.5292,1.8055.771,2.7279l.1965.7409q.4086,1.61.7561,3.2752l.1453.7348c.1935.9708.3689,1.9476.532,2.9366l.118.7289c.1785,1.1461.3327,2.3166.4658,3.502l.0877.8227q.1633,1.56.2721,3.1632l.0512.68c.0756,1.2244.127,2.4707.1539,3.7288l.0152.8952c.0151,1.1282.0151,2.2682-.009,3.42l-.0061.5988c-.0333,1.2974-.0967,2.6159-.1783,3.95l-.0667.9527q-.1316,1.8461-.3236,3.7226l-.0455.4718c-.1511,1.3671-.3326,2.7581-.5352,4.1615l-.1539,1.0161c-.2056,1.3459-.4295,2.7007-.6895,4.0705l-.0484.2722c-.272,1.4422-.5833,2.9032-.9133,4.37l-.2479,1.0735c-.3448,1.4728-.7077,2.9578-1.11,4.4608-9.9467,43.8149-51.5178,81.3548-78.5754,81.3577h-.0122a25.8166,25.8166,0,0,1-4.3095-.3507" fill="#fff"/>
    <path d="M862.8879,118.4085c25.2618,6.173,40.6282,30.2352,43.3327,54.823a127.4745,127.4745,0,0,1-52.5945,115.4828c-18.9726,13.61-40.2629,17.4326-57.6645,1.2443-19.6112-18.2436-24.2862-49.7163-22.8-75.1251,2.9225-49.9495,27.3874-104.1556,73.2521-128.1984a124.38,124.38,0,0,1,36.58-12.1886,96.65,96.65,0,0,1,19.7961-1.76c6.4174.5079,4.4794,7.883-1.3824,9.521-5.8286,1.6287-11.8776,3.3215-17.5813,5.3993a132.0845,132.0845,0,0,0-21.4251,10.1083,113.0824,113.0824,0,0,0-31.2649,25.9181A45.6138,45.6138,0,0,1,862.8879,118.4085Zm38.0805-41.657a3.7413,3.7413,0,0,0-.4312.0237,116.5664,116.5664,0,0,0-96.53,55.3338,174.7856,174.7856,0,0,0-24.2588,64.9116,126.1613,126.1613,0,0,0,3.2487,63.2666c6.5623,19.3563,17.6433,31.7928,31.2021,35.0208a30.6269,30.6269,0,0,0,7.8234,1.0219c26.2553-.003,66.7131-36.778,76.4562-79.6931.4134-1.5594.7708-3.0183,1.1075-4.4684l.2481-1.0721c.3219-1.43.632-2.8677.8978-4.2821.3042-1.6214.5227-2.95.7265-4.2735l.1539-1.01c.1949-1.3644.3751-2.7318.5227-4.0756l.0414-.44c.13-1.2463.2333-2.466.3189-3.674l.065-.9451c.08-1.2935.1448-2.5871.1771-3.857l.0059-.5671c.0207-1.1518.0207-2.2681.0089-3.3727l-.0148-.886c-.0265-1.22-.08-2.44-.1505-3.6356l-.05-.641c-.0708-1.0661-.1594-2.0939-.2687-3.1069l-.0856-.8181c-.13-1.1459-.2807-2.2858-.4519-3.4022l-.1155-.7147c-.1595-.9569-.3308-1.9138-.52-2.8618l-.1447-.73c-.2215-1.0662-.4667-2.1264-.7324-3.166l-.1923-.73c-.2334-.8948-.4844-1.7779-.7472-2.6521l-.1979-.65c-.3042-.9776-.6379-1.964-.9864-2.9238l-.2659-.7147c-.31-.8358-.6349-1.6539-.9743-2.4661l-.2244-.5464c-.3839-.9007-.8033-1.8045-1.2286-2.6934l-.3308-.67c-.387-.7768-.7855-1.5449-1.1987-2.2977l-.2334-.4312c-.4548-.8181-.9423-1.6391-1.4412-2.4423l-.4046-.6321c-.4637-.73-.9392-1.4471-1.4974-2.2445-.6557-.9274-1.2139-1.6657-1.7809-2.3834l-.4637-.5847c-.5346-.6586-1.09-1.3231-1.6924-2.0024-.75-.8388-1.3644-1.4885-1.9876-2.1235l-.5228-.5227c-.5463-.5375-1.11-1.075-1.6863-1.5948l-.31-.2865c-.62-.5464-1.2906-1.1046-1.9669-1.645l-.5641-.44c-.5524-.4252-1.1252-.8535-1.707-1.258l-.4844-.3515c-.6615-.4519-1.37-.9126-2.0851-1.3468l-.561-.3337c-.5878-.3455-1.1844-.6852-1.7927-1.0041l-.5907-.322c-.7115-.3691-1.4708-.7323-2.23-1.072l-.4754-.2067c-.6469-.2777-1.2966-.54-2.0556-.83l-.5316-.2008c-.759-.2747-1.55-.5434-2.3479-.78l-.3308-.0945c-.7294-.21-1.4589-.3928-2.1854-.573l-.0916-.0207a28.0937,28.0937,0,0,0-7.9679-.9568,52.2129,52.2129,0,0,0-27.72,9.9025l-1.4383.9333-2.8529-2.7968.8506-1.4442c10.3338-17.5488,39.3622-40.5494,72.8059-48.6121,5.6-1.3556,6.3587-2.6255,6.4236-2.7584C901.9135,76.911,901.6093,76.7515,900.9684,76.7515Z" fill="#fff"/>
    <path d="M900.3923,75.9426C800.33,81.6131,782.0028,178.5306,778.909,196.8967c0,0,.0454-.2.1363-.5687l-.0093.0513c-.0423.1692-.0877.3417-.127.5172l.1-.3932c-.0574.3114-.1179.6169-.1753.9285.0271-.1817.0483-.357.0755-.5353-9.0061,45.0427,6.3718,93.8658,36.4843,99.56a2.4763,2.4763,0,0,0,.3236.0364c.3961.0512.5962-.0213.6745-.1573l.1025.0393a1.35,1.35,0,0,0,.6743.3266,3.2959,3.2959,0,0,0,.3992.0876l.0454.0064c26.6161,4.8238,71.653-35.68,81.6934-79.9936l.0362-.1543.0483-.1814c.2027-.7923.3932-1.5757.5807-2.359-.2056.8952-.42,1.7934-.6652,2.6945,9.52-35.3654,2.35-63.4179-12.4236-79.9122a47.3247,47.3247,0,0,0-27.9468-15.7621c-.532-.0848-1.0647-.1573-1.6-.2208-.5351-.0667-1.0674-.1211-1.6057-.1663a2.2936,2.2936,0,0,0-1.5727.3689c.012-.2057-.1875-.42-.5475-.4688l-.0512.0029-.0968-.021a63.2109,63.2109,0,0,0-32.6889,13.621c5.5647-15.8046,35.8673-44.4107,74.9551-53.84,8.973-2.1653,8.0384-4.7752,4.6635-4.4609" fill="#fff"/>
    <g clip-path="url(#clip-path)">
      <polygon points="721.455 137.385 895.404 79.821 958.66 283.442 784.712 341.006 721.455 137.385" fill="url(#radial-gradient)"/>
    </g>
    <g clip-path="url(#clip-path-2)">
      <polygon points="742.122 126.532 851.519 107.058 883.724 291.122 774.333 310.59 742.122 126.532" fill="url(#radial-gradient-2)"/>
    </g>
    <g clip-path="url(#clip-path-3)">
      <polygon points="776.744 126.545 912.385 102.397 945.474 291.494 809.833 315.635 776.744 126.545" fill="url(#radial-gradient-3)"/>
    </g>
    <g clip-path="url(#clip-path-4)">
      <polygon points="785.25 213.199 894.186 188.615 922.788 296.321 813.846 320.904 785.25 213.199" fill="url(#radial-gradient-4)"/>
    </g>
    <g clip-path="url(#clip-path-5)">
      <polygon points="752.692 198.769 815.814 191.904 833.904 294.833 770.782 301.692 752.692 198.769" fill="url(#radial-gradient-5)"/>
    </g>
    <g clip-path="url(#clip-path-6)">
      <polygon points="792.077 126.16 908.276 99.936 937.865 211.372 821.667 237.596 792.077 126.16" fill="url(#radial-gradient-6)"/>
    </g>
    <g clip-path="url(#clip-path-7)">
      <polygon points="756.513 79.904 900.423 54.288 926.603 203.91 782.699 229.526 756.513 79.904" fill="url(#radial-gradient-7)"/>
    </g>
    <path d="M190.47,69.7751c-8.82,8.3283-29.105,16.19-64.3962,3.6917S81.6859,80.9383,81.6859,88.17a12.1057,12.1057,0,0,0,13.4185,13.0531A12.438,12.438,0,0,0,107.25,89.9973a22.2918,22.2918,0,0,0-3.3013-9.374c8.0007,0,9.6891,0,33.59,11.1631,15.1194,6.8668,41.4146,19.4033,63.2748-2.0033A67.9677,67.9677,0,0,0,190.47,69.7751ZM95.1045,94.42a4.435,4.435,0,1,1,4.435-4.435h0a4.435,4.435,0,0,1-4.435,4.435Z" fill="#fcc978"/>
    <path d="M191.6042,96.7381a118.8643,118.8643,0,0,1-26.711,95.7564c-8.5425,11.1127-9.1474,16.0392-6.1108,20.8141a38.6283,38.6283,0,0,1-24.8589,1.3985,26.1163,26.1163,0,0,1-3.44-7.03,104.9306,104.9306,0,0,0,26.6987-30.6294,123.7547,123.7547,0,0,0,19.6424-75.6727A41.413,41.413,0,0,0,191.6042,96.7381Z" fill="#fcc978"/>
    <path d="M175.2628,100.9085,145.1876,169.45q.4409.6552.9071,1.26l.1638.0757,30.7555-70.0912A17.496,17.496,0,0,1,175.2628,100.9085Z" fill="#fcc978"/>
    <path d="M141.66,163.4525q.441.8442.92,1.701l28.16-64.182-1.6379-.0882Z" fill="#fcc978"/>
    <path d="M138.4216,156.7874l.8568,1.8521L164.83,100.4172l-1.5623-.2646Z" fill="#fcc978"/>
    <path d="M135.2087,150.0845l.8568,1.84,23.1076-52.6536-1.4994-.3906Z" fill="#fcc978"/>
    <path d="M132.0715,143.1925l.8441,1.8774L153.7174,97.67l-1.4487-.4914Z" fill="#fcc978"/>
    <path d="M128.9594,136.225l.8442,1.89L148.413,95.7175l-1.4237-.5544Z" fill="#fcc978"/>
    <path d="M125.8725,129.2322l.8315,1.9026,16.5054-37.61-1.3985-.6174Z" fill="#fcc978"/>
    <path d="M136.67,90.59l-13.8595,31.6119.8316,1.9151,14.4264-32.8722-.2142-.1008Z" fill="#fcc978"/>
    <path d="M119.7365,115.1586l.8316,1.9151,12.3853-28.21-1.386-.6426Z" fill="#fcc978"/>
    <path d="M116.6749,108.09l.8315,1.9151,10.3064-23.4982-1.3985-.63Z" fill="#fcc978"/>
    <path d="M113.6132,101.0849,114.4447,103l8.2024-18.6977-1.4112-.5922Z" fill="#fcc978"/>
    <path d="M103.9619,80.6107c1.6632.8316,4.3846,1.7387,8.0513,9.626,0,0,23.3091,52.3762,28.6387,63.3756,0,0,8.4039,19.6426,16.53,23.4981a99.64,99.64,0,0,1-31.4987,34.0187.4535.4535,0,0,1-.7436-.2268c-10.2436-23.5107-17.9418-64.1064-28.5757-105.42-1.0584-4.0948-2.52-4.246-3.4649-4.3216C92.8113,101.0849,112.328,100.2156,103.9619,80.6107Z" fill="#fcc978"/>
    <g clip-path="url(#clip-path-8)">
      <path d="M176.4217,91.4337a33.9,33.9,0,0,1,3.5405,1.4111c1.1591.5166,2.3057,1.0206,3.49,1.4238a11.3388,11.3388,0,0,0,3.616.6677,12.7506,12.7506,0,0,0,3.6411-.6425c1.1969-.3654,2.3686-.8316,3.54-1.26s2.18-.8694,3.3137-1.26c1.0583-1.0709,1.6631-1.7639,1.6631-1.7639v-.126l-1.1717.34c-1.1844.3906-2.3561.8568-3.5405,1.26s-2.3687.92-3.5909,1.26a13.3844,13.3844,0,0,1-3.78.6426,11.8309,11.8309,0,0,1-3.78-.718,36.8871,36.8871,0,0,1-3.5278-1.4615l-1.4488-.6426.6174-.29,1.0457.4536c1.1592.5166,2.3057,1.02,3.49,1.4237a11.339,11.339,0,0,0,3.6161.6678,12.7259,12.7259,0,0,0,3.641-.6426c1.1969-.3653,2.3687-.8316,3.54-1.26s2.3435-.945,3.5657-1.3482l1.1592-.34-.4536-1.26-.504.1512c-1.1844.3906-2.3561.8567-3.5405,1.26s-2.3687.92-3.5908,1.26a13.37,13.37,0,0,1-3.78.6426,11.882,11.882,0,0,1-3.78-.718c-.97-.3275-1.9025-.7307-2.8222-1.1465l.5544-.3276c.8064.3525,1.6127.68,2.4316.9575a11.3391,11.3391,0,0,0,3.6161.6679,12.7357,12.7357,0,0,0,3.641-.6427c1.197-.3654,2.3688-.8315,3.54-1.26s2.3434-.9449,3.5656-1.3481l.4914-.1513-.4788-1.26c-1.1214.3782-2.23.8064-3.3514,1.26a34.4039,34.4039,0,0,1-3.5909,1.26,13.3555,13.3555,0,0,1-3.78.6426,11.8929,11.8929,0,0,1-3.78-.718l-.8945-.3275.5165-.3782.5544.2016a11.3416,11.3416,0,0,0,3.616.6678,12.8012,12.8012,0,0,0,3.6411-.6426c1.197-.3654,2.3687-.8316,3.54-1.26s2.2052-.882,3.3515-1.26l-.4913-1.26c-.882.315-1.7514.6552-2.6334.9954a35.6612,35.6612,0,0,1-3.5908,1.26,13.3807,13.3807,0,0,1-3.78.6425,10.7566,10.7566,0,0,1-2.8853-.441l.4788-.4409a9.91,9.91,0,0,0,2.4065.315,12.8144,12.8144,0,0,0,3.641-.6426c1.197-.3654,2.3688-.8316,3.5405-1.26.8694-.34,1.7387-.68,2.6207-1.008l-.5166-1.26-1.8773.718c-1.1717.4535-2.3687.92-3.5909,1.26a13.37,13.37,0,0,1-3.78.6426,9.59,9.59,0,0,1-1.1717-.0882l.4536-.5166h.7179a12.8157,12.8157,0,0,0,3.6411-.6426c1.1969-.3654,2.3687-.8315,3.54-1.26l1.8521-.7308-.5418-1.1844-1.0962.4284c-1.1717.4535-2.3687.92-3.5908,1.26a14.1638,14.1638,0,0,1-3.3893.63l.4158-.5922a14.4026,14.4026,0,0,0,2.81-.5922c1.1969-.3653,2.3687-.8315,3.54-1.26l1.0583-.4158-.567-1.1717-.2646.1008a35.6358,35.6358,0,0,1-3.5908,1.26,17.2594,17.2594,0,0,1-1.9907.4788l.34-.6551c.4913-.1009.9827-.2395,1.4743-.3906,1.197-.3654,2.3687-.8316,3.5405-1.26l.2268-.0882-.5922-1.1591c-.9828.3782-1.9781.7436-2.986,1.0583l-.882.2394.2771-.6678.441-.1259c.97-.3025,1.9278-.6552,2.8727-1.0332l-.6426-1.1592c-.68.252-1.3733.504-2.0663.7056h0c.0756-.2394.1386-.4662.2016-.68q.8125-.2644,1.6253-.5669-.3654-.63-.6929-1.1718l-.567.189V73.341l.2016-.0756c-.3906-.6174-.7436-1.1214-1.0206-1.5119-5.2162,33.2249-53.5983,15.006-68.3776,9.0716C93.8433,70.33,88.9044,85.3105,88.9044,85.3105a11.9192,11.9192,0,0,1,15.3336-4.9642c16.9338,0,39.9657,23.1831,72.0064,23.1831a29.4936,29.4936,0,0,0,16.6953-7.56l-.4914.2772-1.26.4284a13.4212,13.4212,0,0,1-3.78.6426,11.819,11.819,0,0,1-3.78-.718,36.9254,36.9254,0,0,1-3.5279-1.4615,34.1123,34.1123,0,0,0-3.49-1.4112A9.4245,9.4245,0,0,0,172.97,93.21a15.4706,15.4706,0,0,0-3.641.7811c-1.197.3906-2.3687.8568-3.5405,1.26s-2.3687.92-3.5782,1.26a13.3044,13.3044,0,0,1-3.78.6426,11.78,11.78,0,0,1-3.78-.7179,35.3457,35.3457,0,0,1-3.5152-1.4616,33.7606,33.7606,0,0,0-3.49-1.4237,9.4515,9.4515,0,0,0-3.6791-.5166,11.0866,11.0866,0,0,0-1.9786.2891l-.3906-.1764a12.0251,12.0251,0,0,1,2.3561-.4032,9.8019,9.8019,0,0,1,3.78.5039,34.3326,34.3326,0,0,1,3.5405,1.4112c1.1591.5165,2.3056,1.02,3.49,1.4237a11.4778,11.4778,0,0,0,3.6538.68,12.8988,12.8988,0,0,0,3.6667-.6426c1.26-.3654,2.3687-.8316,3.5405-1.26s2.3435-.9449,3.553-1.3481a15.7588,15.7588,0,0,1,3.78-.8315,9.9166,9.9166,0,0,1,3.78.5165,34.4615,34.4615,0,0,1,3.54,1.4111c1.1592.5167,2.3057,1.0206,3.49,1.4238a11.3389,11.3389,0,0,0,3.616.6678,12.7755,12.7755,0,0,0,3.641-.6426c1.0584-.3276,2.0916-.7179,3.1248-1.134,1.0079-.8693,1.9025-1.6883,2.6584-2.4191l-2.0285.7812c-1.1717.4535-2.3687.92-3.5908,1.26a13.3555,13.3555,0,0,1-3.78.6426,11.8283,11.8283,0,0,1-3.78-.718,36.9343,36.9343,0,0,1-3.5278-1.4615,33.8647,33.8647,0,0,0-3.49-1.4112l-.7685-.2267.8316-.2772Zm-.4032,10.08-1.02.063a8.2892,8.2892,0,0,0-2.3561-.126,11.4346,11.4346,0,0,0-1.3734.2142h-1.55a14.2191,14.2191,0,0,1,2.8853-.6174,9.9052,9.9052,0,0,1,3.78.441h.0882Zm2.9609-.4157a27.4127,27.4127,0,0,0-2.7088-1.0711A9.4261,9.4261,0,0,0,172.63,99.51a15.4028,15.4028,0,0,0-3.641.7812c-.9324.3023-1.8522.6551-2.7719,1.0079h-.4284l-.441-.063c1.1466-.4535,2.3057-.92,3.49-1.26a15.9159,15.9159,0,0,1,3.78-.8315,9.9166,9.9166,0,0,1,3.78.5165,31.8923,31.8923,0,0,1,3.3012,1.26Zm2.6837-.8568-1.9151-.7938a34.15,34.15,0,0,0-3.49-1.4112,9.3986,9.3986,0,0,0-3.641-.5165,15.3768,15.3768,0,0,0-3.641.7811c-1.197.3906-2.3687.8568-3.5405,1.26s-2.0285.7811-3.0617,1.1214l-.8063-.1639h.1762c1.26-.3653,2.3687-.8315,3.54-1.26s2.3435-.9449,3.5531-1.3481a15.8252,15.8252,0,0,1,3.78-.8316,9.94,9.94,0,0,1,3.78.5166,34.4615,34.4615,0,0,1,3.54,1.4111c.819.3654,1.638.7308,2.52,1.0457Zm-34.2707-4.813a34.0058,34.0058,0,0,1,3.54,1.4111c1.1591.5165,2.3057,1.02,3.49,1.4237a11.4389,11.4389,0,0,0,3.6539.68,12.891,12.891,0,0,0,3.6667-.6425c1.26-.3654,2.3687-.8316,3.54-1.26s2.3435-.945,3.5531-1.3482a15.815,15.815,0,0,1,3.78-.8315,9.8884,9.8884,0,0,1,3.78.5166,34.5178,34.5178,0,0,1,3.54,1.4111c1.1592.5166,2.3057,1.02,3.49,1.4237a13.3594,13.3594,0,0,0,2.2553.567l-1.0332.3526a13.4369,13.4369,0,0,1-1.386-.4158,36.9129,36.9129,0,0,1-3.5278-1.4615,33.8416,33.8416,0,0,0-3.49-1.4111,9.4241,9.4241,0,0,0-3.641-.5166,15.3709,15.3709,0,0,0-3.641.7812c-1.197.3905-2.3688.8567-3.5405,1.26s-2.3687.92-3.5783,1.26a13.315,13.315,0,0,1-3.78.6427,9.61,9.61,0,0,1-1.26-.1008,13.56,13.56,0,0,1-2.52-.6174c-.6551-.2268-1.26-.4788-1.9277-.7559l-1.5881-.6174a34.02,34.02,0,0,0-3.49-1.4237,13.8625,13.8625,0,0,0-1.701-.4158l-.9828-.4032a11.9606,11.9606,0,0,1,2.7972.5418Zm7.0307-3.1622h0a11.4663,11.4663,0,0,0,3.6538.68,10.258,10.258,0,0,0,1.7135-.1638l1.4238.0756a12.1564,12.1564,0,0,1-3.1247.4535,11.78,11.78,0,0,1-3.78-.7179c-.4661-.1638-.9324-.34-1.386-.5292ZM129.0854,87.1a13.0037,13.0037,0,0,1-2.1167-.2267l-.882-.3906h0a13.6052,13.6052,0,0,0,2.9735.4158h0a11.4283,11.4283,0,0,0,2.7089-.3782h0l.2772.1008h.1134a12.0335,12.0335,0,0,1-3.0491.441h0Zm2.3183,1.7766h0l-.3024-.1385h0a16.9393,16.9393,0,0,0,1.7136-.4411c.6047-.1889,1.26-.4157,2.0284-.7056h.34c-.92.3526-1.638.5922-2.3057.7938s-1.008.441-1.4744.5418Zm2.6963,1.26h-.0756l-.2772-.126h.0756c.8442-.29,1.6757-.6174,2.52-.9576l1.26-.5166h.1261l.252.0756h0l-1.4112.5418-.189.0755c-.7307.29-1.512.5922-2.2931.8568h0Zm2.4569,1.1465h0l-.29-.1386h.0882l.3024-.1259c1.0583-.4158,2.1544-.8568,3.2506-1.26l.9072-.2772h0l.4535.126h-.063c-.4157.1134-.8442.2394-1.26.3906-1.1213.3654-2.1419.756-3.2128,1.1844Zm28.891,2.2427a37.6975,37.6975,0,0,1-3.5782,1.26,13.2827,13.2827,0,0,1-3.78.6426,11.8305,11.8305,0,0,1-3.78-.718,35.3705,35.3705,0,0,1-3.5153-1.4615,33.9969,33.9969,0,0,0-3.49-1.4237,9.4976,9.4976,0,0,0-3.6791-.5166,15.5165,15.5165,0,0,0-3.6667.7811l-1.1213.3906-.315-.1512,1.3607-.4787a15.6922,15.6922,0,0,1,3.78-.819,9.7632,9.7632,0,0,1,3.78.504,34.1786,34.1786,0,0,1,3.54,1.411c1.1591.5167,2.3057,1.0206,3.49,1.4238a11.4128,11.4128,0,0,0,3.6539.68,12.891,12.891,0,0,0,3.6667-.6425c1.26-.3654,2.3687-.8317,3.54-1.26l.189-.0756h1.1717Z" fill="#31251c"/>
    </g>
    <g clip-path="url(#clip-path-9)">
      <g>
        <path d="M191.894,97.3051c-.34.1764-.504.2394-.945.441.189,6.7407-.9323,6.8163-6.4257,8.5424-6.93,2.3435-6.4762.3782-8.2527,17.1228V99.9387l15.6108-4.0949v1.4616Z" fill="#31251c"/>
        <path d="M132.8148,210.8267c1.26-.3653,2.3814-.8316,3.5531-1.26s2.3435-.945,3.5531-1.3482a15.7084,15.7084,0,0,1,3.78-.8189,7.75,7.75,0,0,1,1.26,0c.29-.4914.6173-1.0332,1.02-1.6254a8.2166,8.2166,0,0,0-2.2175-.1386,15.6484,15.6484,0,0,0-3.6667.7938c-1.26.3906-2.3687.8568-3.5531,1.26s-2.3561.92-3.5782,1.26l-.3654.1134.3024-.2521.1007-.0755c1.1718-.3654,2.3183-.819,3.4649-1.26s2.3435-.945,3.5531-1.3481a15.7827,15.7827,0,0,1,3.78-.819,8.6159,8.6159,0,0,1,2.4192.1511c.315-.4535.6677-.9449,1.0709-1.4615a9.2972,9.2972,0,0,0-3.4649-.4535,15.4081,15.4081,0,0,0-3.6666.7937c-1.1592.3782-2.2932.819-3.4271,1.26l.5418-.4662c.92-.3654,1.8521-.7308,2.81-1.0457a15.7739,15.7739,0,0,1,3.78-.819,9.7124,9.7124,0,0,1,3.679.4788c.3276-.4158.68-.8694,1.071-1.3482-.3526-.1386-.693-.2646-1.0583-.3782a9.4865,9.4865,0,0,0-3.6792-.5165,14.269,14.269,0,0,0-3.0112.5922l.4661-.4032a13.5784,13.5784,0,0,1,2.52-.4662,9.7882,9.7882,0,0,1,3.78.504q.5859.189,1.1718.4157l1.0583-1.26c-.7685-.3275-1.5371-.6425-2.3183-.9071a9.5381,9.5381,0,0,0-3.6538-.5166l.34-.3023a10.182,10.182,0,0,1,3.4019.5291,26.2,26.2,0,0,1,2.457.9324l1.0583-1.26h-.1134a34.2636,34.2636,0,0,0-3.49-1.4238,12.0219,12.0219,0,0,0-1.4743-.3782l.2771-.2395a12.777,12.777,0,0,1,1.26.34,34.6512,34.6512,0,0,1,3.5405,1.4112l.2016.0882,1.0833-1.26-1.4237-.63a23.577,23.577,0,0,0-3.1877-1.26l.2646-.2268c1.0457.3654,2.0537.8064,3.0491,1.26l1.5245.6677,1.1214-1.26c-.945-.3654-1.8648-.7812-2.7845-1.1844l-1.5749-.6929.0882-.2521,1.4487.63c.9575.4284,1.9277.8568,2.91,1.26l1.1844-1.26-.7056-.2268a35.3688,35.3688,0,0,1-3.5152-1.4615h0l.2646-.2394c1.1213.504,2.2427.9954,3.4018,1.3859l.8694.2646,1.26-1.3859a13.72,13.72,0,0,1-2.3056-.5922c-.693-.2394-1.3734-.5166-2.0412-.8064l.2772-.252c.6174.2646,1.26.5165,1.8773.7308a13.3468,13.3468,0,0,0,2.52.5922l1.5371-1.6h-.3782a11.7406,11.7406,0,0,1-3.78-.7179l-.504-.189.29-.2646.34.1134a11.34,11.34,0,0,0,3.6539.68h.7811l1.953-2.0789a11.5918,11.5918,0,0,1-2.6837.34,10.4826,10.4826,0,0,1-2.6459-.3783l.3023-.29a10.0762,10.0762,0,0,0,2.3435.29,12.0673,12.0673,0,0,0,3.1891-.5035q1.0457-1.109,2.1671-2.3309c-.5166.189-1.0458.3654-1.575.5292a13.25,13.25,0,0,1-3.78.6426q-.4407.0221-.882,0l.34-.34h.5418a12.837,12.837,0,0,0,3.6666-.6425c.7686-.2395,1.5246-.5166,2.2806-.8064.7055-.7812,1.4111-1.5876,2.1419-2.4318l-.7307.2773a35.4068,35.4068,0,0,1-3.5783,1.26,15.5731,15.5731,0,0,1-2.6333.567l.4284-.441a16.48,16.48,0,0,0,2.0915-.504c1.26-.3654,2.3687-.8316,3.54-1.26l1.4615-.5795q.9324-1.0962,1.8773-2.2679c-1.0709.3654-2.1293.7812-3.1876,1.197s-2.3561.92-3.5783,1.26l-.2646.0756.5166-.58c1.071-.3525,2.1167-.7559,3.1751-1.1717s2.356-.945,3.553-1.3482l.29-.0882q.7812-.9827,1.5623-2.0159c-.5795.1386-1.1465.3024-1.7134.4788-1.197.3906-2.3687.8567-3.54,1.26l-1.26.4914.5544-.6551.58-.2268c1.1717-.4662,2.3561-.945,3.5531-1.3482a19.265,19.265,0,0,1,2.28-.6173q.6552-.8694,1.26-1.764a15.8844,15.8844,0,0,0-3.44.7686c-.7811.252-1.5623.5418-2.3435.8442l.5292-.6678c.5544-.2142,1.109-.4157,1.6757-.6048a15.7792,15.7792,0,0,1,3.78-.8314h.1764l1.0834-1.5623a7.818,7.818,0,0,0-1.26,0,15.4858,15.4858,0,0,0-3.641.7812h-.1261l.4662-.6174a14.8719,14.8719,0,0,1,3.2756-.68,8.221,8.221,0,0,1,1.5749,0L175.1741,171a8.4438,8.4438,0,0,0-2.52-.2016,12.3243,12.3243,0,0,0-1.8647.29l.3906-.5544a11.9213,11.9213,0,0,1,1.4363-.2016,9.0239,9.0239,0,0,1,2.7845.2268l.8315-1.26a9.3741,9.3741,0,0,0-3.5908-.504h-.252l.34-.4914a9.9794,9.9794,0,0,1,3.7043.5166h.063l.756-1.26-.97-.3525a10.6347,10.6347,0,0,0-2.52-.5166l.29-.4535a11.335,11.335,0,0,1,2.356.5039c.3654.1134.7308.252,1.0834.3782l.7056-1.26c-.6426-.2646-1.26-.5292-1.94-.7436a12.6666,12.6666,0,0,0-1.26-.34l.2773-.4284a11.3982,11.3982,0,0,1,1.1717.315c.693.2142,1.3733.4914,2.0411.7685l.6678-1.26a28.7574,28.7574,0,0,0-2.86-1.134h-.2016l.2646-.4283h.0882a29.1569,29.1569,0,0,1,2.9609,1.1591l.6426-1.26-.2646-.1133c-.882-.3906-1.7765-.7938-2.6711-1.134l.252-.441c.8946.3276,1.7639.7179,2.6333,1.0962l.29.126.6174-1.26-1.1591-.2269-1.7136-.756.2521-.441,1.6757.7308,1.1339.504.5922-1.26c-.6551-.2772-1.26-.567-1.94-.8442l-.8064-.3525.2394-.4536.7686.34,1.9528.8442.58-1.26c-.9072-.3526-1.7892-.7436-2.6585-1.134l.2394-.4535c.882.3905,1.7514.7685,2.6333,1.1089l.5544-1.26a22.87,22.87,0,0,1-2.52-1.0457l.2394-.4662c.8316.3654,1.6757.7179,2.52.9954h0l.5417-1.26-.7435-.2268c-.5922-.2016-1.1844-.441-1.7514-.68l.2268-.4788q.8316.359,1.7009.6425l.7686.2395.5292-1.3482q-.7434-.1764-1.4744-.4284l-.9449-.3525.2268-.4788.8945.315a14.812,14.812,0,0,0,1.4867.4158l.504-1.386a14.0927,14.0927,0,0,1-2.1671-.567h-.1386l.2142-.4914h.1008a13.397,13.397,0,0,0,2.1923.5418l.4914-1.4238a12.3071,12.3071,0,0,1-2.2175-.4535l.2142-.504a11.4189,11.4189,0,0,0,2.18.4158q.2394-.7179.4662-1.4616a10.6042,10.6042,0,0,1-2.0916-.3024l.2143-.5165a9.8163,9.8163,0,0,0,2.0537.2645q.2268-.7435.441-1.4867h-.3024a9.8741,9.8741,0,0,1-1.65-.1512l.2016-.5292a9.1036,9.1036,0,0,0,1.4487.1134h.4788q.2143-.7435.4157-1.5119h-.882a9.292,9.292,0,0,1-.9323,0l.189-.5418h.7308a9.1229,9.1229,0,0,0,1.0331-.063c.1261-.504.252-1.008.3782-1.5245a10.1855,10.1855,0,0,1-1.4111.1007h-.2142l.189-.5544h0a10.0742,10.0742,0,0,0,1.5623-.1385q.1764-.756.3526-1.5246a10.9942,10.9942,0,0,1-1.4364.1764l.189-.5795a11.5421,11.5421,0,0,0,1.3859-.2016c.1134-.504.2142-1.008.315-1.5246a12.1634,12.1634,0,0,1-1.26.2016l.1764-.5921a5.5,5.5,0,0,0,1.1718-.2268q.1512-.756.2772-1.5245l-1.0079.2016.1638-.6048.9449-.2143c.0882-.5039.1638-1.0079.252-1.5119l-.7938.189.1512-.63.7308-.189c.0756-.504.1512-.9954.2142-1.512l-.567.1512.1512-.63.4914-.1385q.1008-.7435.189-1.4867l-.34.1008.1386-.6427h.2771a121.63,121.63,0,0,0,.58-18.5464,114.5939,114.5939,0,0,1-39.7137,82.1236c4.498-5.758,3.2633-8.82,6.5517-15.1194,0,0-18.9622,27.2024-28.5256,31.9272l1.26,2.7214c.2395-.1386.7561-.5543.8946-.29s.3526.6678.7686,1.3608Z" fill="#31251c"/>
        <path d="M143.663,207.639a15.4751,15.4751,0,0,0-3.6667.7938c-1.26.3906-2.3687.8568-3.553,1.26s-2.3561.92-3.5783,1.26h-.126c.29.4662.6173.9828.9828,1.4993.8819-.3024,1.7513-.6425,2.6206-.9954,1.1718-.4661,2.3435-.9449,3.5531-1.3355a15.7237,15.7237,0,0,1,3.78-.819h.1638c.2646-.567.5543-1.1339.8945-1.7639A7.581,7.581,0,0,0,143.663,207.639Z" fill="#31251c"/>
        <path d="M139.921,212.2756a17.8346,17.8346,0,0,1,2.86-.7179c.34-.6678.6174-1.26.8946-1.8648h0a15.5216,15.5216,0,0,0-3.6667.7812c-1.26.3906-2.3687.8567-3.5531,1.26-.8568.3276-1.7135.6552-2.52.9576l.1386.1764a9.8533,9.8533,0,0,0,2.91.4788C137.9051,213.0064,138.9,212.6158,139.921,212.2756Z" fill="#31251c"/>
        <path d="M140.0092,212.5151c-.819.2645-1.638.567-2.4444.882a13.3455,13.3455,0,0,0,4.2838-.819,1.4366,1.4366,0,0,0,.7812-.7308A18.0321,18.0321,0,0,0,140.0092,212.5151Z" fill="#31251c"/>
      </g>
    </g>
    <path d="M132.2353,204.1238a31.96,31.96,0,0,1-3.8681,2.9231c-1.26.8064-2.5955,0-3.9184-2.4065a163.0343,163.0343,0,0,1-7.1187-20.575c1.26,2.52,5.4679,13.6327,8.303,19.58.8946,1.55,1.6,2.7341,3.8429,1.7262Z" fill="#31251c"/>
    <path d="M99.64,115.1334c.252-5.3548-2.52-8.7315,1.1466-10.6718,2.3309-1.26,2.5955-2.331,2.5955-2.331a18.0064,18.0064,0,0,0-1.9907-5.3043c-.1764-.2394-.3024,0-.3024,0a9.3368,9.3368,0,0,1-6.9675,4.1957C97.8512,102.1811,98.1913,112.7647,99.64,115.1334Z" fill="#31251c"/>
    <path d="M91.8286,87.0112A4.41,4.41,0,0,1,95.1042,85.55h.504a7.6377,7.6377,0,0,1,.8064,0,7.8489,7.8489,0,0,1,4.0822,1.134,6.3,6.3,0,0,0-11.6795,3.54,6.6108,6.6108,0,0,0,0,.8946A7.888,7.888,0,0,1,91.8286,87.0112Z" fill="#31251c"/>
    <path d="M101.2531,87.616h0a6.577,6.577,0,0,1-3.6917,8.4669,7.3449,7.3449,0,0,0,3.6917-1.26.7812.7812,0,0,1,1.109.5418c11.05,26.9126,29.71,84.883,40.8224,100.7962l2.7971-3.2129C131.87,175.12,120.9838,135.5446,101.2531,87.616Z" fill="#31251c"/>
    <g clip-path="url(#clip-path-10)">
      <path d="M148.01,169.74l2.4316-1.4615-1.4111-2.331-.8567.5166-1.9278,4.3846-.1638-.0756q-.4662-.6552-.9072-1.26l1.0458-2.3814c-.756-1.1843-1.109-1.7513-1.8141-2.986l3.2381-1.953-1.7891-2.9986-.87.5291-2.4064,5.4936q-.4789-.8694-.92-1.7009l1.0584-2.4066h0c-.504-.9449-.9954-1.8773-1.4488-2.7845-.1889-.3782,0,0-.315-.6173l3.5531-2.142-1.8141-3.15-.882.5292-2.52,5.7579-.8568-1.8521,1.008-2.3057v-.1259c-.5922-1.26-.8946-1.9152-1.638-3.5279l3.5657-2.1545-1.7772-3.1121-.8946.5418-2.52,5.8209-.8567-1.84,1.0584-2.4192v-.1133c-.63-1.3608-.8946-2.079-1.5876-3.5909l3.5278-2.1293-1.8016-3.0743-.9072.5543-2.52,5.758-.8441-1.8773.882-2.4821h0c-.6425-1.3986-.97-2.23-1.6379-3.7043l3.4523-2.0915-1.8141-3.0113-.92.5544-2.52,5.6068-.8442-1.89,1.0331-2.3561c-.6426-1.4237-1.0332-2.3309-1.7009-3.78l3.3766-2.0412-1.6632-2.86-.9323.567-2.3687,5.3927-.8316-1.9026.9954-2.28c-.63-1.4112-1.0458-2.4191-1.6883-3.78l3.3012-1.9907L126.73,118.46l-.9449.58-2.2679,5.1532-.8316-1.9152.9575-2.1794c-.63-1.3986-1.1213-2.52-1.7261-3.9185l3.2-1.94-1.55-2.52-.97.58-2.0663,4.7752-.8316-1.9151.9072-2.079-1.827-4.0822,3.1121-1.8773-1.3607-2.331-.9828.5922-2.0285,4.6366-.8316-1.915.8564-1.9657-1.7891-3.9941,2.9987-1.8141-1.4112-2.331-.9953.6048-1.9152,4.3594-.8189-1.8773.8189-1.8521-4.498-10.08c-4.4854-10.08-11.4277-8.82-13.9982-8.1647a10.1553,10.1553,0,0,1,11.0876,7.27c3.1121,7.56,27.9457,68.9572,33.1115,78.117,3.8681,6.8793,8.4669,14.1367,17.0472,10.7474C154.1962,177.0476,150.9833,173.8976,148.01,169.74Z" fill="#31251c"/>
    </g>
    <path d="M116.75,163.4651a.6426.6426,0,1,1,.8209.39l-.0019.0006A.6427.6427,0,0,1,116.75,163.4651Zm13.6327,27.719a1.5749,1.5749,0,0,1,2.0783.8009h0l.0133.0306a1.4364,1.4364,0,0,1-.9994,1.7685h0l-.0842.0207a1.55,1.55,0,0,1-2.0033-.6929,1.4367,1.4367,0,0,1,1.0331-1.9783Zm-.7055-1.55a2.7971,2.7971,0,0,0-1.8141,3.4523,1.65,1.65,0,0,0,.8694,1.0833l.1133.0758h0a7.4907,7.4907,0,0,1-1.4868-.63,4.36,4.36,0,0,1-1.94-1.84v-.189a.2264.2264,0,0,0-.1386-.1637.2016.2016,0,0,0-.189.0629l-.5669.4788-.2016.1638a.1763.1763,0,0,0,0,.2016.919.919,0,0,0,.1385.2142,8.0006,8.0006,0,0,0,3.9437,3.0491,5.3035,5.3035,0,0,0,3.3515-.1386,2.9481,2.9481,0,0,0,2.0789-3.9184,3.1877,3.1877,0,0,0-4.0511-1.9776l0,0-.0689.0245Zm.3276-8.2149,1.4363,4.0064a.2142.2142,0,0,1,0,.2016.2014.2014,0,0,1-.1764.0756h-1.0332a.3148.3148,0,0,1-.34-.189l-.9324-2.6207h-.189l-1.65.4158h0a2.2426,2.2426,0,0,1,.8819,1.3356,2.797,2.797,0,0,1-1.84,3.427,3.4266,3.4266,0,0,1-2.3939,0,2.91,2.91,0,0,1-1.6757-1.7387,3.3893,3.3893,0,0,1,0-2.9609.2393.2393,0,0,1,.2831-.1854l0,0,.032.0089h.1638l1.071.3906a.1639.1639,0,0,1,.1134.1007.1892.1892,0,0,1-.0756.2016h0a1.6127,1.6127,0,0,0-.2016,1.7136,1.5624,1.5624,0,0,0,1.9885.9631l.166-.0686a1.4113,1.4113,0,0,0,.92-1.7261,1.4616,1.4616,0,0,0-.97-.97h0a.214.214,0,0,1-.1764-.1512h0l-.1764-.5544-.1386-.4283a.2147.2147,0,0,1,0-.1765.2274.2274,0,0,1,.1512-.1007l4.5862-1.26a.2773.2773,0,0,1,.2141.2395Zm-4.12-7.95.8946-.2268a.2771.2771,0,0,1,.3525.1512l1.6,4.4854a.2269.2269,0,0,1-.088.3084l-.0129.0064-1.26.4411h0s-2.0789-.58-3.78-.8568a8.8187,8.8187,0,0,0-3.9814.189.2143.2143,0,0,1-.2961-.0642l-.0192-.0367-.5418-1.5245a.2145.2145,0,0,1,0-.1764.2523.2523,0,0,1,.1764-.1134,10.8732,10.8732,0,0,1,4.4728.1512,20.54,20.54,0,0,1,3.2129.882l.2016.0756h0l-1.1844-3.3137a.2775.2775,0,0,1,0-.2268.2523.2523,0,0,1,.1764-.126h0Zm-.97-5.317.1134.1259.7436.882v.063a.2759.2759,0,0,1-.1764.2394l-7.9629,2.8475a.2519.2519,0,0,1-.3377-.1135l0,0-.015-.0376-.3906-1.0961a.24.24,0,0,1,.141-.3077l.0228-.0072,7.56-2.6711a.2772.2772,0,0,1,.34.0252Zm-5.3549-5.33-.3149-.8819,2.7467-.9828h0l.3023.8315a1.6538,1.6538,0,0,1-2.7341,1.0332Zm2.7467-3.0112-3.9814,1.4237a.1385.1385,0,0,0-.08.1789l.0043.01.6551,1.84a2.2805,2.2805,0,0,0,4.1453-1.7009l-.567-1.5876a.1387.1387,0,0,0-.1457-.1311h0l-.0307.0052Zm-2.7467-5.7581h.6552a.2142.2142,0,0,1,.252.1512l1.1843,3.3137a.1889.1889,0,0,1-.0882.2394l-.1134.0756-.5165.3149a.1607.1607,0,0,1-.2268-.1133l-.4914-1.3608h0l-4.7248,1.6632h0a.1385.1385,0,0,1-.1873-.0577h0l-.0143-.043-.315-.8945a.1387.1387,0,0,1,.0748-.1811h0l.0257-.0079,4.75-1.6883h0l-.1764-.4914-.252-.7056a.1131.1131,0,0,1,0-.1008.2139.2139,0,0,1,.1638-.0629h0Zm-.2016-3.78A2.1667,2.1667,0,0,1,119.1947,152h0a.1636.1636,0,0,1-.2141,0h0l-.7686-.2394h0a.2017.2017,0,0,1-.1386-.1008.126.126,0,0,1,0-.1386h0a.7812.7812,0,0,0,.2394-.882.819.819,0,0,0-.9864-.6069l-.009.0022a.945.945,0,0,0-.4409,1.0332v.4535a1.89,1.89,0,0,1-1.26,1.9529,2.1293,2.1293,0,0,1-2.7221-1.2877h0l-.0246-.073a1.8522,1.8522,0,0,1,.2142-2.1923.189.189,0,0,1,.252-.0756l.7436.3525h0a.1771.1771,0,0,1,0,.1512h0a1.26,1.26,0,0,0-.2268,1.26.882.882,0,0,0,1.0827.6193l.1142-.04c.5545-.2016.6049-.4788.6679-1.4238h0a1.7764,1.7764,0,0,1,1.26-2.0032,1.9907,1.9907,0,0,1,2.37,1.5195v0l.0112.0553Zm-8.744-5.6447,5.6193-2.0032a.1763.1763,0,0,1,.2268.1008l1.0332,2.8853a.1006.1006,0,0,1,0,.1007.1766.1766,0,0,1-.1386.063h-.1007l-.6174.0756a.24.24,0,0,1-.2394-.1638l-.6048-1.6884h-.0882l-1.26.4663h0l.6049,1.6883a.1386.1386,0,0,1-.0908.1736h0l-.01.0028-.63.2267a.1385.1385,0,0,1-.181-.0748l0,0-.0079-.0257-.5921-1.6631h0l-1.701.6048h0l.68,1.9025a.1513.1513,0,0,1,0,.189h0l-.5544.3276a.1764.1764,0,0,1-.1512,0,.1257.1257,0,0,1-.0756-.0756l-1.2852-2.8474a.1513.1513,0,0,1,.09-.194l.0738-.0076Z" fill="#31251c"/>
    <path d="M137.0608,178.8113c10.08-4.9012,13.23.7812,18.32,1.4744" fill="none" stroke="#31251c" stroke-miterlimit="10" stroke-width="0.0393"/>
    <path d="M137.8042,180.5375c8.6433-4.1956,12.6752.63,16.3794,1.5623" fill="none" stroke="#31251c" stroke-miterlimit="10" stroke-width="0.0393"/>
    <path d="M138.7492,182.2762a15.3326,15.3326,0,0,1,14.4264,1.386" fill="none" stroke="#31251c" stroke-miterlimit="10" stroke-width="0.0413"/>
    <path d="M139.7194,183.8763a14.7373,14.7373,0,0,1,12.2971,1.386" fill="none" stroke="#31251c" stroke-miterlimit="10" stroke-width="0.0413"/>
    <path d="M140.69,185.6529a11.7243,11.7243,0,0,1,10.18,1.1843" fill="none" stroke="#31251c" stroke-miterlimit="10" stroke-width="0.0413"/>
    <path d="M141.7731,187.3287a11.1578,11.1578,0,0,1,7.9881,1.0583" fill="none" stroke="#31251c" stroke-miterlimit="10" stroke-width="0.0413"/>
    <path d="M142.8819,189.1555a10.2941,10.2941,0,0,1,5.6949.8316" fill="none" stroke="#31251c" stroke-miterlimit="10" stroke-width="0.0432"/>
    <path d="M144.1923,191.1588a7.85,7.85,0,0,1,3.1877.4158" fill="none" stroke="#31251c" stroke-miterlimit="10" stroke-width="0.0432"/>
    <path d="M136.2167,177.06a19.2929,19.2929,0,0,1,10.508-2.0411" fill="none" stroke="#31251c" stroke-miterlimit="10" stroke-width="0.0373"/>
    <path d="M153.289,177.6144a18.56,18.56,0,0,0,3.2129,1.0079" fill="none" stroke="#31251c" stroke-miterlimit="10" stroke-width="0.0432"/>
    <path d="M135.3221,175.3213a33.3623,33.3623,0,0,1,9.2228-2.6583" fill="none" stroke="#31251c" stroke-miterlimit="10" stroke-width="0.0373"/>
    <path d="M134.5661,173.5573a47.125,47.125,0,0,1,8.48-2.797" fill="none" stroke="#31251c" stroke-miterlimit="10" stroke-width="0.0354"/>
    <path d="M133.7724,171.8187a60.527,60.527,0,0,1,8.2023-2.86" fill="none" stroke="#31251c" stroke-miterlimit="10" stroke-width="0.0354"/>
    <path d="M132.9156,170.0421c1.071-.2646,7.4085-2.8853,7.95-2.8475" fill="none" stroke="#31251c" stroke-miterlimit="10" stroke-width="0.0354"/>
    <path d="M132.1471,168.19c1.26-.1638,6.6273-2.4316,7.6982-2.7466" fill="none" stroke="#31251c" stroke-miterlimit="10" stroke-width="0.0334"/>
    <path d="M131.391,166.2874a65.8938,65.8938,0,0,0,7.6227-2.6207" fill="none" stroke="#31251c" stroke-miterlimit="10" stroke-width="0.0334"/>
    <path d="M130.61,164.3849a41.1436,41.1436,0,0,0,7.774-2.52" fill="none" stroke="#31251c" stroke-miterlimit="10" stroke-width="0.0334"/>
    <path d="M129.7154,162.3186a23.897,23.897,0,0,0,7.6352-2.1167" fill="none" stroke="#31251c" stroke-miterlimit="10" stroke-width="0.0334"/>
    <path d="M128.9845,160.3026a20.0059,20.0059,0,0,0,7.56-1.89" fill="none" stroke="#31251c" stroke-miterlimit="10" stroke-width="0.0334"/>
    <path d="M128.2286,158.3245a17.664,17.664,0,0,0,7.56-1.5623" fill="none" stroke="#31251c" stroke-miterlimit="10" stroke-width="0.0334"/>
    <path d="M127.3215,156.1448a15.0583,15.0583,0,0,0,7.6731-1.1465" fill="none" stroke="#31251c" stroke-miterlimit="10" stroke-width="0.0334"/>
    <path d="M126.4772,153.8769a11.9067,11.9067,0,0,0,7.7488-.68" fill="none" stroke="#31251c" stroke-miterlimit="10" stroke-width="0.0295"/>
    <path d="M125.4694,151.483a10.3061,10.3061,0,0,0,7.95-.0882" fill="none" stroke="#31251c" stroke-miterlimit="10" stroke-width="0.0295"/>
    <path d="M124.6881,149.2025a11.63,11.63,0,0,0,7.9755.3906" fill="none" stroke="#31251c" stroke-miterlimit="10" stroke-width="0.0295"/>
    <path d="M123.8062,146.796a11.86,11.86,0,0,0,8.0763.9323" fill="none" stroke="#31251c" stroke-miterlimit="10" stroke-width="0.0295"/>
    <path d="M122.8738,144.3643a14.5605,14.5605,0,0,0,8.1771,1.5371" fill="none" stroke="#31251c" stroke-miterlimit="10" stroke-width="0.0295"/>
    <path d="M121.9289,141.87a17.7032,17.7032,0,0,0,8.3408,2.1042" fill="none" stroke="#31251c" stroke-miterlimit="10" stroke-width="0.0295"/>
    <path d="M120.9838,139.413a20.278,20.278,0,0,0,8.467,2.52" fill="none" stroke="#31251c" stroke-miterlimit="10" stroke-width="0.0295"/>
    <path d="M120.0389,136.981a27.3438,27.3438,0,0,0,8.5047,2.81" fill="none" stroke="#31251c" stroke-miterlimit="10" stroke-width="0.0295"/>
    <path d="M119.1065,134.5619a46.7908,46.7908,0,0,0,8.4921,3.1246" fill="none" stroke="#31251c" stroke-miterlimit="10" stroke-width="0.0295"/>
    <path d="M118.1616,132.3065c1.7387.2142,6.9675,2.9735,8.5929,3.1751" fill="none" stroke="#31251c" stroke-miterlimit="10" stroke-width="0.0275"/>
    <path d="M117.6324,130.0638c1.7388.2142,6.9675,2.9735,8.5929,3.175" fill="none" stroke="#31251c" stroke-miterlimit="10" stroke-width="0.0275"/>
    <path d="M116.6244,127.8211a66.7048,66.7048,0,0,1,8.5929,2.9609" fill="none" stroke="#31251c" stroke-miterlimit="10" stroke-width="0.0275"/>
    <path d="M115.944,125.6413a73.7325,73.7325,0,0,1,8.6559,2.81" fill="none" stroke="#31251c" stroke-miterlimit="10" stroke-width="0.0275"/>
    <path d="M115.1125,123.6255c2.0285-.5166,6.3754,1.84,7.56,2.1545" fill="none" stroke="#31251c" stroke-miterlimit="10" stroke-width="0.0275"/>
    <path d="M117.6576,113.6844a11.4417,11.4417,0,0,0-6.073.504" fill="none" stroke="#31251c" stroke-miterlimit="10" stroke-width="0.0216"/>
    <path d="M116.65,111.4291a11.6415,11.6415,0,0,0-5.7958.8694" fill="none" stroke="#31251c" stroke-miterlimit="10" stroke-width="0.0216"/>
    <path d="M112.1516,115.9649a9.2112,9.2112,0,0,1,6.4006,0" fill="none" stroke="#31251c" stroke-miterlimit="10" stroke-width="0.0236"/>
    <path d="M119.6231,118.3463a9.4747,9.4747,0,0,0-6.7659-.4536" fill="none" stroke="#31251c" stroke-miterlimit="10" stroke-width="0.0236"/>
    <path d="M113.4494,119.7952a9.9029,9.9029,0,0,1,7.0809.9576" fill="none" stroke="#31251c" stroke-miterlimit="10" stroke-width="0.0275"/>
    <path d="M114.42,121.6977a10.87,10.87,0,0,1,7.2195,1.5749" fill="none" stroke="#31251c" stroke-miterlimit="10" stroke-width="0.0275"/>
    <path d="M110.1483,110.4716a15.6214,15.6214,0,0,1,5.7328-1.1843" fill="none" stroke="#31251c" stroke-miterlimit="10" stroke-width="0.0216"/>
    <path d="M109.4049,108.6446a20.51,20.51,0,0,1,5.6824-1.4111" fill="none" stroke="#31251c" stroke-miterlimit="10" stroke-width="0.0216"/>
    <path d="M108.7624,106.8933a24.3379,24.3379,0,0,1,5.4556-1.5876" fill="none" stroke="#31251c" stroke-miterlimit="10" stroke-width="0.0216"/>
    <path d="M108.0442,105.1294a30.0448,30.0448,0,0,1,5.4177-1.7136" fill="none" stroke="#31251c" stroke-miterlimit="10" stroke-width="0.0216"/>
    <path d="M107.3386,103.3654a47.0321,47.0321,0,0,1,5.3044-1.8269" fill="none" stroke="#31251c" stroke-miterlimit="10" stroke-width="0.0216"/>
    <path d="M106.6708,101.6141a43.4083,43.4083,0,0,1,5.33-1.9277" fill="none" stroke="#31251c" stroke-miterlimit="10" stroke-width="0.0216"/>
    <path d="M105.9653,99.825s3.616-1.4364,5.33-1.9781" fill="none" stroke="#31251c" stroke-miterlimit="10" stroke-width="0.0216"/>
    <path d="M105.2849,98.0358s3.6791-1.4487,5.1405-1.9655" fill="none" stroke="#31251c" stroke-miterlimit="10" stroke-width="0.0216"/>
  </g>
</svg>
