<svg width="78" height="78" viewBox="0 0 78 78" fill="none" xmlns="http://www.w3.org/2000/svg">
<g id="mdi:about">
<path id="Vector" d="M42.25 29.25H35.75V22.75H42.25M42.25 55.25H35.75V35.75H42.25M39 6.5C34.732 6.5 30.5059 7.34064 26.5628 8.97392C22.6197 10.6072 19.0369 13.0011 16.019 16.019C9.9241 22.114 6.5 30.3805 6.5 39C6.5 47.6195 9.9241 55.886 16.019 61.981C19.0369 64.9989 22.6197 67.3928 26.5628 69.0261C30.5059 70.6594 34.732 71.5 39 71.5C47.6195 71.5 55.886 68.0759 61.981 61.981C68.0759 55.886 71.5 47.6195 71.5 39C71.5 34.732 70.6594 30.5059 69.0261 26.5628C67.3928 22.6197 64.9989 19.0369 61.981 16.019C58.9631 13.0011 55.3803 10.6072 51.4372 8.97392C47.4941 7.34064 43.268 6.5 39 6.5Z" fill="black"/>
</g>
</svg>
