<svg width="72" height="72" viewBox="0 0 72 72" fill="none" xmlns="http://www.w3.org/2000/svg">
<g id="fluent:people-community-16-filled">
<path id="Vector" d="M13.5 13.5C13.5 11.1131 14.4482 8.82387 16.136 7.13604C17.8239 5.44821 20.1131 4.5 22.5 4.5C24.8869 4.5 27.1761 5.44821 28.864 7.13604C30.5518 8.82387 31.5 11.1131 31.5 13.5C31.5 15.8869 30.5518 18.1761 28.864 19.864C27.1761 21.5518 24.8869 22.5 22.5 22.5C20.1131 22.5 17.8239 21.5518 16.136 19.864C14.4482 18.1761 13.5 15.8869 13.5 13.5ZM44.0055 20.628L44.1945 20.772C46.1038 22.1873 48.4954 22.7899 50.8474 22.4483C53.1994 22.1067 55.3208 20.8487 56.7486 18.9488C58.1765 17.0488 58.7949 14.6612 58.4688 12.307C58.1428 9.95286 56.8988 7.82321 55.0083 6.38285C53.1178 4.9425 50.7344 4.30837 48.3781 4.61888C46.0218 4.92938 43.884 6.1593 42.4312 8.04022C40.9784 9.92114 40.3285 12.3004 40.6235 14.6586C40.9184 17.0169 42.1342 19.1628 44.0055 20.628ZM28.206 27C28.7712 25.9297 29.5465 24.9845 30.4855 24.2208C31.4244 23.457 32.5078 22.8906 33.6707 22.5552C34.8337 22.2199 36.0523 22.1225 37.2538 22.269C38.4552 22.4155 39.6148 22.8029 40.6631 23.4079C41.7114 24.0128 42.6268 24.8231 43.3548 25.79C44.0827 26.757 44.6081 27.8609 44.8996 29.0356C45.191 30.2103 45.2425 31.4318 45.051 32.6269C44.8595 33.822 44.4289 34.9662 43.785 35.991C42.5462 37.9626 40.5916 39.3773 38.3316 39.938C36.0717 40.4987 33.6824 40.1617 31.6657 38.9978C29.649 37.834 28.1619 35.9338 27.5168 33.6965C26.8716 31.4592 27.1187 29.059 28.206 27ZM11.25 27H23.265C22.4652 29.284 22.2913 31.7404 22.7614 34.1143C23.2314 36.4882 24.3282 38.6931 25.938 40.5H24.75C22.43 40.4997 20.1665 41.2163 18.2695 42.5519C16.3724 43.8875 14.9345 45.7767 14.1525 47.961C12.642 47.3542 11.2277 46.5311 9.954 45.5175C6.57 42.795 4.5 38.772 4.5 33.75C4.5 31.9598 5.21116 30.2429 6.47703 28.977C7.7429 27.7112 9.45979 27 11.25 27ZM47.25 40.5C52.1325 40.5 56.2905 43.6095 57.8475 47.961C59.3775 47.3355 60.7905 46.521 62.046 45.5175C65.43 42.795 67.5 38.772 67.5 33.75C67.5 31.9598 66.7888 30.2429 65.523 28.977C64.2571 27.7112 62.5402 27 60.75 27H48.735C49.23 28.4085 49.5 29.925 49.5 31.5C49.5042 34.8215 48.2796 38.0272 46.062 40.5H47.25ZM53.4915 49.176C53.82 49.968 54 50.841 54 51.75C54 56.772 51.9345 60.795 48.546 63.5175C45.2115 66.195 40.7385 67.5 36 67.5C31.2615 67.5 26.7885 66.195 23.454 63.5175C20.07 60.795 18 56.772 18 51.75C17.9976 50.8629 18.1706 49.9841 18.509 49.1641C18.8474 48.3441 19.3445 47.599 19.9717 46.9717C20.599 46.3445 21.3441 45.8474 22.1641 45.509C22.9841 45.1706 23.8629 44.9976 24.75 45H47.25C48.587 44.9997 49.8939 45.3964 51.0051 46.1399C52.1163 46.8834 52.9817 47.9401 53.4915 49.176Z" fill="black"/>
</g>
</svg>
