<svg height="352.136337" viewBox="0 0 400 495.79867776" width="283.980917" xmlns="http://www.w3.org/2000/svg"><g fill-rule="evenodd"><path d="m203.926 80.508c-4.024 3.471-3.857 3.327-5.376 4.616-.737.625-1.445 1.229-1.573 1.343-.129.114-.635.532-1.126.93-2.64 2.142-2.857 2.437-3.193 4.339-.17.965-.55 3.104-.844 4.752-.898 5.038-.972 4.436.797 6.542 1.842 2.194 12.937 15.669 14.097 17.121.451.565.869 1.073.93 1.13.201.188 5.574 6.693 6.714 8.13.764.963.762.969 1.462-3.063.742-4.276 1.872-10.692 2.257-12.815.185-1.023.475-2.696.645-3.719.169-1.023.353-2.069.407-2.324l.1-.465h10.838 10.838l-.115.671c-.111.65-.49 2.771-.914 5.114-.113.625-.391 2.205-.617 3.512-.861 4.963-1.658 9.507-2.175 12.397-.295 1.648-.612 3.461-.705 4.029-.092.568-.409 2.381-.704 4.029s-.871 4.902-1.28 7.231c-1.509 8.591-1.732 9.853-2.059 11.674-.184 1.023-.416 2.324-.515 2.892-.099.569-.421 2.382-.714 4.029-.294 1.648-.763 4.298-1.042 5.889-.28 1.591-.838 4.752-1.241 7.025-.403 2.272-.816 4.643-.919 5.268-.102.625-.338 1.973-.524 2.996-.354 1.945-.379 2.088-1.224 6.921-.288 1.648-.569 3.229-.625 3.513s-.344 1.911-.64 3.616c-.296 1.704-.769 4.4-1.051 5.991s-.598 3.404-.702 4.029c-.103.625-.422 2.438-.709 4.029-.286 1.591-.846 4.752-1.243 7.025-.398 2.273-.963 5.48-1.256 7.128s-.585 3.345-.649 3.771l-.116.775h-10.848-10.848l.13-.879c.072-.483.274-1.668.451-2.634.332-1.814.818-4.565 2.062-11.673.398-2.273.85-4.83 1.005-5.682.156-.853.254-1.583.218-1.623-.035-.04-1.201.889-2.589 2.066-1.389 1.177-2.859 2.415-3.267 2.752s-1.672 1.411-2.809 2.386c-1.136.976-2.996 2.555-4.132 3.51s-2.113 1.787-2.169 1.85c-.057.062-.94.81-1.963 1.662s-1.906 1.597-1.963 1.657c-.057.059-1.126.978-2.376 2.043-1.25 1.064-2.552 2.179-2.893 2.478-.34.299-1.773 1.518-3.183 2.71-1.41 1.191-3.058 2.584-3.663 3.096-.604.511-1.599 1.348-2.209 1.859l-1.111.93-.568 3.306c-.312 1.818-.728 4.235-.925 5.371-.276 1.595-.303 2.148-.118 2.424.132.196 2.351 2.916 4.931 6.043l4.692 5.686h22.11 22.11l4.794-4.055c2.636-2.231 5.072-4.3 5.413-4.598 1.067-.931 4.933-4.221 5.976-5.086.549-.455 1.102-.92 1.23-1.033.128-.114.837-.718 1.575-1.342.739-.624 1.39-1.183 1.446-1.241.057-.058.708-.616 1.447-1.24.738-.623 1.389-1.184 1.446-1.246s1.179-1.017 2.493-2.121l2.391-2.008.343-2.013c.188-1.107.582-3.361.874-5.008.293-1.648.613-3.461.712-4.029s.374-2.126.609-3.461c.236-1.335.622-3.52.858-4.855.236-1.336.51-2.893.608-3.461.162-.932.375-2.149 1.35-7.696.164-.938.445-2.519.624-3.513.178-.994.406-2.273.505-2.841.299-1.704 1.243-7.05 1.752-9.917.262-1.477.81-4.592 1.218-6.922.407-2.329.785-4.468.84-4.752.054-.284.383-2.143.73-4.132.346-1.989.906-5.196 1.243-7.128s.845-4.814 1.129-6.405c.613-3.43 1.773-10.007 2.478-14.05.278-1.59.655-3.729.838-4.752.184-1.022.512-2.882.73-4.132.548-3.146 1.351-7.697 1.75-9.917.184-1.023.416-2.325.516-2.893.628-3.588 1.314-7.489 1.852-10.537.341-1.932.853-4.86 1.138-6.508s.624-3.479.755-4.07l.237-1.073-1.699-2.026c-.934-1.114-1.808-2.166-1.941-2.339-.452-.582-2.096-2.578-2.21-2.682-.063-.057-.712-.847-1.442-1.756-.73-.91-1.381-1.7-1.446-1.757s-.486-.568-.937-1.136-.917-1.126-1.037-1.24c-.119-.113-.582-.671-1.028-1.239-.447-.569-.907-1.135-1.023-1.26-.116-.124-.955-1.139-1.864-2.254-.909-1.116-1.983-2.416-2.386-2.89-.403-.473-1.184-1.434-1.735-2.135l-1.002-1.275-22.232.015-22.232.015zm10.227 199.326c-20.21 4.218-21.063 31.948-1.136 36.928 7.004 1.75 14.533-.053 19.358-4.637l1.552-1.474-1.313-1.215c-2.267-2.099-3.565-3.297-4.157-3.834l-.571-.52-1.185 1.161c-6.948 6.81-18.303 2.504-18.806-7.132-.535-10.234 11.145-15.653 18.607-8.633l1.408 1.324.766-.723c2.42-2.284 3.734-3.495 4.33-3.989.912-.755.876-.876-.723-2.41-4.352-4.175-11.804-6.167-18.13-4.846m24.277 18.565v18.337h4.545 4.546v-4.964-4.964l3.538.057 3.539.056 2.058 2.996c1.132 1.648 2.631 3.854 3.331 4.902l1.273 1.907 5.021.005c4.073.004 4.989-.046 4.855-.265-.171-.279-2.083-3.028-4.339-6.239-.719-1.022-1.398-1.999-1.509-2.169-.112-.171-.616-.91-1.121-1.643l-.918-1.332 1.485-.952c5.67-3.634 7.329-11.971 3.556-17.876-.991-1.55-3.063-3.319-4.98-4.248-3.531-1.713-4.721-1.856-15.841-1.905l-9.039-.04zm-109.504.051v18.286h14.359 14.36v-3.719-3.719h-9.814-9.814v-3.719-3.719h8.367 8.368v-3.616-3.616h-8.368-8.367v-3.512-3.513h9.4 9.401v-3.719-3.719h-13.946-13.946zm34.504 0v18.286h4.545 4.546v-4.856-4.855l3.46-.019c6.723-.035 9.513-.52 12.744-2.213 8.223-4.31 8.849-16.859 1.094-21.912-3.763-2.451-5.386-2.71-17.04-2.713l-9.349-.003zm19.06-10.118c2.58 1.048 3.626 2.83 3.402 5.797-.297 3.916-2.164 4.982-9.084 5.187l-4.287.128v-5.817-5.817h4.343c4.167 0 4.395.021 5.626.522m74.653-.179c3.715 1.251 5.12 5.433 2.915 8.678-1.347 1.982-3.333 2.546-8.973 2.548l-3.564.001v-5.785-5.785h4.302c3.461 0 4.501.067 5.32.343m-213.548 163.397v2.169h31.612 31.611v-2.169-2.17h-31.611-31.612zm249.548 0-.064 2.17 31.663-.001h31.663v-2.169-2.17h-31.598-31.599z" fill="#c4dc2c"/><path d="m179.766 5.527c-.504.426-2.602 2.216-4.662 3.977-2.061 1.761-4.246 3.621-4.856 4.132-1.005.842-2.463 2.08-8.993 7.638-1.14.97-2.581 2.193-3.203 2.719s-2.2 1.867-3.506 2.981l-2.376 2.025-.467 2.701c-.742 4.283-1.235 7.102-1.595 9.106-.379 2.11-1.023 5.769-2.074 11.777-.398 2.272-.946 5.387-1.218 6.921-.817 4.594-1.768 9.988-2.495 14.153-1.007 5.761-1.696 9.675-2.074 11.777-.184 1.023-.415 2.324-.514 2.892-.099.569-.332 1.87-.516 2.893-.185 1.023-.511 2.882-.724 4.132s-.539 3.11-.724 4.132c-.472 2.618-.645 3.597-1.109 6.302-.225 1.307-.55 3.166-.724 4.132-.173.966-.465 2.593-.648 3.616-.184 1.023-.415 2.324-.515 2.893-.099.568-.417 2.381-.706 4.029-.289 1.647-.854 4.855-1.255 7.128-.401 2.272-1.005 5.712-1.341 7.644s-.894 5.093-1.24 7.025c-.345 1.932-.903 5.093-1.24 7.025-1.282 7.347-2.2 12.52-2.385 13.431-.089.441-.016.75.252 1.062.208.242.656.794.997 1.227.341.434 1.782 2.193 3.203 3.91 1.42 1.717 5.465 6.624 8.987 10.905l6.405 7.784 22.267.004 22.267.003 3.353-2.835c3.09-2.612 5.518-4.682 7.074-6.028.342-.295 1.226-1.049 1.963-1.674 1.944-1.648 1.911-1.605 2.086-2.653.196-1.168 1.103-6.303 1.534-8.683.185-1.024.239-1.825.131-1.963-.101-.129-2.25-2.744-4.777-5.812-2.527-3.069-4.898-5.951-5.27-6.405-.372-.455-1.442-1.757-2.377-2.893s-1.854-2.253-2.041-2.482c-.188-.229-.76-.925-1.272-1.547-.511-.621-1.069-1.304-1.239-1.518-.171-.213-.404-.493-.518-.623-.183-.207-1.436-1.728-2.404-2.918-1.421-1.746-3.677-4.446-4.124-4.934l-.542-.592-.232 1.522c-.216 1.409-.514 3.13-1.375 7.927-.183 1.022-.414 2.324-.513 2.892s-.331 1.87-.514 2.893c-.184 1.023-.564 3.208-.844 4.855-.28 1.648-.551 3.112-.603 3.254-.107.291-20.979.394-20.972.104.002-.086.146-.946.32-1.911.378-2.105 1.186-6.681 1.731-9.815.218-1.25.546-3.109.73-4.132.183-1.022.561-3.161.838-4.752.278-1.591.833-4.752 1.234-7.025.402-2.272 1.006-5.712 1.343-7.644s.837-4.768 1.112-6.302.737-4.137 1.027-5.785c.289-1.648.676-3.833.86-4.855.183-1.023.508-2.883.721-4.133.214-1.25.539-3.109.724-4.132.568-3.143.736-4.092.914-5.165.176-1.06.972-5.575 1.567-8.884.184-1.023.416-2.325.515-2.893.185-1.053.785-4.449 1.734-9.814.975-5.51 1.981-11.222 2.728-15.496 1.695-9.695 1.922-10.985 2.45-13.946.304-1.705.669-3.75.81-4.546l.257-1.446 10.494-.054 10.495-.053-.099.673c-.091.615-.633 3.695-1.501 8.525-.184 1.023-.416 2.324-.515 2.893-.099.568-.33 1.869-.513 2.892-.184 1.023-.517 2.882-.741 4.132s-.464 2.738-.533 3.306l-.125 1.033.696-.62c.383-.341.744-.667.802-.724.059-.058.711-.615 1.45-1.238.739-.624 1.39-1.182 1.446-1.24.057-.057.94-.798 1.963-1.645s1.906-1.591 1.963-1.653c.057-.063.706-.625 1.443-1.249 1.621-1.374 1.761-1.493 4.768-4.057 1.314-1.12 2.848-2.424 3.409-2.898 1.722-1.453 2.555-2.161 5.036-4.276 1.314-1.121 2.854-2.432 3.422-2.914 3.955-3.353 5.932-5.034 6.899-5.867.612-.527 1.274-1.07 1.47-1.208.197-.138.417-.603.489-1.033.073-.431.268-1.527.434-2.436.165-.909.543-3.076.84-4.817l.539-3.164-.84-1.071c-.462-.59-2.73-3.35-5.039-6.134l-4.199-5.062-22.197-.051-22.197-.052zm-171.245 336.675-5.215 5.218v23.035 23.034l5.215 5.218 5.216 5.219h9.545 9.545l5.281-5.255 5.28-5.255v-2.286-2.287l-2.117-1.013c-1.165-.557-4.024-1.943-6.354-3.08l-4.235-2.066-.055 2.408-.055 2.408-1.908 1.801-1.908 1.802-3.508.006-3.508.007-1.812-1.804-1.812-1.803v-17.046-17.046l1.803-1.812 1.804-1.812h3.527 3.526l1.901 1.784 1.902 1.784v2.454c0 2.276.026 2.438.361 2.25.199-.112 2.03-1.004 4.07-1.982 2.039-.978 4.759-2.289 6.043-2.914l2.335-1.135v-2.27-2.27l-5.264-5.255-5.263-5.256h-9.562-9.562zm41.479 28.253v33.471h6.405 6.405v-13.533-13.533h6.715 6.715v13.533 13.533h6.405 6.405v-33.471-33.472h-6.405-6.405v13.534 13.533h-4.193-4.192l-1.013 2.117c-.558 1.165-1.693 3.509-2.523 5.209l-1.509 3.091v-18.742-18.742h-6.405-6.405zm57.765-31.974c-.29 1.356-2.016 10.061-2.243 11.312-.103.568-1.2 6.021-1.705 8.471-.247 1.2-3.419 17.263-4.855 24.587-.122.625-.361 1.787-.531 2.583-.501 2.349-3.596 18.114-3.596 18.314 0 .104 2.601.16 6.024.129l6.024-.055.477-2.376c.262-1.307.528-2.585.591-2.841l.115-.465h7.218 7.218l.136.775c.075.426.311 1.658.524 2.738.213 1.079.389 2.032.39 2.118.001.085 2.781.155 6.177.155h6.175l-.277-1.188c-.153-.654-.939-4.582-1.748-8.73-.809-4.147-1.655-8.424-1.879-9.504-.224-1.079-.583-2.892-.798-4.029-.542-2.874-3.02-15.392-3.394-17.149-.169-.795-.407-1.957-.529-2.582-1.888-9.674-3.149-16.064-3.386-17.149-.161-.739-.51-2.528-.775-3.977l-.484-2.635h-7.274-7.274zm33.764 31.974v33.471h14.449c14.361 0 14.45-.003 14.582-.422.074-.232 1.428-3.069 3.01-6.305s2.876-5.929 2.876-5.984c0-.054-4.974-.099-11.053-.099h-11.054v-27.066-27.067h-6.405-6.405zm40.083 0v33.471l14.411-.003 14.411-.004.71-1.494c.391-.823 1.762-3.661 3.048-6.307 1.285-2.646 2.337-4.855 2.337-4.907s-4.974-.095-11.054-.095h-11.054v-27.066-27.067h-6.404-6.405zm39.256 0v33.471h16.208 16.208l1.281-2.635c.705-1.449 2.095-4.308 3.088-6.353l1.805-3.719-12.89-.053-12.89-.053v-7.127-7.126h4.198 4.197l1.105-2.325c.608-1.278 1.973-4.105 3.034-6.282s1.928-4.013 1.928-4.08c0-.068-3.254-.123-7.231-.123h-7.231v-7.129-7.128h9.8 9.8l.923-1.911c2.166-4.481 5.147-10.6 5.234-10.744.051-.085-8.605-.155-19.237-.155h-19.33zm43.595 0v33.471h6.405 6.405l.016-16.271c.009-8.949.069-16.131.133-15.961.215.574 2.045 4.695 3.241 7.298.408.889.742 1.656.742 1.705 0 .084 1.617 3.749 3.003 6.803.154.341 1.038 2.34 1.964 4.442.925 2.102 1.891 4.287 2.146 4.856.255.568 1.06 2.402 1.789 4.075l1.325 3.042 6.354.005 6.353.006v-33.471-33.472h-6.405-6.405l-.016 16.168-.016 16.167-.552-1.145c-.304-.629-.752-1.606-.995-2.169-.554-1.284-3.61-8.227-5.452-12.388-.201-.455-.757-1.71-1.236-2.79-.478-1.079-1.175-2.66-1.547-3.512-.77-1.764-2.046-4.665-2.59-5.888-.342-.77-1.126-2.551-1.705-3.874l-.248-.569h-6.355-6.354zm51.498-28.274-5.217 5.19v23.059 23.059l5.215 5.218 5.216 5.219h9.566 9.566l5.26-5.256 5.259-5.255v-12.1-12.1h-7.758-7.758l-2.289 4.7c-1.258 2.586-2.645 5.445-3.08 6.354l-.792 1.652 4.434.056 4.434.056v2.638 2.639l-1.884 1.903-1.883 1.903h-3.536-3.536l-1.812-1.804-1.812-1.803v-17.046-17.046l1.803-1.812 1.804-1.812h3.551 3.551l1.877 1.899 1.877 1.898v2.337 2.337h6.404 6.405v-5.384-5.384l-5.254-5.256-5.255-5.257-9.57.004-9.569.003zm41.27 28.274v33.471h16.205 16.205l1.08-2.221c.594-1.222 1.983-4.081 3.087-6.354l2.007-4.132-12.887-.053-12.887-.053v-7.127-7.126h4.188 4.188l.912-1.912c.502-1.051 1.871-3.878 3.044-6.283 1.172-2.405 2.131-4.427 2.131-4.494s-3.254-.121-7.231-.121h-7.232v-7.129-7.128h9.799 9.8l.614-1.291c1.538-3.234 5.041-10.438 5.323-10.95l.314-.569h-19.33-19.33zm-241.127-4.546c.353 1.875.775 4.014.938 4.752.163.739.723 3.575 1.244 6.302.522 2.727 1.079 5.563 1.239 6.301.16.739.377 1.785.482 2.325l.191.981h-4.934c-3.291 0-4.933-.072-4.933-.216 0-.118.136-.792.303-1.497.274-1.162.997-4.749 1.966-9.754.4-2.067 1.07-5.387 1.688-8.367.224-1.08.508-2.549.633-3.264.308-1.775.442-1.5 1.183 2.437m23.409 63.07-5.215 5.218v23.034 23.035l5.215 5.218 5.215 5.218 9.506-.001 9.506-.001 5.223-5.213 5.223-5.214-.058-2.354-.058-2.354-.93-.489c-1.272-.669-11.576-5.655-11.687-5.655-.049 0-.089 1.12-.089 2.489v2.488l-1.808 1.743-1.808 1.744-3.533.004-3.533.004-1.788-1.756-1.787-1.755v-17.186-17.185l1.764-1.721 1.763-1.72 3.557.01 3.557.009 1.808 1.711 1.808 1.712v2.515c0 1.383.043 2.514.095 2.514.053 0 2.935-1.39 6.405-3.089l6.31-3.088v-2.342-2.342l-5.217-5.209-5.217-5.209-9.506-.001-9.506-.001zm40.446 22.993v28.212l5.264 5.259 5.263 5.259h9.562 9.562l5.216-5.218 5.215-5.218v-28.253-28.253h-6.405-6.405v25.263 25.262l-1.812 1.804-1.811 1.804h-3.608-3.608l-1.811-1.804-1.812-1.804v-25.262-25.263h-6.405-6.405zm46.487 5.259v33.471h6.405 6.405v-12.5-12.5h8.388 8.388l5.241-5.32 5.24-5.32.008-10.332.008-10.332-5.322-5.319-5.321-5.319h-14.72-14.72zm25.411-18.874 1.862 1.787v4.599 4.598l-1.886 1.776-1.886 1.776h-2.349-2.349l-1.986 4.08c-1.092 2.244-2.4 4.941-2.907 5.992s-.962 1.911-1.011 1.911-.089-6.369-.089-14.153v-14.153h5.369 5.369z" fill="#0c0c0c"/><path d="m136.002 280.114c3.835.031 10.111.031 13.946 0 3.836-.032.698-.058-6.973-.058-7.67 0-10.808.026-6.973.058m27.316.103c-.054.142-.074 8.44-.044 18.44l.055 18.182.05-18.335.051-18.334 8.419-.056 8.42-.057-8.426-.049c-6.587-.039-8.448.007-8.525.209m79.399-.104c2.301.034 6.067.034 8.368 0 2.301-.033.418-.06-4.184-.06s-6.485.027-4.184.06m50.335 171.333c0 1.193.034 1.682.076 1.085.041-.597.041-1.573 0-2.169-.042-.597-.076-.109-.076 1.084" fill="#c8ac1c"/></g></svg>