<svg width="49" height="63" viewBox="0 0 49 63" fill="none" xmlns="http://www.w3.org/2000/svg">
<path id="Vector" d="M17.2734 14C17.2734 13.0717 17.6448 12.1815 18.3059 11.5251C18.967 10.8687 19.8636 10.5 20.7986 10.5C21.7335 10.5 22.6301 10.8687 23.2912 11.5251C23.9523 12.1815 24.3237 13.0717 24.3237 14V29.645L28.5892 30.1L46.0036 37.765C47.8719 38.605 49 40.46 49 42.49V57.75C48.8942 60.62 46.6029 62.895 43.7122 63H20.7986C19.459 63 18.1899 62.475 17.2734 61.495L0 46.795L2.60863 44.1C3.27842 43.365 4.23022 42.98 5.21727 42.98H5.99281L17.2734 49V14ZM20.7986 0C24.5383 0 28.1249 1.475 30.7693 4.1005C33.4137 6.72601 34.8993 10.287 34.8993 14C34.8993 19.25 32.0791 23.695 27.8489 26.11V21.84C29.9993 19.915 31.3741 17.115 31.3741 14C31.3741 11.2152 30.2599 8.54451 28.2766 6.57538C26.2933 4.60625 23.6034 3.5 20.7986 3.5C17.9938 3.5 15.3038 4.60625 13.3205 6.57538C11.3372 8.54451 10.223 11.2152 10.223 14C10.223 17.115 11.5978 19.915 13.7482 21.84V26.11C9.51799 23.695 6.69784 19.25 6.69784 14C6.69784 10.287 8.18345 6.72601 10.8278 4.1005C13.4722 1.475 17.0588 0 20.7986 0Z" fill="black"/>
</svg>
