<svg width="82" height="82" viewBox="0 0 82 82" fill="none" xmlns="http://www.w3.org/2000/svg">
<g id="ic:baseline-insights">
<path id="Vector" d="M71.75 27.3333C66.7958 27.3333 64.0283 32.2533 65.1558 35.9092L53.0267 48.0725C52.0017 47.765 50.4983 47.765 49.4733 48.0725L40.7608 39.36C41.9225 35.7042 39.155 30.75 34.1667 30.75C29.2125 30.75 26.4108 35.67 27.5725 39.36L11.9925 54.9058C8.33667 53.7783 3.41667 56.5458 3.41667 61.5C3.41667 65.2583 6.49167 68.3333 10.25 68.3333C15.2042 68.3333 17.9717 63.4133 16.8442 59.7575L32.39 44.1775C33.415 44.485 34.9183 44.485 35.9433 44.1775L44.6558 52.89C43.4942 56.5458 46.2617 61.5 51.25 61.5C56.2042 61.5 59.0058 56.58 57.8442 52.89L70.0075 40.7608C73.6633 41.8883 78.5833 39.1208 78.5833 34.1667C78.5833 30.4083 75.5083 27.3333 71.75 27.3333Z" fill="black"/>
<path id="Vector_2" d="M51.25 30.75L54.4617 23.6775L61.5 20.5L54.4617 17.3225L51.25 10.25L48.1067 17.3225L41 20.5L48.1067 23.6775L51.25 30.75ZM11.9583 37.5833L13.6667 30.75L20.5 29.0417L13.6667 27.3333L11.9583 20.5L10.25 27.3333L3.41667 29.0417L10.25 30.75L11.9583 37.5833Z" fill="black"/>
</g>
</svg>
