<svg width="150" height="20" viewBox="0 0 150 20" fill="none" xmlns="http://www.w3.org/2000/svg">
<path d="M0.580256 19V0.818181H4.42436V15.8306H12.2191V19H0.580256ZM18.5823 19.2575C17.7123 19.2575 16.9369 19.1065 16.2563 18.8047C15.5757 18.4969 15.0371 18.0442 14.6405 17.4464C14.2499 16.8427 14.0546 16.091 14.0546 15.1914C14.0546 14.4338 14.1937 13.7976 14.4719 13.2827C14.75 12.7678 15.1288 12.3535 15.6082 12.0398C16.0876 11.7261 16.6321 11.4893 17.2417 11.3295C17.8573 11.1697 18.5024 11.0573 19.1771 10.9922C19.9702 10.9093 20.6094 10.8324 21.0947 10.7614C21.58 10.6844 21.9322 10.572 22.1512 10.424C22.3702 10.276 22.4797 10.0571 22.4797 9.76705V9.71378C22.4797 9.15152 22.3021 8.7165 21.947 8.40874C21.5978 8.10097 21.1006 7.94709 20.4555 7.94709C19.7749 7.94709 19.2333 8.09801 18.8309 8.39986C18.4284 8.69579 18.1621 9.06866 18.0319 9.51847L14.534 9.23438C14.7116 8.40578 15.0608 7.68963 15.5816 7.08594C16.1024 6.47633 16.7742 6.00876 17.5969 5.68324C18.4255 5.3518 19.3843 5.18608 20.4733 5.18608C21.2309 5.18608 21.9559 5.27486 22.6483 5.45241C23.3467 5.62997 23.9652 5.90518 24.5038 6.27805C25.0483 6.65092 25.4774 7.13033 25.7911 7.71626C26.1048 8.29628 26.2616 8.99171 26.2616 9.80256V19H22.675V17.109H22.5684C22.3495 17.5352 22.0565 17.911 21.6895 18.2365C21.3226 18.5561 20.8817 18.8076 20.3667 18.9911C19.8518 19.1687 19.257 19.2575 18.5823 19.2575ZM19.6654 16.6474C20.2217 16.6474 20.713 16.5379 21.1391 16.3189C21.5653 16.094 21.8997 15.7921 22.1423 15.4134C22.385 15.0346 22.5063 14.6055 22.5063 14.1261V12.679C22.3879 12.7559 22.2252 12.8269 22.018 12.892C21.8168 12.9512 21.5889 13.0075 21.3344 13.0607C21.0799 13.1081 20.8254 13.1525 20.5709 13.1939C20.3164 13.2294 20.0856 13.262 19.8785 13.2915C19.4346 13.3567 19.0469 13.4602 18.7155 13.6023C18.384 13.7443 18.1266 13.9367 17.9431 14.1793C17.7596 14.4161 17.6679 14.712 17.6679 15.0671C17.6679 15.582 17.8543 15.9756 18.2272 16.2479C18.606 16.5142 19.0854 16.6474 19.6654 16.6474ZM36.449 5.36364V8.20455H28.2369V5.36364H36.449ZM30.1013 2.09659H33.8833V14.8097C33.8833 15.1589 33.9365 15.4311 34.0431 15.6264C34.1496 15.8158 34.2976 15.949 34.4869 16.0259C34.6823 16.1029 34.9072 16.1413 35.1617 16.1413C35.3392 16.1413 35.5168 16.1265 35.6943 16.0969C35.8719 16.0614 36.008 16.0348 36.1027 16.017L36.6975 18.8313C36.5081 18.8905 36.2418 18.9586 35.8985 19.0355C35.5552 19.1184 35.138 19.1687 34.6468 19.1864C33.7353 19.2219 32.9363 19.1006 32.2497 18.8224C31.5691 18.5443 31.0394 18.1122 30.6606 17.5263C30.2818 16.9403 30.0954 16.2005 30.1013 15.3068V2.09659ZM44.9806 19.2663C43.5779 19.2663 42.3705 18.9822 41.3584 18.4141C40.3522 17.84 39.5769 17.0291 39.0324 15.9815C38.4879 14.928 38.2156 13.6822 38.2156 12.244C38.2156 10.8413 38.4879 9.6102 39.0324 8.55078C39.5769 7.49136 40.3434 6.66572 41.3318 6.07386C42.3261 5.48201 43.492 5.18608 44.8296 5.18608C45.7293 5.18608 46.5667 5.33108 47.3421 5.62109C48.1233 5.90518 48.8039 6.33428 49.384 6.90838C49.9699 7.48248 50.4256 8.20455 50.7512 9.07457C51.0767 9.93868 51.2394 10.9508 51.2394 12.1108V13.1495H39.7249V10.8058H47.6794C47.6794 10.2612 47.5611 9.77888 47.3243 9.35866C47.0876 8.93845 46.7591 8.60997 46.3389 8.37322C45.9246 8.13056 45.4422 8.00923 44.8918 8.00923C44.3177 8.00923 43.8087 8.1424 43.3648 8.40874C42.9268 8.66915 42.5835 9.02131 42.335 9.4652C42.0864 9.90317 41.9591 10.3915 41.9532 10.93V13.1584C41.9532 13.8331 42.0775 14.4161 42.3261 14.9073C42.5806 15.3986 42.9387 15.7773 43.4003 16.0437C43.8619 16.31 44.4094 16.4432 45.0427 16.4432C45.4629 16.4432 45.8476 16.384 46.1968 16.2656C46.546 16.1473 46.8449 15.9697 47.0935 15.733C47.3421 15.4962 47.5315 15.2062 47.6617 14.8629L51.1595 15.0938C50.982 15.9342 50.618 16.6681 50.0676 17.2955C49.5231 17.9169 48.8187 18.4022 47.9546 18.7514C47.0964 19.0947 46.1051 19.2663 44.9806 19.2663ZM65.0534 9.25213L61.591 9.4652C61.5318 9.16927 61.4046 8.90294 61.2093 8.66619C61.0139 8.42353 60.7565 8.23118 60.4369 8.08913C60.1232 7.94117 59.7474 7.86719 59.3094 7.86719C58.7235 7.86719 58.2293 7.99148 57.8268 8.24006C57.4243 8.48272 57.2231 8.80824 57.2231 9.21662C57.2231 9.54214 57.3533 9.81735 57.6137 10.0423C57.8741 10.2672 58.321 10.4477 58.9543 10.5838L61.4223 11.081C62.7481 11.3532 63.7365 11.7912 64.3875 12.3949C65.0386 12.9986 65.3641 13.7917 65.3641 14.7741C65.3641 15.6679 65.1007 16.4521 64.574 17.1268C64.0531 17.8015 63.337 18.3282 62.4255 18.707C61.52 19.0799 60.4753 19.2663 59.2916 19.2663C57.4865 19.2663 56.0483 18.8905 54.977 18.1388C53.9117 17.3813 53.2873 16.3514 53.1038 15.0494L56.8236 14.854C56.9361 15.4045 57.2083 15.8247 57.6404 16.1147C58.0724 16.3988 58.6258 16.5408 59.3005 16.5408C59.9634 16.5408 60.4961 16.4136 60.8985 16.1591C61.3069 15.8987 61.5141 15.5643 61.52 15.1559C61.5141 14.8126 61.3691 14.5315 61.085 14.3125C60.8009 14.0876 60.3629 13.916 59.771 13.7976L57.4095 13.3271C56.0779 13.0607 55.0865 12.5991 54.4355 11.9421C53.7903 11.2852 53.4678 10.4477 53.4678 9.42969C53.4678 8.55374 53.7045 7.79912 54.178 7.16584C54.6574 6.53255 55.3292 6.04427 56.1933 5.70099C57.0633 5.35772 58.0813 5.18608 59.2472 5.18608C60.9695 5.18608 62.3249 5.55007 63.3133 6.27805C64.3076 7.00604 64.8876 7.9974 65.0534 9.25213ZM74.9988 5.36364V8.20455H66.7868V5.36364H74.9988ZM68.6511 2.09659H72.4331V14.8097C72.4331 15.1589 72.4863 15.4311 72.5929 15.6264C72.6994 15.8158 72.8474 15.949 73.0368 16.0259C73.2321 16.1029 73.457 16.1413 73.7115 16.1413C73.889 16.1413 74.0666 16.1265 74.2441 16.0969C74.4217 16.0614 74.5578 16.0348 74.6525 16.017L75.2473 18.8313C75.0579 18.8905 74.7916 18.9586 74.4483 19.0355C74.1051 19.1184 73.6878 19.1687 73.1966 19.1864C72.2851 19.2219 71.4861 19.1006 70.7995 18.8224C70.1189 18.5443 69.5892 18.1122 69.2104 17.5263C68.8316 16.9403 68.6452 16.2005 68.6511 15.3068V2.09659ZM98.5273 0.818181V19H95.2069L87.2968 7.55646H87.1636V19H83.3195V0.818181H86.6931L94.5411 12.2528H94.7009V0.818181H98.5273ZM107.847 19.2663C106.444 19.2663 105.237 18.9822 104.225 18.4141C103.218 17.84 102.443 17.0291 101.899 15.9815C101.354 14.928 101.082 13.6822 101.082 12.244C101.082 10.8413 101.354 9.6102 101.899 8.55078C102.443 7.49136 103.21 6.66572 104.198 6.07386C105.192 5.48201 106.358 5.18608 107.696 5.18608C108.595 5.18608 109.433 5.33108 110.208 5.62109C110.99 5.90518 111.67 6.33428 112.25 6.90838C112.836 7.48248 113.292 8.20455 113.617 9.07457C113.943 9.93868 114.106 10.9508 114.106 12.1108V13.1495H102.591V10.8058H110.546C110.546 10.2612 110.427 9.77888 110.191 9.35866C109.954 8.93845 109.625 8.60997 109.205 8.37322C108.791 8.13056 108.308 8.00923 107.758 8.00923C107.184 8.00923 106.675 8.1424 106.231 8.40874C105.793 8.66915 105.45 9.02131 105.201 9.4652C104.953 9.90317 104.825 10.3915 104.819 10.93V13.1584C104.819 13.8331 104.944 14.4161 105.192 14.9073C105.447 15.3986 105.805 15.7773 106.267 16.0437C106.728 16.31 107.276 16.4432 107.909 16.4432C108.329 16.4432 108.714 16.384 109.063 16.2656C109.412 16.1473 109.711 15.9697 109.96 15.733C110.208 15.4962 110.398 15.2062 110.528 14.8629L114.026 15.0938C113.848 15.9342 113.484 16.6681 112.934 17.2955C112.389 17.9169 111.685 18.4022 110.821 18.7514C109.963 19.0947 108.971 19.2663 107.847 19.2663ZM119.166 19L115.455 5.36364H119.281L121.394 14.5256H121.519L123.72 5.36364H127.476L129.713 14.4723H129.828L131.906 5.36364H135.723L132.021 19H128.017L125.673 10.424H125.505L123.161 19H119.166ZM149.087 9.25213L145.624 9.4652C145.565 9.16927 145.438 8.90294 145.242 8.66619C145.047 8.42353 144.79 8.23118 144.47 8.08913C144.156 7.94117 143.781 7.86719 143.343 7.86719C142.757 7.86719 142.262 7.99148 141.86 8.24006C141.458 8.48272 141.256 8.80824 141.256 9.21662C141.256 9.54214 141.387 9.81735 141.647 10.0423C141.907 10.2672 142.354 10.4477 142.987 10.5838L145.456 11.081C146.781 11.3532 147.77 11.7912 148.421 12.3949C149.072 12.9986 149.397 13.7917 149.397 14.7741C149.397 15.6679 149.134 16.4521 148.607 17.1268C148.086 17.8015 147.37 18.3282 146.459 18.707C145.553 19.0799 144.509 19.2663 143.325 19.2663C141.52 19.2663 140.081 18.8905 139.01 18.1388C137.945 17.3813 137.32 16.3514 137.137 15.0494L140.857 14.854C140.969 15.4045 141.242 15.8247 141.674 16.1147C142.106 16.3988 142.659 16.5408 143.334 16.5408C143.997 16.5408 144.529 16.4136 144.932 16.1591C145.34 15.8987 145.547 15.5643 145.553 15.1559C145.547 14.8126 145.402 14.5315 145.118 14.3125C144.834 14.0876 144.396 13.916 143.804 13.7976L141.443 13.3271C140.111 13.0607 139.12 12.5991 138.469 11.9421C137.824 11.2852 137.501 10.4477 137.501 9.42969C137.501 8.55374 137.738 7.79912 138.211 7.16584C138.691 6.53255 139.362 6.04427 140.226 5.70099C141.097 5.35772 142.114 5.18608 143.28 5.18608C145.003 5.18608 146.358 5.55007 147.347 6.27805C148.341 7.00604 148.921 7.9974 149.087 9.25213Z" fill="white"/>
</svg>
