<svg width="72" height="72" viewBox="0 0 72 72" fill="none" xmlns="http://www.w3.org/2000/svg">
<g id="streamline:target-solid" clip-path="url(#clip0_21_58)">
<path id="Vector" fill-rule="evenodd" clip-rule="evenodd" d="M59.0657 1.94914C58.956 1.50701 58.7308 1.10195 58.4132 0.775403C58.0956 0.448858 57.6969 0.212551 57.258 0.090656C56.8191 -0.0312387 56.3557 -0.034345 55.9151 0.081655C55.4746 0.197655 55.0728 0.428597 54.7508 0.750854L44.4651 11.0366C44.1515 11.3509 43.9245 11.7411 43.8065 12.1692C43.6884 12.5973 43.6832 13.0487 43.7914 13.4794L45.6428 20.9057C45.6185 20.9294 45.5945 20.9534 45.5708 20.9777L33.2743 33.2743C32.5929 34.0055 32.222 34.9726 32.2397 35.9718C32.2573 36.9711 32.6621 37.9245 33.3688 38.6312C34.0755 39.3379 35.0289 39.7427 36.0282 39.7603C37.0274 39.778 37.9945 39.407 38.7257 38.7257L51.0326 26.4343C51.0569 26.4089 51.0809 26.3832 51.1046 26.3571L58.5257 28.2137C58.9564 28.3219 59.4078 28.3167 59.8359 28.1987C60.264 28.0806 60.6542 27.8537 60.9686 27.54L71.2543 17.2543C71.5779 16.9324 71.81 16.5303 71.9268 16.0891C72.0435 15.6479 72.0408 15.1835 71.9188 14.7438C71.7968 14.304 71.56 13.9046 71.2326 13.5866C70.9052 13.2686 70.4991 13.0434 70.056 12.9343L61.2668 10.7434L59.0708 1.94914H59.0657ZM37.6303 3.90343C37.7009 4.92361 37.3636 5.9301 36.6923 6.70162C36.0211 7.47314 35.071 7.94653 34.0508 8.01771C28.6776 8.39009 23.5242 10.2972 19.2029 13.5124C14.8817 16.7276 11.5743 21.1158 9.67377 26.1555C7.77324 31.1952 7.35945 36.6746 8.48157 41.9426C9.6037 47.2106 12.2146 52.0457 16.0039 55.8734C19.7933 59.7011 24.6019 62.3605 29.8583 63.5356C35.1147 64.7107 40.598 64.3521 45.6566 62.5024C50.7151 60.6527 55.1364 57.3897 58.3949 53.101C61.6535 48.8124 63.6124 43.6784 64.0388 38.3091C64.12 37.2889 64.6031 36.3427 65.3819 35.6786C66.1607 35.0146 67.1714 34.6871 68.1917 34.7683C69.2119 34.8494 70.1582 35.3326 70.8222 36.1114C71.4863 36.8902 71.8137 37.9009 71.7326 38.9211C71.1883 45.7623 68.6917 52.3034 64.5393 57.7673C60.3869 63.2313 54.7533 67.3884 48.3078 69.7448C41.8623 72.1012 34.8758 72.5579 28.1785 71.0605C21.4811 69.5631 15.3543 66.1746 10.5261 61.2976C5.69779 56.4206 2.371 50.2601 0.940933 43.548C-0.489137 36.8359 0.0376261 29.8544 2.45864 23.4329C4.87965 17.0114 9.09314 11.4198 14.5985 7.3225C20.1039 3.22519 26.6698 0.794374 33.516 0.318854C34.5362 0.248198 35.5427 0.585565 36.3142 1.25679C37.0857 1.928 37.5591 2.88328 37.6303 3.90343ZM34.1743 20.8697C34.3591 21.3414 34.4491 21.845 34.4393 22.3515C34.4295 22.8581 34.32 23.3577 34.117 23.8219C33.914 24.2861 33.6216 24.7058 33.2564 25.057C32.8912 25.4082 32.4604 25.6839 31.9886 25.8686C30.3019 26.5302 28.8067 27.6016 27.6382 28.9862C26.4696 30.3707 25.6644 32.0246 25.2955 33.7983C24.9266 35.5721 25.0055 37.4099 25.5251 39.1455C26.0448 40.8812 26.9887 42.46 28.2717 43.7392C29.5547 45.0184 31.1362 45.9578 32.8733 46.4724C34.6105 46.9869 36.4485 47.0605 38.2212 46.6864C39.9939 46.3123 41.6454 45.5024 43.0265 44.3297C44.4076 43.1571 45.4747 41.6588 46.1314 39.9703C46.3151 39.4982 46.59 39.0669 46.9404 38.7011C47.2908 38.3352 47.7098 38.042 48.1735 37.8381C48.6372 37.6341 49.1365 37.5235 49.643 37.5126C50.1494 37.5017 50.653 37.5906 51.1251 37.7743C51.5972 37.958 52.0285 38.2329 52.3943 38.5832C52.7602 38.9336 53.0534 39.3526 53.2574 39.8163C53.4613 40.28 53.5719 40.7794 53.5828 41.2858C53.5937 41.7923 53.5048 42.2959 53.3211 42.768C52.1995 45.6515 50.3769 48.21 48.0181 50.2122C45.6593 52.2144 42.8387 53.5971 39.8113 54.2355C36.7838 54.8738 33.6451 54.7475 30.6787 53.8681C27.7123 52.9886 25.0119 51.3838 22.8216 49.1985C20.6312 47.0133 19.0201 44.3167 18.1337 41.3524C17.2473 38.3881 17.1136 35.2497 17.7448 32.2207C18.376 29.1918 19.7522 26.368 21.7488 24.0045C23.7455 21.641 26.2997 19.8124 29.1806 18.684C30.1327 18.3124 31.1934 18.3338 32.1297 18.7436C33.066 19.1534 33.8013 19.9181 34.1743 20.8697Z" fill="black"/>
</g>
<defs>
<clipPath id="clip0_21_58">
<rect width="72" height="72" fill="white"/>
</clipPath>
</defs>
</svg>
