<svg id="visual" viewBox="0 0 900 600" width="900" height="600" xmlns="http://www.w3.org/2000/svg" xmlns:xlink="http://www.w3.org/1999/xlink" version="1.1"><rect x="0" y="0" width="900" height="600" fill="#ffffff"></rect><path d="M0 480L37.5 482.5C75 485 150 490 225 477.8C300 465.7 375 436.3 450 431.8C525 427.3 600 447.7 675 448.7C750 449.7 825 431.3 862.5 422.2L900 413L900 601L862.5 601C825 601 750 601 675 601C600 601 525 601 450 601C375 601 300 601 225 601C150 601 75 601 37.5 601L0 601Z" fill="#383838" stroke-linecap="round" stroke-linejoin="miter"></path></svg>